<svg width="133" height="334" fill="none" xmlns="http://www.w3.org/2000/svg"><mask id="mask0_383_3892" style="mask-type:alpha" maskUnits="userSpaceOnUse" x="0" y="0" width="133" height="334"><path fill="#C4C4C4" d="M0 0h133v334H0z"/></mask><g mask="url(#mask0_383_3892)"><path d="M22.843 334c0-5.062.873-11.248 0-15.747-1.31-8.999-5.674-19.122-7.857-28.121-4.801-19.121-8.293-39.93-6.11-60.177 3.055-27.557 15.714-51.741 21.388-78.174 3.492-15.185 4.802-30.37 5.675-46.117.873-14.622 1.746-29.245.436-43.305-.873-7.874-3.492-15.747-3.492-24.183-.436-7.312.437-15.185 1.31-22.496 1.746-16.873 5.674-33.745 7.857-50.617 2.182-19.122 2.619-38.806.873-57.927-.873-10.686-3.492-22.497-10.477-28.121-5.238-4.499-10.476-3.374-16.15-4.499-2.62-.562-3.056 0-5.238-1.687-13.532-12.935-9.167-50.616-4.366-68.613 2.62-10.124 5.239-19.122 6.985-29.245 2.182-12.373 4.801-24.746 6.547-37.119 3.492-21.934 2.62-44.43 2.62-66.926V-396m59.434 730c0-4.499.875-8.998.875-13.498.437-7.311-1.313-14.622-2.188-21.371-2.187-16.872-4.812-33.182-6.562-50.054-3.5-32.619-5.25-66.364-2.625-99.545 2.188-27.558 7.437-55.116 5.688-82.674-.438-8.998-1.75-17.997-.438-26.995 1.312-8.999 4.375-17.435 7-26.433 9.187-32.057 6.124-66.364 1.75-99.546-2.188-16.872-5.25-33.744-7-50.616-2.625-23.621 1.312-51.179-10.937-70.863-4.375-6.749-9.187-13.497-10.5-22.496-1.312-8.998 1.313-18.559 5.25-26.995 11.812-25.871 17.5-51.179 20.124-81.549 1.313-18.559 0-38.806 0-57.365" stroke="#EAE0D1" stroke-miterlimit="10"/><path d="M108.371 334c0-8.449.886-19.151-2.217-27.037-2.216-6.196-7.092-10.702-10.195-16.335C86.649 273.167 80 252.326 80 231.485c0-15.209 3.546-30.417 4.433-45.625.887-10.703.443-21.968 0-32.67 0-21.968-.443-50.695 8.866-70.41 9.752-20.84 13.742-42.808 15.072-66.465 3.103-52.948-6.206-105.332-7.536-157.716-.444-8.449-.444-17.462 1.33-25.347.886-6.196 2.659-11.829 3.989-17.462 5.32-26.474 0-54.074-3.99-81.111-1.773-12.955-3.103-26.474-2.216-39.992.443-6.76.887-13.519 2.66-19.715 1.33-5.069 3.546-9.575 4.433-14.645 2.659-13.518.886-26.474.886-39.992V-396M61.153 334c-.872-25.269-2.615-51.662-8.718-75.808-2.615-10.669-6.538-20.777-9.153-31.446-3.487-14.038-5.667-28.638-5.231-43.238 1.308-40.993 23.538-79.177 20.922-120.17-.871-14.6-4.794-28.077-5.666-42.676-2.615-38.747 15.692-75.808 13.512-114.554-.436-10.108-2.615-19.654-3.923-29.2-2.615-17.97-4.358-31.446-13.512-46.608-3.051-5.054-7.846-11.231-12.64-8.423-3.052 1.685-4.36 6.738-5.667 11.231-1.308 4.492-3.923 8.984-7.41 8.423-4.36-.562-5.667-7.862-5.667-13.477.872-19.654 6.102-39.308 15.256-55.593 2.18-3.93 4.359-7.299 6.538-11.792 7.41-16.284 5.667-35.938 6.975-55.031.871-15.161 3.487-30.323 8.281-44.923 6.103-19.092 6.103-35.938 6.103-56.715" stroke="#EAE0D1" stroke-miterlimit="10"/><path d="M119.179 334c0-26.453-9.232-45.027-14.947-70.355C98.517 238.88 95.44 212.99 95 187.1c0-9.569 3.077-23.077 10.551-21.951 2.198.563 4.396 2.251 7.034 2.251 3.077 0 5.275-3.377 6.594-6.754 13.188-27.016 10.99-62.475 5.715-93.43-6.155-34.334-13.628-68.104-9.672-103.563 2.638-23.076.88-42.776.88-65.289 0-34.333 17.145-64.726 15.826-96.808-.88-24.202-7.474-46.153-15.387-68.103-8.353-23.64-5.715-37.148-.44-61.35 4.397-20.825 3.078-46.715 3.078-68.103" stroke="#EAE0D1" stroke-miterlimit="10"/><path d="M10.219 85.038h.876c.875 0 1.751 0 2.627.44.876.44 2.19.44 3.066.44 2.19.44 4.379.44 6.13 1.761.438.44 1.314.88 1.314 1.32.438.44.876 1.32 1.314 1.76.438.44.876.441 1.313.881.438.44.438.88.876.88.438.44.438 1.32.876 1.76.438.44.438 1.321.876 1.761 0 .88.438 1.32.438 2.2.438.44.876.88 1.313 1.761.438.44 0 .88 0 1.32 0 1.321 0 3.081.438 4.402 0 .88.438 1.32.876 1.76l.876.88c1.314.88 2.19 2.201 2.19 3.961 0 0-.438 0-.438-.44v-.44c0-.88-.876-1.76-1.752-2.201-.876-.44-1.752-.44-2.627-.44-3.066 0-6.131.44-9.634.44-3.066 0-5.693-1.76-7.883-3.961-1.751-1.76-3.065-3.52-4.379-5.721 0-.44-.438-.44-.438-.88v-1.76c0-.88 0-1.32-.438-2.201-.438-.44-.875-.88-.875-1.32V90.32c0-1.32-.438-3.081 0-4.401.437-.88-.438-1.76 0-2.2 1.313 0 1.751 1.32 3.065 1.32-.438 0-.438 0 0 0z" fill="#73A697"/><path d="M120.134 33.546c-3.941 0-7.882.44-11.386 0-2.627-.44-5.254-1.32-7.444-2.2-.876-.44-1.752-.44-2.627-1.321-.876-.44-1.314-.88-1.752-1.32-1.314-.88-2.627-1.76-3.503-3.521-.438-.88-1.314-2.2-1.752-3.081-.876-.88-.876-1.76-1.314-3.08v-.44l-.438-.441c-1.313-.44-1.751-1.76-2.627-3.08-.438-.881-.438-1.761-.438-2.641v-2.2c-.876-.441-1.314-.881-2.19-1.321 0-.44.438-.44.438-.44.438 0 .438 0 .876.44s.876.44 1.314.88c.876-.44 1.314-1.32 1.752-1.76.875-.44 1.751-.88 2.627-.88h1.752c.438 0 .438-.44.876-.44.875-.44 1.313 0 1.751 0h2.19c1.751 0 3.065.44 4.817.44 2.627.44 5.692 1.32 7.882 3.08 3.065 2.2 5.693 5.281 7.882 8.362.438.88.876 1.32 1.314 2.2.438.44.876.88.876 1.761v.88c0 .44 0 .44.438.88 0 .44.438.44.438.88.438.88.438 1.321.438 2.201 0 .88.438 1.32.438 1.76 0 1.32.875 2.201 1.751 3.522.438.44.438.88.876 1.32 0 .44.438 1.32-.438 1.32-.438 0-.876-.44-1.314-.44-.875-.88-2.189-.88-3.503-1.32zM40.736 175.48c.29 0 .29.28.579.56s.578.28.578.56c.578.28.289.56 1.156.84.579 0 1.446 0 2.024.28.29 0 .868.28 1.157.28.29 0 .578-.84.29-.84 1.445 0 2.89.28 4.336-.28 1.157-.56 2.024-1.4 3.18-1.68h.579s.29-.28.29-.56c.288-.56 1.156-.56 1.734-1.12.29 0 .578-.28.578-.56s-.289-.28-.289-.56c0-.56.578-.84 1.157-1.12.867-.56.289-1.12.867-1.96.29-.28.578-.56.867-1.12.29-.56 0-1.12 0-1.68 0-.28.29-.56.579-.84.289-.56 0-1.4.289-1.96.578-2.24 1.157-4.76 2.313-6.72-1.735 0-3.47.28-5.205.28-1.445 0-2.602.28-4.047.28-1.157 0-2.313.28-3.47.56-1.735.56-3.47 1.4-4.916 2.52-.289-.28-.867 0-1.445.28-.29.28-.578.84-.868 1.12-.578.56-1.445.84-1.734 1.68-.29.28-.29.84-.29 1.12-.289.28-.578.84-.867.84 0 .56 0 3.08-.578 3.36h-.578s-.29.28-.29.56c0 1.68-.867 4.2.868 5.32l.289.28-.29.28c-.578.28-2.023 1.96-1.445 2.52.578-.84 1.735-2.8 2.602-2.52z" fill="#EAE0D1"/><path d="M124.824 130.504c.073-.382.443-.311.886-.622s.516-.692.885-.622c.516-.692.813-.24 1.402-1.314.146-.763.366-1.908.882-2.601.073-.381.589-1.074.662-1.455.073-.382-.962-.976-1.035-.595.365-1.908 1.101-3.745.728-5.796-.447-1.668-1.336-3.026-1.413-4.623l.147-.764s-.297-.452-.666-.523c-.667-.523-.447-1.668-1.04-2.574.073-.381-.223-.834-.593-.905-.369-.071-.442.311-.812.24-.739-.142-.962-.976-1.186-1.81-.519-1.287-1.405-.665-2.367-1.641-.297-.453-.593-.905-1.259-1.429-.666-.523-1.479-.283-2.218-.425-.37-.071-.666-.523-.962-.976-.666-.523-1.848-.354-2.515-.878-2.81-1.33-5.99-2.731-8.285-4.754-.439 2.29-.508 4.651-.947 6.941-.366 1.908-.29 3.506-.655 5.414-.293 1.527-.216 3.125-.139 4.722.3 2.432.969 4.935 2.082 7.127-.443.31-.22 1.145.004 1.979.296.452.962.976 1.258 1.428.593.905.743 2.121 1.779 2.716.296.452 1.036.594 1.405.665.297.452.963.976.889 1.357.74.142 4.066.78 4.289 1.614l-.146.764s.296.452.666.523c2.218.425 5.325 2.208 7.242.202l.443-.311.296.452c.224.835 2.075 3.168 2.961 2.547-.962-.976-3.257-2.999-2.668-4.073zM67.147 246.117l-.876 2.201-.438.44s-.438.44-.438.88c-.437 1.32-1.313 2.201-1.751 3.521-.438 1.32-.876 2.641-.876 3.961v2.2c0 .441 0 .881.438.881l.438.44v3.081c.438.88.876 1.32 1.314 2.2.438.88.438 1.76.876 2.641-.876-1.321-2.19-2.641-3.504-3.961-1.313-.881-3.065-2.201-4.817-2.641-.438 0-.876-.44-1.313-.44h-.876c-.876 0-1.314-.44-1.752-.44-.876-.44-1.752-.44-2.19-.44-.875 0-1.313.44-1.751.44h-.876c-.438 0-.438.44-.438.44h-.876c-.438 0-.438.44-.876 0v.44c.438.44.438.88.438 1.32 0 .881.438 1.321.438 2.201 0 .88 0 1.76.438 2.641 0 .44 0 .88.438.88 0 .44.438.44.438.88v.44s0 .44.438.44c.438.88.876 1.321 1.752 2.201l.438.44v.44l1.313 1.32c.438.44 1.314.44 1.314.881.438.88.438 1.32.876 1.76.438.44 1.313.44 1.751.88 1.314.44 1.752 1.761 2.628 2.201 1.314.88 2.627.88 3.941 1.32 2.627.88 5.255 1.32 7.444 2.641 2.19 1.32 3.504 3.08 4.817 5.281.438.88.876 2.2 1.314 3.081 0 .44.438 1.32.438 1.76.438 1.761 1.314 3.081 1.314 4.841-.438-.44-.876-.44-.876-.88-.438-.44-.876-.88-1.314-.88 0 0-.438 0-.438-.44v-.44l-1.313-2.641c-.438-.44-.876-1.32-1.314-1.76-.438-.881-1.314-1.321-1.752-1.761l-2.19-2.2c-.437-.881-1.313-1.321-2.189-1.761-.438 0-.876-.44-1.314-.88-.437-.44-.875-.44-1.751-.88-2.19-.88-4.817-1.321-7.007-1.761H54.01c-.876 0-1.752.44-2.627.881-2.19.88-3.942 1.32-6.131 2.2 1.751.44 2.627 2.641 3.503 4.401a13.376 13.376 0 003.503 3.521c2.628 1.76 5.255 3.521 8.32 4.841 1.314.44 3.066 1.321 4.38 1.761 1.313.44 3.065.88 4.817.88 1.313 0 2.19-.88 3.503-1.32.876-.441 1.752-.881 2.627-1.761l.438-.44h.438c.438.44.876.44.876.88.438.44.876.44.876.88.438.441.438 1.321.438 2.201.438 1.76.438 3.521.876 4.841.438 1.761 1.313 3.081 1.751 4.841h.438c-.438 0-.438-1.76-.438-1.76 0-.44 0-.88-.438-1.32 0-.441-.438-.441-.438-.881-.438-.88-.875-1.32-.875-2.2 0-.88-.438-1.761-.438-2.641-.438-1.76-.876-3.521-.876-5.281v-.88c.438-.881 1.314-1.321 1.751-2.201.438-.44.876-.88 1.314-.88h.876c.876 0 1.314-.44 2.19-.88.438-.44.438-.881.875-.881.876-.88 2.19-.44 3.066-.88 1.313-.44 2.19-.88 3.065-1.76.876-.88 1.752-1.761 2.19-2.641.438-.88 1.313-1.76 1.313-2.64v-.881c0-.44.438-.44.438-.88v-2.641c0-.88 0-2.2-.438-3.08 0-.88-.438-1.761-.876-2.201-.437-.88-1.313-1.76-1.751-2.64 0-.441-.438-.441-.438-.881-.876-1.76-1.752-3.521-2.627-4.841 0 0 0-.44-.438-.44h-.438c-.876.44-2.19.88-3.066.88-.876.44-1.751.44-3.065.881-.438 0-.876.44-1.314.44-.438.44-.438.44-1.313.44h-.438c-.438 0-.438.88-.438.88-.438.44-.876.44-1.314.44-.876.44-1.752 1.32-2.19 2.201-.437.88-.875 1.76-1.313 3.08 0 .44-.438.881-.438 1.321 0 1.76.438 3.521 1.314 5.281l2.627 5.281c.876 1.321 1.314 3.081 1.314 4.841 0 1.761-.876 3.521-2.19 3.961-.438-.88-.876-2.2-.876-3.08l-1.313-2.641c-1.314-2.201-2.19-4.841-2.628-7.482-.438-2.641-.438-5.281-1.314-7.922 0-.44-.437-1.32-.437-1.76 0-.88.438-1.321.875-1.761.438-.44.876-.88.876-1.76.876-1.32.438-2.641.876-3.961.438-.44.438-.88.876-1.32.438-.881.438-1.761.438-3.081 0-.88 0-1.761-.438-2.641v-.88c0-.44-.438-.88-.876-1.32l-1.314-2.641-.438-.44c-.438-.44 0-.88-.438-1.761l-3.94-5.281-.439-.44s-.438 0-.438-.44c1.752 2.201 1.752 1.32 1.314.88zm0 25.086c.438 0 .438.44.876.881l.438.44c.438.44 1.314.88 1.752 1.32.438.44.875.44.875.88 0 0 0 .44.438.88.438.881.438 2.201.876 3.081.438 1.321.438 2.201.876 3.521.438 1.76.876 3.961 1.314 6.162-.438 0-1.752-1.321-1.752-1.321-.438-.44-.876-.44-.876-.88-.438 0-.438-.44-.438-.88v-.88c0-1.321 0-2.201-.438-3.081 0-.88-.438-1.321-.438-2.201 0-.44-.437-.44-.437-.88v-.88l-3.066-6.162z" fill="#73A697"/></g></svg>