<svg width="133" height="334" fill="none" xmlns="http://www.w3.org/2000/svg"><mask id="mask0_383_3911" style="mask-type:alpha" maskUnits="userSpaceOnUse" x="0" y="0" width="133" height="334"><path transform="matrix(-1 0 0 1 133 0)" fill="#C4C4C4" d="M0 0h133v334H0z"/></mask><g mask="url(#mask0_383_3911)"><path d="M110.157 593c0-5.062-.873-11.248 0-15.747 1.309-8.999 5.674-19.122 7.857-28.121 4.801-19.121 8.293-39.93 6.111-60.177-3.056-27.557-15.714-51.741-21.389-78.174-3.492-15.185-4.802-30.37-5.675-46.117-.873-14.622-1.746-29.245-.436-43.305.873-7.874 3.492-15.747 3.492-24.183.436-7.312-.437-15.185-1.31-22.496-1.746-16.873-5.674-33.745-7.857-50.617-2.182-19.121-2.619-38.806-.873-57.927.873-10.686 3.492-22.497 10.476-28.121 5.239-4.499 10.477-3.374 16.151-4.499 2.619-.562 3.056 0 5.238-1.687 13.532-12.935 9.167-50.616 4.366-68.613-2.62-10.123-5.239-19.122-6.985-29.245-2.182-12.373-4.801-24.746-6.547-37.119-3.492-21.934-2.619-44.43-2.619-66.926V-137M50.722 593c0-4.499-.875-8.998-.875-13.498-.437-7.311 1.313-14.622 2.188-21.371 2.187-16.872 4.812-33.182 6.562-50.054 3.5-32.619 5.25-66.364 2.625-99.545-2.188-27.558-7.438-55.116-5.688-82.674.438-8.998 1.75-17.997.438-26.995-1.313-8.999-4.375-17.435-7-26.433-9.187-32.057-6.124-66.364-1.75-99.546 2.188-16.872 5.25-33.744 7-50.616 2.625-23.62-1.312-51.179 10.937-70.863 4.375-6.749 9.187-13.497 10.5-22.496 1.312-8.998-1.313-18.56-5.25-26.995-11.812-25.87-17.5-51.179-20.124-81.549-1.313-18.56 0-38.806 0-57.365" stroke="#EAE0D1" stroke-miterlimit="10"/><path d="M24.63 593c0-8.449-.887-19.151 2.216-27.037 2.216-6.196 7.092-10.702 10.195-16.335C46.351 532.167 53 511.326 53 490.485c0-15.209-3.547-30.417-4.433-45.625-.887-10.703-.443-21.968 0-32.67 0-21.968.443-50.695-8.866-70.409-9.752-20.841-13.742-42.809-15.072-66.466-3.103-52.948 6.206-105.332 7.536-157.716.444-8.449.444-17.462-1.33-25.348-.886-6.196-2.66-11.828-3.99-17.46-5.319-26.475 0-54.075 3.99-81.112 1.774-12.955 3.103-26.474 2.217-39.992-.443-6.76-.887-13.519-2.66-19.715-1.33-5.07-3.546-9.575-4.433-14.645-2.66-13.518-.886-26.474-.886-39.992V-137m46.774 730c.872-25.269 2.615-51.662 8.718-75.808 2.615-10.669 6.538-20.777 9.153-31.446 3.487-14.038 5.667-28.638 5.231-43.238-1.308-40.993-23.538-79.177-20.922-120.17.871-14.6 4.794-28.077 5.666-42.677 2.615-38.746-15.692-75.807-13.512-114.553.436-10.108 2.615-19.654 3.923-29.2 2.615-17.97 4.359-31.446 13.512-46.608 3.051-5.054 7.846-11.23 12.64-8.423 3.052 1.684 4.36 6.738 5.667 11.23 1.308 4.493 3.923 8.985 7.41 8.424 4.359-.562 5.667-7.862 5.667-13.477-.872-19.654-6.102-39.308-15.256-55.593-2.18-3.93-4.359-7.3-6.538-11.792-7.41-16.284-5.667-35.938-6.975-55.03-.871-15.162-3.487-30.324-8.281-44.924-6.103-19.092-6.103-35.938-6.103-56.715" stroke="#EAE0D1" stroke-miterlimit="10"/><path d="M13.821 593c0-26.453 9.232-45.027 14.947-70.355C34.483 497.88 37.56 471.99 38 446.1c0-9.569-3.077-23.077-10.55-21.951-2.199.563-4.397 2.251-7.035 2.251-3.077 0-5.275-3.377-6.594-6.754-13.188-27.016-10.99-62.475-5.715-93.431 6.155-34.333 13.628-68.103 9.672-103.562-2.638-23.076-.88-42.776-.88-65.289 0-34.333-17.145-64.726-15.826-96.808.88-24.202 7.474-46.153 15.387-68.103 8.352-23.64 5.715-37.148.44-61.35C12.501-89.722 13.82-115.612 13.82-137" stroke="#EAE0D1" stroke-miterlimit="10"/><path d="M135.918 139.829c1.314 0 3.066.44 3.941 1.32l.438.44h.876c.876 0 1.752.88 2.628 1.32 1.313.44 2.189.44 3.503.881 1.314.88 3.065 2.2 2.627 3.96 0 .881-.876 1.321-1.313 1.761l-.876.88c0 .44.438.88 0 .88-.438.44-.876.44-1.314.881-.876.88-1.314 2.2-2.19 3.08-.875.44-1.751 1.321-2.627 2.201-1.314.44-2.19 1.32-3.503 1.76-.438 0-.876.44-1.314.44-.438 0-1.314.44-1.752.44-.438 0-.875.441-1.313.441h-1.314c-.438 0-2.19 0-2.19-.441.438.881 1.314.441 1.752.881.438.44 0 .88.438 1.32.438.88 1.314.88 1.752 1.76 0 .44 0 .44.437.881.876.88 1.314 2.2 2.19 3.52.438.881.438 1.321.438 2.201v1.32s0 .44.438.44v.441c0 .88 1.314 1.76 2.189 1.76-.438.44-.875.88-1.313.88-.438.44-1.314.44-1.752.44-.876 0-1.752 1.321-2.627 1.321-2.19 0-4.38 1.32-7.007 1.32-.438 0-2.627 0-2.627.44 0 0 0 .44-.438.44-.438-.44-.876-.44-1.314-.44-.438-.44-.438-.88-.876-.88-.876-.44-1.314 0-2.189-.88-.876-.881-1.314-2.201-2.19-3.081-.438-.44-.876-.88-.876-1.761-.438-1.32-1.313-2.64-1.751-4.401-.438-.88 0-2.2 0-3.52 0-.881-.438-1.761-.438-2.641 0-.44 0-1.32-.438-1.761 0 0-.438-.44-.876-.44-.438-.44-1.314-.88-2.19-.88 0 .44 0 .88-.437.88-.438 0-.876.44-.876.44-.438.441-.438.881 0 .881 0 0 .438 0 .438.44v.44c.438 3.521.438 6.601.438 10.122v.44h-.438c-.438 0-.438.441-.438.881v1.32c0 .44-.438.44-.438.44-.876 1.32-1.314 3.521-2.628 4.401-.438 0-.438.44-.875.44-.438.44-.438 1.321-.876 1.761-.876 1.32-2.19 1.76-3.066 2.2-.875.44-2.627.88-3.503 1.761-.876.88-1.752 1.76-3.065 2.64-.438-.88.438-1.76.438-2.64 0-.881-.438-1.321-.876-2.201 0-.44-.438-.88-.438-1.32 0-.44-.438-.88-.438-1.761-.438-.88-.876-2.2-.438-3.08.438-1.761 1.314-3.521 1.752-5.282.438-1.32.438-2.64.876-3.961.437-1.32.875-1.76 1.751-2.64.876-1.761 1.752-2.641 3.503-3.521.438-.44.876-.44.876-.88.438 0 .438-.44.876-.44 1.314-.441 3.065-.881 4.379-1.321.438 0 .876-.44 1.314-.44h.876c.438 0 .876-.44 1.313-.44.438 0 .438-.44.438-.88s-.875-.44-1.313-.88c-1.314-.881-3.504-.881-5.255-.881-.438 0-.438 0-.876-.44s-1.314 0-1.314-.44l-.438-.44h-.438c-.438 0-1.313-.44-1.751-.44-.438 0-.876 0-.876-.44-.438 0-.438-.44-.438-.88.438 0 .876.44 1.314.44.876 0 .876 0 1.751.44.876.44 1.752.88 3.066 1.32h.438c1.751.44 3.503.44 5.255 1.32.437 0 1.313.441 2.189.441h.438l.438-.441c.438-.44.876-.44.876-.88.438-.44.438-.88.438-1.32 0-.44.438-1.32.875-1.76.438-1.321 1.314-2.641 1.752-3.521.438-.881 1.314-2.201 2.19-3.081.875-.88 1.751-1.32 2.627-1.76.876-.441 1.752-.881 2.19-1.321.875-.88 2.189-1.32 3.065-1.76 1.314-.881 1.752-1.321 3.503-.44.876.44 1.752 0 2.19 0 .438 0 1.314-.881 2.627-.44zm-21.457 16.724l-1.314 1.32h-.876c-.438 0-.438.44-.438.44 0 .44.438.44.876.44l.438.44h.876v.44h.876c1.313-.44 2.627-.88 3.503-1.32.438-.44.876-.44.438-.88s-1.314-.44-1.752-.44h-.876c-.438 0-.875-.44-1.313-.44h-.438z" fill="#73A697"/><path d="M45.065 72.042h1.752c.876 0 1.752.44 3.065.44h1.752c1.314-.44 2.19-.88 3.503-.44h.438l.438-.44h.876c1.313.44 3.065-.88 3.94-1.32.877-.44 2.19-.88 3.066-1.761.876-.88 1.314-2.2 2.19-3.08.438-.44 1.314-.881 1.314-1.761.438-.44.438-.88.875-1.32.438-.44.876-1.32.876-2.201 0-.88 0-1.76.438-2.64.438-.44 0-.44 0-.88v-1.321c.876-3.08 0-6.162-.876-9.242.438 0 .876-.44 1.314-.88 0 0-.438-.44-.438 0l-.438.44c-.876.88-2.627.88-3.941.88s-3.065.44-4.38.88c-1.75.44-3.064.88-4.816 1.76-1.314.44-2.19 1.32-3.503 1.76-1.314.44-2.19 1.761-3.066 2.201-.876.88-2.19 1.76-2.627 3.081-.438 1.76-1.314 3.08-2.19 4.841 0 .44-.438.88-.438 1.32 0 .88-.438 1.76-.438 2.201v.88c0 .88-.437 1.32-.437 2.2 0 1.321-.438 2.641-1.314 3.962v.44c0 .88 2.19 0 3.065 0z" fill="#EAE0D1"/><path d="M49.511 252.928c0-.441.438-.881.876-1.321.438-.88.876-1.32 1.314-2.2.438-.44.438-.881.438-1.321.438-1.32 0-2.2.876-3.08v-.881s0-.44.438-.44c.875-.88.437-2.64.437-3.961 0-.88 0-2.2-.438-3.08-.437-.881-1.313-1.761-1.751-2.641-.438-.44-.438-1.32-.876-1.761-.438-.44-.438-.44-.876-1.32-.438-.88-.876-1.32-1.313-1.32-.438-.44-1.752-.44-1.752-1.321 0-.44-.438-.44-.876-.44s-.876-.44-1.314-.88c-2.19-1.76-4.817-2.2-7.882-2.641 0-.44 0-.88-.438-1.32 0 0-.438 0-.438.44v.44c.438 1.321 0 2.201-.438 3.521-.438 1.321-.438 2.641-.876 3.961-.438 1.32-.438 3.081-.438 4.401v3.521c0 1.32.438 2.201.876 3.521.438 1.32.876 2.201 1.752 3.081.876.88 1.752 2.2 3.065 3.521.438.44.438.88.876.88.438.44.876.88 1.752 1.32h.876c.438 0 .875.88 1.751.88 1.314.441 2.19 1.321 2.628 2.201 1.751 1.32 1.751-1.32 1.751-1.76z" fill="#73A697"/><path d="M12.866 292.546c3.941 0 7.882.44 11.385 0 2.628-.44 5.255-1.321 7.445-2.201.876-.44 1.751-.44 2.627-1.32.876-.44 1.314-.88 1.752-1.32 1.314-.881 2.627-1.761 3.503-3.521.438-.881 1.314-2.201 1.752-3.081.876-.88.876-1.76 1.314-3.081v-.44l.438-.44c1.313-.44 1.751-1.76 2.627-3.081.438-.88.438-1.76.438-2.64v-2.201c.876-.44 1.314-.88 2.19-1.32 0-.44-.439-.44-.439-.44-.437 0-.437 0-.875.44s-.876.44-1.314.88c-.876-.44-1.314-1.32-1.752-1.76-.876-.441-1.751-.881-2.627-.881h-1.752c-.438 0-.438-.44-.876-.44-.875-.44-1.313 0-1.751 0h-2.19c-1.751 0-3.065.44-4.817.44-2.627.44-5.692 1.321-7.882 3.081-3.065 2.201-5.693 5.281-7.883 8.362-.437.88-.875 1.32-1.313 2.201-.438.44-.876.88-.876 1.76v.88c0 .44 0 .44-.438.881 0 .44-.438.44-.438.88-.438.88-.438 1.32-.438 2.2 0 .88-.438 1.321-.438 1.761 0 1.32-.875 2.2-1.751 3.52-.438.441-.438.881-.876 1.321 0 .44-.438 1.32.438 1.32.438 0 .876-.44 1.314-.44.875-.88 2.19-.88 3.503-1.32zM116.613 37.232c-.248.15-.103.389-.206.778-.102.39-.35.539-.205.778-.35.54.042.63-.556 1.318-.494.299-1.237.747-1.587 1.286-.247.15-.598.688-.845.838-.248.15-.929-.42-.682-.57-1.237.748-2.33 1.735-3.857 2.004-1.279.119-2.456-.152-3.591.207l-.495.299s-.392-.09-.537-.33c-.537-.33-1.279.119-2.064-.061-.247.15-.64.06-.784-.18-.145-.24.102-.39-.043-.63-.289-.479-.929-.42-1.569-.36-1.032-.03-.826-.809-1.756-1.229-.392-.09-.784-.18-1.322-.51-.537-.33-.579-.958-.868-1.438-.145-.24-.537-.33-.93-.42-.537-.33-.724-1.198-1.26-1.527-1.654-1.618-3.453-3.476-5.456-4.556 1.485-.897 3.114-1.554 4.6-2.452 1.237-.747 2.371-1.106 3.609-1.853.99-.599 2.124-.957 3.259-1.316 1.774-.418 3.693-.596 5.51-.385.103-.39.742-.448 1.382-.508.393.09.93.42 1.322.51.784.18 1.672-.029 2.354.54.392.09.681.57.826.81.393.09.93.42 1.177.27.29.48 1.593 2.636 2.233 2.577l.495-.3s.392.09.537.33c.869 1.438 2.914 3.146 2.009 5.002l-.103.39.392.09c.64-.06 2.746.63 2.541 1.409-.929-.42-2.933-1.5-3.53-.811z" fill="#EAE0D1"/></g></svg>