<svg width="25" height="13" fill="none" xmlns="http://www.w3.org/2000/svg"><path d="M2.719 5.087c1.656-1.038 3.196-2.262 4.784-3 1.22-.507 2.557-.83 3.709-1.037.484-.046.852-.277 1.452-.138.484-.045.784.024 1.084.094.784.023 1.568.047 2.4.556.416.255 1.132.579 1.548.833.6.14.832.51 1.364.949l.116.185.3.07c.669-.162 1.2.278 1.916.602.416.254.649.624.88.994l.58.925c.484-.046.784.023 1.268-.022.116.185-.068.3-.068.3-.184.115-.184.115-.484.046-.3-.07-.484.046-.784-.024-.252.416-.204.901-.272 1.202-.252.415-.504.831-.872 1.062l-.736.462c-.184.115-.068.3-.252.415-.253.416-.553.347-.737.462l-.92.577c-.736.462-1.404.623-2.14 1.084-1.22.508-2.74.946-4.125.783-1.868-.117-3.784-.72-5.516-1.437-.416-.255-.716-.324-1.132-.579-.3-.07-.6-.139-.832-.509l-.232-.37c-.116-.185-.116-.185-.416-.254-.116-.185-.3-.07-.416-.255-.416-.254-.532-.44-.764-.81-.232-.37-.532-.439-.648-.624-.348-.554-.948-.694-1.664-1.018-.3-.07-.416-.254-.716-.324-.116-.185-.532-.44-.164-.67.184-.115.484-.046.668-.161.6.139 1.152-.207 1.82-.369z" fill="#E8E4DE"/></svg>