<svg width="61" height="11" fill="none" xmlns="http://www.w3.org/2000/svg"><path fill-rule="evenodd" clip-rule="evenodd" d="M57.7 5.93C31.85 20.143 26.27-4.794 5.936 2.57c-.77.259-2.245.905-3.464 1.422-.385.194-1.604.646-1.924.84-.578.258-.642.129-.45-.388.193-.452.385-.969.706-1.357.32-.323 1.09-.581 1.668-.775C3.754 1.795 5.358 1.214 6.256.956c20.526-5.944 24.44 18.411 51.702 2.842.577-.323.577-.323 1.218.065l.45.258c.769.388.577.517-.065.904-.513.13-1.283.582-1.86.905z" fill="#E0C18D"/></svg>