<svg width="24" height="24" fill="none" xmlns="http://www.w3.org/2000/svg"><g clip-path="url(#clip0_277_2387)" stroke="#23514C" stroke-miterlimit="10" stroke-linecap="round"><path d="M1.8 21.1h12.1c2.2-.2 4.2-.7 5.9-2.3.8-.8 1.5-1.7 1.9-2.6.4-.8.6-1.6.7-2.4.2-1.8-.7-4.7-1.7-6.2-.7-1-1.6-1.9-2.7-2.5-5.1-2.9-11.5-2-14.4 3.5 3.1-.2 6.3.2 9.5.9 1.1.2 1.7 1.1.7 2.1-3.7 4.1-8.3 3.7-13.3 4 0 2.1.4 3.9 1.3 5.5zM4.5 8.6c-1.7 2.3-2.5 4.7-3.2 7m10.1-6.4l-4.2 6m10.4-2.6c1.5-1 2.8-2.4 3.6-4.3"/></g><defs><clipPath id="clip0_277_2387"><path fill="#fff" transform="translate(0 3)" d="M0 0h23v18.6H0z"/></clipPath></defs></svg>