<svg width="24" height="24" fill="none" xmlns="http://www.w3.org/2000/svg"><g clip-path="url(#clip0_277_2392)" stroke="#23514C" stroke-miterlimit="10" stroke-linejoin="round"><path d="M10 1.5c.5.5 1.3.6 2.3.6 1 0 1.8-.2 2.3-.6 2.4 0 3.8 1.3 4.4 3.6.8 3.1.9 6.3 1.1 9.5-.8 0-1.5-.1-2.3-.1-.6-2.6-1.1-5.1-1.7-7.7v16.7H13c-.3-3.4-.5-6.7-.8-10.1-.3 3.4-.5 6.7-.8 10.1H8.3c0-5.6 0-11.2.1-16.7-.6 2.6-1.1 5.1-1.7 7.7-.8 0-1.5.1-2.3.1.2-3.2.3-6.3 1.1-9.5.7-2.3 2.1-3.6 4.5-3.6zm2.3 11.9V2.1"/></g><defs><clipPath id="clip0_277_2392"><path fill="#fff" transform="translate(4 1)" d="M0 0h16.6v23H0z"/></clipPath></defs></svg>