<svg width="22" height="22" fill="none" xmlns="http://www.w3.org/2000/svg"><path fill-rule="evenodd" clip-rule="evenodd" d="M7.63 3h6.74A4.643 4.643 0 0119 7.63v6.74A4.643 4.643 0 0114.37 19H7.63A4.643 4.643 0 013 14.37V7.63A4.643 4.643 0 017.63 3zm0 1.424h6.74a3.216 3.216 0 013.206 3.207v6.738a3.216 3.216 0 01-3.207 3.207H7.631a3.216 3.216 0 01-3.207-3.207V7.631a3.216 3.216 0 013.207-3.207zM11 6.89A4.108 4.108 0 0115.11 11 4.108 4.108 0 0111 15.11 4.108 4.108 0 016.89 11 4.108 4.108 0 0111 6.89zm0 1.418a2.691 2.691 0 11.001 5.383A2.691 2.691 0 0111 8.308zm4.392-.677a.937.937 0 01-.935-.935c0-.515.414-.935.935-.935.515 0 .935.42.935.935 0 .514-.42.935-.935.935z" fill="#73A697"/></svg>