<svg width="14" height="14" fill="none" xmlns="http://www.w3.org/2000/svg"><path d="M11.092 8.507c-.434-.428-.975-.428-1.406 0-.329.326-.657.652-.98.983-.089.091-.163.11-.271.05-.213-.116-.44-.21-.644-.337-.953-.6-1.751-1.37-2.458-2.237-.351-.431-.663-.893-.881-1.412-.045-.105-.036-.174.05-.26.328-.317.648-.643.972-.97.45-.452.45-.983-.003-1.438-.257-.26-.514-.514-.77-.774-.266-.265-.528-.533-.796-.795-.434-.423-.976-.423-1.406.002-.332.326-.65.66-.987.981a1.6 1.6 0 00-.502 1.08c-.053.688.116 1.337.353 1.97.486 1.309 1.227 2.472 2.124 3.538a13.145 13.145 0 004.354 3.406c.762.37 1.552.655 2.411.702.592.033 1.105-.116 1.517-.578.282-.315.6-.602.898-.903.442-.447.444-.989.005-1.43-.524-.528-1.052-1.053-1.58-1.578z" stroke="#73A697"/></svg>