<svg width="22" height="22" fill="none" xmlns="http://www.w3.org/2000/svg"><path d="M19.367 8.786L21 6.987h-3.626A11.134 11.134 0 0010.998 5c-2.366 0-4.553.734-6.364 1.987H1l1.633 1.8a5.078 5.078 0 00-1.63 3.74c0 2.794 2.237 5.058 4.998 5.058 1.31 0 2.506-.511 3.395-1.35L10.998 18l1.603-1.764a4.939 4.939 0 003.394 1.345c2.76 0 5.001-2.264 5.001-5.058 0-1.48-.626-2.814-1.629-3.737zM6.001 15.947c-1.868 0-3.38-1.533-3.38-3.42 0-1.888 1.516-3.422 3.38-3.422 1.864 0 3.38 1.534 3.38 3.421 0 1.888-1.512 3.421-3.38 3.421zm5-3.52c0-2.253-1.617-4.187-3.755-5.013a9.647 9.647 0 017.507 0c-2.133.826-3.751 2.76-3.751 5.012zm4.994 3.52c-1.868 0-3.38-1.533-3.38-3.42 0-1.888 1.516-3.422 3.38-3.422 1.865 0 3.38 1.534 3.38 3.421 0 1.888-1.512 3.421-3.38 3.421zm0-5.22c-.98 0-1.773.804-1.773 1.796 0 .991.794 1.795 1.773 1.795.98 0 1.774-.804 1.774-1.795 0-.988-.794-1.796-1.774-1.796zm-8.22 1.8c0 .991-.794 1.794-1.774 1.794s-1.773-.803-1.773-1.795c0-.991.793-1.795 1.773-1.795.98-.004 1.773.804 1.773 1.795z" fill="#73A697"/></svg>