<svg width="24" height="26" fill="none" xmlns="http://www.w3.org/2000/svg"><path d="M21.29 2.536C20.663 1.94 18.12.044 12.46.019c0 0-6.675-.414-9.93 2.653C.72 4.533.083 7.257.016 10.634c-.067 3.377-.154 9.705 5.783 11.421h.006L5.8 24.674s-.038 1.06.641 1.276c.822.262 1.304-.544 2.09-1.412a68.221 68.221 0 001.473-1.713c4.06.351 7.183-.451 7.538-.57.82-.273 5.46-.883 6.214-7.212.779-6.522-.377-10.647-2.465-12.507z" fill="#73A697"/><path d="M19.818 3.99c-.521-.488-2.772-1.949-7.47-1.97 0 0-5.561-.377-8.261 2.148-1.503 1.532-2.01 3.81-2.065 6.59-.055 2.78-.343 8.091 4.582 9.504l-.021 4.29c0 .242.037.408.17.442.097.024.242-.027.365-.154.787-.816 3.309-3.957 3.309-3.957 3.382.228 6.074-.461 6.363-.56.683-.226 4.374-.553 4.999-5.763.645-5.371-.238-9.037-1.97-10.57z" fill="#17443F"/><path d="M14 11c-.065-1.27-.732-1.936-2-2m3.999 2c.025-1.102-.318-2.022-1.029-2.761C14.256 7.497 13.268 7.089 12 7" stroke="#73A697" stroke-linecap="round" stroke-linejoin="round"/><path d="M18 12c-.015-2.164-.593-3.868-1.736-5.113C15.12 5.642 13.7 5.013 12 5" stroke="#73A697" stroke-linecap="round" stroke-linejoin="round"/><path d="M11.819 14.713s.46.036.707-.245l.482-.56c.233-.278.795-.456 1.344-.173.412.217.813.453 1.2.707.364.247 1.111.823 1.114.823.356.277.438.685.195 1.114l-.001.01a4.743 4.743 0 01-1.005 1.14c-.004.002-.004.005-.008.007-.346.266-.686.418-1.02.455a1.462 1.462 0 01-.582-.053l-.011-.015c-.514-.134-1.373-.469-2.803-1.197a16.876 16.876 0 01-2.355-1.436c-.37-.27-.724-.56-1.059-.866l-.035-.033-.036-.033-.036-.033-.035-.033a11.743 11.743 0 01-.94-.978 15.376 15.376 0 01-1.555-2.173c-.789-1.32-1.152-2.112-1.297-2.587l-.016-.01a1.164 1.164 0 01-.066-.4.558.558 0 01.009-.138c.042-.307.206-.621.494-.941l.007-.009c.356-.367.773-.68 1.236-.926l.01-.002c.465-.224.906-.148 1.206.179.003.002.625.692.892 1.029.275.357.53.726.766 1.107.306.507.114 1.027-.187 1.24l-.607.446c-.306.228-.266.652-.266.652s.9 3.14 4.258 3.932z" fill="#73A697"/></svg>