<svg width="27" height="27" fill="none" xmlns="http://www.w3.org/2000/svg"><path d="M7.186 21.99l.393.234c1.653.98 3.548 1.5 5.481 1.5h.004c5.935 0 10.766-4.829 10.768-10.764a10.7 10.7 0 00-3.151-7.616 10.698 10.698 0 00-7.613-3.157c-5.94 0-10.77 4.829-10.772 10.764 0 2.034.568 4.015 1.646 5.729l.256.407-1.088 3.972 4.076-1.068zM0 26.137l1.838-6.71a12.926 12.926 0 01-1.73-6.476C.113 5.81 5.924 0 13.066 0a12.874 12.874 0 019.164 3.798 12.874 12.874 0 013.79 9.163c-.002 7.14-5.815 12.951-12.954 12.951-.001 0 0 0 0 0h-.006c-2.168 0-4.299-.544-6.19-1.577L0 26.136z" fill="#fff"/><path d="M.556 12.957a12.462 12.462 0 001.67 6.251L.45 25.687l6.63-1.739a12.506 12.506 0 005.976 1.522h.006c6.893 0 12.503-5.61 12.506-12.503a12.425 12.425 0 00-3.66-8.845A12.428 12.428 0 0013.062.455C6.169.455.558 6.063.555 12.957zM13.062 25.47z" fill="#17443F"/><path d="M.109 12.954a12.912 12.912 0 001.73 6.475L0 26.139l6.868-1.8a12.948 12.948 0 006.19 1.577h.006c7.14 0 12.953-5.811 12.956-12.952a12.872 12.872 0 00-3.792-9.162A12.874 12.874 0 0013.064.003C5.923.003.112 5.813.11 12.953v.001zm4.09 6.137l-.257-.408a10.736 10.736 0 01-1.646-5.728C2.298 7.02 7.129 2.19 13.068 2.19a10.699 10.699 0 017.613 3.157 10.7 10.7 0 013.151 7.615C23.83 18.9 19 23.728 13.064 23.728h-.004a10.756 10.756 0 01-5.48-1.5l-.394-.234-4.076 1.069 1.088-3.972zm8.865 6.825z" fill="#73A697"/><path fill-rule="evenodd" clip-rule="evenodd" d="M9.826 7.539c-.242-.54-.497-.55-.728-.56-.189-.008-.405-.007-.62-.007-.216 0-.567.08-.863.405-.297.324-1.134 1.107-1.134 2.7 0 1.592 1.16 3.131 1.322 3.347.162.216 2.24 3.589 5.53 4.886 2.734 1.079 3.29.864 3.884.81.594-.054 1.915-.783 2.185-1.539.27-.755.27-1.403.189-1.539-.08-.135-.297-.216-.62-.377-.324-.162-1.916-.945-2.212-1.053-.297-.108-.513-.162-.729.162-.216.324-.836 1.052-1.025 1.268-.188.217-.377.244-.701.082-.324-.163-1.366-.504-2.603-1.607-.963-.858-1.612-1.917-1.801-2.242-.189-.323-.02-.498.142-.66.146-.145.324-.378.486-.567.161-.189.215-.324.323-.54.108-.216.054-.405-.027-.567-.08-.162-.71-1.762-.998-2.403" fill="#73A697"/></svg>