<svg width="24" height="24" fill="none" xmlns="http://www.w3.org/2000/svg"><path fill-rule="evenodd" clip-rule="evenodd" d="M6.946 0h10.108C20.875 0 24 3.125 24 6.946v10.108C24 20.875 20.875 24 17.054 24H6.946C3.125 24 0 20.875 0 17.054V6.946C0 3.125 3.125 0 6.946 0zm0 2.136h10.108a4.824 4.824 0 014.81 4.81v10.108a4.824 4.824 0 01-4.81 4.81H6.946a4.824 4.824 0 01-4.81-4.81V6.946a4.824 4.824 0 014.81-4.81zM12 5.836A6.162 6.162 0 0118.165 12 6.162 6.162 0 0112 18.165 6.162 6.162 0 015.835 12 6.162 6.162 0 0112 5.835zm0 2.126A4.037 4.037 0 0116.038 12 4.037 4.037 0 0112 16.038a4.037 4.037 0 110-8.075zm6.588-1.016c-.771 0-1.402-.63-1.402-1.402a1.4 1.4 0 011.402-1.403c.772 0 1.403.63 1.403 1.403 0 .771-.631 1.402-1.403 1.402z" fill="#E0C18D"/></svg>