<svg width="1920" height="70" fill="none" xmlns="http://www.w3.org/2000/svg"><path d="M0 1.399c200.076-1.593 398.738 12.544 597.199 29.27 189.173 15.83 368.858 22.7 559.041 14.039 88.73-4.282 157.58-8.164 215.92-11.649C1555.99 17.229 1734.56 3.689 1920 1.1" stroke="#E0C18D" stroke-miterlimit="10"/><path d="M0 39.032c210.675-13.54 412.568-18.817 620.215-17.025 71.268 1.593 142.94 1.394 214.41 4.78C1208.83 44.606 1553.26 62.13 1920 37.24" stroke="#E0C18D" stroke-miterlimit="10"/><path d="M0 21.609c187.861 1.394 367.344 9.26 555.104 26.583 11.003.697 21.905 1.095 32.808 1.991C717.224 60.239 843.609 68.602 973.325 69c129.915.398 265.895-4.58 407.925-15.133 181.4-17.224 356.95-29.67 538.75-32.557" stroke="#E0C18D" stroke-miterlimit="10"/><path d="M0 48.59c226.221-11.748 447.899-16.03 670.991-17.025 96.504 1.394 188.466 5.078 280.126 8.96 111.953 5.676 224.203 11.948 334.033 13.441 212.59 6.372 423.87 1.295 634.85-5.077" stroke="#E0C18D" stroke-miterlimit="10"/></svg>