<svg width="22" height="22" fill="none" xmlns="http://www.w3.org/2000/svg"><path fill-rule="evenodd" clip-rule="evenodd" d="M6.087 20.257V7.938H2.228v12.319h3.859zm-1.93-14c1.346 0 2.184-.946 2.184-2.129C6.316 2.92 5.503 2 4.183 2 2.863 2 2 2.92 2 4.128c0 1.183.837 2.128 2.132 2.128h.025zm4.065 14h3.858v-6.88c0-.368.025-.735.127-.999.28-.735.914-1.497 1.98-1.497 1.396 0 1.955 1.13 1.955 2.786v6.59H20v-7.064c0-3.783-1.903-5.544-4.442-5.544-2.082 0-2.996 1.235-3.503 2.076h.026V7.938H8.22c.051 1.156 0 12.319 0 12.319z" fill="#E0C18D"/></svg>