<svg width="151" height="55" fill="none" xmlns="http://www.w3.org/2000/svg"><path fill-rule="evenodd" clip-rule="evenodd" d="M18.538 24.226c.064-.258.32-.452.642-.581.192-.065.385-.065.577-.13.192 0 .385-.064.577-.064.193 0 .385 0 .514-.065h.384c.129 0 .257 0 .257.065.064.064.064.129.064.194 0 .064-.064.129-.064.323l-8.98 21.642c-.129.193-.193.323-.321.323-.064 0-.193 0-.321.064h-1.218c-.065 0-.129 0-.193-.064-.064-.065-.128-.13-.193-.259l-7.44-19.252c-.257-.646-.514-1.033-.834-1.227-.321-.194-.642-.323-1.091-.323H.513c-.128 0-.256.065-.449.065L0 23.903c.577-.13 1.09-.194 1.668-.323a49.9 49.9 0 001.54-.194c.448-.064.833-.129 1.154-.129h.577c.193 0 .321.065.385.194s.193.258.257.517l6.735 17.7h.064l6.158-17.442zm9.109 20.221c.706 0 1.219-.13 1.668-.452.449-.323.77-.711 1.026-1.163a4.02 4.02 0 00.513-1.55c.064-.582.129-1.164.129-1.68 0-.711-.065-1.422-.193-2.197a7.569 7.569 0 00-.705-2.132c-.321-.646-.77-1.163-1.348-1.615-.577-.388-1.218-.646-2.052-.646-.706 0-1.219.13-1.668.452-.449.323-.77.71-1.026 1.163a4.418 4.418 0 00-.514 1.55c-.128.582-.128 1.163-.128 1.745 0 .71.064 1.421.257 2.196.128.776.385 1.486.705 2.068a3.94 3.94 0 001.348 1.55c.513.452 1.154.71 1.988.71zm-.898 1.68c-1.026 0-1.989-.194-2.822-.582-.834-.388-1.604-.904-2.181-1.55-.642-.646-1.091-1.422-1.412-2.262-.32-.904-.513-1.808-.513-2.842 0-1.098.193-2.132.577-3.036.385-.905.899-1.745 1.604-2.39a7.882 7.882 0 012.438-1.551c.962-.388 1.988-.517 3.143-.517 1.026 0 1.988.194 2.886.517.834.387 1.604.84 2.181 1.486a5.868 5.868 0 011.412 2.26c.32.84.513 1.81.513 2.779 0 1.163-.193 2.196-.578 3.1-.385.97-.898 1.745-1.603 2.39a8.716 8.716 0 01-2.438 1.551c-1.026.453-2.052.646-3.207.646zm19.115-9.368c.065-.194.065-.323.065-.517v-.517c0-.323-.065-.71-.193-1.033a3.488 3.488 0 00-.449-.84c-.192-.259-.449-.388-.77-.581a2.641 2.641 0 00-1.026-.194c-.577 0-1.155.129-1.54.323-.449.193-.77.516-1.09.904-.256.388-.513.775-.641 1.292-.129.517-.193.97-.257 1.55l5.901-.387zm4.234 7.365c-.577.323-1.219.581-1.924.84-.642.258-1.347.452-1.925.646a9.988 9.988 0 01-1.796.387c-.577.065-1.026.13-1.347.13-1.026 0-1.924-.194-2.694-.582-.77-.388-1.475-.904-1.989-1.55-.513-.646-.962-1.357-1.218-2.197a8.692 8.692 0 01-.385-2.584c0-1.163.192-2.261.641-3.166.45-.969 1.027-1.744 1.732-2.455.706-.71 1.604-1.227 2.566-1.55.962-.388 2.053-.581 3.143-.581.706 0 1.347.129 1.925.323.577.193 1.026.516 1.41.904.386.388.642.84.899 1.421a5.34 5.34 0 01.32 1.81c0 .58-.128 1.227-.32 2.066l-8.916.453c.064.775.192 1.55.449 2.196a5.165 5.165 0 001.154 1.744c.513.453 1.09.84 1.796 1.099.706.258 1.476.387 2.438.387.577 0 1.219-.064 1.924-.194.706-.129 1.283-.322 1.86-.516l.257.969zm13.535-11.758c.064-.194.128-.258.256-.388.065-.064.193-.129.385-.193.193-.065.385-.065.578-.13.192-.064.385-.064.577-.064.192 0 .385-.065.513-.065h.385c.257 0 .32.065.32.259 0 .064 0 .193-.063.323l-6.415 13.566c-.064.194-.192.323-.32.323-.129 0-.321.065-.578.065h-.513c-.064 0-.128 0-.193-.065a.883.883 0 01-.192-.258L53.69 34.886c-.256-.582-.513-.97-.77-1.228a1.766 1.766 0 00-1.026-.323h-.385c-.128 0-.256.065-.449.065l-.128-.905 1.54-.387c.513-.13 1.026-.259 1.475-.323.449-.065.834-.194 1.154-.194.321-.065.514-.065.578-.065.192 0 .32.065.385.194.064.13.192.258.256.517l3.657 9.496h.064l3.592-9.367zm11.033 12.081c.706 0 1.219-.13 1.668-.452.449-.323.77-.711 1.026-1.163.257-.453.449-.97.513-1.55.064-.582.129-1.164.129-1.68 0-.711-.065-1.422-.193-2.197a7.534 7.534 0 00-.706-2.132c-.32-.646-.77-1.163-1.346-1.615-.578-.388-1.22-.646-2.053-.646-.706 0-1.22.13-1.668.452-.449.323-.77.71-1.026 1.163a4.423 4.423 0 00-.514 1.55c-.128.582-.128 1.163-.128 1.745 0 .71.065 1.421.257 2.196.128.776.385 1.486.77 2.068a3.94 3.94 0 001.347 1.55c.384.452 1.09.71 1.924.71zm-.898 1.68c-1.026 0-1.989-.194-2.823-.582-.833-.388-1.603-.904-2.18-1.55-.642-.646-1.09-1.422-1.412-2.262-.32-.904-.513-1.808-.513-2.842 0-1.098.193-2.132.578-3.036.384-.905.898-1.745 1.603-2.39a7.88 7.88 0 012.438-1.551c.962-.388 1.988-.517 3.143-.517 1.026 0 1.989.194 2.886.517.834.387 1.604.84 2.182 1.486.577.646 1.09 1.356 1.41 2.26.321.84.514 1.81.514 2.779 0 1.163-.193 2.196-.578 3.1-.384.97-.898 1.745-1.603 2.39a7.886 7.886 0 01-2.437 1.551c-1.027.453-2.053.646-3.208.646zm21.361-10.918c0-.388-.129-.776-.32-1.034a2.819 2.819 0 00-1.796-1.098c-.386-.065-.77-.13-1.092-.13-.834 0-1.54.13-2.117.388s-1.09.581-1.41 1.034c-.386.452-.642.969-.835 1.615-.192.646-.256 1.292-.256 2.002 0 .582.064 1.293.193 2.003a6.33 6.33 0 00.705 1.938c.32.582.77 1.099 1.283 1.486.513.388 1.154.582 1.925.582.127 0 .255 0 .512-.065.257 0 .514-.065.834-.13.32-.064.706-.193 1.09-.258.386-.129.835-.258 1.284-.452v-7.882zm-2.31-14.084a61.879 61.879 0 013.4-.84c.898-.129 1.411-.258 1.604-.258.385 0 .577.258.577.71v22.224c0 .452 0 .84.064 1.163.064.387.129.71.192 1.033v.13c0 .193-.128.323-.384.387-.193.065-.321.065-.578.13-.192.064-.449.064-.64.064-.194 0-.45 0-.643.065h-.577a.487.487 0 01-.32-.13c-.065-.064-.129-.193-.193-.323l-.256-1.033c-.578.258-1.155.452-1.733.646-.577.194-1.154.387-1.667.517-.513.129-.962.258-1.412.323-.448.064-.769.129-1.09.129-.834 0-1.54-.194-2.245-.646-.641-.452-1.219-.97-1.668-1.615a8.333 8.333 0 01-1.09-2.132 7.36 7.36 0 01-.385-2.326c0-1.292.256-2.455.705-3.424a7.326 7.326 0 011.925-2.52c.834-.71 1.732-1.227 2.822-1.55 1.09-.387 2.245-.517 3.464-.517.77 0 1.475.065 2.245.194v-7.752c0-.646-.128-1.163-.32-1.357-.193-.258-.578-.387-1.09-.387-.257 0-.514 0-.77.064l.064-.969zm20.463 11.241c.064-.194.129-.258.257-.388.064-.064.192-.129.384-.193.193-.065.385-.065.578-.13.192-.064.385-.064.577-.064.193 0 .385-.065.513-.065h.385c.257 0 .321.065.321.259 0 .064 0 .193-.064.323-.449.904-.899 1.873-1.411 2.842-.514.97-.963 2.003-1.476 3.036-.513 1.034-.962 2.068-1.475 3.037a63.015 63.015 0 01-1.347 2.907c-.449.969-.834 1.809-1.155 2.649-.385.84-.641 1.55-.962 2.196-.257.582-.513 1.228-.77 1.874a11.53 11.53 0 01-1.09 1.938c-.45.581-.962 1.098-1.54 1.486-.577.387-1.282.581-2.116.581-.322 0-.642-.065-.899-.13a6.795 6.795 0 01-.705-.387 3.555 3.555 0 01-.449-.581c-.129-.259-.129-.453-.129-.71 0-.195.064-.388.129-.647.064-.194.192-.452.32-.581.257.194.578.258.834.323.257.064.514.129.834.129.385 0 .706-.065 1.026-.194.322-.13.642-.323 1.027-.581.321-.259.641-.646.962-1.163.321-.452.641-1.099 1.027-1.874l1.09-2.455-4.683-10.917c-.257-.582-.513-.97-.769-1.228a1.769 1.769 0 00-1.027-.323h-.385c-.128 0-.256.065-.448.065l-.129-.905 1.54-.387c.512-.13 1.026-.259 1.475-.323.449-.065.834-.194 1.154-.194.321-.065.514-.065.578-.065.192 0 .321.065.385.194.064.13.192.258.256.517l3.656 9.496h.065l3.656-9.367zm4.554.129a37.454 37.454 0 011.861-.452c.577-.13 1.09-.258 1.54-.323.448-.065.769-.13 1.089-.194.257-.064.45-.064.578-.064.385 0 .578.258.641.71l.064.776c.578-.194 1.155-.453 1.733-.582a23.585 23.585 0 011.668-.517c.512-.129 1.026-.258 1.475-.323.448-.064.833-.13 1.09-.13.706 0 1.348.13 1.86.324.514.258.899.517 1.283.969.321.388.578.904.706 1.486.128.581.256 1.227.256 1.938l-.256 9.109c0 .323-.128.452-.449.517-.192.064-.449.064-.641.129-.257.065-.514.065-.706.065-.257 0-.449 0-.642.064h-.449c-.32 0-.448-.129-.448-.452l.063-7.559v-.258c0-.71-.063-1.292-.128-1.809a4.872 4.872 0 00-.513-1.292c-.256-.323-.578-.646-.962-.775-.385-.194-.898-.259-1.539-.259-.257 0-.642.065-1.283.194-.642.13-1.348.388-2.182.71v10.725c0 .323-.128.452-.448.517-.193.064-.449.064-.642.129-.257.065-.513.065-.706.065-.256 0-.449 0-.641.064h-.449c-.321 0-.449-.129-.449-.452V35.079c0-.646-.129-1.163-.321-1.356-.192-.259-.577-.388-1.026-.388h-.385c-.128 0-.32 0-.513.065l-.129-.905zm26.172 11.952c.706 0 1.219-.13 1.668-.452.449-.323.77-.711 1.026-1.163.257-.453.45-.97.513-1.55.064-.582.129-1.164.129-1.68 0-.711-.065-1.422-.192-2.197a7.614 7.614 0 00-.706-2.132c-.321-.646-.77-1.163-1.347-1.615-.578-.388-1.219-.646-2.053-.646-.706 0-1.219.13-1.668.452-.449.323-.77.71-1.026 1.163a4.428 4.428 0 00-.514 1.55c-.128.582-.128 1.163-.128 1.745 0 .71.064 1.421.257 2.196.128.776.385 1.486.705 2.068a3.94 3.94 0 001.348 1.55c.513.452 1.219.71 1.988.71zm-.834 1.68c-1.026 0-1.988-.194-2.822-.582-.834-.388-1.604-.904-2.182-1.55-.641-.646-1.089-1.422-1.411-2.262-.32-.904-.512-1.808-.512-2.842 0-1.098.192-2.132.577-3.036.385-.905.898-1.745 1.603-2.39a7.89 7.89 0 012.438-1.551c.962-.388 1.989-.517 3.143-.517 1.026 0 1.988.194 2.887.517.834.387 1.603.84 2.18 1.486a5.866 5.866 0 011.412 2.26c.321.84.513 1.81.513 2.779 0 1.163-.192 2.196-.577 3.1-.385.97-.899 1.745-1.604 2.39a7.88 7.88 0 01-2.438 1.551c-1.026.453-2.116.646-3.207.646z" fill="#23514C"/><path fill-rule="evenodd" clip-rule="evenodd" d="M108.279 14.988c.32-.065.641-.194.897-.259l.771-.193c.192-.065.385-.065.513-.065h.256c.193 0 .321.13.321.323v.452c.192-.129.449-.258.641-.323.193-.129.449-.194.642-.258.192-.065.449-.13.641-.194.193-.065.385-.065.513-.065.193 0 .321 0 .449.065.129.065.257.13.322.258.063.13.128.194.192.324.064.129.064.258.064.387 0 .13 0 .258-.064.388-.064.129-.129.258-.192.323-.129.129-.193.194-.386.258-.128.065-.32.065-.513.065h-.449v-.194c0-.259-.064-.452-.192-.582a.581.581 0 00-.45-.193c-.192 0-.384.064-.641.129-.256.064-.448.194-.705.323v5.233c0 .129-.065.258-.193.258s-.192.065-.321.065c-.128 0-.256 0-.32.064h-.514c-.128 0-.192-.064-.192-.258v-5.04c0-.322-.064-.58-.128-.645-.128-.13-.257-.194-.513-.194h-.193a.48.48 0 00-.256.065v-.517zm11.353 2.067c0-.064.065-.194.065-.258v-.259c0-.194 0-.323-.065-.517a1.332 1.332 0 00-.256-.387c-.129-.13-.192-.194-.385-.258-.128-.065-.321-.065-.513-.065a2.38 2.38 0 00-.77.13c-.192.128-.384.257-.513.451-.128.194-.257.388-.321.646-.064.259-.128.517-.128.776l2.886-.259zm2.053 3.553c-.321.13-.577.259-.962.388-.32.13-.642.194-.962.323-.321.065-.577.13-.898.194-.257.064-.513.064-.642.064-.513 0-.962-.064-1.347-.258a2.847 2.847 0 01-.962-.775 3.004 3.004 0 01-.578-1.099 4.201 4.201 0 01-.192-1.292c0-.581.129-1.098.321-1.55.193-.452.513-.84.834-1.228.385-.322.77-.581 1.283-.775.449-.194.962-.258 1.539-.258.385 0 .642.064.962.194.257.129.514.258.706.452.193.194.321.388.45.71.127.259.127.582.127.84 0 .259-.064.646-.127 1.034l-4.363.258c0 .388.128.776.257 1.099.128.323.321.581.577.84.257.258.513.387.834.516.321.13.705.194 1.155.194.321 0 .641-.064.962-.13.321-.064.641-.128.898-.258l.128.517zm6.03-3.94a7.749 7.749 0 00-.193-.646c-.064-.194-.128-.323-.256-.453-.128-.129-.256-.258-.385-.323-.193-.064-.385-.129-.642-.129-.128 0-.32 0-.448.065a1.17 1.17 0 00-.449.129c-.129.065-.257.13-.321.258-.064.13-.128.259-.128.388 0 .194.064.323.128.452.064.13.192.259.384.323.129.065.322.194.514.259.192.064.385.129.642.258.256.065.512.194.769.323.257.13.449.258.706.388.192.129.385.323.513.581.128.194.192.452.192.775 0 .388-.128.71-.32 1.034a2.821 2.821 0 01-1.797 1.098c-.385.065-.77.13-1.09.13-.192 0-.449 0-.706-.065l-.769-.194c-.257-.13-.45-.258-.577-.388a.83.83 0 01-.257-.646c0-.323.128-.517.32-.646.193-.129.449-.194.77-.194h.385v.13c0 .387.128.71.321.969.192.258.513.323.962.323.193 0 .321 0 .449-.065.129-.064.256-.064.385-.194.128-.064.193-.194.256-.258.065-.13.129-.259.129-.388a1.21 1.21 0 00-.129-.517.653.653 0 00-.385-.323c-.127-.129-.32-.193-.512-.258-.193-.065-.385-.194-.642-.258-.257-.065-.513-.194-.77-.323-.256-.13-.449-.259-.705-.388a1.524 1.524 0 01-.514-.581c-.128-.194-.192-.517-.192-.84 0-.388.129-.71.321-.97.192-.258.449-.451.769-.645.321-.194.642-.259.962-.323.386-.065.706-.13 1.027-.13.321 0 .578 0 .898.065.257.065.577.13.834.194.064 0 .064.064.064.064 0 .13 0 .259.064.453v1.486h-.577zm6.158 4.134c.321 0 .577-.064.834-.194a1.53 1.53 0 00.513-.581c.128-.259.193-.517.257-.775.064-.259.064-.582.064-.84 0-.323-.064-.71-.128-1.034a2.89 2.89 0 00-.385-1.034c-.193-.323-.385-.58-.642-.775-.256-.194-.577-.323-1.026-.323-.321 0-.577.065-.834.194-.192.13-.385.323-.514.582a3.726 3.726 0 00-.256.775c-.064.258-.064.581-.064.84 0 .323.064.71.128 1.098.065.387.192.71.385 1.034.192.323.385.58.641.775.322.129.642.258 1.027.258zm-.385.775c-.513 0-.962-.064-1.411-.258a4.222 4.222 0 01-1.091-.775c-.32-.323-.513-.71-.705-1.099-.192-.452-.257-.904-.257-1.42 0-.518.065-1.034.257-1.487.192-.452.449-.84.77-1.162a3.3 3.3 0 011.218-.776c.45-.194.962-.258 1.54-.258.513 0 .962.064 1.411.258.449.194.77.388 1.09.71.321.324.514.647.706 1.1.193.451.257.904.257 1.356 0 .581-.064 1.098-.257 1.55a3.67 3.67 0 01-.769 1.163 3.321 3.321 0 01-1.219.775c-.514.259-1.026.323-1.54.323zm4.811-6.589c.321-.065.642-.194.898-.259l.77-.193c.193-.065.385-.065.513-.065h.257c.192 0 .32.13.32.323v.452a3.02 3.02 0 01.642-.323c.192-.129.449-.194.641-.258l.577-.194c.193-.065.385-.065.514-.065.192 0 .32 0 .449.065.128.065.256.13.32.258.065.13.129.194.193.324.064.129.064.258.064.387 0 .13 0 .258-.064.388-.064.129-.128.258-.193.323-.127.129-.192.194-.384.258-.128.065-.321.065-.514.065h-.448v-.194c0-.259-.065-.452-.193-.582a.58.58 0 00-.449-.193c-.192 0-.385.064-.641.129-.257.064-.45.194-.706.323v5.233c0 .129-.064.258-.193.258-.128 0-.192.065-.32.065-.129 0-.257 0-.321.064h-.513c-.128 0-.192-.064-.192-.258v-5.04c0-.322-.065-.58-.193-.645-.129-.13-.257-.194-.513-.194h-.193c-.064 0-.128 0-.256.065l.128-.517zm7.185-.129c.192 0 .32 0 .512-.065.193 0 .385 0 .578-.065v-1.42c0-.13 0-.195.064-.26 0-.064.064-.128.192-.128.129-.065.257-.065.385-.13.129-.064.257-.064.385-.129.129-.065.193-.065.321-.065.064 0 .128-.064.192-.064.129 0 .193.065.193.258v1.874c.385 0 .769-.065 1.155-.065h.833c.064 0 .064 0 .129.065.064.065.064.065.064.129l-.064.582h-2.117v4.005c0 .387.128.71.321.904.192.194.513.259.834.259.192 0 .32 0 .577-.065.193-.064.449-.13.705-.194l.193.582c-.257.129-.449.194-.705.323-.257.064-.45.194-.707.258-.192.065-.449.13-.577.13-.192.064-.32.064-.449.064-.256 0-.513-.065-.769-.13a.929.929 0 01-.577-.387c-.193-.194-.322-.387-.385-.646-.065-.258-.129-.517-.129-.84v-4.134h-1.09l-.064-.646z" fill="#E0C18D"/><path fill-rule="evenodd" clip-rule="evenodd" d="M59.656 4.845c.32-.064.641-.129 1.219-.129 1.732 0 2.566.71 3.271 1.227.642.517 2.117 2.39 3.464 4.2 1.989 2.584 4.426 5.426 7.698 7.687-2.567 1.292-4.875 2.261-7.057 2.908-3.656-3.49-8.595-9.562-11.482-14.213.45-.646 1.604-1.421 2.887-1.68zm7.12 16.28c-6.03-6.525-8.724-10.207-13.214-17.507C51.958 1.098 50.355 0 48.815 0s-2.822.258-4.747 1.873c-.898.776-2.501 2.585-3.72 4.2l.192.258c.898 1.163 1.732 2.584 2.694 4.07 1.476 2.455 3.208 5.297 5.774 8.205 4.939 2.454 10.263 4.328 17.768 2.52zM26.62 13.373l-.192.258c8.596-2.39 14.112.517 19.821 3.553-1.603-2.067-2.822-4.07-3.913-5.879-.898-1.42-1.667-2.713-2.501-3.811-.45-.582-.898-1.098-1.412-1.55-.449-.388-.898-.582-1.667-.647-.834-.064-1.86.259-2.181.323-2.502.97-4.875 3.424-6.928 6.138-.32.581-.706 1.098-1.026 1.615z" fill="#23514C"/><path fill-rule="evenodd" clip-rule="evenodd" d="M77.424 20.738c-25.85 14.212-31.431-10.725-51.766-3.36-.77.259-2.245.905-3.463 1.421-.385.194-1.604.646-1.925.84-.577.259-.641.13-.449-.387.193-.453.385-.97.706-1.357.32-.323 1.09-.581 1.668-.775 1.282-.517 2.886-1.099 3.784-1.357 20.527-5.943 24.44 18.412 51.702 2.843.578-.323.578-.323 1.219.064l.45.259c.769.387.576.516-.065.904-.514.13-1.283.582-1.86.905z" fill="#E0C18D"/><path fill-rule="evenodd" clip-rule="evenodd" d="M81.658 19.704c-.834.517-2.887 1.615-3.528 2.003-15.523 8.398-23.285 3.424-31.367-.517-5.902-2.907-12.573-5.815-21.49-2.197-1.154.452-1.475.517-1.988 1.938-.192.517-.128.71.449.453 9.943-4.329 17.127-1.81 22.964.775 8.468 3.747 15.973 8.721 32.01.323.769-.388 3.014-1.68 3.784-2.132.257-.194.706-.388.449-.517l-.385-.194c-.385-.258-.45-.194-.898.065z" fill="#E0C18D"/></svg>