<svg width="61" height="61" viewBox="0 0 61 61" fill="none" xmlns="http://www.w3.org/2000/svg">
<g clip-path="url(#clip0_460_7142)">
<path d="M48.7 52.5V58.7" stroke="#E0C18D" stroke-width="1.5" stroke-miterlimit="10"/>
<path d="M48.7 16.5C50.9 20.7 52.8 24.4 55 28.6C55.7 29.9 56.5 30.6 55 31.3C53.6 31.9 51.6 32.1 48.8 32.1C46 32.1 43.9 31.9 42.6 31.3C41 30.6 41.9 29.9 42.6 28.6C44.5 24.4 46.5 20.7 48.7 16.5Z" stroke="#73A697" stroke-width="1.5" stroke-miterlimit="10"/>
<path d="M54.8 33.3L56.8 37.1C57.7 38.8 58.8 39.7 56.8 40.6C55 41.4 52.3 41.6 48.8 41.6C45.2 41.6 42.5 41.4 40.7 40.6C38.7 39.7 39.8 38.8 40.7 37.1L42.7 33.3" stroke="#73A697" stroke-width="1.5" stroke-miterlimit="10"/>
<path d="M56.1 42.3L58.5 46.9001C59.6 49.0001 60.9 50.1001 58.5 51.2001C56.4 52.2001 53.1 52.4001 48.7 52.4001C44.3 52.4001 41 52.2001 38.9 51.2001C36.5 50.1001 37.8 49.0001 38.9 46.9001L41.3 42.3" stroke="#73A697" stroke-width="1.5" stroke-miterlimit="10"/>
<path d="M8.5 53.3L29.5 8.30005L39.4 29.5" stroke="#E0C18D" stroke-width="1.5" stroke-miterlimit="10"/>
<path d="M20.3 28L26.3 36.2001L31.5 25.1L34.1 29.5L36.8 23.8" stroke="#E0C18D" stroke-width="1.5" stroke-miterlimit="10"/>
<path d="M0.700012 53.3L12 29.1L14.4 34.1" stroke="#73A697" stroke-width="1.5" stroke-miterlimit="10"/>
<path d="M13.1 15.6C15.5 15.6 17.5 13.6 17.5 11.2C17.5 8.80005 15.5 6.80005 13.1 6.80005C10.7 6.80005 8.70001 8.80005 8.70001 11.2C8.70001 13.6 10.7 15.6 13.1 15.6Z" stroke="#E0C18D" stroke-width="1.5" stroke-miterlimit="10"/>
<path d="M13.1 6.9V2" stroke="#E0C18D" stroke-width="1.5" stroke-miterlimit="10"/>
<path d="M17.4 11.3H22.4" stroke="#E0C18D" stroke-width="1.5" stroke-miterlimit="10"/>
<path d="M13.1 15.6V20.6" stroke="#E0C18D" stroke-width="1.5" stroke-miterlimit="10"/>
<path d="M8.69999 11.3H3.79999" stroke="#E0C18D" stroke-width="1.5" stroke-miterlimit="10"/>
<path d="M16.2 8.19995L18.2 6.19995" stroke="#E0C18D" stroke-width="1.5" stroke-miterlimit="10"/>
<path d="M16.2 14.4L18.2 16.4" stroke="#E0C18D" stroke-width="1.5" stroke-miterlimit="10"/>
<path d="M10 14.4L8 16.4" stroke="#E0C18D" stroke-width="1.5" stroke-miterlimit="10"/>
<path d="M10 8.19995L8 6.19995" stroke="#E0C18D" stroke-width="1.5" stroke-miterlimit="10"/>
<path d="M0.0999756 58.7H60.1" stroke="#E0C18D" stroke-width="1.5" stroke-miterlimit="10"/>
<path d="M57.2 6.59995C58.8 6.59995 60.1 7.89995 60.1 9.39995C60.1 11 58.8 12.2 57.2 12.2H44C42 12.2 40.4 10.6 40.4 8.59995C40.4 6.59995 42 4.99995 44 4.99995C45 4.99995 46 5.49995 46.7 6.19995C47.3 4.39995 48.9 3.19995 50.9 3.19995C53.3 3.19995 55.2 5.09995 55.2 7.39995C55.7 6.89995 56.4 6.59995 57.2 6.59995Z" stroke="#E0C18D" stroke-width="1.5" stroke-miterlimit="10" stroke-linejoin="round"/>
</g>
<defs>
<clipPath id="clip0_460_7142">
<rect width="60.8" height="57.5" fill="white" transform="translate(0 2)"/>
</clipPath>
</defs>
</svg>
