<svg width="61" height="61" viewBox="0 0 61 61" fill="none" xmlns="http://www.w3.org/2000/svg">
<g clip-path="url(#clip0_460_7172)">
<path d="M10.613 23.6645C10.9106 20.1719 15.1756 18.0764 18.6472 19.8726C26.4829 23.0658 26.2846 21.1698 32.4341 18.9745C34.4179 18.276 36.6992 17.777 38.9805 17.4777C44.039 16.8789 47.8081 19.5732 52.2715 23.3651" stroke="#E0C18D" stroke-width="1.5" stroke-miterlimit="10" stroke-linejoin="round"/>
<path d="M41.2618 7.79829C42.5512 9.59447 42.948 11.3906 42.0553 13.3864C46.122 14.4841 49.4943 16.6794 52.6683 19.1741C51.974 12.8875 49.8911 7.6985 41.2618 7.79829Z" fill="white" stroke="#73A697" stroke-width="1.5" stroke-miterlimit="10"/>
<path d="M39.3772 10.6921L33.0293 12.4883" stroke="#E0C18D" stroke-width="1.5" stroke-miterlimit="10" stroke-linejoin="round"/>
<path d="M11.5057 53.3015C16.8618 53.3015 21.226 48.9108 21.226 43.4225C21.226 38.034 16.8618 33.6433 11.5057 33.6433C6.1496 33.6433 1.68618 38.034 1.68618 43.4225C1.78537 48.9108 6.1496 53.3015 11.5057 53.3015Z" fill="white" stroke="#73A697" stroke-width="1.5" stroke-miterlimit="10"/>
<path d="M13.2911 48.4119C12.6959 48.6114 12.1008 48.7112 11.5057 48.7112C8.62927 48.7112 6.24878 46.4161 6.24878 43.4225C6.24878 40.5286 8.62927 38.2335 11.5057 38.2335C12.4976 38.2335 13.3902 38.5329 14.1837 38.932" stroke="#73A697" stroke-width="1.5" stroke-miterlimit="10" stroke-linejoin="round"/>
<path d="M49.2959 53.3015C54.652 53.3015 59.0163 48.9108 59.0163 43.4225C59.0163 38.034 54.652 33.6433 49.2959 33.6433C43.9398 33.6433 39.5756 38.034 39.5756 43.4225C39.5756 48.9108 43.9398 53.3015 49.2959 53.3015Z" fill="white" stroke="#73A697" stroke-width="1.5" stroke-miterlimit="10"/>
<path d="M51.0813 48.4119C50.5854 48.6114 49.9902 48.7112 49.2959 48.7112C46.4195 48.7112 44.039 46.4161 44.039 43.4225C44.039 40.5286 46.4195 38.2335 49.2959 38.2335C50.2878 38.2335 51.1805 38.5329 51.974 38.932" stroke="#73A697" stroke-width="1.5" stroke-miterlimit="10" stroke-linejoin="round"/>
<path d="M33.1285 22.6666L34.2195 23.2654C35.2114 23.7643 35.7073 25.0615 35.2114 26.0594L32.2358 32.1465C31.7398 33.1443 30.4504 33.6433 29.4585 33.0445L28.3675 32.4458" stroke="#E0C18D" stroke-width="1.5" stroke-miterlimit="10" stroke-linejoin="round"/>
<path d="M9.9187 29.7516C5.65366 29.6519 3.17398 28.0553 1.48781 25.7601C-0.0991867 23.7644 1.19024 23.6646 3.76911 23.6646C7.24065 23.6646 9.22439 23.6646 12.9935 23.6646C18.052 23.6646 21.4244 27.257 23.0114 31.3482C23.9041 33.9427 24.6976 36.5372 25.5902 39.2315C26.0862 40.7283 26.8797 41.826 28.4667 41.826C29.7561 41.826 30.9463 41.826 32.1366 41.826C33.3268 41.9257 34.3187 41.327 34.9138 39.1317C36.1041 35.24 37.2943 30.8493 39.5756 27.5563C41.9561 24.1635 44.4358 22.9661 47.3122 22.9661C62.4878 22.6667 61.3967 35.5393 58.1236 31.6476C55.2472 29.0531 51.8748 27.7559 48.1057 27.7559" stroke="#73A697" stroke-width="1.5" stroke-miterlimit="10"/>
</g>
<defs>
<clipPath id="clip0_460_7172">
<rect width="61" height="47" fill="white" transform="translate(0 7)"/>
</clipPath>
</defs>
</svg>
