<svg width="38" height="38" viewBox="0 0 38 38" fill="none" xmlns="http://www.w3.org/2000/svg">
<path d="M4.24183 25.7852H33.5814C35.1721 25.7852 36.586 27.1594 36.586 28.7054C36.586 30.2514 35.1721 31.6256 33.5814 31.6256H4.24183C2.65114 31.6256 1.23718 30.2514 1.23718 28.7054C1.41393 27.1594 2.65114 25.7852 4.24183 25.7852Z" stroke="white" stroke-width="1.5" stroke-miterlimit="10"/>
<path d="M3.35815 25.9569C3.35815 17.368 10.4279 10.4968 19.0884 10.4968C27.7489 10.4968 34.8186 17.368 34.8186 25.7852V25.9569" stroke="white" stroke-width="1.5" stroke-miterlimit="10"/>
<path d="M18.9116 10.6687C20.3255 10.6687 21.2093 9.63798 21.2093 8.43552C21.2093 7.23307 20.1488 6.20239 18.9116 6.20239C17.6744 6.37417 16.7906 7.23307 16.7906 8.43552C16.7906 9.63798 17.6744 10.6687 18.9116 10.6687Z" stroke="white" stroke-width="1.5" stroke-miterlimit="10"/>
</svg>
