<svg width="60" height="60" viewBox="0 0 60 60" fill="none" xmlns="http://www.w3.org/2000/svg">
<path d="M3.59998 48.0999H9.19998V9.49995C9.19998 7.99995 7.89998 6.69995 6.39998 6.69995C4.79998 6.79995 3.59998 7.99995 3.59998 9.49995V48.0999Z" stroke="#73A697" stroke-width="1.5" stroke-miterlimit="10"/>
<path d="M11 48.1H1.79999V52.8H11V48.1Z" stroke="#73A697" stroke-width="1.5" stroke-miterlimit="10"/>
<path d="M50.7 48.0999H56.3V9.49995C56.3 7.99995 55 6.69995 53.5 6.69995C52 6.69995 50.7 7.99995 50.7 9.49995V48.0999V48.0999Z" stroke="#73A697" stroke-width="1.5" stroke-miterlimit="10"/>
<path d="M58.1 48.1H48.9V52.8H58.1V48.1Z" stroke="#73A697" stroke-width="1.5" stroke-miterlimit="10"/>
<path d="M44.3 26.8V23.6M15.6 26.8V23.6V26.8ZM21.3 26.8V23.6V26.8ZM27.1 26.8V23.6V26.8ZM32.8 26.8V23.6V26.8ZM38.5 26.8V23.6V26.8Z" stroke="#E0C18D" stroke-width="1.5" stroke-miterlimit="10"/>
<path d="M49.2 27.8H10.7" stroke="#E0C18D" stroke-width="1.5" stroke-miterlimit="10"/>
<path d="M10.7 22.6H49.2" stroke="#E0C18D" stroke-width="1.5" stroke-miterlimit="10"/>
<path d="M44.3 35.7V32.5M15.6 35.7V32.5V35.7ZM21.3 35.7V32.5V35.7ZM27.1 35.7V32.5V35.7ZM32.8 35.7V32.5V35.7ZM38.5 35.7V32.5V35.7Z" stroke="#E0C18D" stroke-width="1.5" stroke-miterlimit="10"/>
<path d="M44.3 44.6V41.4M15.6 44.6V41.4V44.6ZM21.3 44.6V41.4V44.6ZM27.1 44.6V41.4V44.6ZM32.8 44.6V41.4V44.6ZM38.5 44.6V41.4V44.6Z" stroke="#E0C18D" stroke-width="1.5" stroke-miterlimit="10"/>
<path d="M49.2 36.7H10.7" stroke="#E0C18D" stroke-width="1.5" stroke-miterlimit="10"/>
<path d="M49.2 45.6H10.7" stroke="#E0C18D" stroke-width="1.5" stroke-miterlimit="10"/>
<path d="M10.7 31.5H49.2" stroke="#E0C18D" stroke-width="1.5" stroke-miterlimit="10"/>
<path d="M10.7 40.4H49.2" stroke="#E0C18D" stroke-width="1.5" stroke-miterlimit="10"/>
</svg>
