<svg width="60" height="60" viewBox="0 0 60 60" fill="none" xmlns="http://www.w3.org/2000/svg">
<path d="M11.8049 50.227C17.8537 50.227 22.8293 45.2989 22.8293 39.3079C22.8293 33.3169 17.8537 28.3888 11.8049 28.3888C5.75613 28.3888 0.780518 33.3169 0.780518 39.3079C0.780518 45.3955 5.65857 50.227 11.8049 50.227Z" stroke="#73A697" stroke-width="1.5" stroke-miterlimit="10"/>
<path d="M11.8049 31.7708V46.9415" stroke="#E0C18D" stroke-width="1.5" stroke-miterlimit="10"/>
<path d="M6.34143 33.9933L17.1707 44.7191" stroke="#E0C18D" stroke-width="1.5" stroke-miterlimit="10"/>
<path d="M17.1707 33.9933L6.34143 44.7191" stroke="#E0C18D" stroke-width="1.5" stroke-miterlimit="10"/>
<path d="M4.09753 39.3079H19.4146" stroke="#E0C18D" stroke-width="1.5" stroke-miterlimit="10"/>
<path d="M49.561 50.227C53.9513 50.227 57.561 46.6517 57.561 42.3034C57.561 37.955 53.9513 34.3798 49.561 34.3798C45.1708 34.3798 41.561 37.955 41.561 42.3034C41.561 46.7483 45.1708 50.227 49.561 50.227Z" stroke="#73A697" stroke-width="1.5" stroke-miterlimit="10"/>
<path d="M49.561 36.8921V47.9078" stroke="#E0C18D" stroke-width="1.5" stroke-miterlimit="10"/>
<path d="M45.561 38.5348L53.4635 46.2651" stroke="#E0C18D" stroke-width="1.5" stroke-miterlimit="10"/>
<path d="M53.4635 38.5348L45.561 46.2651" stroke="#E0C18D" stroke-width="1.5" stroke-miterlimit="10"/>
<path d="M44 42.4H55.0244" stroke="#E0C18D" stroke-width="1.5" stroke-miterlimit="10"/>
<path d="M45.561 35.5393C50.6341 27.1326 50.6341 18.1461 45.561 8.67639H16.9756C14.3414 16.6966 13.6585 24.1371 17.7561 30.2247" stroke="#73A697" stroke-width="1.5" stroke-miterlimit="10"/>
<path d="M27.1219 43.3663H41.6585" stroke="#73A697" stroke-width="1.5" stroke-miterlimit="10"/>
<path d="M11.4146 18.3394C10.9268 16.6967 9.56092 15.5371 7.90239 15.5371C5.85361 15.5371 4.19507 17.2764 4.19507 19.4989C4.19507 23.8472 8.97556 24.1371 11.9999 22.591C13.0731 22.0113 13.9512 21.1416 14.8292 20.0787" stroke="#73A697" stroke-width="1.5" stroke-miterlimit="10"/>
<path d="M54.6342 36.409L59.2195 32.8337V25.7798H56.1951" stroke="#73A697" stroke-width="1.5" stroke-miterlimit="10"/>
<path d="M59.2195 30.3213H53.9512" stroke="#73A697" stroke-width="1.5" stroke-miterlimit="10"/>
<path d="M42.2439 32.5438C45.8536 26.0697 45.6585 19.5955 42.8292 13.1213H20.1951C19.6097 15.4404 19.2195 17.8562 19.2195 20.1753C19.2195 22.6876 19.7073 25.0067 20.9756 27.2292C24.7805 30.0314 27.0244 34.3798 27.1219 39.1146H37.6585" stroke="#E0C18D" stroke-width="1.5" stroke-miterlimit="10"/>
<path d="M31.5122 13.0247V39.0179" stroke="#E0C18D" stroke-width="1.5" stroke-miterlimit="10"/>
<path d="M31.5122 28.9685H37.0732" stroke="#E0C18D" stroke-width="1.5" stroke-miterlimit="10"/>
</svg>
