<svg width="61" height="62" viewBox="0 0 61 62" fill="none" xmlns="http://www.w3.org/2000/svg">
<path d="M53.9537 20.6098C54.2462 19.9269 54.4413 19.1464 54.4413 18.2683V16.5122C54.4413 14.9512 54.1487 13.3903 53.5636 12.0244" stroke="#73A697" stroke-width="1.5" stroke-miterlimit="10"/>
<path d="M48.4925 6.07321C46.6396 5.00004 44.5917 4.41467 42.2512 4.41467H38.3504C36.2049 4.41467 34.157 5.00004 32.4016 5.97565" stroke="#73A697" stroke-width="1.5" stroke-miterlimit="10"/>
<path d="M27.1355 11.9269C26.5504 13.3903 26.2578 14.8537 26.2578 16.5122V18.2683C26.2578 19.1464 26.4529 19.9269 26.7454 20.6098" stroke="#73A697" stroke-width="1.5" stroke-miterlimit="10"/>
<path d="M31.6215 46.0731C31.914 45.3902 32.1091 44.5121 32.1091 43.7317V41.878C32.1091 34.9512 26.4529 29.1951 19.4314 29.1951H15.4331C8.50909 29.1951 2.75537 34.8536 2.75537 41.878V43.7317C2.75537 44.6097 2.95041 45.3902 3.3405 46.1707" stroke="#73A697" stroke-width="1.5" stroke-miterlimit="10"/>
<path d="M14.0678 37.6829C15.8232 40.5121 18.9438 42.2682 23.9174 42.6585C25.9653 42.756 27.8182 42.6585 29.476 42.1707V48.9999C29.476 55.2438 24.405 60.317 18.1636 60.317H16.7984C10.557 60.317 5.48596 55.2438 5.48596 48.9999V43.0487V42.3658C8.99671 42.3658 12.4099 41.9755 14.0678 37.6829Z" stroke="#E0C18D" stroke-width="1.5" stroke-miterlimit="10"/>
<path d="M5.87601 51.9268C5.58344 52.0244 5.29088 52.0243 4.9008 52.0243C3.14543 52.0243 1.68262 50.5609 1.68262 48.8048C1.68262 47.0487 3.14543 45.5853 4.9008 45.5853C5.09584 45.5853 5.29088 45.5853 5.48592 45.6829" stroke="#E0C18D" stroke-width="1.5" stroke-miterlimit="10"/>
<path d="M29.0859 51.9268C29.3785 52.0244 29.6711 52.0243 30.0611 52.0243C31.8165 52.0243 33.2793 50.5609 33.2793 48.8048C33.2793 47.0487 31.8165 45.5853 30.0611 45.5853C29.8661 45.5853 29.6711 45.5853 29.476 45.6829" stroke="#E0C18D" stroke-width="1.5" stroke-miterlimit="10"/>
<path d="M14.0677 37.6829V36.0244" stroke="#E0C18D" stroke-width="1.5" stroke-miterlimit="10"/>
<path d="M10.557 48.2196C10.6545 47.0488 11.6297 46.1708 12.8975 46.1708C14.0678 46.1708 15.043 47.0488 15.1405 48.2196" stroke="#E0C18D" stroke-width="1.5" stroke-miterlimit="10"/>
<path d="M19.8215 48.2196C19.9191 47.0488 20.8943 46.1708 22.162 46.1708C23.3323 46.1708 24.3075 47.0488 24.405 48.2196" stroke="#E0C18D" stroke-width="1.5" stroke-miterlimit="10"/>
<path d="M22.3571 51.1464C21.8695 53 19.9191 54.4634 17.5786 54.4634C15.2381 54.4634 13.2877 53.0976 12.8 51.1464" stroke="#E0C18D" stroke-width="1.5" stroke-miterlimit="10"/>
<path d="M37.0826 12.6097C38.838 15.2439 41.7636 17 46.5421 17.3902C48.4925 17.4878 50.3454 17.3902 51.9057 16.9024V23.439C51.9057 29.3902 47.0297 34.2683 41.081 34.2683H39.7157C33.7669 34.2683 28.8909 29.3902 28.8909 23.439V17.6829V17C32.2066 17.0975 35.4248 16.7073 37.0826 12.6097Z" stroke="#E0C18D" stroke-width="1.5" stroke-miterlimit="10"/>
<path d="M29.1835 26.3658C28.891 26.4634 28.5984 26.4634 28.3058 26.4634C26.5505 26.4634 25.1852 25.0975 25.1852 23.3414C25.1852 21.5853 26.5505 20.2195 28.3058 20.2195C28.5009 20.2195 28.5984 20.2195 28.7934 20.317" stroke="#E0C18D" stroke-width="1.5" stroke-miterlimit="10"/>
<path d="M51.5157 26.3658C51.8083 26.4634 52.1009 26.4634 52.3934 26.4634C54.1488 26.4634 55.5141 25.0975 55.5141 23.3414C55.5141 21.5853 54.1488 20.2195 52.3934 20.2195C52.1984 20.2195 52.0034 20.2195 51.9058 20.317" stroke="#E0C18D" stroke-width="1.5" stroke-miterlimit="10"/>
<path d="M37.0826 12.6097V10.9512" stroke="#E0C18D" stroke-width="1.5" stroke-miterlimit="10"/>
<path d="M33.6694 22.6585C33.767 21.5853 34.7422 20.7073 35.9124 20.7073C37.0827 20.7073 37.9603 21.5853 38.1554 22.6585" stroke="#E0C18D" stroke-width="1.5" stroke-miterlimit="10"/>
<path d="M42.5438 22.6585C42.6413 21.5853 43.6166 20.7073 44.7868 20.7073C45.9571 20.7073 46.8347 21.5853 47.0298 22.6585" stroke="#E0C18D" stroke-width="1.5" stroke-miterlimit="10"/>
<path d="M44.9819 25.4878C44.4943 27.3415 42.6414 28.6097 40.3984 28.6097C38.1554 28.6097 36.3025 27.2439 35.7174 25.4878" stroke="#E0C18D" stroke-width="1.5" stroke-miterlimit="10"/>
<path d="M28.8909 3.14634C28.9884 3.14634 29.0859 3.14634 29.281 3.24391C30.0611 3.43903 30.7438 3.73171 31.3289 4.31708C33.1818 5.97561 33.2793 8.80488 31.6215 10.6585C29.9636 12.5122 27.1355 12.6098 25.2826 10.9512C24.6975 10.3659 24.3074 9.78049 24.0149 9C24.0149 8.90244 23.9173 8.80488 23.9173 8.60976L22.0645 1.87805L28.8909 3.14634Z" stroke="#73A697" stroke-width="1.5" stroke-miterlimit="10"/>
<path d="M51.4181 11.9268C52.8809 12.4146 54.5388 12.122 55.8066 10.9512C56.3917 10.3659 56.7818 9.78049 57.0743 9C57.0743 8.90244 57.1719 8.80488 57.1719 8.60976L59.0247 1.87805L52.1983 3.14634C52.1008 3.14634 52.0033 3.14634 51.8082 3.24391C51.028 3.43903 50.3454 3.73171 49.7603 4.31708C48.6876 5.29269 48.1999 6.7561 48.2975 8.12195" stroke="#73A697" stroke-width="1.5" stroke-miterlimit="10"/>
<path d="M45.2744 11.2439C44.2017 11.6341 43.129 11.5365 41.9587 11.1463C42.1538 9.878 42.4463 8.80483 43.324 7.82922C44.4943 8.31703 45.2744 9.09752 45.762 10.0731M46.6397 11.8292C47.1273 12.8048 48.005 13.5853 49.0777 14.0731C49.8579 13.0975 50.3455 12.0243 50.443 10.7561C49.2728 10.2682 48.2001 10.2682 47.1273 10.6585L46.6397 11.8292Z" stroke="#E0C18D" stroke-width="1.5" stroke-miterlimit="10"/>
</svg>
