<svg width="730" height="133" fill="none" xmlns="http://www.w3.org/2000/svg"><mask id="mask0_313_3085" style="mask-type:alpha" maskUnits="userSpaceOnUse" x="0" y="0" width="730" height="133"><path transform="rotate(-90 0 133)" fill="#C4C4C4" d="M0 133h133v730H0z"/></mask><g mask="url(#mask0_313_3085)"><path d="M730 110.157c-5.062 0-11.248-.873-15.747 0-8.999 1.309-19.122 5.674-28.121 7.857-19.121 4.801-39.93 8.294-60.177 6.111-27.557-3.056-51.741-15.714-78.174-21.389-15.185-3.492-30.37-4.802-46.117-5.675-14.622-.873-29.245-1.746-43.305-.436-7.874.873-15.747 3.492-24.183 3.492-7.312.437-15.185-.436-22.496-1.31-16.873-1.746-33.745-5.674-50.617-7.857-19.121-2.182-38.806-2.619-57.927-.873-10.686.874-22.497 3.493-28.121 10.477-4.499 5.238-3.374 10.476-4.499 16.15-.562 2.62 0 3.056-1.687 5.239-12.935 13.531-50.616 9.166-68.613 4.365-10.124-2.619-19.122-5.238-29.245-6.984-12.373-2.183-24.746-4.802-37.119-6.548-21.934-3.492-44.43-2.619-66.926-2.619H0m730-59.435c-4.499 0-8.998-.875-13.498-.875-7.311-.437-14.622 1.313-21.371 2.188-16.872 2.187-33.182 4.812-50.054 6.562-32.619 3.5-66.364 5.25-99.545 2.625-27.558-2.188-55.116-7.437-82.674-5.687-8.998.437-17.997 1.75-26.995.437-8.999-1.312-17.435-4.375-26.433-7-32.057-9.187-66.364-6.124-99.546-1.75-16.872 2.188-33.744 5.25-50.616 7-23.621 2.625-51.179-1.312-70.863 10.937-6.749 4.375-13.497 9.187-22.496 10.5-8.998 1.312-18.559-1.313-26.995-5.25-25.871-11.812-51.179-17.5-81.549-20.124-18.56-1.313-38.806 0-57.365 0" stroke="#EAE0D1" stroke-miterlimit="10"/><path d="M730 24.63c-8.449 0-19.151-.887-27.037 2.216-6.196 2.216-10.702 7.092-16.335 10.195C669.167 46.352 648.326 53 627.485 53c-15.209 0-30.417-3.546-45.625-4.433-10.703-.886-21.968-.443-32.67 0-21.968 0-50.695.443-70.409-8.866-20.841-9.752-42.809-13.742-66.466-15.072-52.948-3.103-105.332 6.207-157.716 7.537-8.449.443-17.462.443-25.347-1.33-6.196-.887-11.829-2.66-17.462-3.99-26.474-5.32-54.074 0-81.111 3.99-12.955 1.773-26.474 3.103-39.992 2.216-6.76-.443-13.519-.886-19.715-2.66-5.07-1.33-9.575-3.546-14.645-4.433-13.518-2.66-26.474-.886-39.992-.886H0m730 46.774c-25.269.872-51.662 2.616-75.808 8.718-10.669 2.615-20.777 6.538-31.446 9.154-14.038 3.487-28.638 5.666-43.238 5.23-40.993-1.307-79.177-23.538-120.17-20.922-14.6.871-28.077 4.794-42.677 5.666-38.746 2.616-75.807-15.692-114.553-13.512-10.108.436-19.654 2.615-29.2 3.923-17.97 2.615-31.446 4.359-46.608 13.512-5.054 3.052-11.231 7.846-8.423 12.641 1.685 3.051 6.738 4.359 11.231 5.667 4.492 1.307 8.984 3.923 8.423 7.41-.562 4.358-7.862 5.666-13.477 5.666-19.654-.872-39.308-6.102-55.593-15.256-3.93-2.18-7.299-4.359-11.792-6.538-16.284-7.41-35.938-5.667-55.031-6.974-15.161-.872-30.323-3.487-44.923-8.282C37.623 71.847 20.777 71.847 0 71.847" stroke="#EAE0D1" stroke-miterlimit="10"/><path d="M730 13.821c-26.453 0-45.027 9.232-70.355 14.947C634.88 34.483 608.99 37.56 583.1 38c-9.569 0-23.077-3.077-21.951-10.55.563-2.199 2.251-4.397 2.251-7.035 0-3.077-3.377-5.275-6.754-6.594C529.63.633 494.171 2.831 463.215 8.106c-34.333 6.155-68.103 13.628-103.562 9.672-23.076-2.638-42.776-.88-65.289-.88-34.333 0-64.726-17.144-96.808-15.826-24.202.88-46.153 7.474-68.103 15.387-23.64 8.353-37.148 5.715-61.35.44C47.278 12.502 21.388 13.82 0 13.82" stroke="#EAE0D1" stroke-miterlimit="10"/><path d="M276.829 135.918c0 1.314.44 3.066 1.32 3.942l.44.437v.876c0 .876.88 1.752 1.32 2.628.44 1.313.44 2.189.881 3.503.88 1.314 2.2 3.065 3.96 2.627.881 0 1.321-.875 1.761-1.313l.88-.876c.44 0 .88.438.88 0 .44-.438.44-.876.881-1.314.88-.876 2.2-1.314 3.08-2.189.44-.876 1.321-1.752 2.201-2.628.44-1.314 1.32-2.189 1.76-3.503 0-.438.44-.876.44-1.314 0-.438.44-1.314.44-1.751 0-.438.441-.876.441-1.314v-1.314c0-.438 0-2.189-.441-2.189.881.437.441 1.313.881 1.751.44.438.88 0 1.32.438.88.438.88 1.314 1.76 1.752.44 0 .44 0 .881.438.88.875 2.2 1.313 3.52 2.189.881.438 1.321.438 2.201.438h1.32s.44 0 .44.438h.441c.88 0 1.76 1.314 1.76 2.19.44-.438.88-.876.88-1.314.44-.438.44-1.314.44-1.752 0-.876 1.321-1.751 1.321-2.627 0-2.19 1.32-4.379 1.32-7.007 0-.438 0-2.627.44-2.627 0 0 .44 0 .44-.438-.44-.438-.44-.876-.44-1.314-.44-.438-.88-.438-.88-.876-.44-.876 0-1.313-.88-2.189-.881-.876-2.201-1.314-3.081-2.19-.44-.438-.88-.876-1.761-.876-1.32-.438-2.64-1.313-4.401-1.751-.88-.438-2.2 0-3.52 0-.881 0-1.761-.438-2.641-.438-.44 0-1.32 0-1.761-.438 0 0-.44-.438-.44-.876-.44-.438-.88-1.314-.88-2.189.44 0 .88 0 .88-.438s.44-.876.44-.876c.441-.438.881-.438.881 0 0 0 0 .438.44.438h.44c3.521.438 6.601.438 10.122.438h.44v-.438c0-.438.441-.438.881-.438h1.32c.44 0 .44-.438.44-.438 1.32-.876 3.521-1.314 4.401-2.628 0-.437.44-.437.44-.875.44-.438 1.321-.438 1.761-.876 1.32-.876 1.76-2.19 2.2-3.066.44-.875.88-2.627 1.761-3.503.88-.876 1.76-1.751 2.64-3.065-.88-.438-1.76.438-2.64.438-.881 0-1.321-.438-2.201-.876-.44 0-.88-.438-1.32-.438-.44 0-.88-.438-1.761-.438-.88-.438-2.2-.876-3.08-.438-1.761.438-3.521 1.314-5.282 1.752-1.32.438-2.64.438-3.961.876-1.32.438-1.76.876-2.64 1.751-1.761.876-2.641 1.752-3.521 3.504-.44.437-.44.875-.88.875 0 .438-.44.438-.44.876-.441 1.314-.881 3.066-1.321 4.379 0 .438-.44.876-.44 1.314v.876c0 .438-.44.876-.44 1.314 0 .437-.44.437-.88.437s-.44-.875-.88-1.313c-.881-1.314-.881-3.504-.881-5.255 0-.438 0-.438-.44-.876s0-1.314-.44-1.314l-.44-.438v-.438c0-.437-.44-1.313-.44-1.751 0-.438 0-.876-.44-.876 0-.438-.44-.438-.88-.438 0 .438.44.876.44 1.314 0 .876 0 .876.44 1.751.44.876.88 1.752 1.32 3.066v.438c.44 1.751.44 3.503 1.32 5.255 0 .438.441 1.313.441 2.189v.438l-.441.438c-.44.438-.44.876-.88.876-.44.438-.88.438-1.32.438-.44 0-1.32.438-1.76.876-1.321.437-2.641 1.313-3.521 1.751-.881.438-2.201 1.314-3.081 2.19-.88.876-1.32 1.751-1.76 2.627-.441.876-.881 1.752-1.321 2.19-.88.876-1.32 2.189-1.76 3.065-.881 1.314-1.321 1.752-.44 3.503.44.876 0 1.752 0 2.19 0 .438-.881 1.314-.44 2.627zm16.724-21.457l1.32-1.314v-.876c0-.438.44-.438.44-.438.44 0 .44.438.44.876l.44.438v.876h.44v.876c-.44 1.313-.88 2.627-1.32 3.503-.44.438-.44.876-.88.438s-.44-1.314-.44-1.752v-.876c0-.437-.44-.875-.44-1.313v-.438zm187.485 8.32v-.876c0-.875 0-1.751.441-2.627.44-.876.44-2.19.44-3.065.44-2.19.44-4.379 1.76-6.131.44-.438.88-1.314 1.32-1.314.441-.438 1.321-.876 1.761-1.314.44-.437.44-.875.88-1.313.44-.438.88-.438.88-.876.44-.438 1.321-.438 1.761-.876.44-.438 1.32-.438 1.76-.876.88 0 1.321-.438 2.201-.438.44-.438.88-.875 1.76-1.313.44-.438.88 0 1.32 0 1.321 0 3.081 0 4.402-.438.88 0 1.32-.438 1.76-.876l.88-.876c.88-1.314 2.201-2.19 3.961-2.19 0 0 0 .438-.44.438h-.44c-.88 0-1.76.876-2.201 1.752-.44.876-.44 1.752-.44 2.628 0 3.065.44 6.13.44 9.634 0 3.065-1.76 5.692-3.961 7.882-1.76 1.752-3.52 3.065-5.721 4.379-.44 0-.44.438-.88.438h-1.761c-.88 0-1.32 0-2.2.438-.44.438-.88.876-1.32.876h-3.081c-1.321 0-3.081.438-4.401 0-.881-.438-1.761.438-2.201 0 0-1.314 1.32-1.752 1.32-3.066 0 .438 0 .438 0 0z" fill="#73A697"/><path d="M209.042 45.065v1.752c0 .876.44 1.752.44 3.065v1.752c-.44 1.314-.88 2.19-.44 3.503v.438l-.44.438v.876c.44 1.314-.88 3.065-1.321 3.941-.44.876-.88 2.19-1.76 3.065-.88.876-2.201 1.314-3.081 2.19-.44.438-.88 1.314-1.76 1.314-.44.438-.88.438-1.321.876-.44.437-1.32.875-2.2.875-.88 0-1.76 0-2.641.438-.44.438-.44 0-.88 0h-1.32c-3.081.876-6.162 0-9.242-.876 0 .438-.441.876-.881 1.314 0 0-.44-.438 0-.438l.44-.438c.881-.876.881-2.627.881-3.94 0-1.315.44-3.066.88-4.38.44-1.752.88-3.065 1.76-4.817.44-1.314 1.321-2.19 1.761-3.503.44-1.314 1.76-2.19 2.2-3.066.88-.875 1.761-2.19 3.081-2.627 1.76-.438 3.081-1.314 4.841-2.19.44 0 .88-.438 1.32-.438.881 0 1.761-.437 2.201-.437h.88c.88 0 1.321-.438 2.201-.438 1.32 0 2.64-.438 3.961-1.314h.44c.88 0 0 2.19 0 3.065z" fill="#EAE0D1"/><path d="M389.928 49.511c-.441 0-.881.438-1.321.876-.88.438-1.32.876-2.2 1.314-.44.438-.881.438-1.321.438-1.32.438-2.2 0-3.08.876h-.881s-.44 0-.44.438c-.88.875-2.64.438-3.961.438-.88 0-2.2 0-3.08-.438-.881-.438-1.761-1.314-2.641-1.752-.44-.438-1.32-.438-1.761-.876-.44-.438-.44-.438-1.32-.876-.88-.438-1.32-.875-1.32-1.313-.44-.438-.44-1.752-1.321-1.752-.44 0-.44-.438-.44-.876s-.44-.876-.88-1.314c-1.76-2.19-2.2-4.817-2.641-7.882-.44 0-.88 0-1.32-.438 0 0 0-.438.44-.438h.44c1.321.438 2.201 0 3.521-.438 1.321-.438 2.641-.438 3.961-.875 1.32-.438 3.081-.438 4.401-.438h3.521c1.32 0 2.201.438 3.521.875 1.32.438 2.201.876 3.081 1.752.88.876 2.2 1.752 3.521 3.065.44.438.88.438.88.876.44.438.88.876 1.32 1.752v.876c0 .438.88.876.88 1.751.441 1.314 1.321 2.19 2.201 2.628 1.32 1.751-1.32 1.751-1.76 1.751z" fill="#73A697"/><path d="M429.546 12.866c0 3.941.44 7.882 0 11.386-.44 2.627-1.321 5.255-2.201 7.444-.44.876-.44 1.752-1.32 2.628-.44.875-.88 1.313-1.32 1.751-.881 1.314-1.761 2.628-3.521 3.503-.881.438-2.201 1.314-3.081 1.752-.88.876-1.76.876-3.081 1.314h-.44l-.44.438c-.44 1.313-1.76 1.751-3.081 2.627-.88.438-1.76.438-2.64.438h-2.201c-.44.876-.88 1.314-1.32 2.19-.44 0-.44-.438-.44-.438 0-.438 0-.438.44-.876s.44-.876.88-1.314c-.44-.876-1.32-1.314-1.76-1.751-.441-.876-.881-1.752-.881-2.628v-1.752c0-.437-.44-.437-.44-.875-.44-.876 0-1.314 0-1.752v-2.19c0-1.751.44-3.065.44-4.817.44-2.627 1.321-5.692 3.081-7.882 2.201-3.065 5.281-5.693 8.362-7.882.88-.438 1.32-.876 2.201-1.314.44-.438.88-.876 1.76-.876h.88c.44 0 .44 0 .881-.438.44 0 .44-.438.88-.438.88-.438 1.32-.438 2.2-.438.88 0 1.321-.437 1.761-.437 1.32 0 2.2-.876 3.52-1.752.441-.438.881-.438 1.321-.876.44 0 1.32-.438 1.32.438 0 .438-.44.876-.44 1.314-.88.876-.88 2.19-1.32 3.503zM571.48 92.264c0-.29.28-.29.56-.578.28-.29.28-.579.56-.579.28-.578.56-.289.84-1.156 0-.579 0-1.446.28-2.024 0-.29.28-.868.28-1.157 0-.289-.84-.578-.84-.289 0-1.446.28-2.891-.28-4.337-.56-1.157-1.4-2.024-1.68-3.18v-.579s-.28-.29-.56-.29c-.56-.288-.56-1.156-1.12-1.734 0-.29-.28-.578-.56-.578s-.28.289-.56.289c-.56 0-.84-.578-1.12-1.157-.56-.867-1.12-.289-1.96-.867-.28-.29-.56-.578-1.12-.868-.56-.289-1.12 0-1.68 0-.28 0-.56-.289-.84-.578-.56-.289-1.4 0-1.96-.289-2.24-.578-4.76-1.156-6.72-2.313 0 1.735.28 3.47.28 5.204 0 1.446.28 2.603.28 4.049 0 1.156.28 2.313.56 3.47.56 1.734 1.4 3.469 2.52 4.915-.28.289 0 .867.28 1.445.28.29.84.579 1.12.868.56.578.84 1.445 1.68 1.735.28.289.84.289 1.12.289.28.289.84.578.84.867.56 0 3.08 0 3.36.578V94s.28.289.56.289c1.68 0 4.2.867 5.32-.868l.28-.289.28.29c.28.578 1.96 2.023 2.52 1.445-.84-.578-2.8-1.735-2.52-2.602zm-397.249 24.349c.15-.248.39-.103.779-.206.389-.102.539-.35.778-.205.539-.35.629.042 1.317-.555.299-.495.748-1.238 1.287-1.588.149-.247.688-.597.837-.845.15-.247-.419-.929-.569-.682.748-1.237 1.735-2.33 2.004-3.857.118-1.279-.152-2.456.207-3.591l.299-.495s-.091-.392-.33-.537c-.33-.537.119-1.279-.061-2.064.149-.247.059-.64-.181-.784-.239-.145-.389.102-.629-.042-.479-.29-.419-.93-.36-1.57-.031-1.032-.809-.826-1.229-1.756-.09-.392-.18-.784-.51-1.321-.33-.537-.958-.58-1.438-.87-.239-.144-.329-.536-.42-.928-.329-.538-1.198-.725-1.528-1.262-1.618-1.653-3.475-3.451-4.555-5.455-.897 1.485-1.555 3.115-2.452 4.6-.747 1.237-1.106 2.371-1.854 3.609-.598.99-.956 2.124-1.315 3.259-.418 1.774-.596 3.694-.385 5.51-.389.103-.449.743-.508 1.382.09.393.42.93.51 1.322.18.785-.029 1.672.54 2.354.091.392.57.682.809.826.091.393.42.93.271 1.177.479.29 2.636 1.593 2.576 2.233l-.299.495s.091.392.33.537c1.438.869 3.146 2.914 5.002 2.009l.389-.103.09.393c-.059.639.631 2.745 1.409 2.54-.419-.929-1.499-2.933-.811-3.53z" fill="#EAE0D1"/><path d="M526.504 8.176c-.382-.073-.311-.443-.622-.886s-.692-.516-.622-.885c-.692-.516-.24-.813-1.314-1.402-.763-.146-1.908-.366-2.601-.882-.381-.073-1.074-.589-1.455-.662-.382-.073-.976.962-.595 1.036-1.908-.366-3.745-1.102-5.796-.729-1.668.447-3.026 1.336-4.623 1.413l-.764-.146s-.452.296-.523.666c-.523.666-1.668.446-2.574 1.039-.381-.073-.834.223-.905.593-.071.37.311.443.24.812-.142.74-.976.963-1.81 1.186-1.287.52-.665 1.405-1.641 2.367-.453.297-.905.593-1.429 1.26-.523.665-.283 1.478-.425 2.217-.071.37-.523.666-.976.963-.523.666-.354 1.848-.878 2.514-1.33 2.81-2.731 5.99-4.754 8.285 2.29.439 4.651.508 6.941.948 1.908.365 3.506.289 5.414.655 1.527.292 3.125.215 4.722.139 2.432-.3 4.935-.97 7.127-2.083.31.443 1.145.22 1.979-.004.452-.296.976-.962 1.428-1.258.905-.593 2.121-.743 2.716-1.779.452-.296.594-1.036.665-1.405.452-.297.976-.963 1.357-.89.142-.739.78-4.065 1.614-4.288l.764.146s.452-.296.523-.666c.425-2.218 2.208-5.325.202-7.242l-.311-.443.452-.296c.835-.224 3.168-2.075 2.547-2.96-.976.962-2.999 3.256-4.073 2.667zM101.287 19.741c-.042-.251.202-.292.404-.584s.16-.543.404-.584c.161-.543.446-.332.565-1.127-.083-.503-.208-1.258-.047-1.802-.042-.252.119-.795.077-1.047-.042-.252-.814-.382-.773-.13-.208-1.26-.172-2.558-.867-3.736-.654-.926-1.51-1.56-1.92-2.526l-.083-.504s-.285-.211-.529-.17c-.529-.172-.654-.927-1.224-1.35-.042-.251-.327-.463-.571-.423-.244.04-.202.292-.446.333-.487.08-.814-.383-1.141-.846-.612-.674-1.016-.09-1.83-.473-.286-.212-.571-.423-1.1-.594-.53-.171-.975.161-1.463.242-.243.04-.529-.172-.814-.383-.529-.171-1.219.201-1.748.03C86.15 3.886 83.873 3.745 82 3.02c.25 1.51.742 2.98.992 4.49.208 1.258.618 2.225.826 3.483.166 1.007.576 1.973.986 2.94.737 1.43 1.718 2.818 2.9 3.916-.202.292.125.755.452 1.218.285.211.814.382 1.1.594.57.422.939 1.137 1.711 1.268.286.212.773.131 1.017.09.285.212.814.383.856.635.487-.08 2.68-.443 3.007.02l.084.503s.285.212.529.172c1.462-.242 3.78.15 4.506-1.52l.202-.293.285.212c.327.463 1.997 1.48 2.401.896-.814-.383-2.686-1.107-2.567-1.903zm540.83 46.112l2.201.876.44.438s.44.438.88.438c1.32.437 2.201 1.313 3.521 1.751 1.32.438 2.641.876 3.961.876h2.2c.441 0 .881 0 .881-.438l.44-.438h3.081c.88-.438 1.32-.876 2.2-1.314.88-.438 1.76-.438 2.641-.875-1.321.875-2.641 2.19-3.961 3.503-.881 1.314-2.201 3.065-2.641 4.817 0 .438-.44.876-.44 1.314v.875c0 .876-.44 1.314-.44 1.752-.44.876-.44 1.752-.44 2.19 0 .875.44 1.313.44 1.751v.876c0 .438.44.438.44.438v.876c0 .438.44.438 0 .876h.44c.44-.438.88-.438 1.32-.438.881 0 1.321-.438 2.201-.438.88 0 1.76 0 2.641-.438.44 0 .88 0 .88-.438.44 0 .44-.438.88-.438h.44s.44 0 .44-.438c.88-.438 1.321-.876 2.201-1.752l.44-.437h.44l1.32-1.314c.44-.438.44-1.314.881-1.314.88-.438 1.32-.438 1.76-.876.44-.438.44-1.313.88-1.751.44-1.314 1.761-1.752 2.201-2.628.88-1.314.88-2.627 1.32-3.941.88-2.627 1.32-5.255 2.641-7.444 1.32-2.19 3.08-3.504 5.281-4.817.88-.438 2.2-.876 3.081-1.314.44 0 1.32-.438 1.76-.438 1.761-.438 3.081-1.314 4.841-1.314-.44.438-.44.876-.88.876-.44.438-.88.876-.88 1.314 0 0 0 .438-.44.438h-.44l-2.641 1.313c-.44.438-1.32.876-1.76 1.314-.881.438-1.321 1.314-1.761 1.752l-2.2 2.19c-.881.437-1.321 1.313-1.761 2.189 0 .438-.44.876-.88 1.314-.44.438-.44.875-.88 1.751-.88 2.19-1.321 4.817-1.761 7.007v3.065c0 .876.44 1.752.881 2.628.88 2.19 1.32 3.94 2.2 6.13.44-1.751 2.641-2.627 4.401-3.503a13.376 13.376 0 003.521-3.503c1.76-2.628 3.521-5.255 4.841-8.32.44-1.314 1.321-3.066 1.761-4.38.44-1.313.88-3.065.88-4.817 0-1.313-.88-2.19-1.32-3.503-.441-.876-.881-1.752-1.761-2.627l-.44-.438v-.438c.44-.438.44-.876.88-.876.44-.438.44-.876.88-.876.441-.438 1.321-.438 2.201-.438 1.76-.438 3.521-.438 4.841-.876 1.761-.437 3.081-1.313 4.841-1.751v-.438c0 .438-1.76.438-1.76.438-.44 0-.88 0-1.32.438-.441 0-.441.438-.881.438-.88.438-1.32.876-2.2.876-.88 0-1.761.437-2.641.437-1.76.438-3.521.876-5.281.876h-.88c-.881-.438-1.321-1.313-2.201-1.751-.44-.438-.88-.876-.88-1.314v-.876c0-.876-.44-1.314-.88-2.19-.44-.437-.881-.437-.881-.875-.88-.876-.44-2.19-.88-3.066-.44-1.313-.88-2.19-1.76-3.065-.88-.876-1.761-1.752-2.641-2.19-.88-.438-1.76-1.313-2.64-1.313h-.881c-.44 0-.44-.438-.88-.438h-2.641c-.88 0-2.2 0-3.08.438-.88 0-1.761.438-2.201.876-.88.437-1.76 1.313-2.64 1.751-.441 0-.441.438-.881.438-1.76.876-3.521 1.752-4.841 2.627 0 0-.44 0-.44.438v.438c.44.876.88 2.19.88 3.066.44.876.44 1.751.881 3.065 0 .438.44.876.44 1.314.44.438.44.438.44 1.313v.438c0 .438.88.438.88.438.44.438.44.876.44 1.314.44.876 1.32 1.752 2.201 2.19.88.438 1.76.875 3.08 1.313.44 0 .881.438 1.321.438 1.76 0 3.52-.438 5.281-1.313l5.281-2.628c1.321-.876 3.081-1.314 4.841-1.314 1.761 0 3.521.876 3.961 2.19-.88.438-2.2.876-3.08.876l-2.641 1.313c-2.201 1.314-4.841 2.19-7.482 2.628-2.641.438-5.281.438-7.922 1.314-.44 0-1.32.438-1.76.438-.88 0-1.321-.438-1.761-.876-.44-.438-.88-.876-1.76-.876-1.32-.876-2.641-.438-3.961-.876-.44-.438-.88-.438-1.32-.876-.881-.438-1.761-.438-3.081-.438-.88 0-1.761 0-2.641.438h-.88c-.44 0-.88.438-1.32.876l-2.641 1.314-.44.438c-.44.438-.88 0-1.761.438l-5.281 3.94-.44.439s0 .438-.44.438c2.201-1.752 1.32-1.752.88-1.314zm25.086 0c0-.438.44-.438.881-.876l.44-.438c.44-.438.88-1.314 1.32-1.752.44-.437.44-.875.88-.875 0 0 .44 0 .88-.438.881-.438 2.201-.438 3.081-.876 1.321-.438 2.201-.438 3.521-.876 1.76-.438 3.961-.876 6.162-1.314 0 .438-1.321 1.752-1.321 1.752-.44.438-.44.876-.88.876 0 .438-.44.438-.88.438h-.88c-1.321 0-2.201 0-3.081.438-.88 0-1.321.438-2.201.438-.44 0-.44.438-.88.438h-.88l-6.162 3.065zm-635.55-14.53l1.001 2.147.02.62s.02.62.341.923c.66 1.224.701 2.465 1.362 3.689.66 1.224 1.322 2.448 2.283 3.353l1.602 1.509c.32.302.64.603.94.285l.621-.017.961.905 1.282 1.207c.94.285 1.561.268 2.502.552.941.285 1.582.889 2.523 1.174-1.562-.268-3.424-.217-5.285-.166-1.542.353-3.704.722-5.225 1.696-.3.318-.921.335-1.222.654l-.6.638c-.6.637-1.221.654-1.521.973-.921.336-1.522.973-1.822 1.292-.6.638-.58 1.258-.88 1.577l-.601.638c-.3.318.02.62.02.62l-.6.638c-.3.318.02.62-.601.637l.32.302c.621-.017.941.285 1.262.586.64.604 1.261.587 1.902 1.19.64.604 1.281 1.207 2.222 1.492.32.302.64.604.941.285.32.302.62-.017.941.285l.32.301s.32.302.621-.017c.941.285 1.562.268 2.803.234l.62-.017.321.302 1.862-.051c.62-.017 1.221-.655 1.541-.353.941.285 1.262.587 1.882.57.62-.017 1.221-.655 1.842-.672 1.221-.654 2.483-.068 3.403-.404 1.542-.352 2.443-1.309 3.664-1.963 2.442-1.31 4.564-2.92 7.026-3.609 2.463-.688 4.645-.438 7.147.115.941.285 2.203.871 3.144 1.156.32.302 1.261.587 1.582.888 1.581.889 3.143 1.156 4.424 2.363-.62.017-.92.336-1.24.034-.621.017-1.242.034-1.542.353 0 0-.3.319-.621.017l-.32-.302-2.823-.854c-.62.017-1.562-.268-2.183-.25-.94-.285-1.861.05-2.482.067L64.23 79c-.941-.284-1.862.051-2.783.387-.3.319-.92.336-1.541.353-.621.017-.921.336-1.842.672-2.142.99-4.264 2.6-6.086 3.893l-2.101 2.231c-.6.638-.881 1.577-1.161 2.516-.86 2.197-1.741 3.774-2.602 5.972 1.521-.974 3.724-.102 5.606.467a13.36 13.36 0 004.965-.136c3.083-.705 6.166-1.41 9.229-2.737 1.22-.654 3.063-1.326 4.284-1.98 1.22-.655 2.742-1.629 3.943-2.904.9-.956.86-2.197 1.441-3.455.28-.94.56-1.879.52-3.12l-.02-.62.3-.319c.62-.017.921-.336 1.242-.034.62-.017.92-.336 1.24-.034.621-.017 1.262.587 1.903 1.19 1.582.889 2.863 2.096 4.124 2.682 1.582.888 3.144 1.156 4.725 2.044l.3-.319c-.3.32-1.581-.888-1.581-.888-.32-.302-.64-.603-1.261-.586-.32-.302-.621.017-.941-.285-.941-.285-1.562-.268-2.203-.871-.64-.604-1.582-.889-2.222-1.492-1.582-.888-3.164-1.777-4.445-2.984l-.32-.302-.32-.301c-.341-.922-.061-1.862-.402-2.784-.02-.62-.04-1.241.26-1.56l.6-.637c.601-.638.581-1.258.861-2.198-.02-.62-.34-.922-.04-1.24-.04-1.242 1.181-1.896 1.461-2.836.58-1.258.86-2.197.82-3.438-.04-1.241-.08-2.482-.42-3.404-.34-.923-.381-2.164-1.022-2.767l-.64-.604c-.32-.302-.02-.62-.341-.922l-.64-.604c-.321-.301-.642-.603-1.282-1.207-.641-.603-1.602-1.509-2.543-1.793-.64-.604-1.582-.889-2.202-.872-.941-.284-2.183-.25-3.124-.535-.32-.302-.62.017-.94-.285-1.882-.57-3.764-1.139-5.326-1.407 0 0-.32-.301-.62.017l-.301.32c-.28.938-.86 2.197-1.461 2.834-.28.94-.88 1.577-1.461 2.835-.3.319-.28.94-.58 1.258.02.62.02.62-.58 1.258l-.301.319c-.3.319.34.922.34.922.02.62-.28.94-.58 1.258-.28.94-.24 2.18.1 3.103.341.922.681 1.844 1.342 3.068.32.302.34.923.661 1.225 1.282 1.206 2.863 2.095 4.745 2.664l5.646 1.709c1.562.268 3.144 1.156 4.425 2.363 1.281 1.207 1.962 3.052 1.382 4.31-.94-.285-2.202-.872-2.843-1.475l-2.823-.855c-2.503-.552-5.025-1.725-7.248-3.217-2.222-1.492-4.144-3.302-6.667-4.475-.32-.302-1.261-.587-1.582-.889-.64-.603-.66-1.224-.68-1.844-.02-.62-.041-1.241-.682-1.845-.36-1.543-1.622-2.129-2.282-3.353-.02-.62-.341-.922-.361-1.543-.34-.922-.981-1.526-1.942-2.43-.641-.605-1.282-1.208-2.223-1.493l-.64-.603c-.32-.302-.942-.285-1.562-.268l-2.823-.854-.62.017c-.621.017-.642-.604-1.582-.889l-6.547-.752-.62.017s-.301.319-.621.017c2.802.234 2.162-.37 1.541-.353zm18.26 17.2c.301-.318.622-.016 1.242-.033l.62-.017c.621-.017 1.542-.353 2.163-.37.62-.017.92-.336 1.241-.034 0 0 .32.302.941.285.941.284 1.902 1.19 2.843 1.475 1.262.586 1.902 1.19 3.164 1.776 1.581.888 3.483 2.078 5.386 3.269-.3.318-2.163.37-2.163.37-.62.016-.92.335-1.24.033-.301.319-.621.017-.942-.284l-.64-.604c-.962-.905-1.602-1.509-2.543-1.794-.641-.603-1.262-.586-1.902-1.19-.32-.301-.621.017-.941-.284l-.641-.604-6.587-1.993z" fill="#73A697"/></g></svg>