<svg width="25" height="13" viewBox="0 0 25 13" fill="none" xmlns="http://www.w3.org/2000/svg">
<path d="M2.71852 5.08741C4.37486 4.04879 5.91522 2.82521 7.5035 2.08696C8.7237 1.57951 10.0599 1.25702 11.212 1.04993C11.6961 1.00409 12.0642 0.773265 12.6642 0.912383C13.1482 0.86654 13.4483 0.936105 13.7483 1.00566C14.5324 1.02938 15.3164 1.0531 16.1484 1.56214C16.5644 1.81666 17.2804 2.14073 17.6964 2.39525C18.2965 2.53437 18.5284 2.90429 19.0604 3.34377L19.1764 3.52874L19.4764 3.59831C20.1445 3.43707 20.6765 3.87654 21.3925 4.20062C21.8085 4.45514 22.0405 4.82505 22.2724 5.19497C22.3884 5.37993 22.7364 5.93481 22.8523 6.11977C23.3364 6.07393 23.6364 6.14349 24.1205 6.09765C24.2365 6.28261 24.0524 6.39802 24.0524 6.39802C23.8684 6.51343 23.8684 6.51342 23.5684 6.44386C23.2683 6.3743 23.0843 6.4897 22.7843 6.42015C22.5322 6.83591 22.5801 7.32122 22.5121 7.62158C22.26 8.03735 22.0079 8.45314 21.6398 8.68394C21.4558 8.79934 21.0877 9.03015 20.9037 9.14555C20.7196 9.26095 20.8356 9.44589 20.6516 9.56129C20.3995 9.97706 20.0994 9.9075 19.9154 10.0229C19.5473 10.2537 19.1793 10.4845 18.9952 10.5999C18.2591 11.0615 17.591 11.2228 16.8548 11.6844C15.6346 12.1918 14.1144 12.6297 12.7303 12.4669C10.8621 12.3499 8.94603 11.7476 7.21398 11.0299C6.79798 10.7753 6.49796 10.7058 6.08196 10.4513C5.78194 10.3817 5.48193 10.3122 5.24997 9.94223C5.13399 9.75727 5.13397 9.75725 5.01799 9.57229C4.90201 9.38733 4.90202 9.38733 4.602 9.31777C4.48601 9.13281 4.30198 9.24822 4.186 9.06326C3.77001 8.80874 3.65402 8.62378 3.42206 8.25386C3.1901 7.88393 2.89009 7.81439 2.77411 7.62943C2.42616 7.07454 1.82612 6.93542 1.1101 6.61134C0.810087 6.54178 0.694107 6.35681 0.394089 6.28725C0.278108 6.10229 -0.137897 5.84777 0.230177 5.61697C0.414216 5.50156 0.714239 5.57114 0.898276 5.45573C1.49831 5.59485 2.05043 5.24865 2.71852 5.08741Z" fill="#E8E4DE"/>
</svg>
