<svg width="61" height="11" viewBox="0 0 61 11" fill="none" xmlns="http://www.w3.org/2000/svg">
<path fill-rule="evenodd" clip-rule="evenodd" d="M57.7009 5.92991C31.8498 20.1426 26.2692 -4.79413 5.93481 2.57058C5.16505 2.82901 3.68971 3.47505 2.47094 3.99184C2.08603 4.18565 0.867251 4.63789 0.546513 4.83169C-0.0307875 5.09013 -0.0948936 4.96088 0.0974941 4.44408C0.28995 3.99184 0.482408 3.47505 0.803145 3.08744C1.12388 2.76438 1.89364 2.50602 2.47094 2.31221C3.75382 1.79535 5.35751 1.21393 6.25555 0.955501C26.7823 -4.98794 30.6952 19.3673 57.9576 3.79804C58.5348 3.47505 58.5348 3.47505 59.1759 3.86266L59.6255 4.12102C60.3949 4.50871 60.2027 4.63789 59.561 5.0255C59.0476 5.15468 58.2781 5.60692 57.7009 5.92991Z" fill="#E0C18D"/>
</svg>
