<svg width="22" height="22" viewBox="0 0 22 22" fill="none" xmlns="http://www.w3.org/2000/svg">
<path fill-rule="evenodd" clip-rule="evenodd" d="M7.63059 3H14.3694C16.9169 3 19 5.08314 19 7.63059V14.3694C19 16.9169 16.9169 19 14.3694 19H7.63059C5.08314 19 3 16.9169 3 14.3694V7.63059C3 5.08314 5.08314 3 7.63059 3ZM7.63059 4.42431H14.3694C16.1325 4.42431 17.5757 5.86745 17.5757 7.63059V14.3694C17.5757 16.1325 16.1325 17.5757 14.3694 17.5757H7.63059C5.86745 17.5757 4.42431 16.1325 4.42431 14.3694V7.63059C4.42431 5.86745 5.86745 4.42431 7.63059 4.42431ZM11 6.8902C13.2714 6.8902 15.1098 8.72863 15.1098 11C15.1098 13.2714 13.2714 15.1098 11 15.1098C8.72863 15.1098 6.8902 13.2714 6.8902 11C6.8902 8.72863 8.72863 6.8902 11 6.8902ZM11 8.30824C12.4871 8.30824 13.6918 9.51294 13.6918 11C13.6918 12.4871 12.4871 13.6918 11 13.6918C9.51294 13.6918 8.30824 12.4871 8.30824 11C8.30824 9.51294 9.51294 8.30824 11 8.30824ZM15.3922 7.63059C14.8776 7.63059 14.4573 7.2102 14.4573 6.69569C14.4573 6.18118 14.8714 5.76078 15.3922 5.76078C15.9067 5.76078 16.3271 6.18118 16.3271 6.69569C16.3271 7.2102 15.9067 7.63059 15.3922 7.63059Z" fill="#73A697"/>
</svg>
