<svg width="14" height="14" viewBox="0 0 14 14" fill="none" xmlns="http://www.w3.org/2000/svg">
<path d="M11.0922 8.50686C10.6585 8.0787 10.1171 8.0787 9.6862 8.50686C9.35747 8.83281 9.02875 9.15876 8.70556 9.49023C8.61716 9.58139 8.54258 9.60072 8.43485 9.53995C8.22214 9.42394 7.99563 9.33002 7.79122 9.20295C6.8382 8.60354 6.03988 7.83286 5.33272 6.9655C4.9819 6.53459 4.66975 6.07328 4.45152 5.55397C4.40732 5.44901 4.41561 5.37995 4.50124 5.29432C4.82997 4.97666 5.1504 4.65071 5.4736 4.32476C5.92386 3.87174 5.92386 3.34138 5.47083 2.88561C5.21393 2.62595 4.95703 2.37182 4.70013 2.11217C4.43495 1.84699 4.17252 1.57905 3.90457 1.31663C3.47088 0.893998 2.92946 0.893998 2.49853 1.31939C2.16705 1.64534 1.84938 1.97958 1.51237 2.3C1.20022 2.59557 1.04277 2.95743 1.00962 3.38006C0.957135 4.06786 1.12564 4.717 1.3632 5.34957C1.84938 6.65889 2.58969 7.82181 3.48746 8.88805C4.70013 10.33 6.14761 11.4708 7.84094 12.294C8.60335 12.6641 9.39338 12.9486 10.2525 12.9956C10.8436 13.0287 11.3574 12.8796 11.769 12.4183C12.0508 12.1034 12.3684 11.8161 12.6668 11.515C13.1088 11.0675 13.1115 10.5261 12.6723 10.0841C12.1475 9.55653 11.6198 9.03169 11.0922 8.50686Z" stroke="#73A697"/>
</svg>
