<svg width="24" height="26" viewBox="0 0 24 26" fill="none" xmlns="http://www.w3.org/2000/svg">
<path d="M21.2909 2.53599C20.6621 1.93983 18.1208 0.044413 12.4601 0.0186622C12.4601 0.0186622 5.78483 -0.394911 2.53072 2.67177C0.719299 4.53324 0.0820727 7.25697 0.0148564 10.6338C-0.05236 14.0107 -0.139324 20.3391 5.79812 22.0551H5.80382L5.80002 24.6735C5.80002 24.6735 5.76205 25.7335 6.44143 25.9497C7.26321 26.2119 7.7455 25.4062 8.53007 24.5377C8.96071 24.0609 9.55541 23.3606 10.0035 22.8253C14.0642 23.1764 17.1873 22.3738 17.542 22.2552C18.3619 21.9821 23.0013 21.3715 23.7559 15.0434C24.5348 8.52109 23.3792 4.39551 21.2909 2.53599Z" fill="#73A697"/>
<path d="M19.8184 3.99088C19.2969 3.50161 17.0458 2.04113 12.3487 2.01998C12.3487 2.01998 6.78673 1.64264 4.08675 4.16781C2.58403 5.69983 2.07778 7.97806 2.02228 10.7582C1.96677 13.5384 1.67919 18.8495 6.6042 20.2623C6.6042 20.2623 6.58483 24.2053 6.58259 24.5518C6.58259 24.7942 6.61984 24.96 6.75395 24.9942C6.85043 25.0184 6.99496 24.9669 7.11789 24.8403C7.90539 24.0237 10.4266 20.8831 10.4266 20.8831C13.8094 21.1112 16.5008 20.4216 16.7902 20.3239C17.4727 20.0973 21.1639 19.77 21.7886 14.5596C22.4342 9.18891 21.5513 5.5229 19.8184 3.99088Z" fill="#17443F"/>
<path d="M14 11C13.9349 9.73066 13.2682 9.06399 12 9" stroke="#73A697" stroke-linecap="round" stroke-linejoin="round"/>
<path d="M15.9987 11C16.0238 9.89833 15.681 8.97788 14.9703 8.23867C14.2564 7.49683 13.2682 7.08835 12 7" stroke="#73A697" stroke-linecap="round" stroke-linejoin="round"/>
<path d="M18 12C17.9853 9.83592 17.4065 8.13154 16.2637 6.88686C15.1209 5.64218 13.6997 5.01323 12 5" stroke="#73A697" stroke-linecap="round" stroke-linejoin="round"/>
<path d="M11.819 14.7131C11.819 14.7131 12.2785 14.7488 12.5259 14.4675L13.0083 13.9073C13.241 13.6296 13.8025 13.4524 14.3524 13.7352C14.7645 13.9521 15.1646 14.1879 15.5511 14.4417C15.916 14.6894 16.6633 15.265 16.6657 15.265C17.0217 15.5424 17.1039 15.9497 16.8615 16.3792C16.8615 16.3818 16.8596 16.386 16.8596 16.3882C16.5926 16.8153 16.2537 17.2005 15.8555 17.5293C15.8509 17.5314 15.8509 17.5336 15.8466 17.5357C15.5007 17.8025 15.1609 17.9542 14.8271 17.9907C14.778 17.9986 14.728 18.0015 14.6782 17.9993C14.531 18.0006 14.3846 17.9798 14.2446 17.9377L14.2338 17.923C13.7196 17.7892 12.861 17.4541 11.4312 16.7261C10.6038 16.3097 9.81604 15.8295 9.07646 15.2904C8.70576 15.0204 8.35216 14.7309 8.01739 14.4235L7.98171 14.3906L7.94603 14.3576L7.91036 14.3247C7.89833 14.314 7.8867 14.3029 7.87468 14.2918C7.5416 13.9828 7.228 13.6564 6.93543 13.3142C6.35149 12.6317 5.83115 11.9047 5.37998 11.1412C4.5912 9.82113 4.22822 9.02938 4.08318 8.55404L4.06728 8.54401C4.02182 8.41482 3.99942 8.27967 4.00097 8.14384C3.99825 8.09786 4.00125 8.05175 4.00989 8.00639C4.05151 7.69881 4.21607 7.3849 4.50355 7.06466C4.50588 7.06073 4.50821 7.06073 4.51053 7.05643C4.86665 6.68894 5.28399 6.37623 5.74683 6.13009C5.74916 6.13009 5.75381 6.12794 5.75653 6.12794C6.22189 5.90423 6.6632 5.98011 6.96335 6.30691C6.96568 6.30906 7.5881 6.9988 7.85529 7.33562C8.13033 7.69275 8.38582 8.06236 8.6208 8.44308C8.92716 8.95027 8.7352 9.46964 8.43427 9.68369L7.82737 10.129C7.52101 10.3573 7.56134 10.7815 7.56134 10.7815C7.56134 10.7815 8.46025 13.9217 11.819 14.7131Z" fill="#73A697"/>
</svg>
