<svg width="27" height="27" viewBox="0 0 27 27" fill="none" xmlns="http://www.w3.org/2000/svg">
<path d="M7.18606 21.9906L7.57944 22.2238C9.23239 23.2048 11.1275 23.7235 13.06 23.7246H13.0642C18.9993 23.7246 23.8297 18.8953 23.8319 12.9599C23.8329 10.0833 22.714 7.37884 20.681 5.34398C18.6478 3.30949 15.9447 2.18828 13.0681 2.18708C7.12855 2.18708 2.29813 7.01563 2.29589 12.9511C2.29511 14.985 2.86408 16.9659 3.94212 18.6796L4.19835 19.0869L3.1103 23.0592L7.18606 21.9906ZM0 26.1362L1.83791 19.4251C0.704266 17.461 0.107887 15.2329 0.10882 12.9504C0.111584 5.80957 5.92287 0 13.0645 0C16.5299 0.00149375 19.7826 1.3502 22.2287 3.79823C24.6744 6.24623 26.0209 9.50026 26.0198 12.9609C26.0168 20.1014 20.2043 25.9121 13.0645 25.9121C13.064 25.9121 13.0648 25.9121 13.0645 25.9121H13.059C10.8908 25.9114 8.76032 25.3675 6.86811 24.3354L0 26.1362Z" fill="white"/>
<path d="M0.555545 12.9574C0.554761 15.1606 1.13045 17.3116 2.22511 19.208L0.450684 25.6867L7.0807 23.9483C8.90741 24.9437 10.9641 25.4692 13.0572 25.4699H13.0626C19.9555 25.4699 25.566 19.8608 25.569 12.9672C25.5703 9.62637 24.2706 6.48543 21.9092 4.12194C19.5481 1.75879 16.408 0.456647 13.062 0.455078C6.16875 0.455078 0.55822 6.06336 0.555233 12.9574L0.555545 12.9574ZM13.0624 25.4698H13.0625H13.0624C13.0623 25.4698 13.0621 25.4698 13.0624 25.4698Z" fill="#17443F"/>
<path d="M0.10882 12.9543C0.108036 15.2367 0.704416 17.465 1.83806 19.4289L0 26.1396L6.86789 24.3389C8.76021 25.3708 10.8906 25.9146 13.0587 25.9155H13.0643C20.204 25.9155 26.0166 20.1048 26.0196 12.9643C26.0208 9.50349 24.6742 6.24954 22.2284 3.80166C19.7823 1.35377 16.5298 0.00491172 13.0643 0.00341797C5.92303 0.00341797 0.11159 5.81299 0.108602 12.9539L0.10882 12.9543ZM4.19849 19.0906L3.94212 18.6834C2.86408 16.9694 2.29511 14.9886 2.2959 12.9548C2.29825 7.01979 7.12856 2.19087 13.0681 2.19087C15.9444 2.19199 18.6476 3.31331 20.681 5.34776C22.7141 7.38236 23.8329 10.0871 23.8321 12.9633C23.8295 18.8987 18.9991 23.728 13.064 23.728H13.0598C11.1273 23.7269 9.23206 23.2081 7.57923 22.2273L7.18585 21.9942L3.11015 23.0627L4.19849 19.0906ZM13.0643 25.9155H13.0644H13.0643C13.0641 25.9155 13.064 25.9155 13.0643 25.9155Z" fill="#73A697"/>
<path fill-rule="evenodd" clip-rule="evenodd" d="M9.82644 7.53856C9.58391 6.99947 9.32872 6.98868 9.09805 6.97919C8.90927 6.97116 8.69335 6.97169 8.47769 6.97169C8.26177 6.97169 7.91108 7.05271 7.61453 7.37664C7.31772 7.70059 6.48145 8.48366 6.48145 10.0763C6.48145 11.669 7.64157 13.208 7.80319 13.4242C7.9651 13.64 10.0427 17.0128 13.3327 18.3102C16.0672 19.3885 16.6237 19.1741 17.2172 19.12C17.8107 19.0661 19.1324 18.3372 19.4021 17.5813C19.6719 16.8255 19.6719 16.1776 19.591 16.0423C19.5101 15.9074 19.2942 15.8264 18.9705 15.6646C18.6467 15.5027 17.0553 14.7195 16.7586 14.6115C16.4618 14.5036 16.246 14.4497 16.0301 14.7738C15.8143 15.0975 15.1943 15.8264 15.0054 16.0423C14.8166 16.2587 14.6277 16.2857 14.304 16.1238C13.9802 15.9613 12.9376 15.6198 11.7008 14.5172C10.7384 13.6592 10.0888 12.5996 9.89989 12.2755C9.7111 11.9518 9.87973 11.7765 10.042 11.6151C10.1875 11.47 10.3659 11.2371 10.5278 11.0482C10.6893 10.8591 10.7432 10.7242 10.8511 10.5083C10.9591 10.2922 10.9051 10.1032 10.8242 9.94127C10.7432 9.77937 10.1141 8.17857 9.82625 7.53846" fill="#73A697"/>
</svg>
