<svg width="18" height="18" viewBox="0 0 18 18" fill="none" xmlns="http://www.w3.org/2000/svg">
<path d="M9 1C11.2326 1 13 2.04464 13 5.5C13 7.99107 11.2326 10 9 10C6.76744 10 5 7.91071 5 5.41964C5 2.04464 6.76744 1 9 1Z" stroke="#E0C18D" stroke-width="2" stroke-miterlimit="10"/>
<path d="M6.64045 11C5.69663 11.6306 5.30337 11.7567 4.67416 12.009C3.33708 12.5134 2 12.7657 2 14.09C2 14.4683 2 14.5944 2 14.7836C2 15.6034 2.23596 15.6665 3.17978 16.0448C4.91011 16.8015 6.64045 17.0538 9 16.9907C11.3596 16.9907 13.1685 16.7385 14.8202 16.0448C15.764 15.6034 16 15.6034 16 14.7836C16 14.5944 16 14.4683 16 14.09C16 12.7026 14.6629 12.5134 13.3258 12.009C12.6966 11.7567 12.3034 11.6306 11.3596 11" stroke="#E0C18D" stroke-width="2" stroke-miterlimit="10"/>
</svg>
