<svg width="151" height="55" viewBox="0 0 151 55" fill="none" xmlns="http://www.w3.org/2000/svg">
<path fill-rule="evenodd" clip-rule="evenodd" d="M18.5382 24.2261C18.6024 23.9676 18.8589 23.7738 19.1797 23.6446C19.3721 23.58 19.5646 23.58 19.757 23.5154C19.9494 23.5154 20.1419 23.4508 20.3343 23.4508C20.5267 23.4508 20.7192 23.4508 20.8475 23.3862C20.9758 23.3862 21.1041 23.3862 21.2324 23.3862C21.3607 23.3862 21.4889 23.3862 21.4889 23.4508C21.5531 23.5154 21.5531 23.58 21.5531 23.6446C21.5531 23.7092 21.4889 23.7738 21.4889 23.9676L12.5085 45.6096C12.3802 45.8034 12.316 45.9326 12.1878 45.9326C12.1237 45.9326 11.9953 45.9326 11.867 45.9972C11.7387 45.9972 11.5463 45.9972 11.418 45.9972C11.2897 45.9972 11.0973 45.9972 10.969 45.9972C10.8407 45.9972 10.7124 45.9972 10.6482 45.9972C10.5841 45.9972 10.52 45.9972 10.4558 45.9326C10.3917 45.868 10.3275 45.8034 10.2634 45.6742L2.82243 26.4225C2.56585 25.7765 2.30926 25.3889 1.98853 25.1951C1.6678 25.0013 1.34707 24.8721 0.898045 24.8721C0.769757 24.8721 0.641462 24.8721 0.513169 24.8721C0.384877 24.8721 0.256585 24.9367 0.0641462 24.9367L0 23.903C0.577316 23.7738 1.09049 23.7092 1.6678 23.58C2.24512 23.5154 2.75828 23.4508 3.20731 23.3862C3.65633 23.3216 4.04121 23.257 4.36194 23.257C4.68267 23.257 4.8751 23.257 4.93925 23.257C5.13169 23.257 5.25998 23.3216 5.32413 23.4508C5.38828 23.58 5.51657 23.7092 5.58071 23.9676L12.316 41.6688H12.3802L18.5382 24.2261Z" fill="white"/>
<path fill-rule="evenodd" clip-rule="evenodd" d="M27.6469 44.4467C28.3526 44.4467 28.8658 44.3176 29.3148 43.9946C29.7638 43.6715 30.0845 43.2839 30.3411 42.8317C30.5977 42.3795 30.7901 41.8626 30.8543 41.2812C30.9184 40.6998 30.9826 40.1184 30.9826 39.6015C30.9826 38.8909 30.9184 38.1803 30.7901 37.405C30.6619 36.6298 30.4052 35.9192 30.0846 35.2732C29.7638 34.6271 29.3148 34.1103 28.7374 33.6581C28.1601 33.2705 27.5187 33.012 26.6848 33.012C25.9792 33.012 25.466 33.1413 25.017 33.4643C24.568 33.7873 24.2472 34.1749 23.9906 34.6271C23.7341 35.0793 23.5416 35.6608 23.4775 36.1776C23.3492 36.759 23.3492 37.3405 23.3492 37.9219C23.3492 38.6325 23.4133 39.3432 23.6058 40.1184C23.7341 40.8936 23.9906 41.6042 24.3114 42.1857C24.6321 42.8317 25.0811 43.3485 25.6585 43.7361C26.1716 44.1884 26.8131 44.4467 27.6469 44.4467ZM26.7489 46.1264C25.7226 46.1264 24.7604 45.9326 23.9265 45.545C23.0926 45.1574 22.3228 44.6405 21.7455 43.9946C21.104 43.3485 20.655 42.5733 20.3343 41.7335C20.0136 40.829 19.8212 39.9246 19.8212 38.8909C19.8212 37.7926 20.0136 36.759 20.3985 35.8546C20.7833 34.9502 21.2965 34.1103 22.0021 33.4643C22.7077 32.8182 23.4775 32.3014 24.4397 31.9138C25.4018 31.5262 26.4282 31.397 27.5828 31.397C28.6092 31.397 29.5714 31.5908 30.4694 31.9138C31.3033 32.3014 32.073 32.7537 32.6504 33.3996C33.2918 34.0457 33.7409 34.7564 34.0616 35.6608C34.3823 36.5006 34.5747 37.4696 34.5747 38.4387C34.5747 39.6015 34.3823 40.6352 33.9974 41.5396C33.6125 42.5087 33.0994 43.2839 32.3938 43.9299C31.6882 44.576 30.8542 45.0928 29.9562 45.4804C28.9299 45.9326 27.9036 46.1264 26.7489 46.1264Z" fill="white"/>
<path fill-rule="evenodd" clip-rule="evenodd" d="M45.8645 36.759C45.9286 36.5652 45.9286 36.436 45.9286 36.2422C45.9286 36.0484 45.9286 35.9191 45.9286 35.7253C45.9286 35.4023 45.8644 35.0147 45.7362 34.6917C45.6079 34.3687 45.4796 34.1102 45.2872 33.8519C45.0947 33.5935 44.8381 33.4643 44.5174 33.2705C44.1967 33.1412 43.8759 33.0767 43.4911 33.0767C42.9137 33.0767 42.3364 33.2058 41.9516 33.3996C41.5025 33.5935 41.1818 33.9164 40.8611 34.3041C40.6045 34.6917 40.3479 35.0793 40.2196 35.5961C40.0913 36.1129 40.0271 36.5652 39.963 37.1466L45.8645 36.759ZM50.0981 44.1238C49.5208 44.4467 48.8793 44.7052 48.1737 44.9635C47.5322 45.222 46.8267 45.4158 46.2494 45.6096C45.6079 45.8034 45.0306 45.9326 44.4532 45.9972C43.8759 46.0618 43.4269 46.1264 43.1062 46.1264C42.0798 46.1264 41.1818 45.9326 40.412 45.545C39.6423 45.1573 38.9366 44.6405 38.4235 43.9945C37.9103 43.3485 37.4613 42.6379 37.2047 41.798C36.9482 40.9582 36.8198 40.1184 36.8198 39.2139C36.8198 38.0511 37.0123 36.9528 37.4613 36.0484C37.9103 35.0793 38.4876 34.3041 39.1933 33.5935C39.8989 32.8829 40.7969 32.366 41.7591 32.043C42.7213 31.6554 43.8118 31.4616 44.9022 31.4616C45.6079 31.4616 46.2494 31.5908 46.8267 31.7846C47.404 31.9784 47.853 32.3014 48.2378 32.689C48.6227 33.0767 48.8793 33.5288 49.1359 34.1102C49.3283 34.6271 49.4567 35.2732 49.4567 35.9191C49.4567 36.5006 49.3283 37.1466 49.1359 37.9864L40.2196 38.4387C40.2838 39.2139 40.412 39.9891 40.6686 40.6352C40.9252 41.2812 41.3101 41.8626 41.8233 42.3794C42.3364 42.8317 42.9137 43.2193 43.6194 43.4777C44.3249 43.7361 45.0947 43.8653 46.0569 43.8653C46.6342 43.8653 47.2757 43.8007 47.9813 43.6715C48.6869 43.5423 49.2642 43.3485 49.8415 43.1547L50.0981 44.1238Z" fill="white"/>
<path fill-rule="evenodd" clip-rule="evenodd" d="M63.633 32.366C63.6971 32.1722 63.7612 32.1076 63.8895 31.9784C63.9537 31.9138 64.082 31.8492 64.2744 31.7846C64.4669 31.72 64.6593 31.72 64.8517 31.6554C65.0442 31.5908 65.2366 31.5908 65.429 31.5908C65.6215 31.5908 65.814 31.5262 65.9422 31.5262C66.0705 31.5262 66.1988 31.5262 66.3271 31.5262C66.5837 31.5262 66.6478 31.5908 66.6478 31.7846C66.6478 31.8492 66.6478 31.9784 66.5837 32.1076L60.1691 45.6742C60.1049 45.868 59.9766 45.9972 59.8484 45.9972C59.7201 45.9972 59.5276 46.0618 59.2711 46.0618C59.0144 46.0618 58.8861 46.0618 58.7579 46.0618C58.6937 46.0618 58.6296 46.0618 58.5654 45.9972C58.5013 45.9326 58.4371 45.868 58.3729 45.7388L53.6903 34.8855C53.4337 34.3041 53.1772 33.9165 52.9205 33.6581C52.664 33.4643 52.2791 33.3351 51.8942 33.3351C51.7659 33.3351 51.6377 33.3351 51.5094 33.3351C51.381 33.3351 51.2527 33.3996 51.0603 33.3996L50.932 32.4952C51.4452 32.366 51.9584 32.2368 52.4715 32.1076C52.9847 31.9784 53.4978 31.8492 53.9469 31.7846C54.3959 31.72 54.7808 31.5908 55.1015 31.5908C55.4223 31.5262 55.6147 31.5262 55.6788 31.5262C55.8713 31.5262 55.9996 31.5908 56.0637 31.72C56.1279 31.8492 56.2561 31.9784 56.3203 32.2368L59.9766 41.7335H60.0408L63.633 32.366Z" fill="white"/>
<path fill-rule="evenodd" clip-rule="evenodd" d="M74.6661 44.4467C75.3717 44.4467 75.8851 44.3176 76.3339 43.9946C76.7828 43.6715 77.1034 43.2839 77.3601 42.8317C77.6168 42.3795 77.8089 41.8626 77.8735 41.2812C77.9373 40.6998 78.0018 40.1184 78.0018 39.6015C78.0018 38.8909 77.9373 38.1803 77.8089 37.405C77.6813 36.6298 77.4246 35.9192 77.1034 35.2732C76.7828 34.6271 76.3339 34.1103 75.7567 33.6581C75.1795 33.2705 74.5377 33.012 73.7038 33.012C72.9982 33.012 72.4848 33.1413 72.0359 33.4643C71.5871 33.7873 71.2665 34.1749 71.0098 34.6271C70.7531 35.0793 70.5609 35.6608 70.4964 36.1776C70.3681 36.759 70.3681 37.3405 70.3681 37.9219C70.3681 38.6325 70.4326 39.3432 70.6248 40.1184C70.7531 40.8936 71.0098 41.6042 71.3949 42.1857C71.7154 42.8317 72.1643 43.3485 72.7415 43.7361C73.1266 44.1884 73.8322 44.4467 74.6661 44.4467ZM73.7683 46.1264C72.7415 46.1264 71.7792 45.9326 70.9453 45.545C70.1121 45.1574 69.342 44.6405 68.7647 43.9946C68.1232 43.3485 67.6742 42.5733 67.3534 41.7335C67.0328 40.829 66.8403 39.9246 66.8403 38.8909C66.8403 37.7926 67.0328 36.759 67.4176 35.8546C67.8024 34.9502 68.3156 34.1103 69.0214 33.4643C69.727 32.8182 70.4964 32.3014 71.4587 31.9138C72.421 31.5262 73.4471 31.397 74.6023 31.397C75.6284 31.397 76.5906 31.5908 77.4884 31.9138C78.3223 32.3014 79.0924 32.7537 79.6697 33.3996C80.2469 34.0457 80.7603 34.7564 81.0808 35.6608C81.4014 36.5006 81.5942 37.4696 81.5942 38.4387C81.5942 39.6015 81.4014 40.6352 81.0163 41.5396C80.632 42.5087 80.1186 43.2839 79.413 43.9299C78.7074 44.576 77.9373 45.0928 76.9757 45.4804C75.9489 45.9326 74.9228 46.1264 73.7683 46.1264Z" fill="white"/>
<path fill-rule="evenodd" clip-rule="evenodd" d="M95.1286 35.2085C95.1286 34.8209 95.0003 34.4333 94.8081 34.1749C94.6152 33.9165 94.3592 33.6581 94.038 33.4643C93.7175 33.2705 93.3969 33.1413 93.0119 33.0766C92.6268 33.012 92.2425 32.9475 91.9213 32.9475C91.0873 32.9475 90.3817 33.0766 89.8045 33.3351C89.2273 33.5934 88.7139 33.9165 88.3934 34.3687C88.0083 34.8209 87.7516 35.3378 87.5594 35.9837C87.3672 36.6298 87.3027 37.2758 87.3027 37.9864C87.3027 38.5679 87.3672 39.2785 87.4956 39.9891C87.6239 40.6998 87.88 41.3458 88.2012 41.9272C88.5217 42.5087 88.9706 43.0255 89.484 43.4131C89.9967 43.8007 90.6384 43.9945 91.4085 43.9945C91.5362 43.9945 91.6646 43.9945 91.9213 43.9299C92.178 43.9299 92.4347 43.8653 92.7552 43.8007C93.0757 43.7361 93.4608 43.6069 93.8458 43.5423C94.2309 43.4131 94.6798 43.2839 95.1286 43.0901V35.2085ZM92.8197 21.1252C94.2309 20.7375 95.3208 20.4791 96.2193 20.2853C97.117 20.1561 97.6304 20.0269 97.8226 20.0269C98.2077 20.0269 98.3998 20.2853 98.3998 20.7375V42.9609C98.3998 43.4131 98.3998 43.8007 98.4644 44.1237C98.5282 44.5113 98.5927 44.8343 98.6565 45.1574V45.2866C98.6565 45.4804 98.5282 45.6096 98.2722 45.6742C98.0793 45.7388 97.951 45.7388 97.6943 45.8034C97.5021 45.868 97.2454 45.868 97.0532 45.868C96.8603 45.868 96.6043 45.868 96.4114 45.9326C96.2193 45.9326 96.0271 45.9326 95.8342 45.9326C95.7059 45.9326 95.5775 45.868 95.5137 45.8034C95.4492 45.7388 95.3853 45.6096 95.3208 45.4804L95.0648 44.4467C94.4876 44.7052 93.9097 44.899 93.3324 45.0928C92.7552 45.2866 92.178 45.4804 91.6646 45.6096C91.1518 45.7388 90.703 45.868 90.2534 45.9326C89.8045 45.9972 89.484 46.0618 89.1634 46.0618C88.3295 46.0618 87.6239 45.868 86.9177 45.4158C86.2766 44.9636 85.6994 44.4467 85.2505 43.8007C84.8009 43.1547 84.4166 42.444 84.1599 41.6688C83.9032 40.8936 83.7748 40.1184 83.7748 39.3431C83.7748 38.051 84.0315 36.8882 84.4804 35.9192C84.9293 34.9502 85.571 34.1103 86.405 33.3996C87.2389 32.689 88.1367 32.1722 89.2273 31.8492C90.3179 31.4616 91.4724 31.3324 92.6914 31.3324C93.4608 31.3324 94.1663 31.3969 94.9364 31.5262V23.7738C94.9364 23.1278 94.8081 22.611 94.6152 22.4172C94.4231 22.1587 94.038 22.0296 93.5253 22.0296C93.2686 22.0296 93.0119 22.0296 92.7552 22.0942L92.8197 21.1252Z" fill="white"/>
<path fill-rule="evenodd" clip-rule="evenodd" d="M113.282 32.366C113.346 32.1722 113.411 32.1076 113.539 31.9784C113.603 31.9138 113.731 31.8492 113.923 31.7846C114.116 31.72 114.308 31.72 114.501 31.6554C114.693 31.5908 114.886 31.5908 115.078 31.5908C115.271 31.5908 115.463 31.5262 115.591 31.5262C115.72 31.5262 115.848 31.5262 115.976 31.5262C116.233 31.5262 116.297 31.5908 116.297 31.7846C116.297 31.8492 116.297 31.9784 116.233 32.1076C115.784 33.012 115.334 33.9811 114.822 34.9502C114.308 35.9192 113.859 36.9529 113.346 37.9864C112.833 39.0201 112.384 40.0538 111.871 41.0228C111.422 42.0564 110.973 43.0255 110.524 43.9299C110.075 44.899 109.69 45.7388 109.369 46.5787C108.984 47.4185 108.728 48.1291 108.407 48.7752C108.15 49.3566 107.894 50.0026 107.637 50.6486C107.316 51.3593 106.996 51.9407 106.547 52.5867C106.097 53.1682 105.585 53.685 105.007 54.0726C104.43 54.4602 103.725 54.654 102.891 54.654C102.569 54.654 102.249 54.5894 101.992 54.5248C101.736 54.3956 101.479 54.2664 101.287 54.1372C101.095 53.9434 100.966 53.7496 100.838 53.5558C100.709 53.2973 100.709 53.1035 100.709 52.8451C100.709 52.6513 100.773 52.4575 100.838 52.1991C100.902 52.0053 101.03 51.7469 101.158 51.6176C101.415 51.8114 101.736 51.8761 101.992 51.9407C102.249 52.0053 102.506 52.0699 102.826 52.0699C103.211 52.0699 103.532 52.0053 103.852 51.8761C104.174 51.7469 104.494 51.5531 104.879 51.2947C105.2 51.0362 105.52 50.6486 105.841 50.1318C106.162 49.6796 106.482 49.0335 106.868 48.2583L107.958 45.8034L103.275 34.8855C103.018 34.3041 102.762 33.9165 102.506 33.6581C102.249 33.4643 101.864 33.3351 101.479 33.3351C101.351 33.3351 101.223 33.3351 101.094 33.3351C100.966 33.3351 100.838 33.3996 100.646 33.3996L100.517 32.4952C101.03 32.366 101.543 32.2368 102.057 32.1076C102.569 31.9784 103.083 31.8492 103.532 31.7846C103.981 31.72 104.366 31.5908 104.686 31.5908C105.007 31.5262 105.2 31.5262 105.264 31.5262C105.456 31.5262 105.585 31.5908 105.649 31.72C105.713 31.8492 105.841 31.9784 105.905 32.2368L109.561 41.7335H109.626L113.282 32.366Z" fill="white"/>
<path fill-rule="evenodd" clip-rule="evenodd" d="M117.836 32.4952C118.542 32.3014 119.119 32.1722 119.697 32.043C120.274 31.9138 120.787 31.7846 121.237 31.72C121.685 31.6554 122.006 31.5908 122.326 31.5262C122.583 31.4616 122.776 31.4616 122.904 31.4616C123.289 31.4616 123.482 31.72 123.545 32.1722L123.609 32.9475C124.187 32.7537 124.764 32.4952 125.342 32.3661C125.919 32.1722 126.496 31.9784 127.01 31.8492C127.522 31.72 128.036 31.5908 128.485 31.5262C128.933 31.4616 129.318 31.397 129.575 31.397C130.281 31.397 130.922 31.5262 131.435 31.72C131.949 31.9784 132.334 32.2368 132.718 32.689C133.039 33.0767 133.296 33.5935 133.424 34.1749C133.552 34.7564 133.68 35.4023 133.68 36.113L133.424 45.222C133.424 45.545 133.296 45.6742 132.975 45.7388C132.783 45.8035 132.526 45.8035 132.334 45.868C132.077 45.9326 131.82 45.9326 131.628 45.9326C131.371 45.9326 131.178 45.9326 130.986 45.9973C130.794 45.9973 130.666 45.9973 130.537 45.9973C130.217 45.9973 130.089 45.868 130.089 45.545L130.152 37.9864V37.7281C130.152 37.0174 130.089 36.436 130.024 35.9192C129.896 35.4023 129.703 34.9502 129.511 34.6271C129.255 34.3041 128.933 33.9811 128.549 33.8519C128.164 33.6581 127.651 33.5935 127.01 33.5935C126.753 33.5935 126.368 33.6581 125.727 33.7873C125.085 33.9165 124.379 34.1749 123.545 34.4979V45.222C123.545 45.545 123.417 45.6742 123.097 45.7388C122.904 45.8035 122.648 45.8035 122.455 45.868C122.198 45.9326 121.942 45.9326 121.749 45.9326C121.493 45.9326 121.3 45.9326 121.108 45.9973C120.915 45.9973 120.787 45.9973 120.659 45.9973C120.338 45.9973 120.21 45.868 120.21 45.545V35.0793C120.21 34.4333 120.081 33.9165 119.889 33.7227C119.697 33.4643 119.312 33.3351 118.863 33.3351C118.735 33.3351 118.606 33.3351 118.478 33.3351C118.35 33.3351 118.157 33.3351 117.965 33.3996L117.836 32.4952Z" fill="white"/>
<path fill-rule="evenodd" clip-rule="evenodd" d="M144.008 44.4467C144.714 44.4467 145.227 44.3176 145.676 43.9946C146.125 43.6715 146.446 43.2839 146.702 42.8317C146.959 42.3795 147.152 41.8626 147.215 41.2812C147.279 40.6998 147.344 40.1184 147.344 39.6015C147.344 38.8909 147.279 38.1803 147.152 37.405C147.023 36.6298 146.767 35.9192 146.446 35.2732C146.125 34.6271 145.676 34.1103 145.099 33.6581C144.521 33.2705 143.88 33.012 143.046 33.012C142.34 33.012 141.827 33.1413 141.378 33.4643C140.929 33.7873 140.608 34.1749 140.352 34.6271C140.095 35.0793 139.903 35.6608 139.838 36.1776C139.71 36.759 139.71 37.3405 139.71 37.9219C139.71 38.6325 139.775 39.3432 139.967 40.1184C140.095 40.8936 140.352 41.6042 140.672 42.1857C140.994 42.8317 141.442 43.3485 142.02 43.7361C142.533 44.1884 143.239 44.4467 144.008 44.4467ZM143.174 46.1264C142.148 46.1264 141.186 45.9326 140.352 45.545C139.518 45.1574 138.748 44.6405 138.17 43.9946C137.529 43.3485 137.081 42.5733 136.759 41.7335C136.439 40.829 136.247 39.9246 136.247 38.8909C136.247 37.7926 136.439 36.759 136.824 35.8546C137.209 34.9502 137.722 34.1103 138.427 33.4643C139.133 32.8182 139.903 32.3014 140.865 31.9138C141.827 31.5262 142.854 31.397 144.008 31.397C145.034 31.397 145.996 31.5908 146.895 31.9138C147.729 32.3014 148.498 32.7537 149.075 33.3996C149.717 34.0457 150.166 34.7564 150.487 35.6608C150.808 36.5006 151 37.4696 151 38.4387C151 39.6015 150.808 40.6352 150.423 41.5396C150.038 42.5087 149.524 43.2839 148.819 43.9299C148.113 44.576 147.344 45.0928 146.381 45.4804C145.355 45.9326 144.265 46.1264 143.174 46.1264Z" fill="white"/>
<path fill-rule="evenodd" clip-rule="evenodd" d="M108.279 14.9878C108.599 14.9232 108.92 14.794 109.176 14.7294C109.433 14.6649 109.69 14.6002 109.947 14.5356C110.139 14.4711 110.332 14.4711 110.46 14.4711C110.588 14.4711 110.716 14.4711 110.716 14.4711C110.909 14.4711 111.037 14.6002 111.037 14.794V15.2463C111.229 15.117 111.486 14.9878 111.678 14.9232C111.871 14.794 112.127 14.7294 112.32 14.6649C112.512 14.6002 112.769 14.5356 112.961 14.4711C113.154 14.4064 113.346 14.4064 113.474 14.4064C113.667 14.4064 113.795 14.4064 113.923 14.4711C114.052 14.5356 114.18 14.6002 114.245 14.7294C114.308 14.8587 114.373 14.9232 114.437 15.0525C114.501 15.1817 114.501 15.3109 114.501 15.4401C114.501 15.5693 114.501 15.6985 114.437 15.8277C114.373 15.9569 114.308 16.0861 114.245 16.1507C114.116 16.2799 114.052 16.3445 113.859 16.4091C113.731 16.4737 113.539 16.4737 113.346 16.4737H113.154C113.154 16.4737 113.089 16.4737 113.026 16.4737C112.961 16.4737 112.961 16.4737 112.897 16.4737V16.2799C112.897 16.0215 112.833 15.8277 112.705 15.6985C112.577 15.5693 112.448 15.5047 112.255 15.5047C112.063 15.5047 111.871 15.5693 111.614 15.6339C111.358 15.6985 111.166 15.8277 110.909 15.9569V21.1897C110.909 21.319 110.844 21.4481 110.716 21.4481C110.588 21.4481 110.524 21.5128 110.395 21.5128C110.267 21.5128 110.139 21.5128 110.075 21.5773C109.947 21.5773 109.882 21.5773 109.754 21.5773C109.69 21.5773 109.626 21.5773 109.561 21.5773C109.433 21.5773 109.369 21.5128 109.369 21.319V16.2799C109.369 15.9569 109.305 15.6985 109.241 15.6339C109.113 15.5047 108.984 15.4401 108.728 15.4401C108.664 15.4401 108.599 15.4401 108.535 15.4401C108.471 15.4401 108.407 15.4401 108.279 15.5047V14.9878Z" fill="white"/>
<path fill-rule="evenodd" clip-rule="evenodd" d="M119.633 17.0552C119.633 16.9905 119.697 16.8614 119.697 16.7967C119.697 16.7322 119.697 16.6029 119.697 16.5384C119.697 16.3446 119.697 16.2153 119.633 16.0215C119.569 15.8923 119.504 15.7631 119.376 15.6339C119.247 15.5047 119.184 15.4401 118.991 15.3755C118.863 15.3109 118.67 15.3109 118.478 15.3109C118.158 15.3109 117.901 15.3755 117.708 15.4401C117.516 15.5693 117.324 15.6985 117.195 15.8923C117.067 16.0861 116.939 16.2799 116.874 16.5384C116.81 16.7967 116.746 17.0552 116.746 17.3136L119.633 17.0552ZM121.685 20.6083C121.364 20.7375 121.108 20.8667 120.723 20.9959C120.403 21.1252 120.081 21.1898 119.761 21.319C119.44 21.3836 119.184 21.4481 118.863 21.5128C118.606 21.5774 118.35 21.5774 118.221 21.5774C117.708 21.5774 117.259 21.5128 116.874 21.319C116.49 21.1252 116.168 20.8667 115.912 20.5437C115.656 20.2207 115.463 19.8977 115.334 19.4455C115.206 19.0578 115.142 18.6056 115.142 18.1534C115.142 17.572 115.271 17.0552 115.463 16.6029C115.656 16.1508 115.976 15.7631 116.297 15.3755C116.682 15.0525 117.067 14.794 117.58 14.6002C118.029 14.4064 118.542 14.3419 119.119 14.3419C119.504 14.3419 119.761 14.4064 120.081 14.5357C120.338 14.6649 120.595 14.794 120.787 14.9878C120.98 15.1817 121.108 15.3755 121.237 15.6985C121.364 15.9569 121.364 16.2799 121.364 16.5384C121.364 16.7967 121.3 17.1844 121.237 17.572L116.874 17.8304C116.874 18.218 117.002 18.6056 117.131 18.9287C117.259 19.2517 117.452 19.5101 117.708 19.7685C117.965 20.0269 118.221 20.1561 118.542 20.2853C118.863 20.4145 119.247 20.4791 119.697 20.4791C120.018 20.4791 120.338 20.4145 120.659 20.3499C120.98 20.2853 121.3 20.2207 121.557 20.0915L121.685 20.6083Z" fill="white"/>
<path fill-rule="evenodd" clip-rule="evenodd" d="M127.715 16.6675C127.651 16.4091 127.587 16.2153 127.522 16.0215C127.458 15.8277 127.394 15.6985 127.266 15.5693C127.138 15.4401 127.01 15.3109 126.881 15.2463C126.688 15.1817 126.496 15.117 126.239 15.117C126.111 15.117 125.919 15.117 125.791 15.1817C125.662 15.1817 125.47 15.2463 125.342 15.3109C125.213 15.3755 125.085 15.4401 125.021 15.5693C124.957 15.6985 124.893 15.8277 124.893 15.9569C124.893 16.1507 124.957 16.2799 125.021 16.4091C125.085 16.5383 125.213 16.6675 125.405 16.7321C125.534 16.7967 125.727 16.9259 125.919 16.9905C126.111 17.0552 126.304 17.1198 126.561 17.249C126.817 17.3136 127.073 17.4428 127.33 17.572C127.587 17.7012 127.779 17.8304 128.036 17.9596C128.228 18.0888 128.421 18.2826 128.549 18.541C128.677 18.7348 128.741 18.9932 128.741 19.3163C128.741 19.7039 128.613 20.0269 128.421 20.3499C128.228 20.6083 127.972 20.8667 127.651 21.0605C127.33 21.2543 127.01 21.3835 126.624 21.4481C126.239 21.5128 125.854 21.5773 125.534 21.5773C125.342 21.5773 125.085 21.5773 124.828 21.5128C124.572 21.4481 124.315 21.3835 124.059 21.319C123.802 21.1897 123.609 21.0605 123.482 20.9313C123.289 20.7375 123.225 20.5437 123.225 20.2853C123.225 19.9622 123.353 19.7684 123.545 19.6393C123.738 19.5101 123.994 19.4455 124.315 19.4455C124.379 19.4455 124.443 19.4455 124.508 19.4455C124.572 19.4455 124.636 19.4455 124.7 19.4455V19.5746C124.7 19.9623 124.828 20.2853 125.021 20.5437C125.213 20.8021 125.534 20.8667 125.983 20.8667C126.176 20.8667 126.304 20.8667 126.432 20.8021C126.561 20.7375 126.688 20.7375 126.817 20.6083C126.945 20.5437 127.01 20.4145 127.073 20.3499C127.138 20.2207 127.202 20.0915 127.202 19.9622C127.202 19.7684 127.138 19.5746 127.073 19.4455C127.01 19.3163 126.881 19.187 126.688 19.1225C126.561 18.9932 126.368 18.9286 126.176 18.864C125.983 18.7994 125.791 18.6702 125.534 18.6056C125.277 18.541 125.021 18.4118 124.764 18.2826C124.508 18.1534 124.315 18.0242 124.059 17.895C123.866 17.7658 123.674 17.5719 123.545 17.3136C123.417 17.1197 123.353 16.7967 123.353 16.4737C123.353 16.0861 123.482 15.7631 123.674 15.5047C123.866 15.2463 124.123 15.0525 124.443 14.8587C124.764 14.6649 125.085 14.6002 125.405 14.5356C125.791 14.4711 126.111 14.4064 126.432 14.4064C126.753 14.4064 127.01 14.4064 127.33 14.4711C127.587 14.5356 127.907 14.6002 128.164 14.6649C128.228 14.6649 128.228 14.7294 128.228 14.7294C128.228 14.8587 128.228 14.9878 128.292 15.1817C128.292 15.3755 128.292 15.5693 128.292 15.7631C128.292 15.9569 128.292 16.1507 128.292 16.2799C128.292 16.4737 128.292 16.6029 128.292 16.6675H127.715Z" fill="white"/>
<path fill-rule="evenodd" clip-rule="evenodd" d="M133.873 20.8021C134.194 20.8021 134.45 20.7375 134.707 20.6083C134.899 20.4791 135.091 20.2853 135.22 20.0269C135.348 19.7685 135.413 19.5101 135.477 19.2517C135.541 18.9932 135.541 18.6702 135.541 18.4118C135.541 18.0888 135.477 17.7012 135.413 17.3782C135.348 16.9905 135.22 16.6675 135.028 16.3446C134.835 16.0215 134.643 15.7631 134.386 15.5693C134.13 15.3755 133.809 15.2463 133.36 15.2463C133.039 15.2463 132.783 15.3109 132.526 15.4401C132.334 15.5693 132.141 15.7631 132.012 16.0215C131.885 16.2799 131.82 16.5384 131.756 16.7967C131.692 17.0552 131.692 17.3782 131.692 17.6366C131.692 17.9596 131.756 18.3472 131.82 18.7349C131.885 19.1225 132.012 19.4455 132.205 19.7685C132.397 20.0915 132.59 20.3499 132.846 20.5437C133.168 20.6729 133.488 20.8021 133.873 20.8021ZM133.488 21.5774C132.975 21.5774 132.526 21.5128 132.077 21.319C131.692 21.1252 131.307 20.8667 130.986 20.5437C130.666 20.2207 130.473 19.8331 130.281 19.4455C130.089 18.9932 130.024 18.5411 130.024 18.0242C130.024 17.5074 130.089 16.9905 130.281 16.5384C130.473 16.0861 130.73 15.6985 131.051 15.3755C131.371 15.0525 131.756 14.794 132.269 14.6002C132.719 14.4064 133.231 14.3419 133.809 14.3419C134.322 14.3419 134.771 14.4064 135.22 14.6002C135.669 14.794 135.99 14.9878 136.31 15.3109C136.631 15.6339 136.824 15.9569 137.016 16.4091C137.209 16.8614 137.273 17.3136 137.273 17.7658C137.273 18.3472 137.209 18.864 137.016 19.3163C136.824 19.7685 136.567 20.1561 136.247 20.4791C135.925 20.8021 135.541 21.0605 135.028 21.2543C134.514 21.5128 134.002 21.5774 133.488 21.5774Z" fill="white"/>
<path fill-rule="evenodd" clip-rule="evenodd" d="M138.299 14.9878C138.62 14.9232 138.941 14.794 139.197 14.7294C139.454 14.6649 139.71 14.6002 139.967 14.5356C140.16 14.4711 140.352 14.4711 140.48 14.4711C140.608 14.4711 140.737 14.4711 140.737 14.4711C140.929 14.4711 141.057 14.6002 141.057 14.794V15.2463C141.25 15.117 141.506 14.9878 141.699 14.9232C141.891 14.794 142.148 14.7294 142.34 14.6649C142.533 14.6002 142.725 14.5356 142.917 14.4711C143.11 14.4064 143.302 14.4064 143.431 14.4064C143.623 14.4064 143.751 14.4064 143.88 14.4711C144.008 14.5356 144.136 14.6002 144.2 14.7294C144.265 14.8587 144.329 14.9232 144.393 15.0525C144.457 15.1817 144.457 15.3109 144.457 15.4401C144.457 15.5693 144.457 15.6985 144.393 15.8277C144.329 15.9569 144.265 16.0861 144.2 16.1507C144.073 16.2799 144.008 16.3445 143.816 16.4091C143.687 16.4737 143.495 16.4737 143.302 16.4737H143.11C143.11 16.4737 143.046 16.4737 142.982 16.4737C142.917 16.4737 142.917 16.4737 142.854 16.4737V16.2799C142.854 16.0215 142.789 15.8277 142.661 15.6985C142.533 15.5693 142.405 15.5047 142.212 15.5047C142.02 15.5047 141.827 15.5693 141.571 15.6339C141.314 15.6985 141.121 15.8277 140.865 15.9569V21.1897C140.865 21.319 140.801 21.4481 140.672 21.4481C140.544 21.4481 140.48 21.5128 140.352 21.5128C140.223 21.5128 140.095 21.5128 140.031 21.5773C139.903 21.5773 139.838 21.5773 139.71 21.5773C139.646 21.5773 139.518 21.5773 139.518 21.5773C139.389 21.5773 139.326 21.5128 139.326 21.319V16.2799C139.326 15.9569 139.261 15.6985 139.133 15.6339C139.004 15.5047 138.876 15.4401 138.62 15.4401C138.556 15.4401 138.492 15.4401 138.427 15.4401C138.363 15.4401 138.299 15.4401 138.171 15.5047L138.299 14.9878Z" fill="white"/>
<path fill-rule="evenodd" clip-rule="evenodd" d="M145.484 14.8587C145.676 14.8587 145.804 14.8587 145.996 14.794C146.189 14.794 146.381 14.794 146.574 14.7295V13.3082C146.574 13.179 146.574 13.1144 146.638 13.0498C146.638 12.9852 146.702 12.9206 146.83 12.9206C146.959 12.856 147.087 12.856 147.215 12.7914C147.344 12.7268 147.472 12.7268 147.6 12.6622C147.729 12.5975 147.793 12.5975 147.921 12.5975C147.985 12.5975 148.049 12.533 148.113 12.533C148.242 12.533 148.306 12.5975 148.306 12.7914V14.6649C148.691 14.6649 149.075 14.6002 149.461 14.6002C149.781 14.6002 150.102 14.6002 150.294 14.6002C150.358 14.6002 150.358 14.6002 150.423 14.6649C150.487 14.7295 150.487 14.7295 150.487 14.794L150.423 15.3755H148.306V19.3809C148.306 19.7685 148.434 20.0915 148.627 20.2853C148.819 20.4791 149.14 20.5437 149.461 20.5437C149.653 20.5437 149.781 20.5437 150.038 20.4791C150.231 20.4145 150.487 20.3499 150.743 20.2853L150.936 20.8667C150.679 20.9959 150.487 21.0605 150.231 21.1897C149.974 21.2543 149.781 21.3836 149.524 21.4481C149.332 21.5128 149.075 21.5774 148.947 21.5774C148.755 21.6419 148.627 21.642 148.498 21.642C148.242 21.642 147.985 21.5774 147.729 21.5128C147.472 21.4481 147.279 21.319 147.152 21.1252C146.959 20.9314 146.83 20.7375 146.767 20.4791C146.702 20.2207 146.638 19.9623 146.638 19.6393V15.5047H145.548L145.484 14.8587Z" fill="white"/>
<path fill-rule="evenodd" clip-rule="evenodd" d="M59.6559 4.84519C59.9767 4.78059 60.2974 4.71599 60.8747 4.71599C62.6067 4.71599 63.4406 5.42662 64.1462 5.94344C64.7877 6.46027 66.263 8.33374 67.6101 10.1426C69.5987 12.7267 72.0359 15.5693 75.3078 17.8304C72.7415 19.1224 70.4326 20.0914 68.2515 20.7375C64.5952 17.249 59.6559 11.1763 56.7693 6.52487C57.2184 5.87884 58.373 5.10361 59.6559 4.84519Z" fill="white"/>
<path fill-rule="evenodd" clip-rule="evenodd" d="M66.7761 21.1252C60.7464 14.6002 58.0522 10.9179 53.562 3.61776C51.9584 1.09825 50.3547 0 48.8152 0C47.2757 0 45.9928 0.258411 44.0684 1.87349C43.1704 2.64872 41.5667 4.4576 40.3479 6.07267L40.5404 6.33108C41.4384 7.49396 42.2723 8.91522 43.2345 10.401C44.7099 12.856 46.4418 15.6985 49.0077 18.6056C53.9469 21.0605 59.271 22.934 66.7761 21.1252Z" fill="white"/>
<path fill-rule="evenodd" clip-rule="evenodd" d="M26.6207 13.3728L26.4282 13.6312C35.0238 11.2409 40.5403 14.148 46.2494 17.1843C44.6458 15.117 43.427 13.1143 42.3365 11.3055C41.4384 9.88426 40.6687 8.59217 39.8348 7.49396C39.3857 6.91247 38.9367 6.39567 38.4235 5.94346C37.9745 5.55584 37.5255 5.36203 36.7557 5.29743C35.9219 5.23282 34.8955 5.55584 34.5748 5.62044C32.0731 6.58948 29.6997 9.04441 27.647 11.7577C27.3263 12.3391 26.9414 12.856 26.6207 13.3728Z" fill="white"/>
<path fill-rule="evenodd" clip-rule="evenodd" d="M77.4246 20.7375C51.5735 34.9502 45.9928 10.0134 25.6585 17.3781C24.8887 17.6366 23.4134 18.2826 22.1946 18.7994C21.8097 18.9932 20.5909 19.4455 20.2702 19.6393C19.6929 19.8977 19.6288 19.7684 19.8212 19.2516C20.0136 18.7994 20.2061 18.2826 20.5268 17.895C20.8475 17.5719 21.6173 17.3136 22.1946 17.1198C23.4775 16.6029 25.0812 16.0215 25.9792 15.7631C46.5059 9.81963 50.4189 34.1749 77.6813 18.6056C78.2585 18.2826 78.2585 18.2826 78.8996 18.6702L79.3491 18.9286C80.1185 19.3163 79.9264 19.4455 79.2846 19.8331C78.7712 19.9622 78.0018 20.4145 77.4246 20.7375Z" fill="white"/>
<path fill-rule="evenodd" clip-rule="evenodd" d="M81.6581 19.7039C80.8241 20.2207 78.7712 21.319 78.1301 21.7066C62.6067 30.1049 54.8449 25.1305 46.7625 21.1897C40.8611 18.2826 34.1899 15.3755 25.2736 18.9932C24.119 19.4455 23.7982 19.5101 23.285 20.9313C23.0926 21.4481 23.1567 21.6419 23.734 21.3835C33.6767 17.0552 40.8611 19.5746 46.6984 22.1587C55.1657 25.9058 62.6708 30.8802 78.7074 22.4818C79.4768 22.0942 81.7219 20.8021 82.492 20.3499C82.7487 20.1561 83.1976 19.9622 82.9409 19.8331L82.5558 19.6393C82.1715 19.3808 82.1069 19.4455 81.6581 19.7039Z" fill="white"/>
</svg>
