<svg width="133" height="334" viewBox="0 0 133 334" fill="none" xmlns="http://www.w3.org/2000/svg">
<mask id="mask0_383_3911" style="mask-type:alpha" maskUnits="userSpaceOnUse" x="0" y="0" width="133" height="334">
<rect width="133" height="334" transform="matrix(-1 0 0 1 133 0)" fill="#C4C4C4"/>
</mask>
<g mask="url(#mask0_383_3911)">
<path d="M110.157 593C110.157 587.938 109.284 581.752 110.157 577.253C111.466 568.254 115.831 558.131 118.014 549.132C122.815 530.011 126.307 509.202 124.125 488.955C121.069 461.398 108.411 437.214 102.736 410.781C99.2439 395.596 97.9344 380.411 97.0613 364.664C96.1883 350.042 95.3153 335.419 96.6248 321.359C97.4979 313.485 100.117 305.612 100.117 297.176C100.553 289.864 99.6804 281.991 98.8074 274.68C97.0614 257.807 93.1328 240.935 90.9503 224.063C88.7677 204.942 88.3312 185.257 90.0773 166.136C90.9503 155.45 93.5693 143.639 100.553 138.015C105.792 133.516 111.03 134.641 116.704 133.516C119.323 132.954 119.76 133.516 121.942 131.829C135.474 118.894 131.109 81.2127 126.308 63.2158C123.688 53.0925 121.069 44.094 119.323 33.9708C117.141 21.5979 114.522 9.22498 112.776 -3.1479C109.284 -25.0816 110.157 -47.5778 110.157 -70.0739C110.157 -92.57 110.157 -114.504 110.157 -137" stroke="#EAE0D1" stroke-miterlimit="10"/>
<path d="M50.7221 593C50.7221 588.501 49.8471 584.002 49.8471 579.502C49.4097 572.191 51.1596 564.88 52.0345 558.131C54.2219 541.259 56.8468 524.949 58.5967 508.077C62.0966 475.458 63.8465 441.713 61.2217 408.532C59.0343 380.974 53.7845 353.416 55.5344 325.858C55.9719 316.86 57.2844 307.861 55.9719 298.863C54.6595 289.864 51.5971 281.428 48.9723 272.43C39.7852 240.373 42.8476 206.066 47.2224 172.884C49.4098 156.012 52.4721 139.14 54.2221 122.268C56.847 98.6472 52.9096 71.0894 65.1591 51.4052C69.5339 44.6564 74.3461 37.9076 75.6586 28.9091C76.971 19.9106 74.3461 10.3498 70.4088 1.91379C58.5969 -23.9568 52.9097 -49.2649 50.2848 -79.6347C48.9724 -98.1941 50.2848 -118.441 50.2848 -137" stroke="#EAE0D1" stroke-miterlimit="10"/>
<path d="M24.6292 593C24.6292 584.551 23.7426 573.849 26.8457 565.963C29.0621 559.767 33.9383 555.261 37.0414 549.628C46.3505 532.167 52.9998 511.326 52.9998 490.485C52.9999 475.276 49.4535 460.068 48.567 444.86C47.6804 434.157 48.1237 422.892 48.567 412.19C48.567 390.222 49.0103 361.495 39.7012 341.781C29.9488 320.94 25.9592 298.972 24.6293 275.315C21.5263 222.367 30.8354 169.983 32.1653 117.599C32.6086 109.15 32.6086 100.137 30.8354 92.2515C29.9489 86.0555 28.1757 80.4228 26.8458 74.7901C21.5263 48.3163 26.8458 20.716 30.8355 -6.32102C32.6086 -19.2763 33.9385 -32.7948 33.0519 -46.3133C32.6086 -53.0726 32.1654 -59.8319 30.3922 -66.0278C29.0623 -71.0973 26.8459 -75.6034 25.9593 -80.6729C23.2996 -94.1914 25.0727 -107.147 25.0727 -120.665C25.0727 -126.298 25.0727 -131.367 25.0727 -137" stroke="#EAE0D1" stroke-miterlimit="10"/>
<path d="M71.847 593C72.7188 567.731 74.4623 541.338 80.5647 517.192C83.1801 506.523 87.1031 496.415 89.7184 485.746C93.2055 471.708 95.3849 457.108 94.949 442.508C93.6414 401.515 71.4112 363.331 74.0265 322.338C74.8983 307.738 78.8213 294.261 79.693 279.661C82.3084 240.915 64.0011 203.854 66.1806 165.108C66.6165 155 68.7959 145.454 70.1036 135.908C72.7189 117.938 74.4625 104.462 83.6161 89.3C86.6673 84.2461 91.4621 78.0692 96.2568 80.8769C99.308 82.5615 100.616 87.6154 101.923 92.1077C103.231 96.6 105.846 101.092 109.333 100.531C113.692 99.9692 115 92.6692 115 87.0539C114.128 67.4 108.898 47.7461 99.7439 31.4615C97.5645 27.5307 95.3851 24.1615 93.2056 19.6692C85.7956 3.38462 87.5391 -16.2692 86.2314 -35.3616C85.3597 -50.5231 82.7444 -65.6846 77.9496 -80.2846C71.8472 -99.3769 71.8472 -116.223 71.8472 -137" stroke="#EAE0D1" stroke-miterlimit="10"/>
<path d="M13.821 593C13.821 566.547 23.0529 547.973 28.7679 522.645C34.4829 497.88 37.5602 471.99 37.9999 446.1C37.9999 436.531 34.9226 423.023 27.4491 424.149C25.251 424.712 23.0529 426.4 20.4152 426.4C17.3379 426.4 15.1399 423.023 13.821 419.646C0.632554 392.63 2.83065 357.171 8.10604 326.215C14.2607 291.882 21.7341 258.112 17.7776 222.653C15.1399 199.577 16.8984 179.877 16.8984 157.364C16.8984 123.031 -0.246576 92.6377 1.07228 60.556C1.95152 36.3539 8.54575 14.4033 16.4588 -7.5474C24.8115 -31.1866 22.1739 -44.6946 16.8985 -68.8966C12.5023 -89.7216 13.8212 -115.612 13.8212 -137" stroke="#EAE0D1" stroke-miterlimit="10"/>
<path d="M135.918 139.829C137.232 139.829 138.984 140.269 139.859 141.149L140.297 141.589C140.735 141.589 140.735 141.589 141.173 141.589C142.049 141.589 142.925 142.469 143.801 142.909C145.114 143.349 145.99 143.349 147.304 143.79C148.618 144.67 150.369 145.99 149.931 147.75C149.931 148.631 149.055 149.071 148.618 149.511C148.618 149.511 148.18 149.951 147.742 150.391C147.742 150.831 148.18 151.271 147.742 151.271C147.304 151.711 146.866 151.711 146.428 152.152C145.552 153.032 145.114 154.352 144.238 155.232C143.363 155.672 142.487 156.553 141.611 157.433C140.297 157.873 139.421 158.753 138.108 159.193C137.67 159.193 137.232 159.633 136.794 159.633C136.356 159.633 135.48 160.073 135.042 160.073C134.604 160.073 134.167 160.514 133.729 160.514C133.291 160.514 132.853 160.514 132.415 160.514C131.977 160.514 130.225 160.514 130.225 160.073C130.663 160.954 131.539 160.514 131.977 160.954C132.415 161.394 131.977 161.834 132.415 162.274C132.853 163.154 133.729 163.154 134.167 164.034C134.167 164.474 134.167 164.474 134.604 164.915C135.48 165.795 135.918 167.115 136.794 168.435C137.232 169.316 137.232 169.756 137.232 170.636C137.232 171.076 137.232 171.516 137.232 171.956C137.232 171.956 137.232 172.396 137.67 172.396L137.67 172.837C137.67 173.717 138.984 174.597 139.859 174.597C139.421 175.037 138.984 175.477 138.546 175.477C138.108 175.917 137.232 175.917 136.794 175.917C135.918 175.917 135.042 177.238 134.167 177.238C131.977 177.238 129.787 178.558 127.16 178.558C126.722 178.558 124.533 178.558 124.533 178.998C124.533 178.998 124.533 179.438 124.095 179.438C123.657 178.998 123.219 178.998 122.781 178.998C122.343 178.558 122.343 178.118 121.905 178.118C121.029 177.678 120.591 178.118 119.716 177.238C118.84 176.357 118.402 175.037 117.526 174.157C117.088 173.717 116.65 173.277 116.65 172.396C116.212 171.076 115.337 169.756 114.899 167.995C114.461 167.115 114.899 165.795 114.899 164.475C114.899 163.594 114.461 162.714 114.461 161.834C114.461 161.394 114.461 160.514 114.023 160.073C114.023 160.073 113.585 159.633 113.147 159.633C112.709 159.193 111.833 158.753 110.957 158.753C110.957 159.193 110.957 159.633 110.52 159.633C110.082 159.633 109.644 160.073 109.644 160.073C109.206 160.514 109.206 160.954 109.644 160.954C109.644 160.954 110.082 160.954 110.082 161.394L110.082 161.834C110.52 165.355 110.52 168.435 110.52 171.956L110.52 172.396C110.52 172.396 110.52 172.396 110.082 172.396C109.644 172.396 109.644 172.837 109.644 173.277C109.644 173.717 109.644 174.157 109.644 174.597C109.644 175.037 109.206 175.037 109.206 175.037C108.33 176.357 107.892 178.558 106.578 179.438C106.14 179.438 106.14 179.878 105.703 179.878C105.265 180.318 105.265 181.199 104.827 181.639C103.951 182.959 102.637 183.399 101.761 183.839C100.886 184.279 99.1339 184.719 98.2581 185.6C97.3822 186.48 96.5064 187.36 95.1927 188.24C94.7548 187.36 95.6306 186.48 95.6306 185.6C95.6306 184.719 95.1927 184.279 94.7548 183.399C94.7548 182.959 94.3169 182.519 94.3169 182.079C94.3169 181.639 93.879 181.199 93.879 180.318C93.4411 179.438 93.0032 178.118 93.4411 177.238C93.879 175.477 94.7548 173.717 95.1927 171.956C95.6306 170.636 95.6306 169.316 96.0685 167.995C96.5064 166.675 96.9443 166.235 97.8202 165.355C98.696 163.594 99.5718 162.714 101.323 161.834C101.761 161.394 102.199 161.394 102.199 160.954C102.637 160.954 102.637 160.514 103.075 160.514C104.389 160.073 106.14 159.633 107.454 159.193C107.892 159.193 108.33 158.753 108.768 158.753C109.206 158.753 109.206 158.753 109.644 158.753C110.082 158.753 110.52 158.313 110.957 158.313C111.395 158.313 111.395 157.873 111.395 157.433C111.395 156.993 110.52 156.993 110.082 156.553C108.768 155.672 106.578 155.672 104.827 155.672C104.389 155.672 104.389 155.672 103.951 155.232C103.513 154.792 102.637 155.232 102.637 154.792L102.199 154.352L101.761 154.352C101.323 154.352 100.448 153.912 100.01 153.912C99.5718 153.912 99.1339 153.912 99.1339 153.472C98.696 153.472 98.696 153.032 98.696 152.592C99.1339 152.592 99.5718 153.032 100.01 153.032C100.886 153.032 100.886 153.032 101.761 153.472C102.637 153.912 103.513 154.352 104.827 154.792L105.265 154.792C107.016 155.232 108.768 155.232 110.52 156.112C110.957 156.112 111.833 156.553 112.709 156.553L113.147 156.553L113.585 156.112C114.023 155.672 114.461 155.672 114.461 155.232C114.899 154.792 114.899 154.352 114.899 153.912C114.899 153.472 115.337 152.592 115.774 152.152C116.212 150.831 117.088 149.511 117.526 148.631C117.964 147.75 118.84 146.43 119.716 145.55C120.591 144.67 121.467 144.23 122.343 143.79C123.219 143.349 124.095 142.909 124.533 142.469C125.408 141.589 126.722 141.149 127.598 140.709C128.912 139.828 129.35 139.388 131.101 140.269C131.977 140.709 132.853 140.269 133.291 140.269C133.729 140.269 134.605 139.388 135.918 139.829ZM114.461 156.553C114.023 156.993 113.585 157.433 113.147 157.873C112.709 157.873 112.709 157.873 112.271 157.873C111.833 157.873 111.833 158.313 111.833 158.313C111.833 158.753 112.271 158.753 112.709 158.753L113.147 159.193C113.585 159.193 113.585 159.193 114.023 159.193C114.023 159.193 114.023 159.193 114.023 159.633C114.023 159.633 114.461 159.633 114.899 159.633C116.212 159.193 117.526 158.753 118.402 158.313C118.84 157.873 119.278 157.873 118.84 157.433C118.402 156.993 117.526 156.993 117.088 156.993C116.65 156.993 116.65 156.993 116.212 156.993C115.774 156.993 115.337 156.553 114.899 156.553C115.337 156.553 114.899 156.553 114.461 156.553Z" fill="#73A697"/>
<path d="M45.0652 72.0419C45.5031 72.0419 45.941 72.0419 46.8168 72.0419C47.6926 72.0419 48.5685 72.4819 49.8822 72.4819C50.3201 72.4819 50.758 72.4819 51.6338 72.4819C52.9476 72.0418 53.8234 71.6018 55.1371 72.0419L55.575 72.0419L56.0129 71.6017C56.0129 71.6017 56.4508 71.6017 56.8887 71.6017C58.2025 72.0418 59.9541 70.7215 60.8299 70.2814C61.7057 69.8413 63.0195 69.4012 63.8953 68.521C64.7711 67.6408 65.209 66.3205 66.0848 65.4403C66.5227 65.0002 67.3985 64.56 67.3985 63.6798C67.8365 63.2397 67.8365 62.7996 68.2744 62.3595C68.7123 61.9194 69.1502 61.0392 69.1502 60.1589C69.1502 59.2787 69.1502 58.3986 69.5881 57.5183C70.026 57.0782 69.5881 57.0782 69.5881 56.6381C69.5881 56.198 69.5881 55.7579 69.5881 55.3178C70.4639 52.2371 69.5881 49.1563 68.7123 46.0756C69.1502 46.0756 69.5881 45.6355 70.026 45.1954C70.026 45.1954 69.5881 44.7552 69.5881 45.1954L69.1502 45.6355C68.2744 46.5157 66.5227 46.5157 65.209 46.5157C63.8953 46.5157 62.1436 46.9558 60.8299 47.3959C59.0783 47.836 57.7646 48.2761 56.0129 49.1563C54.6992 49.5964 53.8234 50.4766 52.5097 50.9167C51.1959 51.3569 50.3201 52.6772 49.4443 53.1173C48.5685 53.9975 47.2547 54.8777 46.8168 56.198C46.3789 57.9584 45.5031 59.2788 44.6273 61.0392C44.6273 61.4793 44.1894 61.9194 44.1894 62.3595C44.1894 63.2397 43.7515 64.1199 43.7515 64.56C43.7515 65.0001 43.7515 65.0002 43.7515 65.4403C43.7515 66.3205 43.3136 66.7606 43.3136 67.6408C43.3136 68.9611 42.8756 70.2814 41.9998 71.6017C41.9998 71.6017 41.9998 71.6018 41.9998 72.0419C41.9998 72.9221 44.1894 72.0419 45.0652 72.0419Z" fill="#EAE0D1"/>
<path d="M49.5113 252.928C49.5113 252.487 49.9492 252.047 50.3871 251.607C50.825 250.727 51.2629 250.287 51.7009 249.407C52.1388 248.967 52.1388 248.526 52.1388 248.086C52.5767 246.766 52.1388 245.886 53.0146 245.006C53.0146 245.006 53.0146 245.006 53.0146 244.565L53.0146 244.125C53.0146 244.125 53.0146 243.685 53.4525 243.685C54.3283 242.805 53.8904 241.045 53.8904 239.724C53.8904 238.844 53.8904 237.524 53.4525 236.644C53.0146 235.763 52.1388 234.883 51.7009 234.003C51.263 233.563 51.263 232.683 50.825 232.242C50.3871 231.802 50.3871 231.802 49.9492 230.922C49.5113 230.042 49.0734 229.602 48.6355 229.602C48.1976 229.162 46.8839 229.162 46.8839 228.281C46.8839 227.841 46.446 227.841 46.0081 227.841C45.5701 227.841 45.1322 227.401 44.6943 226.961C42.5048 225.201 39.8773 224.761 36.812 224.32C36.812 223.88 36.812 223.44 36.3741 223C36.3741 223 35.9362 223 35.9362 223.44C35.9362 223.88 35.9362 223.88 35.9362 223.88C36.3741 225.201 35.9362 226.081 35.4982 227.401C35.0603 228.722 35.0603 230.042 34.6224 231.362C34.1845 232.682 34.1845 234.443 34.1845 235.763C34.1845 237.084 34.1845 237.964 34.1845 239.284C34.1845 240.604 34.6224 241.485 35.0603 242.805C35.4982 244.125 35.9361 245.006 36.812 245.886C37.6878 246.766 38.5636 248.086 39.8773 249.407C40.3152 249.847 40.3152 250.287 40.7531 250.287C41.191 250.727 41.629 251.167 42.5048 251.607C42.9427 251.607 42.9427 251.607 43.3806 251.607C43.8185 251.607 44.2564 252.487 45.1322 252.487C46.4459 252.928 47.3218 253.808 47.7597 254.688C49.5113 256.008 49.5113 253.368 49.5113 252.928Z" fill="#73A697"/>
<path d="M12.8658 292.546C16.807 292.546 20.7482 292.986 24.2514 292.546C26.8789 292.106 29.5063 291.225 31.6959 290.345C32.5717 289.905 33.4475 289.905 34.3233 289.025C35.1992 288.585 35.6371 288.145 36.075 287.705C37.3887 286.824 38.7024 285.944 39.5783 284.184C40.0162 283.303 40.892 281.983 41.3299 281.103C42.2057 280.223 42.2057 279.343 42.6436 278.022L42.6436 277.582L43.0815 277.142C44.3952 276.702 44.8332 275.382 45.709 274.061C46.1469 273.181 46.1469 272.301 46.1469 271.421C46.1469 270.981 46.1469 269.66 46.1469 269.22C47.0227 268.78 47.4606 268.34 48.3364 267.9C48.3364 267.46 47.8985 267.46 47.8985 267.46C47.4606 267.46 47.4606 267.46 47.0227 267.9C46.5848 268.34 46.1469 268.34 45.709 268.78C44.8332 268.34 44.3953 267.46 43.9573 267.02C43.0815 266.579 42.2057 266.139 41.3299 266.139C40.892 266.139 40.0162 266.139 39.5783 266.139C39.1404 266.139 39.1403 265.699 38.7024 265.699C37.8266 265.259 37.3887 265.699 36.9508 265.699C36.075 265.699 35.1992 265.699 34.7613 265.699C33.0096 265.699 31.6959 266.139 29.9443 266.139C27.3168 266.579 24.2515 267.46 22.0619 269.22C18.9966 271.421 16.3691 274.501 14.1795 277.582C13.7416 278.462 13.3037 278.902 12.8658 279.783C12.4279 280.223 11.99 280.663 11.99 281.543C11.99 281.983 11.99 281.983 11.99 282.423C11.99 282.863 11.99 282.863 11.5521 283.304C11.5521 283.744 11.1142 283.744 11.1142 284.184C10.6763 285.064 10.6763 285.504 10.6763 286.384C10.6763 287.264 10.2384 287.705 10.2384 288.145C10.2384 289.465 9.36254 290.345 8.48673 291.665C8.04882 292.106 8.04883 292.546 7.61092 292.986C7.61092 293.426 7.173 294.306 8.04882 294.306C8.48673 294.306 8.92464 293.866 9.36255 293.866C10.2384 292.986 11.5521 292.986 12.8658 292.546Z" fill="#EAE0D1"/>
<path d="M116.613 37.2317C116.365 37.3813 116.51 37.6209 116.407 38.0101C116.305 38.3993 116.057 38.5488 116.202 38.7884C115.852 39.3272 116.244 39.4173 115.646 40.1055C115.152 40.4046 114.409 40.8532 114.059 41.3919C113.812 41.5415 113.461 42.0802 113.214 42.2297C112.966 42.3793 112.285 41.8098 112.532 41.6603C111.295 42.408 110.202 43.3953 108.675 43.6637C107.396 43.7826 106.219 43.5123 105.084 43.8708C104.837 44.0203 104.837 44.0203 104.589 44.1698C104.589 44.1698 104.197 44.0797 104.052 43.8401C103.515 43.5103 102.773 43.959 101.988 43.7787C101.741 43.9283 101.348 43.8381 101.204 43.5985C101.059 43.3588 101.306 43.2093 101.161 42.9697C100.872 42.4904 100.232 42.5498 99.5923 42.6093C98.5602 42.5786 98.7656 41.8002 97.8362 41.3804C97.4439 41.2902 97.0516 41.2001 96.5145 40.8704C95.9774 40.5406 95.9353 39.9118 95.6457 39.4325C95.5009 39.1929 95.1086 39.1027 94.7163 39.0126C94.1792 38.6829 93.9923 37.8144 93.4552 37.4847C91.8018 35.8666 90.0035 34.0088 88 32.9295C89.4848 32.0322 91.1144 31.3747 92.5992 30.4774C93.8366 29.7298 94.9712 29.3712 96.2086 28.6236C97.1984 28.0254 98.3331 27.6669 99.4678 27.3084C101.242 26.8905 103.161 26.7122 104.978 26.9231C105.081 26.5339 105.72 26.4745 106.36 26.4151C106.753 26.5052 107.29 26.8349 107.682 26.925C108.466 27.1052 109.354 26.8963 110.036 27.4657C110.428 27.5558 110.717 28.0351 110.862 28.2747C111.255 28.3648 111.792 28.6946 112.039 28.5451C112.329 29.0244 113.632 31.1812 114.272 31.1217C114.519 30.9722 114.519 30.9722 114.767 30.8226C114.767 30.8226 115.159 30.9128 115.304 31.1524C116.173 32.5903 118.218 34.2985 117.313 36.1543L117.21 36.5435C117.21 36.5435 117.21 36.5435 117.602 36.6336C118.242 36.5741 120.348 37.2643 120.143 38.0427C119.214 37.6228 117.21 36.5435 116.613 37.2317Z" fill="#EAE0D1"/>
</g>
</svg>
