<svg width="133" height="334" viewBox="0 0 133 334" fill="none" xmlns="http://www.w3.org/2000/svg">
<mask id="mask0_383_3892" style="mask-type:alpha" maskUnits="userSpaceOnUse" x="0" y="0" width="133" height="334">
<rect width="133" height="334" fill="#C4C4C4"/>
</mask>
<g mask="url(#mask0_383_3892)">
<path d="M22.8435 334C22.8435 328.938 23.7165 322.752 22.8435 318.253C21.5339 309.254 17.1688 299.131 14.9863 290.132C10.1847 271.011 6.69262 250.202 8.87516 229.955C11.9307 202.398 24.5895 178.214 30.2641 151.781C33.7561 136.596 35.0656 121.411 35.9387 105.664C36.8117 91.0417 37.6847 76.4191 36.3752 62.359C35.5021 54.4854 32.8831 46.6118 32.8831 38.1757C32.4466 30.8645 33.3196 22.9908 34.1926 15.6796C35.9386 -1.19254 39.8672 -18.0647 42.0497 -34.9368C44.2323 -54.0585 44.6688 -73.7426 42.9227 -92.8644C42.0497 -103.55 39.4307 -115.361 32.4465 -120.985C27.2084 -125.484 21.9703 -124.359 16.2957 -125.484C13.6766 -126.046 13.2401 -125.484 11.0576 -127.171C-2.47417 -140.106 1.8909 -177.787 6.69249 -195.784C9.31154 -205.908 11.9306 -214.906 13.6766 -225.029C15.8592 -237.402 18.4782 -249.775 20.2242 -262.148C23.7163 -284.082 22.8433 -306.578 22.8433 -329.074C22.8433 -351.57 22.8433 -373.504 22.8432 -396" stroke="#EAE0D1" stroke-miterlimit="10"/>
<path d="M82.2779 334C82.2779 329.501 83.1528 325.002 83.1528 320.502C83.5903 313.191 81.8404 305.88 80.9654 299.131C78.778 282.259 76.1531 265.949 74.4032 249.077C70.9034 216.458 69.1534 182.713 71.7783 149.532C73.9657 121.974 79.2154 94.416 77.4655 66.8583C77.028 57.8598 75.7156 48.8613 77.028 39.8629C78.3404 30.8644 81.4028 22.4284 84.0277 13.4299C93.2147 -18.6271 90.1524 -52.9337 85.7776 -86.1155C83.5902 -102.988 80.5278 -119.86 78.7779 -136.732C76.153 -160.353 80.0903 -187.911 67.8409 -207.595C63.4661 -214.344 58.6538 -221.092 57.3414 -230.091C56.0289 -239.089 58.6538 -248.65 62.5911 -257.086C74.403 -282.957 80.0903 -308.265 82.7151 -338.635C84.0276 -357.194 82.7151 -377.441 82.7151 -396" stroke="#EAE0D1" stroke-miterlimit="10"/>
<path d="M108.371 334C108.371 325.551 109.257 314.849 106.154 306.963C103.938 300.767 99.0616 296.261 95.9586 290.628C86.6495 273.167 80.0001 252.326 80.0001 231.485C80.0001 216.276 83.5464 201.068 84.433 185.86C85.3196 175.157 84.8763 163.892 84.433 153.19C84.433 131.222 83.9897 102.495 93.2988 82.7809C103.051 61.9398 107.041 39.9722 108.371 16.3148C111.474 -36.6327 102.165 -89.017 100.835 -141.401C100.391 -149.85 100.391 -158.863 102.165 -166.748C103.051 -172.944 104.824 -178.577 106.154 -184.21C111.474 -210.684 106.154 -238.284 102.164 -265.321C100.391 -278.276 99.0614 -291.795 99.948 -305.313C100.391 -312.073 100.835 -318.832 102.608 -325.028C103.938 -330.097 106.154 -334.603 107.041 -339.673C109.7 -353.191 107.927 -366.147 107.927 -379.665C107.927 -385.298 107.927 -390.367 107.927 -396" stroke="#EAE0D1" stroke-miterlimit="10"/>
<path d="M61.153 334C60.2812 308.731 58.5377 282.338 52.4353 258.192C49.8199 247.523 45.8969 237.415 43.2816 226.746C39.7945 212.708 37.6151 198.108 38.051 183.508C39.3586 142.515 61.5888 104.331 58.9735 63.3385C58.1017 48.7385 54.1787 35.2615 53.307 20.6615C50.6916 -18.0847 68.9989 -55.1462 66.8194 -93.8923C66.3835 -104 64.2041 -113.546 62.8964 -123.092C60.2811 -141.062 58.5375 -154.538 49.3839 -169.7C46.3327 -174.754 41.5379 -180.931 36.7432 -178.123C33.692 -176.438 32.3843 -171.385 31.0766 -166.892C29.769 -162.4 27.1537 -157.908 23.6666 -158.469C19.3077 -159.031 18 -166.331 18 -171.946C18.8718 -191.6 24.1024 -211.254 33.2561 -227.539C35.4355 -231.469 37.6149 -234.838 39.7944 -239.331C47.2044 -255.615 45.4609 -275.269 46.7686 -294.362C47.6403 -309.523 50.2556 -324.685 55.0504 -339.285C61.1528 -358.377 61.1528 -375.223 61.1528 -396" stroke="#EAE0D1" stroke-miterlimit="10"/>
<path d="M119.179 334C119.179 307.547 109.947 288.973 104.232 263.645C98.517 238.88 95.4397 212.99 95.0001 187.1C95.0001 177.531 98.0774 164.023 105.551 165.149C107.749 165.712 109.947 167.4 112.585 167.4C115.662 167.4 117.86 164.023 119.179 160.646C132.367 133.63 130.169 98.1712 124.894 67.2151C118.739 32.8821 111.266 -0.888218 115.222 -36.347C117.86 -59.4233 116.102 -79.1226 116.102 -101.636C116.102 -135.969 133.247 -166.362 131.928 -198.444C131.048 -222.646 124.454 -244.597 116.541 -266.547C108.188 -290.187 110.826 -303.695 116.101 -327.897C120.498 -348.722 119.179 -374.612 119.179 -396" stroke="#EAE0D1" stroke-miterlimit="10"/>
<path d="M10.2189 85.0385C10.6568 85.0385 10.6568 85.0385 11.0947 85.0385C11.9705 85.0385 12.8464 85.0384 13.7222 85.4786C14.598 85.9187 15.9117 85.9187 16.7875 85.9187C18.9771 86.3588 21.1666 86.3588 22.9183 87.6791C23.3562 88.1192 24.232 88.5593 24.232 88.9994C24.6699 89.4395 25.1078 90.3197 25.5457 90.7598C25.9836 91.1999 26.4215 91.2 26.8594 91.6401C27.2973 92.0802 27.2973 92.5203 27.7353 92.5203C28.1732 92.9604 28.1732 93.8406 28.6111 94.2807C29.049 94.7208 29.049 95.6011 29.4869 96.0412C29.4869 96.9214 29.9248 97.3615 29.9248 98.2417C30.3627 98.6818 30.8006 99.1219 31.2385 100.002C31.6764 100.442 31.2385 100.882 31.2385 101.322C31.2385 102.643 31.2385 104.403 31.6764 105.724C31.6764 106.604 32.1143 107.044 32.5523 107.484C32.9902 107.924 32.9902 107.924 33.4281 108.364C34.7418 109.244 35.6176 110.565 35.6176 112.325C35.6176 112.325 35.1797 112.325 35.1797 111.885L35.1797 111.445C35.1797 110.565 34.3039 109.685 33.4281 109.244C32.5523 108.804 31.6764 108.804 30.8006 108.804C27.7353 108.804 24.6699 109.244 21.1666 109.244C18.1013 109.244 15.4738 107.484 13.2843 105.283C11.5326 103.523 10.2189 101.763 8.90518 99.562C8.90518 99.1219 8.46727 99.1219 8.46727 98.6818C8.46727 98.2417 8.46727 97.8016 8.46727 96.9214C8.46727 96.0412 8.46727 95.6011 8.02936 94.7209C7.59145 94.2807 7.15354 93.8406 7.15354 93.4005C7.15354 92.9604 7.15354 92.5203 7.15354 92.0802C7.15354 91.6401 7.15354 90.7599 7.15354 90.3198C7.15354 88.9994 6.71563 87.239 7.15354 85.9187C7.59145 85.0385 6.71563 84.1583 7.15354 83.7181C8.46727 83.7181 8.90518 85.0385 10.2189 85.0385C9.78099 85.0385 9.78099 85.0385 10.2189 85.0385Z" fill="#73A697"/>
<path d="M120.134 33.5457C116.193 33.5457 112.252 33.9858 108.748 33.5457C106.121 33.1056 103.494 32.2254 101.304 31.3452C100.428 30.9051 99.5524 30.9051 98.6766 30.0249C97.8008 29.5848 97.3629 29.1447 96.925 28.7046C95.6112 27.8244 94.2975 26.9441 93.4217 25.1837C92.9838 24.3035 92.108 22.9832 91.67 22.103C90.7942 21.2228 90.7942 20.3426 90.3563 19.0222L90.3563 18.5821L89.9184 18.142C88.6047 17.7019 88.1668 16.3816 87.291 15.0613C86.8531 14.181 86.853 13.3009 86.853 12.4207C86.853 11.9805 86.853 10.6602 86.853 10.2201C85.9772 9.78002 85.5393 9.3399 84.6635 8.8998C84.6635 8.45969 85.1014 8.45966 85.1014 8.45966C85.5393 8.45966 85.5393 8.45969 85.9772 8.8998C86.4151 9.3399 86.8531 9.33989 87.291 9.77999C88.1668 9.33989 88.6047 8.4597 89.0426 8.0196C89.9184 7.57949 90.7942 7.13933 91.67 7.13933C92.108 7.13933 92.9838 7.13933 93.4217 7.13933C93.8596 7.13933 93.8596 6.69926 94.2975 6.69926C95.1733 6.25916 95.6112 6.69926 96.0491 6.69926C96.9249 6.69926 97.8008 6.69926 98.2387 6.69926C99.9903 6.69926 101.304 7.13933 103.056 7.13933C105.683 7.57944 108.748 8.4597 110.938 10.2201C114.003 12.4207 116.631 15.5014 118.82 18.5821C119.258 19.4623 119.696 19.9024 120.134 20.7826C120.572 21.2227 121.01 21.6628 121.01 22.543C121.01 22.9831 121.01 22.9832 121.01 23.4233C121.01 23.8634 121.01 23.8634 121.448 24.3035C121.448 24.7436 121.886 24.7436 121.886 25.1837C122.324 26.0639 122.324 26.504 122.324 27.3842C122.324 28.2644 122.762 28.7045 122.762 29.1446C122.762 30.4649 123.637 31.3452 124.513 32.6655C124.951 33.1056 124.951 33.5457 125.389 33.9858C125.389 34.4259 125.827 35.3062 124.951 35.3062C124.513 35.3062 124.075 34.866 123.637 34.866C122.762 33.9858 121.448 33.9858 120.134 33.5457Z" fill="#EAE0D1"/>
<path d="M40.7363 175.48C41.0254 175.48 41.0254 175.76 41.3146 176.04C41.6037 176.32 41.8929 176.32 41.8929 176.6C42.4711 176.88 42.182 177.16 43.0494 177.44C43.6277 177.44 44.4951 177.44 45.0734 177.72C45.3625 177.72 45.9408 178 46.23 178C46.5191 178 46.8082 177.16 46.5191 177.16C47.9648 177.16 49.4105 177.44 50.8562 176.88C52.0128 176.32 52.8802 175.48 54.0367 175.2C54.3259 175.2 54.3259 175.2 54.615 175.2C54.615 175.2 54.9041 174.92 54.9041 174.64C55.1933 174.08 56.0607 174.08 56.639 173.52C56.9281 173.52 57.2173 173.24 57.2173 172.96C57.2173 172.68 56.9281 172.68 56.9281 172.4C56.9281 171.84 57.5064 171.56 58.0847 171.28C58.9521 170.72 58.3738 170.16 58.9521 169.32C59.2412 169.04 59.5304 168.76 59.8195 168.2C60.1087 167.64 59.8195 167.08 59.8195 166.52C59.8195 166.24 60.1087 165.96 60.3978 165.68C60.6869 165.12 60.3978 164.28 60.6869 163.72C61.2652 161.48 61.8435 158.96 63.0001 157C61.2652 157 59.5304 157.28 57.7955 157.28C56.3498 157.28 55.1933 157.56 53.7476 157.56C52.591 157.56 51.4345 157.84 50.2779 158.12C48.5431 158.68 46.8082 159.52 45.3625 160.64C45.0734 160.36 44.4951 160.64 43.9168 160.92C43.6277 161.2 43.3386 161.76 43.0494 162.04C42.4711 162.6 41.6037 162.88 41.3146 163.72C41.0254 164 41.0254 164.56 41.0254 164.84C40.7363 165.12 40.4472 165.68 40.158 165.68C40.158 166.24 40.158 168.76 39.5797 169.04C39.2906 169.04 39.2906 169.04 39.0015 169.04C39.0015 169.04 38.7123 169.32 38.7123 169.6C38.7123 171.28 37.8449 173.8 39.5797 174.92L39.8689 175.2C39.8689 175.2 39.8689 175.2 39.5797 175.48C39.0015 175.76 37.5558 177.44 38.134 178C38.7123 177.16 39.8689 175.2 40.7363 175.48Z" fill="#EAE0D1"/>
<path d="M124.824 130.504C124.897 130.122 125.267 130.193 125.71 129.882C126.153 129.571 126.226 129.19 126.595 129.26C127.111 128.568 127.408 129.02 127.997 127.946C128.143 127.183 128.363 126.038 128.879 125.345C128.952 124.964 129.468 124.271 129.541 123.89C129.614 123.508 128.579 122.914 128.506 123.295C128.871 121.387 129.607 119.55 129.234 117.499C128.787 115.831 127.898 114.473 127.821 112.876C127.894 112.494 127.894 112.494 127.968 112.112C127.968 112.112 127.671 111.66 127.302 111.589C126.635 111.066 126.855 109.921 126.262 109.015C126.335 108.634 126.039 108.181 125.669 108.11C125.3 108.039 125.227 108.421 124.857 108.35C124.118 108.208 123.895 107.374 123.671 106.54C123.152 105.253 122.266 105.875 121.304 104.899C121.007 104.446 120.711 103.994 120.045 103.47C119.379 102.947 118.566 103.187 117.827 103.045C117.457 102.974 117.161 102.522 116.865 102.069C116.199 101.546 115.017 101.715 114.35 101.191C111.54 99.861 108.36 98.4598 106.065 96.437C105.626 98.727 105.557 101.088 105.118 103.378C104.752 105.286 104.828 106.884 104.463 108.792C104.17 110.319 104.247 111.917 104.324 113.514C104.624 115.946 105.293 118.449 106.406 120.641C105.963 120.951 106.186 121.786 106.41 122.62C106.706 123.072 107.372 123.596 107.668 124.048C108.261 124.953 108.411 126.169 109.447 126.764C109.743 127.216 110.483 127.358 110.852 127.429C111.149 127.881 111.815 128.405 111.741 128.786C112.481 128.928 115.807 129.566 116.03 130.4C115.957 130.782 115.957 130.782 115.884 131.164C115.884 131.164 116.18 131.616 116.55 131.687C118.768 132.112 121.875 133.895 123.792 131.889L124.235 131.578C124.235 131.578 124.235 131.578 124.531 132.03C124.755 132.865 126.606 135.198 127.492 134.577C126.53 133.601 124.235 131.578 124.824 130.504Z" fill="#73A697"/>
<path d="M67.1472 246.117L66.2714 248.318L65.8335 248.758C65.8335 248.758 65.3955 249.198 65.3955 249.638C64.9576 250.958 64.0818 251.839 63.6439 253.159C63.206 254.479 62.7681 255.8 62.7681 257.12C62.7681 258 62.7681 258.44 62.7681 259.32C62.7681 259.761 62.7681 260.201 63.206 260.201L63.6439 260.641C63.6439 261.081 63.6439 261.521 63.6439 261.961C63.6439 262.401 63.6439 262.841 63.6439 263.722C64.0818 264.602 64.5197 265.042 64.9576 265.922C65.3956 266.802 65.3956 267.682 65.8335 268.563C64.9576 267.242 63.6439 265.922 62.3302 264.602C61.0165 263.721 59.2648 262.401 57.5132 261.961C57.0753 261.961 56.6374 261.521 56.1995 261.521C55.7616 261.521 55.7616 261.521 55.3237 261.521C54.4478 261.521 54.0099 261.081 53.572 261.081C52.6962 260.641 51.8204 260.641 51.3825 260.641C50.5067 260.641 50.0688 261.081 49.6308 261.081C49.1929 261.081 49.1929 261.081 48.755 261.081C48.3171 261.081 48.3171 261.521 48.3171 261.521C47.8792 261.521 47.8792 261.521 47.4413 261.521C47.0034 261.521 47.0034 261.961 46.5655 261.521L46.5655 261.961C47.0034 262.401 47.0034 262.841 47.0034 263.281C47.0034 264.162 47.4413 264.602 47.4413 265.482C47.4413 266.362 47.4413 267.242 47.8792 268.123C47.8792 268.563 47.8792 269.003 48.3171 269.003C48.3171 269.443 48.755 269.443 48.755 269.883L48.755 270.323C48.755 270.323 48.755 270.763 49.1929 270.763C49.6308 271.643 50.0688 272.084 50.9446 272.964L51.3825 273.404L51.3825 273.844C51.8204 274.284 52.2583 274.724 52.6962 275.164C53.1341 275.604 54.0099 275.604 54.0099 276.045C54.4478 276.925 54.4478 277.365 54.8858 277.805C55.3237 278.245 56.1995 278.245 56.6374 278.685C57.9511 279.125 58.389 280.446 59.2648 280.886C60.5786 281.766 61.8923 281.766 63.206 282.206C65.8335 283.086 68.4609 283.526 70.6505 284.847C72.84 286.167 74.1537 287.927 75.4675 290.128C75.9054 291.008 76.3433 292.328 76.7812 293.209C76.7812 293.649 77.2191 294.529 77.2191 294.969C77.657 296.73 78.5328 298.05 78.5328 299.81C78.0949 299.37 77.657 299.37 77.657 298.93C77.2191 298.49 76.7812 298.05 76.3433 298.05C76.3433 298.05 75.9054 298.05 75.9054 297.61C75.9054 297.61 75.9054 297.61 75.9054 297.17C75.4675 296.289 75.0296 295.409 74.5917 294.529C74.1537 294.089 73.7158 293.209 73.2779 292.769C72.84 291.888 71.9642 291.448 71.5263 291.008C70.6505 290.128 70.2126 289.688 69.3367 288.808C68.8988 287.927 68.023 287.487 67.1472 287.047C66.7093 287.047 66.2714 286.607 65.8335 286.167C65.3956 285.727 64.9577 285.727 64.0818 285.287C61.8923 284.407 59.2648 283.966 57.0753 283.526C56.1995 283.526 55.3237 283.526 54.0099 283.526C53.1341 283.526 52.2583 283.966 51.3825 284.407C49.1929 285.287 47.4413 285.727 45.2518 286.607C47.0034 287.047 47.8792 289.248 48.755 291.008C49.6309 292.328 50.9446 293.649 52.2583 294.529C54.8858 296.289 57.5132 298.05 60.5786 299.37C61.8923 299.81 63.6439 300.691 64.9577 301.131C66.2714 301.571 68.023 302.011 69.7747 302.011C71.0884 302.011 71.9642 301.131 73.2779 300.691C74.1537 300.25 75.0296 299.81 75.9054 298.93C75.9054 298.93 75.9054 298.93 76.3433 298.49L76.7812 298.49C77.2191 298.93 77.657 298.93 77.657 299.37C78.0949 299.81 78.5328 299.81 78.5328 300.25C78.9707 300.691 78.9707 301.571 78.9707 302.451C79.4086 304.211 79.4087 305.972 79.8466 307.292C80.2845 309.053 81.1603 310.373 81.5982 312.133L82.0361 312.133C81.5982 312.133 81.5982 310.373 81.5982 310.373C81.5982 309.933 81.5982 309.493 81.1603 309.053C81.1603 308.612 80.7224 308.612 80.7224 308.172C80.2845 307.292 79.8466 306.852 79.8466 305.972C79.8466 305.092 79.4087 304.211 79.4087 303.331C78.9707 301.571 78.5328 299.81 78.5328 298.05L78.5328 297.61C78.5328 297.61 78.5328 297.61 78.5328 297.17C78.9707 296.289 79.8466 295.849 80.2845 294.969C80.7224 294.529 81.1603 294.089 81.5982 294.089C82.0361 294.089 82.0361 294.089 82.474 294.089C83.3498 294.089 83.7877 293.649 84.6635 293.209C85.1015 292.769 85.1015 292.328 85.5394 292.328C86.4152 291.448 87.7289 291.888 88.6047 291.448C89.9185 291.008 90.7943 290.568 91.6701 289.688C92.5459 288.808 93.4217 287.927 93.8596 287.047C94.2975 286.167 95.1734 285.287 95.1734 284.407C95.1734 283.966 95.1734 283.966 95.1734 283.526C95.1734 283.086 95.6113 283.086 95.6113 282.646C95.6113 282.206 95.6113 282.206 95.6113 281.766C95.6113 281.326 95.6113 280.886 95.6113 280.005C95.6113 279.125 95.6113 277.805 95.1734 276.925C95.1734 276.045 94.7354 275.164 94.2975 274.724C93.8596 273.844 92.9838 272.964 92.5459 272.084C92.5459 271.643 92.108 271.643 92.108 271.203C91.2322 269.443 90.3564 267.682 89.4805 266.362C89.4805 266.362 89.4805 265.922 89.0426 265.922L88.6047 265.922C87.7289 266.362 86.4152 266.802 85.5394 266.802C84.6635 267.242 83.7877 267.242 82.474 267.683C82.0361 267.683 81.5982 268.123 81.1603 268.123C80.7224 268.563 80.7224 268.563 79.8466 268.563L79.4086 268.563C78.9707 268.563 78.9707 269.443 78.9707 269.443C78.5328 269.883 78.0949 269.883 77.657 269.883C76.7812 270.323 75.9054 271.203 75.4675 272.084C75.0296 272.964 74.5916 273.844 74.1537 275.164C74.1537 275.604 73.7158 276.045 73.7158 276.485C73.7158 278.245 74.1537 280.006 75.0296 281.766C75.9054 283.526 76.7812 285.287 77.657 287.047C78.5328 288.368 78.9707 290.128 78.9707 291.888C78.9707 293.649 78.0949 295.409 76.7812 295.849C76.3433 294.969 75.9054 293.649 75.9054 292.769C75.4675 291.888 75.0296 291.008 74.5916 290.128C73.2779 287.927 72.4021 285.287 71.9642 282.646C71.5263 280.005 71.5263 277.365 70.6505 274.724C70.6505 274.284 70.2126 273.404 70.2126 272.964C70.2126 272.084 70.6505 271.643 71.0884 271.203C71.5263 270.763 71.9642 270.323 71.9642 269.443C72.84 268.123 72.4021 266.802 72.84 265.482C73.2779 265.042 73.2779 264.602 73.7158 264.162C74.1537 263.281 74.1537 262.401 74.1537 261.081C74.1537 260.201 74.1537 259.32 73.7158 258.44C73.7158 258 73.7158 257.56 73.7158 257.56C73.7158 257.12 73.2779 256.68 72.84 256.24C72.4021 255.359 71.9642 254.479 71.5263 253.599L71.0884 253.159C70.6505 252.719 71.0884 252.279 70.6505 251.398C69.3367 249.638 68.023 247.878 66.7093 246.117L66.2714 245.677C66.2714 245.677 65.8335 245.677 65.8335 245.237C67.5851 247.438 67.5851 246.557 67.1472 246.117ZM67.1472 271.203C67.5851 271.203 67.5851 271.643 68.023 272.084L68.4609 272.524C68.8988 272.964 69.7746 273.404 70.2126 273.844C70.6505 274.284 71.0884 274.284 71.0884 274.724C71.0884 274.724 71.0884 275.164 71.5263 275.604C71.9642 276.485 71.9642 277.805 72.4021 278.685C72.84 280.006 72.84 280.886 73.2779 282.206C73.7158 283.966 74.1537 286.167 74.5916 288.368C74.1537 288.368 72.84 287.047 72.84 287.047C72.4021 286.607 71.9642 286.607 71.9642 286.167C71.5263 286.167 71.5263 285.727 71.5263 285.287C71.5263 284.847 71.5263 284.847 71.5263 284.407C71.5263 283.086 71.5263 282.206 71.0884 281.326C71.0884 280.446 70.6505 280.005 70.6505 279.125C70.6505 278.685 70.2126 278.685 70.2126 278.245C70.2126 277.805 70.2126 277.805 70.2126 277.365C68.8988 274.724 68.023 272.964 67.1472 271.203Z" fill="#73A697"/>
</g>
</svg>
