<svg width="24" height="24" viewBox="0 0 24 24" fill="none" xmlns="http://www.w3.org/2000/svg">
<g clip-path="url(#clip0_277_2387)">
<path d="M1.8 21.1C5.8 21.1 9.9 21.1 13.9 21.1C16.1 20.9 18.1 20.4 19.8 18.8C20.6 18 21.3 17.1 21.7 16.2C22.1 15.4 22.3 14.6 22.4 13.8C22.6 12 21.7 9.09999 20.7 7.59999C20 6.59999 19.1 5.69999 18 5.09999C12.9 2.19999 6.5 3.09999 3.6 8.59999C6.7 8.39999 9.9 8.79999 13.1 9.49999C14.2 9.69999 14.8 10.6 13.8 11.6C10.1 15.7 5.5 15.3 0.5 15.6C0.5 17.7 0.9 19.5 1.8 21.1Z" stroke="#23514C" stroke-miterlimit="10" stroke-linecap="round"/>
<path d="M4.5 8.59998C2.8 10.9 2 13.3 1.3 15.6" stroke="#23514C" stroke-miterlimit="10" stroke-linecap="round"/>
<path d="M11.4 9.19998L7.2 15.2" stroke="#23514C" stroke-miterlimit="10" stroke-linecap="round"/>
<path d="M17.6 12.6C19.1 11.6 20.4 10.2 21.2 8.29999" stroke="#23514C" stroke-miterlimit="10" stroke-linecap="round"/>
</g>
<defs>
<clipPath id="clip0_277_2387">
<rect width="23" height="18.6" fill="white" transform="translate(0 3)"/>
</clipPath>
</defs>
</svg>
