<svg width="24" height="24" viewBox="0 0 24 24" fill="none" xmlns="http://www.w3.org/2000/svg">
<g clip-path="url(#clip0_277_2392)">
<path d="M9.99999 1.5C10.5 2 11.3 2.1 12.3 2.1C13.3 2.1 14.1 1.9 14.6 1.5C17 1.5 18.4 2.8 19 5.1C19.8 8.2 19.9 11.4 20.1 14.6C19.3 14.6 18.6 14.5 17.8 14.5C17.2 11.9 16.7 9.4 16.1 6.8C16.1 12.4 16.1 18 16.1 23.5C15.1 23.5 14 23.5 13 23.5C12.7 20.1 12.5 16.8 12.2 13.4C11.9 16.8 11.7 20.1 11.4 23.5C10.4 23.5 9.29999 23.5 8.29999 23.5C8.29999 17.9 8.29999 12.3 8.39999 6.8C7.79999 9.4 7.29999 11.9 6.69999 14.5C5.89999 14.5 5.19999 14.6 4.39999 14.6C4.59999 11.4 4.69999 8.3 5.49999 5.1C6.19999 2.8 7.59999 1.5 9.99999 1.5Z" stroke="#23514C" stroke-miterlimit="10" stroke-linejoin="round"/>
<path d="M12.3 13.4V2.10001" stroke="#23514C" stroke-miterlimit="10" stroke-linejoin="round"/>
</g>
<defs>
<clipPath id="clip0_277_2392">
<rect width="16.6" height="23" fill="white" transform="translate(4 1)"/>
</clipPath>
</defs>
</svg>
