<svg width="22" height="22" viewBox="0 0 22 22" fill="none" xmlns="http://www.w3.org/2000/svg">
<path d="M19.3672 8.78622L21 6.98729H17.3736C15.5624 5.73034 13.3676 5 10.9981 5C8.63243 5 6.44522 5.73418 4.63395 6.98729H1L2.63281 8.78622C1.63034 9.7126 1.0038 11.0464 1.0038 12.5263C1.0038 15.3208 3.24036 17.5849 6.00095 17.5849C7.31099 17.5849 8.50712 17.0736 9.39567 16.2357L10.9981 18L12.6005 16.2357C13.4929 17.0736 14.6852 17.581 15.9953 17.581C18.7558 17.581 20.9962 15.317 20.9962 12.5225C20.9962 11.0426 20.3697 9.70875 19.3672 8.78622ZM6.00095 15.9474C4.13271 15.9474 2.62142 14.4137 2.62142 12.5263C2.62142 10.639 4.13651 9.10526 6.00095 9.10526C7.86539 9.10526 9.38048 10.639 9.38048 12.5263C9.38048 14.4137 7.86918 15.9474 6.00095 15.9474ZM11.0019 12.4264C11.0019 10.1739 9.38428 8.24039 7.24644 7.41396C8.4008 6.92578 9.66907 6.65287 10.9981 6.65287C12.3271 6.65287 13.5954 6.92578 14.7536 7.41396C12.6195 8.24039 11.0019 10.1739 11.0019 12.4264ZM15.9953 15.9474C14.127 15.9474 12.6157 14.4137 12.6157 12.5263C12.6157 10.639 14.1308 9.10526 15.9953 9.10526C17.8597 9.10526 19.3748 10.639 19.3748 12.5263C19.3748 14.4137 17.8635 15.9474 15.9953 15.9474ZM15.9953 10.7274C15.0156 10.7274 14.2219 11.5308 14.2219 12.5225C14.2219 13.5142 15.0156 14.3176 15.9953 14.3176C16.9749 14.3176 17.7686 13.5142 17.7686 12.5225C17.7686 11.5346 16.9749 10.7274 15.9953 10.7274ZM7.77425 12.5263C7.77425 13.518 6.98063 14.3214 6.00095 14.3214C5.02126 14.3214 4.22764 13.518 4.22764 12.5263C4.22764 11.5346 5.02126 10.7312 6.00095 10.7312C6.98063 10.7274 7.77425 11.5346 7.77425 12.5263Z" fill="#73A697"/>
</svg>
