<svg width="22" height="22" viewBox="0 0 22 22" fill="none" xmlns="http://www.w3.org/2000/svg">
<path d="M19.6229 6.87852C19.4146 6.14426 18.8067 5.56543 18.0356 5.36713C16.6285 5 10.9944 5 10.9944 5C10.9944 5 5.36304 5 3.95309 5.35373C3.19606 5.55203 2.57411 6.14426 2.36585 6.87852C2 8.2184 2 11 2 11C2 11 2 13.795 2.37148 15.1215C2.57974 15.8557 3.18762 16.4346 3.95872 16.6329C5.38274 17 11 17 11 17C11 17 16.6313 17 18.0413 16.6463C18.8124 16.448 19.4202 15.8691 19.6285 15.1349C20 13.795 20 11.0134 20 11.0134C20 11.0134 20.0084 8.2184 19.6229 6.87852ZM9.2045 13.5699V8.4301L13.8874 11L9.2045 13.5699Z" fill="#73A697"/>
</svg>
