<svg width="731" height="151" viewBox="0 0 731 151" fill="none" xmlns="http://www.w3.org/2000/svg">
<path d="M730 40.0574C724.938 40.0574 718.752 40.9304 714.253 40.0574C705.254 38.7479 695.131 34.3828 686.132 32.2002C667.011 27.3986 646.202 23.9066 625.955 26.0891C598.398 29.1447 574.214 41.8034 547.781 47.478C532.596 50.9701 517.411 52.2796 501.664 53.1526C487.042 54.0256 472.419 54.8986 458.359 53.5891C450.485 52.7161 442.612 50.097 434.176 50.097C426.864 49.6605 418.991 50.5335 411.68 51.4066C394.807 53.1526 377.935 57.0812 361.063 59.2637C341.942 61.4462 322.257 61.8828 303.136 60.1367C292.45 59.2637 280.639 56.6446 275.015 49.6605C270.516 44.4224 271.641 39.1843 270.516 33.5097C269.954 30.8906 270.516 30.4541 268.829 28.2716C255.894 14.7398 218.213 19.1049 200.216 23.9065C190.092 26.5255 181.094 29.1446 170.971 30.8906C158.598 33.0732 146.225 35.6922 133.852 37.4382C111.918 40.9303 89.4222 40.0573 66.9261 40.0573C44.4299 40.0573 22.4962 40.0573 6.75293e-06 40.0573" stroke="#EAE0D1" stroke-miterlimit="10"/>
<path d="M730 99.4918C725.501 99.4918 721.002 100.367 716.502 100.367C709.191 100.804 701.88 99.0544 695.131 98.1794C678.259 95.992 661.949 93.3671 645.077 91.6172C612.458 88.1174 578.713 86.3674 545.532 88.9923C517.974 91.1797 490.416 96.4294 462.858 94.6795C453.86 94.242 444.861 92.9296 435.863 94.242C426.864 95.5545 418.428 98.6168 409.43 101.242C377.373 110.429 343.066 107.366 309.884 102.992C293.012 100.804 276.14 97.7418 259.268 95.9919C235.647 93.367 208.089 97.3044 188.405 85.0549C181.656 80.6801 174.908 75.8679 165.909 74.5554C156.911 73.243 147.35 75.8679 138.914 79.8052C113.043 91.6171 87.735 97.3043 57.3653 99.9292C38.8059 101.242 18.5593 99.9292 6.54738e-06 99.9292" stroke="#EAE0D1" stroke-miterlimit="10"/>
<path d="M730 125.585C721.551 125.585 710.849 126.471 702.963 123.368C696.767 121.152 692.261 116.276 686.628 113.173C669.167 103.863 648.326 97.2141 627.485 97.2141C612.276 97.2141 597.068 100.76 581.86 101.647C571.157 102.534 559.892 102.09 549.19 101.647C527.222 101.647 498.495 101.204 478.781 110.513C457.94 120.265 435.972 124.255 412.315 125.585C359.367 128.688 306.983 119.379 254.599 118.049C246.15 117.605 237.137 117.605 229.252 119.379C223.056 120.265 217.423 122.038 211.79 123.368C185.316 128.688 157.716 123.368 130.679 119.379C117.724 117.605 104.205 116.275 90.6867 117.162C83.9274 117.605 77.1681 118.049 70.9722 119.822C65.9027 121.152 61.3966 123.368 56.3271 124.255C42.8086 126.914 29.8533 125.141 16.3348 125.141C10.7021 125.141 5.63269 125.141 -2.8192e-05 125.141" stroke="#EAE0D1" stroke-miterlimit="10"/>
<path d="M730 78.3669C704.731 77.4952 678.338 75.7516 654.192 69.6492C643.523 67.0339 633.415 63.1109 622.746 60.4956C608.708 57.0085 594.108 54.829 579.508 55.2649C538.515 56.5726 500.331 78.8028 459.338 76.1875C444.738 75.3157 431.261 71.3927 416.661 70.5209C377.915 67.9056 340.854 86.2129 302.108 84.0334C292 83.5975 282.454 81.4181 272.908 80.1104C254.938 77.4951 241.462 75.7515 226.3 66.5979C221.246 63.5467 215.069 58.7519 217.877 53.9572C219.562 50.906 224.615 49.5983 229.108 48.2906C233.6 46.983 238.092 44.3677 237.531 40.8806C236.969 36.5217 229.669 35.214 224.054 35.214C204.4 36.0858 184.746 41.3164 168.461 50.4701C164.531 52.6495 161.162 54.8289 156.669 57.0084C140.385 64.4185 120.731 62.6749 101.638 63.9826C86.4769 64.8543 71.3154 67.4696 56.7154 72.2644C37.6231 78.3668 20.777 78.3668 2.66099e-05 78.3668" stroke="#EAE0D1" stroke-miterlimit="10"/>
<path d="M730 136.393C703.547 136.393 684.973 127.161 659.645 121.446C634.88 115.731 608.99 112.654 583.1 112.214C573.531 112.214 560.023 115.291 561.149 122.765C561.712 124.963 563.4 127.161 563.4 129.799C563.4 132.876 560.023 135.074 556.646 136.393C529.63 149.581 494.171 147.383 463.215 142.108C428.882 135.953 395.112 128.48 359.653 132.436C336.577 135.074 316.877 133.316 294.364 133.316C260.031 133.316 229.638 150.461 197.556 149.142C173.354 148.262 151.403 141.668 129.453 133.755C105.813 125.402 92.3054 128.04 68.1034 133.316C47.2784 137.712 21.3878 136.393 1.91127e-05 136.393" stroke="#EAE0D1" stroke-miterlimit="10"/>
<path d="M276.829 14.2958C276.829 12.982 277.269 11.2304 278.149 10.3546L278.589 9.91668C278.589 9.47877 278.589 9.47877 278.589 9.04086C278.589 8.16504 279.469 7.28923 279.909 6.41341C280.349 5.09968 280.349 4.22387 280.79 2.91014C281.67 1.59641 282.99 -0.155222 284.75 0.282687C285.631 0.282687 286.071 1.15851 286.511 1.59641C286.511 1.59641 286.951 2.03432 287.391 2.47223C287.831 2.47223 288.271 2.03432 288.271 2.47223C288.711 2.91014 288.711 3.34805 289.152 3.78596C290.032 4.66178 291.352 5.09968 292.232 5.9755C292.672 6.85132 293.553 7.72714 294.433 8.60296C294.873 9.91668 295.753 10.7925 296.193 12.1062C296.193 12.5441 296.633 12.982 296.633 13.42C296.633 13.8579 297.073 14.7337 297.073 15.1716C297.073 15.6095 297.514 16.0474 297.514 16.4853C297.514 16.9232 297.514 17.3611 297.514 17.799C297.514 18.2369 297.514 19.9886 297.073 19.9886C297.954 19.5507 297.514 18.6749 297.954 18.2369C298.394 17.799 298.834 18.2369 299.274 17.799C300.154 17.3611 300.154 16.4853 301.034 16.0474C301.474 16.0474 301.474 16.0474 301.915 15.6095C302.795 14.7337 304.115 14.2958 305.435 13.42C306.316 12.982 306.756 12.982 307.636 12.982C308.076 12.982 308.516 12.982 308.956 12.982C308.956 12.982 309.396 12.982 309.396 12.5441L309.837 12.5441C310.717 12.5441 311.597 11.2304 311.597 10.3546C312.037 10.7925 312.477 11.2304 312.477 11.6683C312.917 12.1062 312.917 12.982 312.917 13.42C312.917 14.2958 314.238 15.1716 314.238 16.0474C314.238 18.237 315.558 20.4265 315.558 23.0539C315.558 23.4919 315.558 25.6814 315.998 25.6814C315.998 25.6814 316.438 25.6814 316.438 26.1193C315.998 26.5572 315.998 26.9951 315.998 27.433C315.558 27.8709 315.118 27.8709 315.118 28.3089C314.678 29.1847 315.118 29.6226 314.238 30.4984C313.357 31.3742 312.037 31.8121 311.157 32.6879C310.717 33.1258 310.277 33.5638 309.396 33.5638C308.076 34.0017 306.756 34.8775 304.995 35.3154C304.115 35.7533 302.795 35.3154 301.475 35.3154C300.594 35.3154 299.714 35.7533 298.834 35.7533C298.394 35.7533 297.514 35.7533 297.073 36.1912C297.073 36.1912 296.633 36.6291 296.633 37.067C296.193 37.5049 295.753 38.3808 295.753 39.2566C296.193 39.2566 296.633 39.2566 296.633 39.6945C296.633 40.1324 297.073 40.5703 297.073 40.5703C297.514 41.0082 297.954 41.0082 297.954 40.5703C297.954 40.5703 297.954 40.1324 298.394 40.1324L298.834 40.1324C302.355 39.6945 305.435 39.6945 308.956 39.6945L309.396 39.6945C309.396 39.6945 309.396 39.6945 309.396 40.1324C309.396 40.5703 309.837 40.5703 310.277 40.5703C310.717 40.5703 311.157 40.5703 311.597 40.5703C312.037 40.5703 312.037 41.0082 312.037 41.0082C313.357 41.884 315.558 42.3219 316.438 43.6357C316.438 44.0736 316.878 44.0736 316.878 44.5115C317.318 44.9494 318.199 44.9494 318.639 45.3873C319.959 46.2631 320.399 47.5768 320.839 48.4527C321.279 49.3285 321.719 51.0801 322.6 51.9559C323.48 52.8317 324.36 53.7076 325.24 55.0213C324.36 55.4592 323.48 54.5834 322.6 54.5834C321.719 54.5834 321.279 55.0213 320.399 55.4592C319.959 55.4592 319.519 55.8971 319.079 55.8971C318.639 55.8971 318.199 56.335 317.318 56.335C316.438 56.7729 315.118 57.2108 314.238 56.7729C312.477 56.335 310.717 55.4592 308.956 55.0213C307.636 54.5834 306.316 54.5834 304.995 54.1455C303.675 53.7076 303.235 53.2696 302.355 52.3938C300.594 51.518 299.714 50.6422 298.834 48.8906C298.394 48.4527 298.394 48.0147 297.954 48.0147C297.954 47.5768 297.514 47.5768 297.514 47.1389C297.073 45.8252 296.633 44.0736 296.193 42.7598C296.193 42.3219 295.753 41.884 295.753 41.4461C295.753 41.0082 295.753 41.0082 295.753 40.5703C295.753 40.1324 295.313 39.6945 295.313 39.2566C295.313 38.8187 294.873 38.8187 294.433 38.8187C293.993 38.8187 293.993 39.6945 293.553 40.1324C292.672 41.4461 292.672 43.6357 292.672 45.3873C292.672 45.8252 292.672 45.8252 292.232 46.2631C291.792 46.701 292.232 47.5768 291.792 47.5768L291.352 48.0147L291.352 48.4527C291.352 48.8906 290.912 49.7664 290.912 50.2043C290.912 50.6422 290.912 51.0801 290.472 51.0801C290.472 51.518 290.032 51.518 289.592 51.518C289.592 51.0801 290.032 50.6422 290.032 50.2043C290.032 49.3285 290.032 49.3285 290.472 48.4527C290.912 47.5768 291.352 46.701 291.792 45.3873L291.792 44.9494C292.232 43.1977 292.232 41.4461 293.112 39.6945C293.112 39.2566 293.553 38.3808 293.553 37.5049L293.553 37.067L293.112 36.6291C292.672 36.1912 292.672 35.7533 292.232 35.7533C291.792 35.3154 291.352 35.3154 290.912 35.3154C290.472 35.3154 289.592 34.8775 289.152 34.4396C287.831 34.0017 286.511 33.1258 285.631 32.6879C284.75 32.25 283.43 31.3742 282.55 30.4984C281.67 29.6226 281.23 28.7468 280.79 27.8709C280.349 26.9951 279.909 26.1193 279.469 25.6814C278.589 24.8056 278.149 23.4918 277.709 22.616C276.828 21.3023 276.388 20.8644 277.269 19.1128C277.709 18.2369 277.269 17.3611 277.269 16.9232C277.269 16.4853 276.388 15.6095 276.829 14.2958ZM293.553 35.7533C293.993 36.1912 294.433 36.6291 294.873 37.067C294.873 37.5049 294.873 37.5049 294.873 37.9428C294.873 38.3808 295.313 38.3808 295.313 38.3808C295.753 38.3808 295.753 37.9428 295.753 37.5049L296.193 37.067C296.193 36.6291 296.193 36.6291 296.193 36.1912C296.193 36.1912 296.193 36.1912 296.633 36.1912C296.633 36.1912 296.633 35.7533 296.633 35.3154C296.193 34.0017 295.753 32.6879 295.313 31.8121C294.873 31.3742 294.873 30.9363 294.433 31.3742C293.993 31.8121 293.993 32.6879 293.993 33.1258C293.993 33.5638 293.993 33.5638 293.993 34.0017C293.993 34.4396 293.553 34.8775 293.553 35.3154C293.553 34.8775 293.553 35.3154 293.553 35.7533Z" fill="#73A697"/>
<path d="M481.038 27.433C481.038 27.8709 481.038 27.8709 481.038 28.3088C481.038 29.1846 481.038 30.0604 481.479 30.9362C481.919 31.812 481.919 33.1258 481.919 34.0016C482.359 36.1911 482.359 38.3807 483.679 40.1323C484.119 40.5702 484.559 41.446 484.999 41.446C485.44 41.8839 486.32 42.3219 486.76 42.7598C487.2 43.1977 487.2 43.6356 487.64 44.0735C488.08 44.5114 488.52 44.5114 488.52 44.9493C488.96 45.3872 489.841 45.3872 490.281 45.8251C490.721 46.263 491.601 46.263 492.041 46.7009C492.921 46.7009 493.362 47.1389 494.242 47.1389C494.682 47.5768 495.122 48.0147 496.002 48.4526C496.442 48.8905 496.882 48.4526 497.322 48.4526C498.643 48.4526 500.403 48.4526 501.724 48.8905C502.604 48.8905 503.044 49.3284 503.484 49.7663C503.924 50.2042 503.924 50.2042 504.364 50.6421C505.244 51.9559 506.565 52.8317 508.325 52.8317C508.325 52.8317 508.325 52.3938 507.885 52.3938L507.445 52.3938C506.565 52.3938 505.685 51.5179 505.244 50.6421C504.804 49.7663 504.804 48.8905 504.804 48.0147C504.804 44.9493 505.244 41.8839 505.244 38.3807C505.244 35.3153 503.484 32.6879 501.283 30.4983C499.523 28.7467 497.763 27.433 495.562 26.1192C495.122 26.1192 495.122 25.6813 494.682 25.6813C494.242 25.6813 493.802 25.6813 492.921 25.6813C492.041 25.6813 491.601 25.6813 490.721 25.2434C490.281 24.8055 489.841 24.3676 489.401 24.3676C488.96 24.3676 488.52 24.3676 488.08 24.3676C487.64 24.3676 486.76 24.3676 486.32 24.3676C484.999 24.3676 483.239 23.9297 481.919 24.3676C481.038 24.8055 480.158 23.9297 479.718 24.3676C479.718 25.6813 481.038 26.1192 481.038 27.433C481.038 26.995 481.038 26.995 481.038 27.433Z" fill="#73A697"/>
<path d="M209.042 105.149C209.042 104.711 209.042 104.273 209.042 103.397C209.042 102.521 209.482 101.646 209.482 100.332C209.482 99.8939 209.482 99.456 209.482 98.5802C209.042 97.2664 208.602 96.3906 209.042 95.0769L209.042 94.639L208.602 94.2011C208.602 94.2011 208.602 93.7632 208.602 93.3253C209.042 92.0115 207.722 90.2599 207.282 89.3841C206.842 88.5083 206.401 87.1945 205.521 86.3187C204.641 85.4429 203.321 85.005 202.441 84.1292C202 83.6913 201.56 82.8154 200.68 82.8154C200.24 82.3775 199.8 82.3775 199.36 81.9396C198.92 81.5017 198.039 81.0638 197.159 81.0638C196.279 81.0638 195.399 81.0638 194.519 80.6259C194.078 80.188 194.078 80.6259 193.638 80.6259C193.198 80.6259 192.758 80.6259 192.318 80.6259C189.237 79.7501 186.157 80.6259 183.076 81.5017C183.076 81.0638 182.636 80.6259 182.196 80.188C182.196 80.188 181.755 80.6259 182.196 80.6259L182.636 81.0638C183.516 81.9396 183.516 83.6913 183.516 85.005C183.516 86.3187 183.956 88.0703 184.396 89.3841C184.836 91.1357 185.276 92.4494 186.157 94.2011C186.597 95.5148 187.477 96.3906 187.917 97.7043C188.357 99.0181 189.677 99.8939 190.118 100.77C190.998 101.646 191.878 102.959 193.198 103.397C194.959 103.835 196.279 104.711 198.039 105.587C198.48 105.587 198.92 106.025 199.36 106.025C200.24 106.025 201.12 106.463 201.56 106.463C202 106.463 202 106.463 202.441 106.463C203.321 106.463 203.761 106.9 204.641 106.9C205.961 106.9 207.282 107.338 208.602 108.214C208.602 108.214 208.602 108.214 209.042 108.214C209.922 108.214 209.042 106.025 209.042 105.149Z" fill="#EAE0D1"/>
<path d="M389.927 100.703C389.487 100.703 389.047 100.265 388.607 99.8269C387.727 99.3889 387.287 98.951 386.406 98.5131C385.966 98.0752 385.526 98.0752 385.086 98.0752C383.766 97.6373 382.886 98.0752 382.005 97.1994C382.005 97.1994 382.005 97.1994 381.565 97.1994L381.125 97.1994C381.125 97.1994 380.685 97.1994 380.685 96.7615C379.805 95.8857 378.044 96.3236 376.724 96.3236C375.844 96.3236 374.524 96.3236 373.643 96.7615C372.763 97.1994 371.883 98.0752 371.003 98.5131C370.562 98.951 369.682 98.951 369.242 99.3889C368.802 99.8269 368.802 99.8269 367.922 100.265C367.042 100.703 366.602 101.141 366.602 101.578C366.161 102.016 366.161 103.33 365.281 103.33C364.841 103.33 364.841 103.768 364.841 104.206C364.841 104.644 364.401 105.082 363.961 105.52C362.2 107.709 361.76 110.337 361.32 113.402C360.88 113.402 360.44 113.402 360 113.84C360 113.84 360 114.278 360.44 114.278C360.88 114.278 360.88 114.278 360.88 114.278C362.2 113.84 363.081 114.278 364.401 114.716C365.721 115.154 367.042 115.154 368.362 115.592C369.682 116.029 371.443 116.029 372.763 116.029C374.083 116.029 374.964 116.029 376.284 116.029C377.604 116.029 378.484 115.592 379.805 115.154C381.125 114.716 382.005 114.278 382.886 113.402C383.766 112.526 385.086 111.65 386.406 110.337C386.847 109.899 387.287 109.899 387.287 109.461C387.727 109.023 388.167 108.585 388.607 107.709C388.607 107.271 388.607 107.271 388.607 106.833C388.607 106.395 389.487 105.958 389.487 105.082C389.927 103.768 390.807 102.892 391.688 102.454C393.008 100.703 390.367 100.703 389.927 100.703Z" fill="#73A697"/>
<path d="M429.546 137.348C429.546 133.407 429.986 129.466 429.546 125.963C429.106 123.335 428.226 120.708 427.345 118.518C426.905 117.642 426.905 116.766 426.025 115.891C425.585 115.015 425.145 114.577 424.705 114.139C423.825 112.825 422.944 111.512 421.184 110.636C420.304 110.198 418.983 109.322 418.103 108.884C417.223 108.008 416.343 108.008 415.022 107.57L414.582 107.57L414.142 107.132C413.702 105.819 412.382 105.381 411.061 104.505C410.181 104.067 409.301 104.067 408.421 104.067C407.981 104.067 406.66 104.067 406.22 104.067C405.78 103.191 405.34 102.753 404.9 101.878C404.46 101.878 404.46 102.315 404.46 102.315C404.46 102.753 404.46 102.753 404.9 103.191C405.34 103.629 405.34 104.067 405.78 104.505C405.34 105.381 404.46 105.819 404.02 106.257C403.58 107.132 403.14 108.008 403.14 108.884C403.14 109.322 403.14 110.198 403.14 110.636C403.14 111.074 402.7 111.074 402.7 111.512C402.259 112.387 402.7 112.825 402.7 113.263C402.7 114.139 402.7 115.015 402.7 115.453C402.7 117.204 403.14 118.518 403.14 120.27C403.58 122.897 404.46 125.963 406.22 128.152C408.421 131.217 411.502 133.845 414.582 136.034C415.463 136.472 415.903 136.91 416.783 137.348C417.223 137.786 417.663 138.224 418.543 138.224C418.983 138.224 418.983 138.224 419.424 138.224C419.864 138.224 419.864 138.224 420.304 138.662C420.744 138.662 420.744 139.1 421.184 139.1C422.064 139.538 422.504 139.538 423.384 139.538C424.265 139.538 424.705 139.976 425.145 139.976C426.465 139.976 427.345 140.851 428.666 141.727C429.106 142.165 429.546 142.165 429.986 142.603C430.426 142.603 431.306 143.041 431.306 142.165C431.306 141.727 430.866 141.289 430.866 140.851C429.986 139.976 429.986 138.662 429.546 137.348Z" fill="#EAE0D1"/>
<path d="M571.48 57.9504C571.48 58.2395 571.76 58.2395 572.04 58.5286C572.32 58.8178 572.32 59.1069 572.6 59.1069C572.88 59.6852 573.16 59.3961 573.44 60.2635C573.44 60.8418 573.44 61.7092 573.72 62.2874C573.72 62.5766 574 63.1549 574 63.444C574 63.7331 573.16 64.0223 573.16 63.7331C573.16 65.1788 573.44 66.6245 572.88 68.0702C572.32 69.2268 571.48 70.0942 571.2 71.2508C571.2 71.5399 571.2 71.5399 571.2 71.8291C571.2 71.8291 570.92 72.1182 570.64 72.1182C570.08 72.4073 570.08 73.2748 569.52 73.853C569.52 74.1422 569.24 74.4313 568.96 74.4313C568.68 74.4313 568.68 74.1422 568.4 74.1422C567.84 74.1422 567.56 74.7205 567.28 75.2987C566.72 76.1662 566.16 75.5879 565.32 76.1662C565.04 76.4553 564.76 76.7444 564.2 77.0336C563.64 77.3227 563.08 77.0336 562.52 77.0336C562.24 77.0336 561.96 77.3227 561.68 77.6118C561.12 77.901 560.28 77.6119 559.72 77.901C557.48 78.4793 554.96 79.0576 553 80.2141C553 78.4793 553.28 76.7444 553.28 75.0096C553.28 73.5639 553.56 72.4073 553.56 70.9616C553.56 69.8051 553.84 68.6485 554.12 67.492C554.68 65.7571 555.52 64.0223 556.64 62.5766C556.36 62.2874 556.64 61.7092 556.92 61.1309C557.2 60.8417 557.76 60.5526 558.04 60.2635C558.6 59.6852 558.88 58.8178 559.72 58.5286C560 58.2395 560.56 58.2395 560.84 58.2395C561.12 57.9504 561.68 57.6612 561.68 57.3721C562.24 57.3721 564.76 57.3721 565.04 56.7938C565.04 56.5047 565.04 56.5047 565.04 56.2155C565.04 56.2155 565.32 55.9264 565.6 55.9264C567.28 55.9264 569.8 55.059 570.92 56.7938L571.2 57.0829C571.2 57.0829 571.2 57.0829 571.48 56.7938C571.76 56.2155 573.44 54.7698 574 55.3481C573.16 55.9264 571.2 57.0829 571.48 57.9504Z" fill="#EAE0D1"/>
<path d="M174.232 33.6015C174.381 33.8489 174.621 33.7041 175.01 33.8068C175.399 33.9095 175.549 34.1569 175.788 34.0121C176.327 34.3622 176.417 33.97 177.106 34.5676C177.405 35.0625 177.853 35.8049 178.392 36.155C178.541 36.4025 179.08 36.7526 179.23 37.0001C179.379 37.2476 178.81 37.9295 178.66 37.682C179.408 38.9193 180.395 40.0119 180.664 41.5388C180.783 42.8183 180.512 43.9952 180.871 45.1299C181.02 45.3773 181.02 45.3773 181.17 45.6248C181.17 45.6248 181.08 46.0171 180.84 46.1619C180.51 46.699 180.959 47.4414 180.779 48.2259C180.928 48.4734 180.838 48.8657 180.598 49.0105C180.359 49.1553 180.209 48.9078 179.97 49.0526C179.49 49.3423 179.55 49.982 179.609 50.6218C179.579 51.6538 178.8 51.4485 178.38 52.3778C178.29 52.7701 178.2 53.1624 177.87 53.6995C177.541 54.2366 176.912 54.2787 176.432 54.5683C176.193 54.7132 176.103 55.1054 176.013 55.4977C175.683 56.0348 174.814 56.2218 174.485 56.7589C172.867 58.4123 171.009 60.2105 169.929 62.2141C169.032 60.7293 168.375 59.0996 167.477 57.6148C166.73 56.3775 166.371 55.2428 165.624 54.0055C165.025 53.0156 164.667 51.8809 164.308 50.7462C163.891 48.9718 163.712 47.0525 163.923 45.236C163.534 45.1333 163.475 44.4935 163.415 43.8538C163.505 43.4615 163.835 42.9244 163.925 42.5322C164.105 41.7476 163.896 40.8604 164.466 40.1785C164.556 39.7862 165.035 39.4966 165.275 39.3518C165.365 38.9595 165.695 38.4224 165.545 38.1749C166.024 37.8853 168.181 36.582 168.122 35.9423C167.972 35.6948 167.972 35.6948 167.823 35.4473C167.823 35.4473 167.913 35.055 168.152 34.9102C169.59 34.0414 171.298 31.9957 173.154 32.9012L173.543 33.0039C173.543 33.0039 173.543 33.0039 173.634 32.6116C173.574 31.9719 174.264 29.8657 175.043 30.071C174.623 31.0003 173.543 33.0039 174.232 33.6015Z" fill="#EAE0D1"/>
<path d="M526.504 142.038C526.122 142.111 526.193 142.481 525.882 142.924C525.571 143.367 525.19 143.44 525.261 143.809C524.568 144.325 525.021 144.622 523.947 145.211C523.183 145.357 522.038 145.577 521.346 146.093C520.964 146.166 520.272 146.682 519.89 146.755C519.508 146.829 518.914 145.793 519.296 145.72C517.387 146.086 515.55 146.821 513.5 146.448C511.831 146.001 510.474 145.112 508.876 145.035C508.494 145.108 508.494 145.108 508.113 145.182C508.113 145.182 507.66 144.885 507.589 144.516C507.066 143.85 505.921 144.069 505.016 143.476C504.634 143.55 504.181 143.253 504.111 142.883C504.04 142.514 504.421 142.441 504.35 142.071C504.209 141.332 503.375 141.109 502.54 140.885C501.254 140.366 501.875 139.48 500.899 138.518C500.447 138.221 499.994 137.925 499.471 137.259C498.947 136.593 499.187 135.78 499.045 135.041C498.975 134.672 498.522 134.375 498.069 134.079C497.546 133.413 497.715 132.231 497.192 131.565C495.861 128.754 494.46 125.574 492.437 123.279C494.727 122.84 497.088 122.771 499.378 122.332C501.287 121.966 502.884 122.043 504.793 121.677C506.319 121.384 507.917 121.461 509.514 121.538C511.946 121.838 514.449 122.507 516.641 123.62C516.952 123.177 517.786 123.4 518.62 123.624C519.073 123.92 519.596 124.586 520.049 124.883C520.954 125.475 522.17 125.625 522.764 126.661C523.216 126.958 523.358 127.697 523.429 128.066C523.882 128.363 524.405 129.029 524.787 128.956C524.928 129.695 525.566 133.021 526.4 133.245C526.782 133.171 526.782 133.171 527.164 133.098C527.164 133.098 527.616 133.395 527.687 133.764C528.112 135.982 529.895 139.089 527.889 141.006L527.578 141.449C527.578 141.449 527.578 141.449 528.031 141.746C528.865 141.969 531.198 143.821 530.577 144.706C529.601 143.744 527.578 141.449 526.504 142.038Z" fill="#73A697"/>
<path d="M101.287 130.473C101.245 130.725 101.489 130.765 101.691 131.057C101.893 131.349 101.852 131.601 102.095 131.641C102.256 132.184 102.541 131.973 102.66 132.768C102.577 133.272 102.452 134.027 102.613 134.57C102.571 134.822 102.732 135.366 102.69 135.617C102.649 135.869 101.876 136 101.917 135.748C101.71 137.006 101.745 138.305 101.05 139.483C100.396 140.409 99.5404 141.043 99.1304 142.01C99.0888 142.261 99.0888 142.261 99.0472 142.513C99.0472 142.513 98.7619 142.724 98.5182 142.684C97.9892 142.855 97.8645 143.61 97.2939 144.033C97.2523 144.285 96.967 144.496 96.7233 144.456C96.4795 144.416 96.5211 144.164 96.2774 144.124C95.79 144.043 95.4631 144.506 95.1363 144.969C94.5241 145.644 94.1198 145.06 93.3055 145.442C93.0202 145.654 92.7349 145.865 92.2059 146.036C91.6769 146.208 91.231 145.875 90.7436 145.795C90.4999 145.755 90.2146 145.966 89.9293 146.177C89.4003 146.348 88.7107 145.976 88.1817 146.147C86.1488 146.328 83.8722 146.469 81.9999 147.194C82.2494 145.684 82.7426 144.214 82.9921 142.704C83.2 141.446 83.61 140.48 83.8179 139.221C83.9842 138.215 84.3943 137.248 84.8044 136.282C85.5413 134.852 86.5219 133.463 87.7047 132.366C87.5025 132.074 87.8294 131.611 88.1563 131.148C88.4416 130.936 88.9706 130.765 89.2559 130.554C89.8265 130.131 90.195 129.416 90.9677 129.285C91.253 129.074 91.7404 129.154 91.9841 129.195C92.2694 128.983 92.7984 128.812 92.84 128.56C93.3274 128.641 95.5209 129.003 95.8477 128.54C95.8893 128.289 95.8893 128.289 95.9309 128.037C95.9309 128.037 96.2162 127.826 96.4599 127.866C97.9222 128.107 100.24 127.715 100.966 129.386L101.168 129.678C101.168 129.678 101.168 129.678 101.453 129.466C101.78 129.003 103.45 127.987 103.855 128.57C103.04 128.953 101.168 129.678 101.287 130.473Z" fill="#73A697"/>
<path d="M642.117 84.3612L644.318 83.4854L644.758 83.0475C644.758 83.0475 645.198 82.6096 645.638 82.6096C646.958 82.1717 647.839 81.2959 649.159 80.858C650.479 80.4201 651.8 79.9822 653.12 79.9822C654 79.9822 654.44 79.9822 655.32 79.9822C655.761 79.9822 656.201 79.9822 656.201 80.4201L656.641 80.858C657.081 80.858 657.521 80.858 657.961 80.858C658.401 80.858 658.841 80.858 659.722 80.858C660.602 81.2959 661.042 81.7338 661.922 82.1717C662.802 82.6096 663.682 82.6096 664.563 83.0475C663.242 82.1717 661.922 80.858 660.602 79.5443C659.721 78.2305 658.401 76.4789 657.961 74.7273C657.961 74.2893 657.521 73.8514 657.521 73.4135C657.521 72.9756 657.521 72.9756 657.521 72.5377C657.521 71.6619 657.081 71.224 657.081 70.7861C656.641 69.9103 656.641 69.0344 656.641 68.5965C656.641 67.7207 657.081 67.2828 657.081 66.8449C657.081 66.407 657.081 66.407 657.081 65.9691C657.081 65.5312 657.521 65.5312 657.521 65.5312C657.521 65.0933 657.521 65.0933 657.521 64.6554C657.521 64.2174 657.961 64.2174 657.521 63.7795L657.961 63.7795C658.401 64.2174 658.841 64.2174 659.281 64.2174C660.162 64.2174 660.602 64.6554 661.482 64.6554C662.362 64.6554 663.242 64.6554 664.123 65.0933C664.563 65.0933 665.003 65.0933 665.003 65.5312C665.443 65.5312 665.443 65.9691 665.883 65.9691L666.323 65.9691C666.323 65.9691 666.763 65.9691 666.763 66.407C667.643 66.8449 668.084 67.2828 668.964 68.1586L669.404 68.5965L669.844 68.5965C670.284 69.0344 670.724 69.4724 671.164 69.9103C671.604 70.3482 671.604 71.224 672.045 71.224C672.925 71.6619 673.365 71.6619 673.805 72.0998C674.245 72.5377 674.245 73.4135 674.685 73.8514C675.125 75.1652 676.446 75.6031 676.886 76.4789C677.766 77.7926 677.766 79.1063 678.206 80.4201C679.086 83.0475 679.526 85.675 680.847 87.8645C682.167 90.0541 683.927 91.3678 686.128 92.6815C687.008 93.1194 688.328 93.5573 689.209 93.9952C689.649 93.9952 690.529 94.4332 690.969 94.4332C692.73 94.8711 694.05 95.7469 695.81 95.7469C695.37 95.309 695.37 94.8711 694.93 94.8711C694.49 94.4332 694.05 93.9952 694.05 93.5573C694.05 93.5573 694.05 93.1194 693.61 93.1194C693.61 93.1194 693.61 93.1194 693.17 93.1194C692.289 92.6815 691.409 92.2436 690.529 91.8057C690.089 91.3678 689.209 90.9299 688.769 90.492C687.888 90.0541 687.448 89.1782 687.008 88.7403C686.128 87.8645 685.688 87.4266 684.808 86.5508C683.927 86.1129 683.487 85.2371 683.047 84.3612C683.047 83.9233 682.607 83.4854 682.167 83.0475C681.727 82.6096 681.727 82.1717 681.287 81.2959C680.407 79.1063 679.966 76.4789 679.526 74.2894C679.526 73.4135 679.526 72.5377 679.526 71.224C679.526 70.3482 679.966 69.4724 680.407 68.5965C681.287 66.407 681.727 64.6554 682.607 62.4658C683.047 64.2175 685.248 65.0933 687.008 65.9691C688.328 66.8449 689.649 68.1586 690.529 69.4724C692.289 72.0998 694.05 74.7273 695.37 77.7926C695.81 79.1063 696.691 80.858 697.131 82.1717C697.571 83.4854 698.011 85.2371 698.011 86.9887C698.011 88.3024 697.131 89.1783 696.691 90.492C696.25 91.3678 695.81 92.2436 694.93 93.1194C694.93 93.1194 694.93 93.1194 694.49 93.5573L694.49 93.9952C694.93 94.4332 694.93 94.8711 695.37 94.8711C695.81 95.309 695.81 95.7469 696.25 95.7469C696.691 96.1848 697.571 96.1848 698.451 96.1848C700.211 96.6227 701.972 96.6227 703.292 97.0606C705.053 97.4985 706.373 98.3743 708.133 98.8122L708.133 99.2502C708.133 98.8122 706.373 98.8122 706.373 98.8122C705.933 98.8122 705.493 98.8122 705.053 98.3743C704.612 98.3743 704.612 97.9364 704.172 97.9364C703.292 97.4985 702.852 97.0606 701.972 97.0606C701.092 97.0606 700.211 96.6227 699.331 96.6227C697.571 96.1848 695.81 95.7469 694.05 95.7469L693.61 95.7469C693.61 95.7469 693.61 95.7469 693.17 95.7469C692.289 96.1848 691.849 97.0606 690.969 97.4985C690.529 97.9364 690.089 98.3743 690.089 98.8122C690.089 99.2502 690.089 99.2501 690.089 99.6881C690.089 100.564 689.649 101.002 689.209 101.878C688.769 102.316 688.328 102.316 688.328 102.753C687.448 103.629 687.888 104.943 687.448 105.819C687.008 107.133 686.568 108.008 685.688 108.884C684.808 109.76 683.927 110.636 683.047 111.074C682.167 111.512 681.287 112.387 680.407 112.387C679.966 112.387 679.966 112.387 679.526 112.387C679.086 112.387 679.086 112.825 678.646 112.825C678.206 112.825 678.206 112.825 677.766 112.825C677.326 112.825 676.886 112.825 676.005 112.825C675.125 112.825 673.805 112.825 672.925 112.387C672.045 112.387 671.164 111.95 670.724 111.512C669.844 111.074 668.964 110.198 668.084 109.76C667.643 109.76 667.643 109.322 667.203 109.322C665.443 108.446 663.682 107.57 662.362 106.695C662.362 106.695 661.922 106.695 661.922 106.257L661.922 105.819C662.362 104.943 662.802 103.629 662.802 102.753C663.242 101.878 663.242 101.002 663.683 99.6881C663.683 99.2501 664.123 98.8122 664.123 98.3743C664.563 97.9364 664.563 97.9364 664.563 97.0606L664.563 96.6227C664.563 96.1848 665.443 96.1848 665.443 96.1848C665.883 95.7469 665.883 95.309 665.883 94.8711C666.323 93.9952 667.203 93.1194 668.084 92.6815C668.964 92.2436 669.844 91.8057 671.164 91.3678C671.604 91.3678 672.045 90.9299 672.485 90.9299C674.245 90.9299 676.005 91.3678 677.766 92.2436C679.526 93.1194 681.287 93.9952 683.047 94.8711C684.368 95.7469 686.128 96.1848 687.888 96.1848C689.649 96.1848 691.409 95.309 691.849 93.9952C690.969 93.5573 689.649 93.1194 688.769 93.1194C687.888 92.6815 687.008 92.2436 686.128 91.8057C683.927 90.492 681.287 89.6162 678.646 89.1782C676.005 88.7403 673.365 88.7403 670.724 87.8645C670.284 87.8645 669.404 87.4266 668.964 87.4266C668.084 87.4266 667.643 87.8645 667.203 88.3024C666.763 88.7403 666.323 89.1782 665.443 89.1782C664.123 90.0541 662.802 89.6162 661.482 90.0541C661.042 90.492 660.602 90.492 660.162 90.9299C659.281 91.3678 658.401 91.3678 657.081 91.3678C656.201 91.3678 655.32 91.3678 654.44 90.9299C654 90.9299 653.56 90.9299 653.56 90.9299C653.12 90.9299 652.68 90.492 652.24 90.0541C651.359 89.6162 650.479 89.1782 649.599 88.7403L649.159 88.3024C648.719 87.8645 648.279 88.3024 647.398 87.8645C645.638 86.5508 643.878 85.2371 642.117 83.9233L641.677 83.4854C641.677 83.4854 641.677 83.0475 641.237 83.0475C643.438 84.7992 642.557 84.7992 642.117 84.3612ZM667.203 84.3612C667.203 84.7992 667.643 84.7992 668.084 85.2371L668.524 85.675C668.964 86.1129 669.404 86.9887 669.844 87.4266C670.284 87.8645 670.284 88.3024 670.724 88.3024C670.724 88.3024 671.164 88.3024 671.604 88.7403C672.485 89.1782 673.805 89.1782 674.685 89.6162C676.006 90.0541 676.886 90.0541 678.206 90.492C679.966 90.9299 682.167 91.3678 684.368 91.8057C684.368 91.3678 683.047 90.0541 683.047 90.0541C682.607 89.6162 682.607 89.1782 682.167 89.1782C682.167 88.7403 681.727 88.7403 681.287 88.7403C680.847 88.7403 680.847 88.7403 680.407 88.7403C679.086 88.7403 678.206 88.7403 677.326 88.3024C676.446 88.3024 676.005 87.8645 675.125 87.8645C674.685 87.8645 674.685 87.4266 674.245 87.4266C673.805 87.4266 673.805 87.4266 673.365 87.4266C670.724 86.1129 668.964 85.2371 667.203 84.3612Z" fill="#73A697"/>
<path d="M31.6533 98.8907L32.6546 96.7444L32.6748 96.1238C32.6748 96.1238 32.6949 95.5033 33.0152 95.2015C33.6761 93.9775 33.7163 92.7364 34.3772 91.5124C35.038 90.2883 35.6988 89.0643 36.6599 88.159C37.3007 87.5555 37.621 87.2537 38.2618 86.6502C38.5821 86.3484 38.9025 86.0467 39.2027 86.3655L39.8234 86.3824C40.1438 86.0807 40.4641 85.7789 40.7845 85.4772C41.1049 85.1754 41.4252 84.8737 42.0659 84.2701C43.0069 83.9854 43.6275 84.0024 44.5685 83.7176C45.5095 83.4329 46.1503 82.8293 47.0913 82.5446C45.5297 82.8123 43.6678 82.7613 41.8059 82.7103C40.2644 82.3575 38.1023 81.9877 36.5809 81.0144C36.2807 80.6957 35.66 80.6787 35.3598 80.3599C35.0595 80.0411 35.0595 80.0412 34.7593 79.7224C34.1588 79.0849 33.5382 79.0678 33.2379 78.7491C32.3171 78.4133 31.7165 77.7758 31.4163 77.457C30.8158 76.8195 30.8359 76.1989 30.5356 75.8802C30.2354 75.5614 30.2354 75.5614 29.9351 75.2426C29.6349 74.9239 29.9552 74.6221 29.9552 74.6221C29.655 74.3034 29.655 74.3034 29.3547 73.9846C29.0545 73.6658 29.3748 73.3641 28.7542 73.3471L29.0746 73.0453C29.6952 73.0623 30.0156 72.7605 30.336 72.4588C30.9767 71.8552 31.5973 71.8722 32.238 71.2687C32.8788 70.6652 33.5195 70.0617 34.4605 69.7769C34.7808 69.4752 35.1012 69.1734 35.4014 69.4922C35.7218 69.1904 36.0221 69.5092 36.3425 69.2074L36.6628 68.9057C36.6628 68.9057 36.9832 68.6039 37.2834 68.9227C38.2244 68.6379 38.845 68.6549 40.0863 68.6889L40.7069 68.7059L41.0273 68.4042C41.6479 68.4212 42.2685 68.4382 42.8891 68.4552C43.5098 68.4722 44.1102 69.1097 44.4306 68.808C45.3716 68.5232 45.692 68.2215 46.3126 68.2385C46.9332 68.2555 47.5337 68.893 48.1544 68.91C49.3755 69.5645 50.6368 68.978 51.5577 69.3138C53.0992 69.6665 53.9999 70.6229 55.2211 71.2774C57.6633 72.5865 59.7852 74.1973 62.2476 74.8858C64.71 75.5744 66.8922 75.3236 69.3948 74.7711C70.3358 74.4864 71.5971 73.8999 72.5381 73.6151C72.8585 73.3134 73.7995 73.0286 74.1198 72.7268C75.7016 71.8385 77.2631 71.5708 78.5446 70.3638C77.924 70.3468 77.6237 70.028 77.3034 70.3297C76.6827 70.3127 76.0621 70.2957 75.7619 69.977C75.7619 69.977 75.4616 69.6582 75.1412 69.96C75.1412 69.96 75.1413 69.9599 74.8209 70.2617C73.8799 70.5465 72.9389 70.8312 71.9979 71.116C71.3773 71.099 70.4363 71.3837 69.8157 71.3667C68.8747 71.6515 67.9538 71.3157 67.3332 71.2987C66.092 71.2647 65.4713 71.2477 64.2301 71.2137C63.2891 71.4985 62.3683 71.1627 61.4474 70.8269C61.1471 70.5081 60.5265 70.4911 59.9059 70.4741C59.2853 70.4571 58.985 70.1383 58.0642 69.8026C55.9222 68.8123 53.8002 67.2015 51.9786 65.9094C51.3781 65.2719 50.7776 64.6343 49.8768 63.678C49.2763 63.0405 48.9962 62.1012 48.716 61.1619C47.8555 58.9646 46.9748 57.3877 46.1143 55.1904C47.6357 56.1637 49.838 55.2924 51.72 54.7229C53.2816 54.4552 55.1435 54.5062 56.685 54.8589C59.768 55.5645 62.851 56.27 65.9138 57.5961C67.135 58.2506 68.9767 58.9222 70.1978 59.5767C71.419 60.2313 72.9403 61.2046 74.1413 62.4796C75.0421 63.4359 75.0019 64.677 75.5823 65.935C75.8625 66.8743 76.1426 67.8136 76.1023 69.0547C76.1023 69.0547 76.1024 69.0546 76.0823 69.6752L76.3825 69.9939C77.0031 70.0109 77.3034 70.3297 77.6238 70.028C78.2444 70.045 78.5446 70.3637 78.865 70.062C79.4856 70.079 80.1263 69.4755 80.7671 68.8719C82.3488 67.9837 83.6303 66.7766 84.8916 66.1901C86.4733 65.3018 88.0349 65.0341 89.6166 64.1458L89.9169 64.4646C89.6166 64.1458 88.3352 65.3528 88.3352 65.3528C88.0148 65.6546 87.6944 65.9564 87.0738 65.9393C86.7535 66.2411 86.4532 65.9223 86.1328 66.2241C85.1919 66.5088 84.5712 66.4919 83.9305 67.0954C83.2898 67.6989 82.3488 67.9837 81.708 68.5872C80.1263 69.4755 78.5446 70.3637 77.2631 71.5708L76.9428 71.8726C76.9428 71.8726 76.9428 71.8725 76.6224 72.1743C76.2819 73.0966 76.5621 74.0359 76.2216 74.9582C76.2015 75.5787 76.1814 76.1992 76.4817 76.518C76.7819 76.8367 76.7819 76.8367 77.0822 77.1555C77.6827 77.793 77.6625 78.4136 77.9427 79.3529C77.9225 79.9734 77.6022 80.2752 77.9024 80.5939C77.8622 81.835 79.0834 82.4895 79.3635 83.4288C79.9439 84.6869 80.2241 85.6261 80.1838 86.8672C80.1436 88.1083 80.1034 89.3493 79.7629 90.2716C79.4224 91.1939 79.3822 92.435 78.7414 93.0385C78.4211 93.3403 78.4211 93.3403 78.1007 93.642C77.7803 93.9438 78.0806 94.2625 77.7602 94.5643C77.4399 94.8661 77.4399 94.866 77.1195 95.1678C76.7991 95.4696 76.4787 95.7714 75.838 96.3749C75.1973 96.9784 74.2362 97.8837 73.2952 98.1684C72.6545 98.772 71.7135 99.0567 71.0929 99.0397C70.1519 99.3245 68.9107 99.2904 67.9697 99.5752C67.6493 99.8769 67.349 99.5582 67.0287 99.86C65.1467 100.429 63.2647 100.999 61.7031 101.267C61.7031 101.267 61.3828 101.569 61.0825 101.25L60.7822 100.931C60.5021 99.9917 59.9217 98.7336 59.3212 98.0961C59.041 97.1568 58.4406 96.5192 57.8602 95.2612C57.5599 94.9424 57.58 94.3219 57.2798 94.0031C57.2999 93.3826 57.2999 93.3826 56.6994 92.7451L56.3991 92.4263C56.0989 92.1075 56.7396 91.504 56.7396 91.504C56.7597 90.8835 56.4595 90.5647 56.1592 90.246C55.8791 89.3067 55.9193 88.0656 56.2598 87.1433C56.6003 86.221 56.9407 85.2987 57.6016 84.0747C57.9219 83.7729 57.9421 83.1524 58.2624 82.8506C59.5439 81.6436 61.1256 80.7553 63.0076 80.1858C64.8896 79.6163 66.7715 79.0468 68.6535 78.4773C70.2151 78.2095 71.7968 77.3212 73.0783 76.1142C74.3598 74.9071 75.0407 73.0626 74.4603 71.8045C73.5193 72.0893 72.258 72.6758 71.6172 73.2793C70.6763 73.5641 69.7352 73.8488 68.7943 74.1336C66.2917 74.6861 63.769 75.8591 61.5465 77.3509C59.3241 78.8427 57.4019 80.6533 54.8792 81.8264C54.5588 82.1281 53.6178 82.4129 53.2975 82.7146C52.6567 83.3181 52.6366 83.9387 52.6165 84.5592C52.5964 85.1797 52.5763 85.8002 51.9355 86.4038C51.5749 87.9466 50.3136 88.5331 49.6528 89.7571C49.6327 90.3777 49.3123 90.6794 49.2922 91.3C48.9517 92.2222 48.311 92.8258 47.3499 93.731C46.7091 94.3346 46.0684 94.9381 45.1274 95.2229C44.807 95.5246 44.4867 95.8264 44.4867 95.8264C44.1663 96.1281 43.5457 96.1111 42.9251 96.0941C41.9841 96.3789 41.0431 96.6637 40.1021 96.9484L39.4815 96.9314C38.8609 96.9144 38.8407 97.5349 37.8997 97.8197C35.7175 98.0705 33.5353 98.3212 31.3531 98.5719L30.7325 98.5549C30.7325 98.5549 30.4322 98.2362 30.1118 98.5379C32.9147 98.3042 32.2739 98.9077 31.6533 98.8907ZM49.9142 81.6903C50.2144 82.0091 50.5348 81.7073 51.1555 81.7243L51.7761 81.7413C52.3967 81.7583 53.3176 82.0941 53.9382 82.1111C54.5588 82.1281 54.859 82.4469 55.1794 82.1451C55.1794 82.1451 55.4998 81.8434 56.1204 81.8604C57.0614 81.5756 58.0225 80.6703 58.9635 80.3855C60.2249 79.799 60.8655 79.1955 62.1269 78.609C63.7086 77.7207 65.6107 76.5307 67.5128 75.3406C67.2126 75.0219 65.3507 74.9709 65.3507 74.9709C64.7301 74.9539 64.4298 74.6351 64.1095 74.9368C63.8092 74.6181 63.4888 74.9198 63.1685 75.2216C62.8481 75.5233 62.8481 75.5234 62.5277 75.8251C61.5666 76.7304 60.9259 77.3339 59.9849 77.6187C59.3442 78.2222 58.7236 78.2052 58.0828 78.8087C57.7625 79.1105 57.4622 78.7917 57.1418 79.0935C56.8215 79.3952 56.8215 79.3952 56.5011 79.697C53.6782 80.5513 51.7962 81.1208 49.9142 81.6903Z" fill="#73A697"/>
</svg>
