<svg width="730" height="151" viewBox="0 0 730 151" fill="none" xmlns="http://www.w3.org/2000/svg">
<path d="M729 111.157C723.938 111.157 717.752 110.284 713.253 111.157C704.254 112.466 694.131 116.831 685.132 119.014C666.011 123.816 645.202 127.308 624.955 125.125C597.398 122.07 573.214 109.411 546.781 103.736C531.596 100.244 516.411 98.9346 500.664 98.0616C486.042 97.1885 471.419 96.3155 457.359 97.6251C449.485 98.4981 441.612 101.117 433.176 101.117C425.864 101.554 417.991 100.681 410.68 99.8076C393.807 98.0616 376.935 94.133 360.063 91.9505C340.942 89.7679 321.257 89.3314 302.136 91.0775C291.45 91.9505 279.639 94.5695 274.015 101.554C269.516 106.792 270.641 112.03 269.516 117.704C268.954 120.324 269.516 120.76 267.829 122.943C254.894 136.474 217.213 132.109 199.216 127.308C189.092 124.689 180.094 122.07 169.971 120.324C157.598 118.141 145.225 115.522 132.852 113.776C110.918 110.284 88.4222 111.157 65.9261 111.157C43.4299 111.157 21.4962 111.157 -0.999993 111.157" stroke="#EAE0D1" stroke-miterlimit="10"/>
<path d="M729 51.7224C724.501 51.7224 720.002 50.8474 715.502 50.8474C708.191 50.41 700.88 52.1599 694.131 53.0348C677.259 55.2222 660.949 57.8471 644.077 59.597C611.458 63.0969 577.713 64.8468 544.532 62.2219C516.974 60.0345 489.416 54.7848 461.858 56.5347C452.86 56.9722 443.861 58.2846 434.863 56.9722C425.864 55.6598 417.428 52.5974 408.43 49.9725C376.373 40.7855 342.066 43.8478 308.884 48.2226C292.012 50.41 275.14 53.4724 258.268 55.2223C234.647 57.8472 207.089 53.9099 187.405 66.1593C180.656 70.5341 173.908 75.3464 164.909 76.6588C155.911 77.9713 146.35 75.3464 137.914 71.4091C112.043 59.5971 86.735 53.9099 56.3653 51.285C37.8059 49.9726 17.5593 51.285 -0.999993 51.285" stroke="#EAE0D1" stroke-miterlimit="10"/>
<path d="M729 25.6295C720.551 25.6295 709.849 24.7429 701.963 27.846C695.767 30.0624 691.261 34.9386 685.628 38.0417C668.167 47.3508 647.326 54.0001 626.485 54.0001C611.276 54.0001 596.068 50.4538 580.86 49.5672C570.157 48.6807 558.892 49.124 548.19 49.5672C526.222 49.5673 497.495 50.0105 477.781 40.7014C456.94 30.9491 434.972 26.9594 411.315 25.6296C358.367 22.5265 305.983 31.8357 253.599 33.1655C245.15 33.6088 236.137 33.6088 228.252 31.8357C222.056 30.9491 216.423 29.1759 210.79 27.8461C184.316 22.5266 156.716 27.8461 129.679 31.8357C116.724 33.6089 103.205 34.9387 89.6867 34.0522C82.9274 33.6089 76.1681 33.1656 69.9722 31.3924C64.9027 30.0625 60.3966 27.8461 55.3271 26.9595C41.8086 24.2998 28.8533 26.0729 15.3348 26.0729C9.7021 26.0729 4.63269 26.0729 -1.00003 26.0729" stroke="#EAE0D1" stroke-miterlimit="10"/>
<path d="M729 72.8472C703.731 73.719 677.338 75.4626 653.192 81.565C642.523 84.1803 632.415 88.1033 621.746 90.7186C607.708 94.2057 593.108 96.3852 578.508 95.9493C537.515 94.6416 499.331 72.4114 458.338 75.0267C443.738 75.8985 430.261 79.8215 415.661 80.6932C376.915 83.3086 339.854 65.0013 301.108 67.1808C291 67.6167 281.454 69.7961 271.908 71.1038C253.938 73.7191 240.462 75.4626 225.3 84.6163C220.246 87.6675 214.069 92.4622 216.877 97.257C218.562 100.308 223.615 101.616 228.108 102.924C232.6 104.231 237.092 106.847 236.531 110.334C235.969 114.692 228.669 116 223.054 116C203.4 115.128 183.746 109.898 167.461 100.744C163.531 98.5647 160.162 96.3852 155.669 94.2058C139.385 86.7957 119.731 88.5393 100.638 87.2316C85.4769 86.3598 70.3154 83.7445 55.7154 78.9498C36.6231 72.8473 19.777 72.8474 -0.999973 72.8474" stroke="#EAE0D1" stroke-miterlimit="10"/>
<path d="M729 14.8213C702.547 14.8213 683.973 24.0532 658.645 29.7682C633.88 35.4832 607.99 38.5605 582.1 39.0001C572.531 39.0002 559.023 35.9228 560.149 28.4494C560.712 26.2513 562.4 24.0532 562.4 21.4155C562.4 18.3382 559.023 16.1401 555.646 14.8213C528.63 1.63283 493.171 3.83092 462.215 9.10631C427.882 15.2609 394.112 22.7344 358.653 18.7779C335.577 16.1402 315.877 17.8987 293.364 17.8987C259.031 17.8987 228.638 0.753667 196.556 2.07252C172.354 2.95176 150.403 9.54598 128.453 17.4591C104.813 25.8118 91.3054 23.1741 67.1034 17.8987C46.2784 13.5025 20.3878 14.8214 -0.999981 14.8214" stroke="#EAE0D1" stroke-miterlimit="10"/>
<path d="M275.829 136.918C275.829 138.232 276.269 139.984 277.149 140.86L277.589 141.297C277.589 141.735 277.589 141.735 277.589 142.173C277.589 143.049 278.469 143.925 278.909 144.801C279.349 146.114 279.35 146.99 279.79 148.304C280.67 149.618 281.99 151.369 283.751 150.931C284.631 150.931 285.071 150.056 285.511 149.618C285.511 149.618 285.951 149.18 286.391 148.742C286.831 148.742 287.271 149.18 287.271 148.742C287.712 148.304 287.712 147.866 288.152 147.428C289.032 146.552 290.352 146.114 291.232 145.239C291.672 144.363 292.553 143.487 293.433 142.611C293.873 141.297 294.753 140.422 295.193 139.108C295.193 138.67 295.633 138.232 295.633 137.794C295.633 137.356 296.074 136.48 296.074 136.043C296.074 135.605 296.514 135.167 296.514 134.729C296.514 134.291 296.514 133.853 296.514 133.415C296.514 132.977 296.514 131.226 296.074 131.226C296.954 131.663 296.514 132.539 296.954 132.977C297.394 133.415 297.834 132.977 298.274 133.415C299.154 133.853 299.154 134.729 300.034 135.167C300.475 135.167 300.475 135.167 300.915 135.605C301.795 136.48 303.115 136.918 304.436 137.794C305.316 138.232 305.756 138.232 306.636 138.232C307.076 138.232 307.516 138.232 307.956 138.232C307.956 138.232 308.397 138.232 308.397 138.67L308.837 138.67C309.717 138.67 310.597 139.984 310.597 140.86C311.037 140.422 311.477 139.984 311.477 139.546C311.917 139.108 311.917 138.232 311.917 137.794C311.917 136.918 313.238 136.043 313.238 135.167C313.238 132.977 314.558 130.788 314.558 128.16C314.558 127.722 314.558 125.533 314.998 125.533C314.998 125.533 315.438 125.533 315.438 125.095C314.998 124.657 314.998 124.219 314.998 123.781C314.558 123.343 314.118 123.343 314.118 122.905C313.678 122.03 314.118 121.592 313.238 120.716C312.357 119.84 311.037 119.402 310.157 118.526C309.717 118.088 309.277 117.65 308.397 117.65C307.076 117.213 305.756 116.337 303.995 115.899C303.115 115.461 301.795 115.899 300.475 115.899C299.594 115.899 298.714 115.461 297.834 115.461C297.394 115.461 296.514 115.461 296.074 115.023C296.074 115.023 295.633 114.585 295.633 114.147C295.193 113.709 294.753 112.833 294.753 111.958C295.193 111.958 295.633 111.958 295.633 111.52C295.633 111.082 296.074 110.644 296.074 110.644C296.514 110.206 296.954 110.206 296.954 110.644C296.954 110.644 296.954 111.082 297.394 111.082L297.834 111.082C301.355 111.52 304.436 111.52 307.956 111.52L308.397 111.52C308.397 111.52 308.397 111.52 308.397 111.082C308.397 110.644 308.837 110.644 309.277 110.644C309.717 110.644 310.157 110.644 310.597 110.644C311.037 110.644 311.037 110.206 311.037 110.206C312.357 109.33 314.558 108.892 315.438 107.579C315.438 107.141 315.878 107.141 315.878 106.703C316.318 106.265 317.199 106.265 317.639 105.827C318.959 104.951 319.399 103.637 319.839 102.762C320.279 101.886 320.72 100.134 321.6 99.2582C322.48 98.3824 323.36 97.5066 324.24 96.1929C323.36 95.755 322.48 96.6308 321.6 96.6308C320.72 96.6308 320.279 96.1929 319.399 95.755C318.959 95.755 318.519 95.3171 318.079 95.3171C317.639 95.3171 317.199 94.8792 316.318 94.8792C315.438 94.4413 314.118 94.0033 313.238 94.4413C311.477 94.8792 309.717 95.755 307.956 96.1929C306.636 96.6308 305.316 96.6308 303.995 97.0687C302.675 97.5066 302.235 97.9445 301.355 98.8203C299.594 99.6962 298.714 100.572 297.834 102.324C297.394 102.762 297.394 103.199 296.954 103.199C296.954 103.637 296.514 103.637 296.514 104.075C296.074 105.389 295.633 107.141 295.193 108.454C295.193 108.892 294.753 109.33 294.753 109.768C294.753 110.206 294.753 110.206 294.753 110.644C294.753 111.082 294.313 111.52 294.313 111.958C294.313 112.396 293.873 112.396 293.433 112.396C292.993 112.396 292.993 111.52 292.553 111.082C291.672 109.768 291.672 107.579 291.672 105.827C291.672 105.389 291.672 105.389 291.232 104.951C290.792 104.513 291.232 103.637 290.792 103.637L290.352 103.199L290.352 102.762C290.352 102.324 289.912 101.448 289.912 101.01C289.912 100.572 289.912 100.134 289.472 100.134C289.472 99.6962 289.032 99.6962 288.592 99.6962C288.592 100.134 289.032 100.572 289.032 101.01C289.032 101.886 289.032 101.886 289.472 102.762C289.912 103.637 290.352 104.513 290.792 105.827L290.792 106.265C291.232 108.016 291.232 109.768 292.113 111.52C292.113 111.958 292.553 112.833 292.553 113.709L292.553 114.147L292.113 114.585C291.672 115.023 291.672 115.461 291.232 115.461C290.792 115.899 290.352 115.899 289.912 115.899C289.472 115.899 288.592 116.337 288.152 116.775C286.831 117.213 285.511 118.088 284.631 118.526C283.751 118.964 282.43 119.84 281.55 120.716C280.67 121.592 280.23 122.467 279.79 123.343C279.35 124.219 278.909 125.095 278.469 125.533C277.589 126.409 277.149 127.722 276.709 128.598C275.829 129.912 275.389 130.35 276.269 132.101C276.709 132.977 276.269 133.853 276.269 134.291C276.269 134.729 275.389 135.605 275.829 136.918ZM292.553 115.461C292.993 115.023 293.433 114.585 293.873 114.147C293.873 113.709 293.873 113.709 293.873 113.271C293.873 112.833 294.313 112.833 294.313 112.833C294.753 112.833 294.753 113.271 294.753 113.709L295.193 114.147C295.193 114.585 295.193 114.585 295.193 115.023C295.193 115.023 295.193 115.023 295.633 115.023C295.633 115.023 295.633 115.461 295.633 115.899C295.193 117.213 294.753 118.526 294.313 119.402C293.873 119.84 293.873 120.278 293.433 119.84C292.993 119.402 292.993 118.526 292.993 118.088C292.993 117.65 292.993 117.65 292.993 117.213C292.993 116.775 292.553 116.337 292.553 115.899C292.553 116.337 292.553 115.899 292.553 115.461Z" fill="#73A697"/>
<path d="M480.038 123.781C480.038 123.343 480.038 123.343 480.038 122.905C480.038 122.03 480.038 121.154 480.478 120.278C480.919 119.402 480.919 118.088 480.919 117.213C481.359 115.023 481.359 112.833 482.679 111.082C483.119 110.644 483.559 109.768 483.999 109.768C484.439 109.33 485.32 108.892 485.76 108.454C486.2 108.017 486.2 107.579 486.64 107.141C487.08 106.703 487.52 106.703 487.52 106.265C487.96 105.827 488.84 105.827 489.281 105.389C489.721 104.951 490.601 104.951 491.041 104.513C491.921 104.513 492.361 104.075 493.242 104.075C493.682 103.637 494.122 103.2 495.002 102.762C495.442 102.324 495.882 102.762 496.322 102.762C497.643 102.762 499.403 102.762 500.723 102.324C501.604 102.324 502.044 101.886 502.484 101.448C502.924 101.01 502.924 101.01 503.364 100.572C504.244 99.2583 505.565 98.3825 507.325 98.3825C507.325 98.3825 507.325 98.8204 506.885 98.8204L506.445 98.8204C505.565 98.8204 504.684 99.6962 504.244 100.572C503.804 101.448 503.804 102.324 503.804 103.2C503.804 106.265 504.244 109.33 504.244 112.833C504.244 115.899 502.484 118.526 500.283 120.716C498.523 122.467 496.762 123.781 494.562 125.095C494.122 125.095 494.122 125.533 493.682 125.533C493.242 125.533 492.801 125.533 491.921 125.533C491.041 125.533 490.601 125.533 489.721 125.971C489.281 126.409 488.841 126.847 488.4 126.847C487.96 126.847 487.52 126.847 487.08 126.847C486.64 126.847 485.76 126.847 485.32 126.847C483.999 126.847 482.239 127.284 480.919 126.847C480.038 126.409 479.158 127.284 478.718 126.847C478.718 125.533 480.038 125.095 480.038 123.781C480.038 124.219 480.038 124.219 480.038 123.781Z" fill="#73A697"/>
<path d="M208.042 46.0654C208.042 46.5033 208.042 46.9413 208.042 47.8171C208.042 48.6929 208.482 49.5687 208.482 50.8824C208.482 51.3203 208.482 51.7583 208.482 52.6341C208.042 53.9478 207.602 54.8236 208.042 56.1373L208.042 56.5752L207.602 57.0132C207.602 57.0132 207.602 57.4511 207.602 57.889C208.042 59.2027 206.722 60.9543 206.282 61.8302C205.842 62.706 205.401 64.0197 204.521 64.8955C203.641 65.7713 202.321 66.2092 201.441 67.0851C201 67.523 200.56 68.3988 199.68 68.3988C199.24 68.8367 198.8 68.8367 198.36 69.2746C197.92 69.7125 197.039 70.1504 196.159 70.1504C195.279 70.1504 194.399 70.1504 193.519 70.5883C193.078 71.0262 193.078 70.5883 192.638 70.5883C192.198 70.5883 191.758 70.5883 191.318 70.5883C188.237 71.4642 185.157 70.5883 182.076 69.7125C182.076 70.1504 181.636 70.5883 181.196 71.0263C181.196 71.0263 180.755 70.5883 181.196 70.5883L181.636 70.1504C182.516 69.2746 182.516 67.523 182.516 66.2093C182.516 64.8955 182.956 63.1439 183.396 61.8302C183.836 60.0785 184.276 58.7648 185.157 57.0132C185.597 55.6994 186.477 54.8236 186.917 53.5099C187.357 52.1962 188.677 51.3204 189.118 50.4445C189.998 49.5687 190.878 48.255 192.198 47.8171C193.959 47.3792 195.279 46.5033 197.039 45.6275C197.48 45.6275 197.92 45.1896 198.36 45.1896C199.24 45.1896 200.12 44.7517 200.56 44.7517C201 44.7517 201 44.7517 201.441 44.7517C202.321 44.7517 202.761 44.3138 203.641 44.3138C204.961 44.3138 206.282 43.8759 207.602 43.0001C207.602 43.0001 207.602 43.0001 208.042 43.0001C208.922 43.0001 208.042 45.1896 208.042 46.0654Z" fill="#EAE0D1"/>
<path d="M388.927 50.5116C388.487 50.5116 388.047 50.9495 387.607 51.3874C386.727 51.8253 386.287 52.2632 385.407 52.7011C384.966 53.139 384.526 53.139 384.086 53.139C382.766 53.5769 381.886 53.139 381.005 54.0148C381.005 54.0148 381.005 54.0148 380.565 54.0148L380.125 54.0148C380.125 54.0148 379.685 54.0148 379.685 54.4527C378.805 55.3286 377.044 54.8906 375.724 54.8906C374.844 54.8906 373.524 54.8907 372.643 54.4527C371.763 54.0148 370.883 53.139 370.003 52.7011C369.563 52.2632 368.682 52.2632 368.242 51.8253C367.802 51.3874 367.802 51.3874 366.922 50.9495C366.042 50.5116 365.602 50.0737 365.602 49.6357C365.162 49.1978 365.162 47.8841 364.281 47.8841C363.841 47.8841 363.841 47.4462 363.841 47.0083C363.841 46.5704 363.401 46.1325 362.961 45.6946C361.201 43.505 360.76 40.8776 360.32 37.8122C359.88 37.8122 359.44 37.8122 359 37.3743C359 37.3743 359 36.9364 359.44 36.9364C359.88 36.9364 359.88 36.9364 359.88 36.9364C361.201 37.3743 362.081 36.9364 363.401 36.4985C364.721 36.0606 366.042 36.0606 367.362 35.6227C368.682 35.1848 370.443 35.1848 371.763 35.1848C373.083 35.1848 373.964 35.1848 375.284 35.1848C376.604 35.1848 377.485 35.6227 378.805 36.0606C380.125 36.4985 381.005 36.9364 381.886 37.8122C382.766 38.688 384.086 39.5638 385.407 40.8776C385.847 41.3155 386.287 41.3155 386.287 41.7534C386.727 42.1913 387.167 42.6292 387.607 43.505C387.607 43.9429 387.607 43.9429 387.607 44.3808C387.607 44.8187 388.487 45.2566 388.487 46.1325C388.927 47.4462 389.808 48.322 390.688 48.7599C392.008 50.5116 389.368 50.5116 388.927 50.5116Z" fill="#73A697"/>
<path d="M428.546 13.8661C428.546 17.8072 428.986 21.7484 428.546 25.2517C428.106 27.8791 427.226 30.5066 426.345 32.6961C425.905 33.572 425.905 34.4478 425.025 35.3236C424.585 36.1994 424.145 36.6373 423.705 37.0752C422.825 38.3889 421.944 39.7027 420.184 40.5785C419.304 41.0164 417.983 41.8922 417.103 42.3301C416.223 43.2059 415.343 43.2059 414.022 43.6439L413.582 43.6439L413.142 44.0818C412.702 45.3955 411.382 45.8334 410.061 46.7092C409.181 47.1471 408.301 47.1471 407.421 47.1471C406.981 47.1471 405.66 47.1471 405.22 47.1471C404.78 48.0229 404.34 48.4609 403.9 49.3367C403.46 49.3367 403.46 48.8988 403.46 48.8988C403.46 48.4609 403.46 48.4609 403.9 48.0229C404.34 47.585 404.34 47.1471 404.78 46.7092C404.34 45.8334 403.46 45.3955 403.02 44.9576C402.58 44.0818 402.14 43.206 402.14 42.3301C402.14 41.8922 402.14 41.0164 402.14 40.5785C402.14 40.1406 401.7 40.1406 401.7 39.7027C401.259 38.8269 401.7 38.389 401.7 37.951C401.7 37.0752 401.7 36.1994 401.7 35.7615C401.7 34.0099 402.14 32.6961 402.14 30.9445C402.58 28.3171 403.46 25.2517 405.22 23.0622C407.421 19.9968 410.502 17.3693 413.582 15.1798C414.463 14.7419 414.903 14.304 415.783 13.8661C416.223 13.4282 416.663 12.9902 417.543 12.9902C417.983 12.9902 417.983 12.9902 418.424 12.9902C418.864 12.9902 418.864 12.9902 419.304 12.5523C419.744 12.5523 419.744 12.1144 420.184 12.1144C421.064 11.6765 421.504 11.6765 422.384 11.6765C423.265 11.6765 423.705 11.2386 424.145 11.2386C425.465 11.2386 426.345 10.3628 427.666 9.48697C428.106 9.04906 428.546 9.04907 428.986 8.61116C429.426 8.61116 430.306 8.17325 430.306 9.04906C430.306 9.48698 429.866 9.92488 429.866 10.3628C428.986 11.2386 428.986 12.5523 428.546 13.8661Z" fill="#EAE0D1"/>
<path d="M570.48 93.2639C570.48 92.9747 570.76 92.9747 571.04 92.6856C571.32 92.3965 571.32 92.1073 571.6 92.1073C571.88 91.529 572.16 91.8182 572.44 90.9508C572.44 90.3725 572.44 89.5051 572.72 88.9268C572.72 88.6376 573 88.0594 573 87.7702C573 87.4811 572.16 87.1919 572.16 87.4811C572.16 86.0354 572.44 84.5897 571.88 83.144C571.32 81.9874 570.48 81.12 570.2 79.9635C570.2 79.6743 570.2 79.6743 570.2 79.3852C570.2 79.3852 569.92 79.096 569.64 79.096C569.08 78.8069 569.08 77.9395 568.52 77.3612C568.52 77.0721 568.24 76.7829 567.96 76.7829C567.68 76.7829 567.68 77.0721 567.4 77.0721C566.84 77.0721 566.56 76.4938 566.28 75.9155C565.72 75.0481 565.16 75.6264 564.32 75.0481C564.04 74.7589 563.76 74.4698 563.2 74.1807C562.64 73.8915 562.08 74.1807 561.52 74.1807C561.24 74.1807 560.96 73.8915 560.68 73.6024C560.12 73.3132 559.28 73.6024 558.72 73.3132C556.48 72.735 553.96 72.1567 552 71.0001C552 72.735 552.28 74.4698 552.28 76.2046C552.28 77.6503 552.56 78.8069 552.56 80.2526C552.56 81.4092 552.84 82.5657 553.12 83.7223C553.68 85.4571 554.52 87.1919 555.64 88.6376C555.36 88.9268 555.64 89.5051 555.92 90.0833C556.2 90.3725 556.76 90.6616 557.04 90.9508C557.6 91.529 557.88 92.3965 558.72 92.6856C559 92.9747 559.56 92.9747 559.84 92.9747C560.12 93.2639 560.68 93.553 560.68 93.8422C561.24 93.8422 563.76 93.8422 564.04 94.4204C564.04 94.7096 564.04 94.7096 564.04 94.9987C564.04 94.9987 564.32 95.2879 564.6 95.2879C566.28 95.2879 568.8 96.1553 569.92 94.4204L570.2 94.1313C570.2 94.1313 570.2 94.1313 570.48 94.4204C570.76 94.9987 572.44 96.4444 573 95.8661C572.16 95.2879 570.2 94.1313 570.48 93.2639Z" fill="#EAE0D1"/>
<path d="M173.232 117.613C173.381 117.365 173.621 117.51 174.01 117.407C174.399 117.305 174.549 117.057 174.788 117.202C175.327 116.852 175.417 117.244 176.106 116.647C176.405 116.152 176.853 115.409 177.392 115.059C177.541 114.812 178.08 114.462 178.23 114.214C178.379 113.967 177.81 113.285 177.66 113.532C178.408 112.295 179.395 111.202 179.664 109.675C179.783 108.396 179.512 107.219 179.871 106.084C180.02 105.837 180.02 105.837 180.17 105.589C180.17 105.589 180.08 105.197 179.84 105.052C179.51 104.515 179.959 103.773 179.779 102.988C179.928 102.741 179.838 102.349 179.599 102.204C179.359 102.059 179.209 102.306 178.97 102.162C178.49 101.872 178.55 101.232 178.609 100.592C178.579 99.5604 177.8 99.7658 177.38 98.8364C177.29 98.4441 177.2 98.0518 176.87 97.5147C176.541 96.9777 175.912 96.9355 175.433 96.6459C175.193 96.5011 175.103 96.1088 175.013 95.7165C174.683 95.1794 173.814 94.9925 173.485 94.4554C171.867 92.802 170.009 91.0037 168.929 89.0002C168.032 90.485 167.375 92.1146 166.477 93.5994C165.73 94.8368 165.371 95.9714 164.624 97.2088C164.025 98.1987 163.667 99.3334 163.308 100.468C162.89 102.242 162.712 104.162 162.923 105.978C162.534 106.081 162.474 106.721 162.415 107.36C162.505 107.753 162.835 108.29 162.925 108.682C163.105 109.467 162.896 110.354 163.466 111.036C163.556 111.428 164.035 111.718 164.275 111.862C164.365 112.255 164.695 112.792 164.545 113.039C165.024 113.329 167.181 114.632 167.122 115.272C166.972 115.519 166.972 115.519 166.823 115.767C166.823 115.767 166.913 116.159 167.152 116.304C168.59 117.173 170.298 119.219 172.154 118.313L172.543 118.21C172.543 118.21 172.543 118.21 172.634 118.603C172.574 119.242 173.264 121.349 174.043 121.143C173.623 120.214 172.543 118.21 173.232 117.613Z" fill="#EAE0D1"/>
<path d="M525.504 9.17586C525.122 9.10267 525.193 8.73308 524.882 8.29028C524.571 7.84748 524.19 7.77431 524.261 7.4047C523.568 6.88871 524.021 6.59228 522.947 6.00311C522.183 5.85674 521.038 5.63715 520.346 5.12117C519.964 5.04798 519.272 4.53203 518.89 4.45885C518.508 4.38566 517.914 5.42131 518.296 5.4945C516.387 5.12857 514.55 4.39299 512.5 4.76627C510.831 5.21275 509.474 6.10204 507.876 6.1789C507.494 6.10571 507.494 6.10571 507.113 6.03253C507.113 6.03253 506.66 6.32894 506.589 6.69855C506.066 7.36458 504.921 7.145 504.016 7.73784C503.634 7.66465 503.181 7.96112 503.111 8.33073C503.04 8.70034 503.421 8.77352 503.35 9.14313C503.209 9.88235 502.375 10.1056 501.54 10.3288C500.254 10.8485 500.875 11.734 499.899 12.6965C499.447 12.9929 498.994 13.2894 498.471 13.9554C497.947 14.6214 498.187 15.4338 498.045 16.173C497.975 16.5426 497.522 16.8391 497.069 17.1355C496.546 17.8015 496.715 18.9835 496.192 19.6496C494.861 22.4601 493.46 25.6402 491.437 27.9347C493.727 28.3739 496.088 28.4434 498.378 28.8825C500.287 29.2484 501.884 29.1716 503.793 29.5375C505.319 29.8303 506.917 29.7534 508.514 29.6765C510.946 29.3764 513.449 28.7067 515.641 27.5942C515.952 28.037 516.786 27.8137 517.62 27.5905C518.073 27.2941 518.596 26.6281 519.049 26.3316C519.954 25.7388 521.17 25.5887 521.764 24.5531C522.216 24.2567 522.358 23.5175 522.429 23.1479C522.882 22.8514 523.405 22.1854 523.787 22.2586C523.928 21.5194 524.566 18.1929 525.4 17.9696C525.782 18.0428 525.782 18.0428 526.164 18.116C526.164 18.116 526.616 17.8196 526.687 17.45C527.112 15.2323 528.895 12.1254 526.889 10.2078L526.578 9.76505C526.578 9.76505 526.578 9.76503 527.031 9.46861C527.865 9.24537 530.198 7.39367 529.577 6.50808C528.601 7.47053 526.578 9.76503 525.504 9.17586Z" fill="#73A697"/>
<path d="M100.287 20.7411C100.245 20.4895 100.489 20.4492 100.691 20.1572C100.893 19.8653 100.852 19.6136 101.095 19.5734C101.256 19.0298 101.541 19.2412 101.66 18.4459C101.577 17.9426 101.452 17.1875 101.613 16.6439C101.571 16.3923 101.732 15.8487 101.69 15.597C101.649 15.3453 100.876 15.2145 100.918 15.4661C100.71 14.2078 100.745 12.9091 100.05 11.7313C99.3963 10.8052 98.5404 10.171 98.1304 9.20456C98.0888 8.95289 98.0888 8.9529 98.0472 8.70123C98.0472 8.70123 97.7619 8.48982 97.5182 8.53009C96.9892 8.35895 96.8645 7.60394 96.2939 7.18113C96.2523 6.92946 95.967 6.71806 95.7233 6.75833C95.4796 6.79859 95.5212 7.05026 95.2774 7.09053C94.79 7.17106 94.4631 6.70799 94.1363 6.24492C93.5241 5.57044 93.1198 6.15431 92.3055 5.77177C92.0202 5.56037 91.7349 5.34897 91.2059 5.17783C90.6769 5.0067 90.2311 5.3389 89.7436 5.41943C89.4999 5.4597 89.2146 5.2483 88.9293 5.03689C88.4003 4.86576 87.7108 5.23823 87.1817 5.06709C85.1489 4.88588 82.8722 4.74495 80.9999 4.02013C81.2494 5.53015 81.7426 6.99991 81.9921 8.50993C82.2 9.76828 82.61 10.7347 82.8179 11.993C82.9843 12.9997 83.3943 13.9661 83.8044 14.9326C84.5413 16.362 85.5219 17.7513 86.7047 18.8485C86.5025 19.1405 86.8294 19.6036 87.1563 20.0666C87.4416 20.278 87.9706 20.4492 88.2559 20.6606C88.8265 21.0834 89.195 21.7981 89.9677 21.929C90.253 22.1404 90.7404 22.0599 90.9841 22.0196C91.2694 22.231 91.7984 22.4021 91.84 22.6538C92.3274 22.5733 94.5209 22.2109 94.8477 22.6739C94.8893 22.9256 94.8893 22.9256 94.9309 23.1773C94.9309 23.1773 95.2162 23.3887 95.4599 23.3484C96.9222 23.1068 99.2404 23.4994 99.9658 21.8283L100.168 21.5364C100.168 21.5364 100.168 21.5364 100.453 21.7478C100.78 22.2109 102.45 23.2276 102.855 22.6438C102.04 22.2612 100.168 21.5364 100.287 20.7411Z" fill="#73A697"/>
<path d="M641.117 66.853L643.318 67.7288L643.758 68.1667C643.758 68.1667 644.198 68.6046 644.638 68.6046C645.958 69.0425 646.839 69.9183 648.159 70.3563C649.479 70.7942 650.8 71.2321 652.12 71.2321C653 71.2321 653.44 71.2321 654.32 71.2321C654.761 71.2321 655.201 71.2321 655.201 70.7942L655.641 70.3563C656.081 70.3563 656.521 70.3563 656.961 70.3563C657.401 70.3563 657.841 70.3563 658.722 70.3563C659.602 69.9183 660.042 69.4804 660.922 69.0425C661.802 68.6046 662.682 68.6046 663.563 68.1667C662.242 69.0425 660.922 70.3563 659.602 71.67C658.721 72.9837 657.401 74.7353 656.961 76.487C656.961 76.9249 656.521 77.3628 656.521 77.8007C656.521 78.2386 656.521 78.2386 656.521 78.6765C656.521 79.5523 656.081 79.9902 656.081 80.4282C655.641 81.304 655.641 82.1798 655.641 82.6177C655.641 83.4935 656.081 83.9314 656.081 84.3693C656.081 84.8072 656.081 84.8072 656.081 85.2452C656.081 85.6831 656.521 85.6831 656.521 85.6831C656.521 86.121 656.521 86.121 656.521 86.5589C656.521 86.9968 656.961 86.9968 656.521 87.4347L656.961 87.4347C657.401 86.9968 657.841 86.9968 658.281 86.9968C659.162 86.9968 659.602 86.5589 660.482 86.5589C661.362 86.5589 662.242 86.5589 663.123 86.121C663.563 86.121 664.003 86.121 664.003 85.6831C664.443 85.6831 664.443 85.2451 664.883 85.2451L665.323 85.2451C665.323 85.2451 665.763 85.2452 665.763 84.8072C666.643 84.3693 667.084 83.9314 667.964 83.0556L668.404 82.6177L668.844 82.6177C669.284 82.1798 669.724 81.7419 670.164 81.304C670.604 80.8661 670.604 79.9902 671.045 79.9902C671.925 79.5523 672.365 79.5523 672.805 79.1144C673.245 78.6765 673.245 77.8007 673.685 77.3628C674.125 76.0491 675.446 75.6112 675.886 74.7353C676.766 73.4216 676.766 72.1079 677.206 70.7942C678.086 68.1667 678.526 65.5393 679.847 63.3497C681.167 61.1602 682.927 59.8464 685.128 58.5327C686.008 58.0948 687.328 57.6569 688.209 57.219C688.649 57.219 689.529 56.7811 689.969 56.7811C691.73 56.3432 693.05 55.4674 694.81 55.4674C694.37 55.9053 694.37 56.3432 693.93 56.3432C693.49 56.7811 693.05 57.219 693.05 57.6569C693.05 57.6569 693.05 58.0948 692.61 58.0948C692.61 58.0948 692.61 58.0948 692.17 58.0948C691.289 58.5327 690.409 58.9706 689.529 59.4085C689.089 59.8464 688.209 60.2843 687.769 60.7223C686.888 61.1602 686.448 62.036 686.008 62.4739C685.128 63.3497 684.688 63.7876 683.808 64.6634C682.927 65.1013 682.487 65.9772 682.047 66.853C682.047 67.2909 681.607 67.7288 681.167 68.1667C680.727 68.6046 680.727 69.0425 680.287 69.9183C679.407 72.1079 678.966 74.7353 678.526 76.9249C678.526 77.8007 678.526 78.6765 678.526 79.9902C678.526 80.8661 678.966 81.7419 679.407 82.6177C680.287 84.8072 680.727 86.5589 681.607 88.7484C682.047 86.9968 684.248 86.121 686.008 85.2451C687.328 84.3693 688.649 83.0556 689.529 81.7419C691.289 79.1144 693.05 76.487 694.37 73.4216C694.81 72.1079 695.691 70.3563 696.131 69.0425C696.571 67.7288 697.011 65.9772 697.011 64.2255C697.011 62.9118 696.131 62.036 695.691 60.7223C695.25 59.8464 694.81 58.9706 693.93 58.0948C693.93 58.0948 693.93 58.0948 693.49 57.6569L693.49 57.219C693.93 56.7811 693.93 56.3432 694.37 56.3432C694.81 55.9053 694.81 55.4674 695.25 55.4674C695.691 55.0294 696.571 55.0294 697.451 55.0294C699.211 54.5915 700.972 54.5915 702.292 54.1536C704.053 53.7157 705.373 52.8399 707.133 52.402L707.133 51.9641C707.133 52.402 705.373 52.402 705.373 52.402C704.933 52.402 704.493 52.402 704.053 52.8399C703.612 52.8399 703.612 53.2778 703.172 53.2778C702.292 53.7157 701.852 54.1536 700.972 54.1536C700.092 54.1536 699.211 54.5915 698.331 54.5915C696.571 55.0294 694.81 55.4674 693.05 55.4674L692.61 55.4674C692.61 55.4674 692.61 55.4674 692.17 55.4674C691.289 55.0294 690.849 54.1536 689.969 53.7157C689.529 53.2778 689.089 52.8399 689.089 52.402C689.089 51.9641 689.089 51.9641 689.089 51.5262C689.089 50.6504 688.649 50.2125 688.209 49.3366C687.769 48.8987 687.328 48.8987 687.328 48.4608C686.448 47.585 686.888 46.2713 686.448 45.3954C686.008 44.0817 685.568 43.2059 684.688 42.3301C683.808 41.4543 682.927 40.5785 682.047 40.1405C681.167 39.7026 680.287 38.8268 679.407 38.8268C678.966 38.8268 678.966 38.8268 678.526 38.8268C678.086 38.8268 678.086 38.3889 677.646 38.3889C677.206 38.3889 677.206 38.3889 676.766 38.3889C676.326 38.3889 675.886 38.3889 675.005 38.3889C674.125 38.3889 672.805 38.3889 671.925 38.8268C671.045 38.8268 670.164 39.2647 669.724 39.7026C668.844 40.1406 667.964 41.0164 667.084 41.4543C666.643 41.4543 666.643 41.8922 666.203 41.8922C664.443 42.768 662.682 43.6438 661.362 44.5196C661.362 44.5196 660.922 44.5196 660.922 44.9576L660.922 45.3955C661.362 46.2713 661.802 47.585 661.802 48.4608C662.242 49.3366 662.242 50.2125 662.683 51.5262C662.683 51.9641 663.123 52.402 663.123 52.8399C663.563 53.2778 663.563 53.2778 663.563 54.1536L663.563 54.5915C663.563 55.0294 664.443 55.0294 664.443 55.0294C664.883 55.4674 664.883 55.9053 664.883 56.3432C665.323 57.219 666.203 58.0948 667.084 58.5327C667.964 58.9706 668.844 59.4085 670.164 59.8464C670.604 59.8464 671.045 60.2844 671.485 60.2844C673.245 60.2844 675.005 59.8464 676.766 58.9706C678.526 58.0948 680.287 57.219 682.047 56.3432C683.368 55.4674 685.128 55.0294 686.888 55.0294C688.649 55.0294 690.409 55.9053 690.849 57.219C689.969 57.6569 688.649 58.0948 687.769 58.0948C686.888 58.5327 686.008 58.9706 685.128 59.4085C682.927 60.7223 680.287 61.5981 677.646 62.036C675.005 62.4739 672.365 62.4739 669.724 63.3497C669.284 63.3497 668.404 63.7876 667.964 63.7876C667.084 63.7876 666.643 63.3497 666.203 62.9118C665.763 62.4739 665.323 62.036 664.443 62.036C663.123 61.1602 661.802 61.5981 660.482 61.1602C660.042 60.7223 659.602 60.7223 659.162 60.2844C658.281 59.8464 657.401 59.8464 656.081 59.8464C655.201 59.8464 654.32 59.8464 653.44 60.2844C653 60.2844 652.56 60.2844 652.56 60.2844C652.12 60.2844 651.68 60.7223 651.24 61.1602C650.359 61.5981 649.479 62.036 648.599 62.4739L648.159 62.9118C647.719 63.3497 647.279 62.9118 646.398 63.3497C644.638 64.6634 642.878 65.9772 641.117 67.2909L640.677 67.7288C640.677 67.7288 640.677 68.1667 640.237 68.1667C642.438 66.4151 641.557 66.4151 641.117 66.853ZM666.203 66.853C666.203 66.4151 666.643 66.4151 667.084 65.9772L667.524 65.5393C667.964 65.1013 668.404 64.2255 668.844 63.7876C669.284 63.3497 669.284 62.9118 669.724 62.9118C669.724 62.9118 670.164 62.9118 670.604 62.4739C671.485 62.036 672.805 62.036 673.685 61.5981C675.006 61.1602 675.886 61.1602 677.206 60.7223C678.966 60.2843 681.167 59.8464 683.368 59.4085C683.368 59.8464 682.047 61.1602 682.047 61.1602C681.607 61.5981 681.607 62.036 681.167 62.036C681.167 62.4739 680.727 62.4739 680.287 62.4739C679.847 62.4739 679.847 62.4739 679.407 62.4739C678.086 62.4739 677.206 62.4739 676.326 62.9118C675.446 62.9118 675.005 63.3497 674.125 63.3497C673.685 63.3497 673.685 63.7876 673.245 63.7876C672.805 63.7876 672.805 63.7876 672.365 63.7876C669.724 65.1013 667.964 65.9772 666.203 66.853Z" fill="#73A697"/>
<path d="M30.6533 52.3235L31.6547 54.4699L31.6748 55.0904C31.6748 55.0904 31.6949 55.7109 32.0152 56.0127C32.6761 57.2367 32.7163 58.4778 33.3772 59.7018C34.038 60.9259 34.6988 62.1499 35.6599 63.0552C36.3007 63.6587 36.621 63.9605 37.2618 64.564C37.5821 64.8658 37.9025 65.1675 38.2027 64.8488L38.8234 64.8318C39.1438 65.1335 39.4641 65.4353 39.7845 65.7371C40.1049 66.0388 40.4252 66.3406 41.0659 66.9441C42.0069 67.2289 42.6275 67.2119 43.5685 67.4966C44.5095 67.7814 45.1503 68.3849 46.0913 68.6697C44.5297 68.4019 42.6678 68.4529 40.8059 68.5039C39.2644 68.8567 37.1023 69.2265 35.5809 70.1998C35.2807 70.5186 34.66 70.5356 34.3598 70.8543C34.0595 71.1731 34.0595 71.1731 33.7593 71.4918C33.1588 72.1294 32.5382 72.1464 32.2379 72.4652C31.3171 72.8009 30.7165 73.4385 30.4163 73.7572C29.8158 74.3948 29.8359 75.0153 29.5357 75.3341C29.2354 75.6528 29.2354 75.6528 28.9351 75.9716C28.6349 76.2904 28.9552 76.5921 28.9552 76.5921C28.655 76.9109 28.655 76.9109 28.3547 77.2296C28.0545 77.5484 28.3748 77.8502 27.7542 77.8672L28.0746 78.1689C28.6952 78.1519 29.0156 78.4537 29.336 78.7555C29.9767 79.359 30.5973 79.342 31.238 79.9455C31.8788 80.549 32.5195 81.1525 33.4605 81.4373C33.7808 81.739 34.1012 82.0408 34.4014 81.722C34.7218 82.0238 35.0221 81.7051 35.3425 82.0068L35.6628 82.3086C35.6628 82.3086 35.9832 82.6103 36.2834 82.2916C37.2244 82.5763 37.845 82.5593 39.0863 82.5253L39.7069 82.5083L40.0273 82.8101C40.6479 82.7931 41.2685 82.7761 41.8891 82.7591C42.5098 82.7421 43.1103 82.1045 43.4306 82.4063C44.3716 82.691 44.692 82.9928 45.3126 82.9758C45.9332 82.9588 46.5337 82.3213 47.1544 82.3043C48.3755 81.6497 49.6368 82.2362 50.5577 81.9005C52.0992 81.5477 52.9999 80.5914 54.2211 79.9368C56.6633 78.6278 58.7852 77.0169 61.2476 76.3284C63.71 75.6398 65.8922 75.8906 68.3948 76.4431C69.3358 76.7279 70.5971 77.3144 71.5381 77.5991C71.8584 77.9009 72.7995 78.1857 73.1198 78.4874C74.7016 79.3757 76.2631 79.6434 77.5446 80.8505C76.924 80.8675 76.6237 81.1862 76.3034 80.8845C75.6827 80.9015 75.0621 80.9185 74.7619 81.2373C74.7619 81.2373 74.4616 81.556 74.1412 81.2543C74.1412 81.2543 74.1413 81.2543 73.8209 80.9525C72.8799 80.6678 71.9389 80.383 70.9979 80.0982C70.3773 80.1152 69.4363 79.8305 68.8157 79.8475C67.8747 79.5628 66.9538 79.8985 66.3332 79.9155C65.092 79.9495 64.4713 79.9665 63.2301 80.0005C62.2891 79.7158 61.3683 80.0516 60.4474 80.3873C60.1471 80.7061 59.5265 80.7231 58.9059 80.7401C58.2853 80.7571 57.985 81.0759 57.0642 81.4117C54.9222 82.402 52.8002 84.0128 50.9786 85.3048C50.3781 85.9424 49.7776 86.5799 48.8768 87.5362C48.2763 88.1737 47.9962 89.113 47.716 90.0523C46.8555 92.2497 45.9748 93.8265 45.1143 96.0238C46.6357 95.0505 48.838 95.9218 50.72 96.4913C52.2816 96.7591 54.1435 96.7081 55.685 96.3553C58.768 95.6497 61.851 94.9442 64.9138 93.6181C66.135 92.9636 67.9767 92.292 69.1978 91.6375C70.419 90.983 71.9403 90.0097 73.1413 88.7346C74.0421 87.7783 74.0019 86.5373 74.5823 85.2792C74.8625 84.3399 75.1426 83.4006 75.1023 82.1596C75.1023 82.1596 75.1024 82.1596 75.0823 81.5391L75.3825 81.2203C76.0031 81.2033 76.3034 80.8845 76.6238 81.1863C77.2444 81.1693 77.5446 80.8505 77.865 81.1523C78.4856 81.1352 79.1263 81.7388 79.7671 82.3423C81.3488 83.2306 82.6303 84.4376 83.8916 85.0242C85.4733 85.9124 87.0349 86.1802 88.6166 87.0684L88.9169 86.7497C88.6166 87.0684 87.3352 85.8614 87.3352 85.8614C87.0148 85.5596 86.6944 85.2579 86.0738 85.2749C85.7535 84.9731 85.4532 85.2919 85.1328 84.9901C84.1919 84.7054 83.5712 84.7224 82.9305 84.1189C82.2898 83.5153 81.3488 83.2306 80.708 82.627C79.1263 81.7388 77.5446 80.8505 76.2631 79.6434L75.9428 79.3417C75.9428 79.3417 75.9428 79.3417 75.6224 79.0399C75.2819 78.1176 75.5621 77.1784 75.2216 76.2561C75.2015 75.6355 75.1814 75.015 75.4817 74.6963C75.7819 74.3775 75.7819 74.3775 76.0822 74.0587C76.6827 73.4212 76.6625 72.8006 76.9427 71.8613C76.9225 71.2408 76.6022 70.9391 76.9024 70.6203C76.8622 69.3792 78.0834 68.7247 78.3635 67.7854C78.9439 66.5274 79.2241 65.5881 79.1838 64.347C79.1436 63.106 79.1034 61.8649 78.7629 60.9426C78.4224 60.0203 78.3822 58.7792 77.7414 58.1757C77.4211 57.874 77.4211 57.874 77.1007 57.5722C76.7803 57.2705 77.0806 56.9517 76.7602 56.6499C76.4399 56.3482 76.4399 56.3482 76.1195 56.0464C75.7991 55.7447 75.4787 55.4429 74.838 54.8394C74.1973 54.2358 73.2362 53.3306 72.2952 53.0458C71.6545 52.4423 70.7135 52.1575 70.0929 52.1745C69.1519 51.8898 67.9107 51.9238 66.9697 51.639C66.6493 51.3373 66.349 51.656 66.0287 51.3543C64.1467 50.7847 62.2647 50.2153 60.7031 49.9475C60.7031 49.9475 60.3828 49.6457 60.0825 49.9645L59.7823 50.2832C59.5021 51.2225 58.9217 52.4806 58.3212 53.1181C58.041 54.0574 57.4406 54.695 56.8602 55.953C56.5599 56.2718 56.58 56.8923 56.2798 57.2111C56.2999 57.8316 56.2999 57.8316 55.6994 58.4692L55.3991 58.7879C55.0989 59.1067 55.7396 59.7102 55.7396 59.7102C55.7597 60.3307 55.4595 60.6495 55.1592 60.9683C54.8791 61.9076 54.9193 63.1486 55.2598 64.0709C55.6003 64.9932 55.9407 65.9155 56.6016 67.1395C56.9219 67.4413 56.9421 68.0618 57.2624 68.3636C58.5439 69.5706 60.1256 70.4589 62.0076 71.0284C63.8896 71.5979 65.7715 72.1674 67.6535 72.7369C69.2151 73.0047 70.7968 73.893 72.0783 75.1C73.3598 76.3071 74.0407 78.1516 73.4603 79.4097C72.5193 79.1249 71.258 78.5384 70.6172 77.9349C69.6763 77.6502 68.7352 77.3654 67.7943 77.0806C65.2917 76.5281 62.769 75.3551 60.5465 73.8633C58.3241 72.3715 56.4019 70.5609 53.8792 69.3879C53.5588 69.0861 52.6178 68.8014 52.2975 68.4996C51.6567 67.8961 51.6366 67.2755 51.6165 66.655C51.5964 66.0345 51.5763 65.414 50.9355 64.8105C50.5749 63.2676 49.3136 62.6811 48.6528 61.4571C48.6327 60.8366 48.3123 60.5348 48.2922 59.9143C47.9517 58.992 47.311 58.3885 46.3499 57.4832C45.7091 56.8797 45.0684 56.2761 44.1274 55.9914C43.807 55.6896 43.4867 55.3879 43.4867 55.3879C43.1663 55.0861 42.5457 55.1031 41.9251 55.1201C40.9841 54.8353 40.0431 54.5506 39.1021 54.2658L38.4815 54.2828C37.8609 54.2998 37.8407 53.6793 36.8997 53.3945C34.7175 53.1438 32.5353 52.893 30.3531 52.6423L29.7325 52.6593C29.7325 52.6593 29.4322 52.9781 29.1118 52.6763C31.9147 52.9101 31.2739 52.3065 30.6533 52.3235ZM48.9142 69.5239C49.2144 69.2051 49.5348 69.5069 50.1555 69.4899L50.7761 69.4729C51.3967 69.4559 52.3176 69.1201 52.9382 69.1031C53.5588 69.0861 53.859 68.7673 54.1794 69.0691C54.1794 69.0691 54.4998 69.3709 55.1204 69.3539C56.0614 69.6386 57.0225 70.5439 57.9635 70.8287C59.2249 71.4152 59.8655 72.0187 61.1269 72.6052C62.7086 73.4935 64.6107 74.6836 66.5128 75.8736C66.2126 76.1924 64.3507 76.2434 64.3507 76.2434C63.7301 76.2604 63.4298 76.5792 63.1095 76.2774C62.8092 76.5962 62.4888 76.2944 62.1685 75.9926C61.8481 75.6909 61.8481 75.6908 61.5277 75.3891C60.5666 74.4838 59.9259 73.8803 58.9849 73.5955C58.3442 72.992 57.7236 73.009 57.0828 72.4055C56.7625 72.1037 56.4622 72.4225 56.1418 72.1207C55.8215 71.819 55.8215 71.819 55.5011 71.5172C52.6782 70.663 50.7962 70.0934 48.9142 69.5239Z" fill="#73A697"/>
</svg>
