<svg width="24" height="24" viewBox="0 0 24 24" fill="none" xmlns="http://www.w3.org/2000/svg">
<path fill-rule="evenodd" clip-rule="evenodd" d="M6.94588 0H17.0541C20.8753 0 24 3.12471 24 6.94588V17.0541C24 20.8753 20.8753 24 17.0541 24H6.94588C3.12471 24 0 20.8753 0 17.0541V6.94588C0 3.12471 3.12471 0 6.94588 0ZM6.94588 2.13647H17.0541C19.6988 2.13647 21.8635 4.30118 21.8635 6.94588V17.0541C21.8635 19.6988 19.6988 21.8635 17.0541 21.8635H6.94588C4.30118 21.8635 2.13647 19.6988 2.13647 17.0541V6.94588C2.13647 4.30118 4.30118 2.13647 6.94588 2.13647ZM12 5.83529C15.4071 5.83529 18.1647 8.59294 18.1647 12C18.1647 15.4071 15.4071 18.1647 12 18.1647C8.59294 18.1647 5.83529 15.4071 5.83529 12C5.83529 8.59294 8.59294 5.83529 12 5.83529ZM12 7.96235C14.2306 7.96235 16.0376 9.76941 16.0376 12C16.0376 14.2306 14.2306 16.0376 12 16.0376C9.76941 16.0376 7.96235 14.2306 7.96235 12C7.96235 9.76941 9.76941 7.96235 12 7.96235ZM18.5882 6.94588C17.8165 6.94588 17.1859 6.31529 17.1859 5.54353C17.1859 4.77176 17.8071 4.14118 18.5882 4.14118C19.36 4.14118 19.9906 4.77176 19.9906 5.54353C19.9906 6.31529 19.36 6.94588 18.5882 6.94588Z" fill="#E0C18D"/>
</svg>
