<svg width="1920" height="70" viewBox="0 0 1920 70" fill="none" xmlns="http://www.w3.org/2000/svg">
<path d="M0 1.39866C200.076 -0.194314 398.738 13.9433 597.199 30.6695C786.372 46.4997 966.057 53.3694 1156.24 44.7076C1244.97 40.4265 1313.82 36.5436 1372.16 33.059C1555.99 17.2288 1734.56 3.68856 1920 1.09998" stroke="#E0C18D" stroke-miterlimit="10"/>
<path d="M0 39.0322C210.675 25.4919 412.568 20.2152 620.215 22.0073C691.483 23.6003 763.155 23.4011 834.625 26.7862C1208.83 44.6076 1553.26 62.1303 1920 37.2401" stroke="#E0C18D" stroke-miterlimit="10"/>
<path d="M0 21.609C187.861 23.0029 367.344 30.8682 555.104 48.1918C566.107 48.8887 577.009 49.2869 587.912 50.183C717.224 60.2386 843.609 68.6017 973.325 69C1103.24 69.3982 1239.22 64.4202 1381.25 53.8667C1562.65 36.6427 1738.2 24.1976 1920 21.3104" stroke="#E0C18D" stroke-miterlimit="10"/>
<path d="M0 48.59C226.221 36.8418 447.899 32.5607 670.991 31.5651C767.495 32.959 859.457 36.6427 951.117 40.5256C1063.07 46.2006 1175.32 52.4729 1285.15 53.9663C1497.74 60.3382 1709.02 55.2606 1920 48.8887" stroke="#E0C18D" stroke-miterlimit="10"/>
</svg>
