<svg width="22" height="22" viewBox="0 0 22 22" fill="none" xmlns="http://www.w3.org/2000/svg">
    <path fill-rule="evenodd" clip-rule="evenodd"
          d="M6.08683 20.2566L6.08683 7.93829L2.22811 7.93829L2.22811 20.2566L6.08683 20.2566ZM4.15745 6.25643C5.50306 6.25643 6.3406 5.31052 6.3406 4.12841C6.31552 2.91969 5.50307 2.00003 4.18298 2.00003C2.86302 2.00003 2 2.91969 2 4.12841C2 5.31052 2.83735 6.25643 4.1323 6.25643H4.15737H4.15745Z"
          fill="#E0C18D"/>
    <path fill-rule="evenodd" clip-rule="evenodd"
          d="M8.22168 20.2566L12.0804 20.2566L12.0804 13.3775C12.0804 13.0094 12.1054 12.6416 12.2073 12.3784C12.4863 11.6428 13.1212 10.881 14.1872 10.881C15.5834 10.881 16.142 12.0106 16.142 13.6666L16.142 20.2566L20.0004 20.2566L20.0004 13.1935C20.0004 9.40982 18.0967 7.64923 15.558 7.64923C13.4763 7.64923 12.5624 8.88383 12.0547 9.72476H12.0805L12.0805 7.93829L8.22178 7.93829C8.27242 9.09416 8.22178 20.2566 8.22178 20.2566H8.22168Z"
          fill="#E0C18D"/>
</svg>
