<svg width="14" height="14" viewBox="0 0 14 14" fill="none" xmlns="http://www.w3.org/2000/svg">
<path d="M11.0904 7.6555L11.0846 7.66738L11.0794 7.67955C10.766 8.41602 10.1427 9.28263 9.34391 10.1609C8.63934 10.9357 7.81806 11.698 7 12.3611C6.18194 11.698 5.36066 10.9357 4.65609 10.1609C3.85732 9.28263 3.23399 8.41602 2.9206 7.67955L2.91737 7.67197L2.9139 7.66449C2.6458 7.08801 2.5 6.49119 2.5 5.8382C2.5 3.45598 4.49735 1.5 7 1.5C9.50265 1.5 11.5 3.45598 11.5 5.8382C11.5 6.49626 11.352 7.12108 11.0904 7.6555ZM9.3421 5.8382C9.3421 4.55994 8.28025 3.5557 7 3.5557C5.71975 3.5557 4.65789 4.55994 4.65789 5.8382C4.65789 7.11645 5.71975 8.12069 7 8.12069C8.28025 8.12069 9.3421 7.11645 9.3421 5.8382Z" stroke="#73A697"/>
</svg>
