<svg width="22" height="22" viewBox="0 0 22 22" fill="none" xmlns="http://www.w3.org/2000/svg">
    <path fill-rule="evenodd" clip-rule="evenodd"
          d="M3.39394 4L18.6061 4C19.3636 4 20 4.62955 20 5.37901V6.03854L11.1515 10.8651C11.1515 10.8651 11.0909 10.8651 11.0303 10.8651C10.9394 10.8651 10.8485 10.8351 10.7879 10.8051L2 6.03854L2 5.37901C2 4.62955 2.63636 4 3.39394 4ZM20 7.98715L20 16.621C20 17.3704 19.3636 18 18.6061 18L3.39394 18C2.63636 18 2 17.3704 2 16.621L2 7.98715L9.93939 12.3041C10.2424 12.454 10.6061 12.5439 10.9394 12.5739C11.303 12.6039 11.6667 12.5139 11.9697 12.364L20 7.98715Z"
          fill="#E0C18D"/>
</svg>
