<svg width="27" height="32" viewBox="0 0 27 32" fill="none" xmlns="http://www.w3.org/2000/svg">
<path fill-rule="evenodd" clip-rule="evenodd" d="M13.5 0C20.9605 0 27 5.77188 27 12.9019C27 14.8541 26.5559 16.7215 25.7566 18.3342C23.8914 22.6631 18.5625 28.0955 13.5 32C8.4375 28.0955 3.10855 22.6631 1.24342 18.3342C0.444079 16.6366 0 14.8541 0 12.9019C0 5.77188 6.03947 0 13.5 0ZM13.5 8.14854C16.2533 8.14854 18.4737 10.2706 18.4737 12.9019C18.4737 15.5332 16.2533 17.6552 13.5 17.6552C10.7467 17.6552 8.52632 15.5332 8.52632 12.9019C8.52632 10.2706 10.7467 8.14854 13.5 8.14854Z" fill="#73A697"/>
</svg>
