<svg width="61" height="61" viewBox="0 0 61 61" fill="none" xmlns="http://www.w3.org/2000/svg">
<g clip-path="url(#clip0_460_7183)">
<path d="M12.8943 24.024V2.79724C20.4325 10.5704 28.2683 11.1684 36.6 2.79724C44.9317 11.1684 52.7675 10.5704 60.3057 2.79724C60.3057 10.9691 60.3057 17.8454 60.3057 26.1168C60.3057 39.9691 50.387 53.1237 36.6 59.402C34.6163 58.5051 32.8309 57.5086 31.0455 56.4124" stroke="#E0C18D" stroke-width="1.5" stroke-miterlimit="10" stroke-linejoin="round"/>
<path d="M36.5008 51.8282C45.8244 46.646 53.561 36.9794 53.561 26.0172C53.561 22.2302 53.561 18.4433 53.561 14.6563C47.9073 16.3505 42.0553 15.1546 36.5008 11.3677C30.9463 15.2543 25.0943 16.3505 19.4407 14.6563V24.8213" stroke="#73A697" stroke-width="1.5" stroke-miterlimit="10"/>
<path d="M14.7789 58.8041C22.4163 58.8041 28.7642 52.5258 28.7642 44.7526C28.7642 36.9794 22.5154 30.701 14.7789 30.701C7.04227 30.701 0.793495 36.9794 0.793495 44.7526C0.793495 52.5258 7.04227 58.8041 14.7789 58.8041Z" fill="white" stroke="#73A697" stroke-width="1.5" stroke-miterlimit="10"/>
<path d="M20.0358 41.1649L12.9935 48.3402L9.42276 44.7525" stroke="#73A697" stroke-width="1.5" stroke-miterlimit="10"/>
<path d="M36.5008 11.3677V31.1993" stroke="#73A697" stroke-width="1.5" stroke-miterlimit="10"/>
</g>
<defs>
<clipPath id="clip0_460_7183">
<rect width="61" height="58" fill="white" transform="translate(0 2)"/>
</clipPath>
</defs>
</svg>
