<svg width="38" height="38" viewBox="0 0 38 38" fill="none" xmlns="http://www.w3.org/2000/svg">
<path d="M12.7255 5.72412C15.9069 5.72412 18.3814 7.44826 18.3814 12.7931C18.3814 16.7586 15.9069 19.8621 12.9023 19.8621C9.7209 19.8621 7.42322 16.5862 7.42322 12.6207C7.24648 7.44826 9.7209 5.72412 12.7255 5.72412Z" stroke="white" stroke-width="1.5" stroke-miterlimit="10"/>
<path d="M9.01406 20.7241C7.42336 21.931 6.71639 22.2758 5.83267 22.7931C3.53499 23.8276 1.41406 24.3448 1.41406 26.931C1.41406 27.6207 1.41406 27.9655 1.41406 28.3103C1.41406 29.8621 1.76755 30.0345 3.35825 30.8965C6.18616 32.4483 9.01406 32.9655 12.9024 32.7931C16.7908 32.7931 19.7955 32.2758 22.4466 30.8965C24.0373 30.0345 24.3908 30.0345 24.3908 28.3103C24.3908 27.9655 24.3908 27.6207 24.3908 26.931C24.3908 24.1724 22.0931 23.8276 19.9722 22.7931C18.9117 22.2758 18.3815 22.1034 16.7908 20.7241" stroke="white" stroke-width="1.5" stroke-miterlimit="10"/>
<path d="M27.9257 5.37939C30.2234 5.37939 32.1676 6.58629 32.1676 10.7242C32.1676 13.6553 30.2234 16.069 27.9257 16.069C25.628 16.069 23.6838 13.6553 23.6838 10.5518C23.6838 6.58629 25.4513 5.37939 27.9257 5.37939Z" stroke="white" stroke-width="1.5" stroke-miterlimit="10"/>
<path d="M28.4557 25.8965C31.1069 25.8965 33.2278 25.3792 35.172 24.3448C36.4092 23.6551 36.586 23.6551 36.586 22.4482C36.586 22.1034 36.586 21.931 36.586 21.4137C36.586 19.3448 34.9953 18.9999 33.2278 18.3103C32.5209 17.9654 31.9906 17.6206 30.7534 16.7585M24.9209 16.7585C23.6836 17.6206 23.3302 17.9654 22.4464 18.3103C22.0929 18.4827 21.5627 18.6551 21.2092 18.8275L24.9209 16.7585Z" stroke="white" stroke-width="1.5" stroke-miterlimit="10"/>
</svg>
