<svg width="61" height="60" viewBox="0 0 61 60" fill="none" xmlns="http://www.w3.org/2000/svg">
<path d="M40.4975 31.4907C39.3034 32.4845 38.2089 33.3789 36.9154 34.0746C31.7412 36.8572 26.1691 34.3727 22.4875 30.2982C16.1193 23.2423 12.0397 20.9566 3.58203 18.969" stroke="#E0C18D" stroke-width="1.5" stroke-miterlimit="10"/>
<path d="M54.5274 36.4596C57.1144 36.4596 59.3035 38.4472 59.3035 40.8323C59.3035 43.2174 57.2139 45.2049 54.5274 45.2049H0" stroke="#E0C18D" stroke-width="1.5" stroke-miterlimit="10"/>
<path d="M14.5273 45.205V40.3354" stroke="#E0C18D" stroke-width="1.5" stroke-miterlimit="10"/>
<path d="M39.403 45.205V40.3354" stroke="#E0C18D" stroke-width="1.5" stroke-miterlimit="10"/>
<path d="M1.79102 14.9938C6.76614 25.1304 8.45768 33.677 4.17908 39.441C12.7363 40.3354 42.985 42.7205 49.3532 37.5528C51.7413 35.5652 50.2487 33.9751 49.2537 32.3851C47.1642 29.6025 46.1691 27.118 49.8507 25.8261C49.2537 24.6335 48.2587 24.1366 46.9651 24.236C42.8855 24.6335 40.398 28.6087 36.9154 30.3975C31.7413 33.1801 26.1691 30.6956 22.4875 26.6211C15.6219 19.1677 11.5423 16.9814 1.79102 14.9938Z" stroke="#73A697" stroke-width="1.5" stroke-miterlimit="10"/>
<path d="M14.1293 29.6025H6.56714" stroke="#73A697" stroke-width="1.5" stroke-miterlimit="10"/>
</svg>
