<svg width="60" height="60" viewBox="0 0 60 60" fill="none" xmlns="http://www.w3.org/2000/svg">
<path d="M30.4 56.2H40.7L42.9 50.9L43.7 56.2H51L48.2 35.5L34.7 28.6C35.5 35.7 33.7 41.7 30.4 47.1C27.1 41.7 25.3 35.7 26.1 28.6L12.5 35.4L9.79999 56.2H17L17.8 50.9L20 56.2H22.8" stroke="#73A697" stroke-width="1.5" stroke-miterlimit="10" stroke-linejoin="round"/>
<path d="M26.1 28.5C24.2 30 22.8 31.1 20.9 32.6C19.7 33.5 19.9 34.8 21.1 36.7C23.7 40.6 26.7 44.1 30.4 47" stroke="#73A697" stroke-width="1.5" stroke-miterlimit="10" stroke-linejoin="round"/>
<path d="M34.7 28.5C36.6 30 38 31.1 39.9 32.6C41.1 33.5 40.9 34.8 39.7 36.7C37.1 40.6 34.1 44.1 30.4 47" stroke="#73A697" stroke-width="1.5" stroke-miterlimit="10" stroke-linejoin="round"/>
<path d="M21.3 18.1C21.3 18.1 24.1 30.7 30.4 30.7C36.8 30.7 39.6 18 39.6 18.1" stroke="#E0C18D" stroke-width="1.5" stroke-miterlimit="10"/>
<path d="M36.3 16.8C37.6 16.7 38.8 16.5 40 16.3" stroke="#E0C18D" stroke-width="1.5" stroke-miterlimit="10"/>
<path d="M20.7 16.2C23.6 16.7 26.9 17 30.4 17" stroke="#E0C18D" stroke-width="1.5" stroke-miterlimit="10"/>
<path d="M23 23.6C22.9 23.8 22.7 23.9 22.6 24C21.8 24.3 20.7 23.5 20.2 22.2C19.6 20.9 19.8 19.5 20.6 19.2C20.9 19.1 21.2 19.1 21.5 19.3" stroke="#E0C18D" stroke-width="1.5" stroke-miterlimit="10"/>
<path d="M37.8 23.6C37.9 23.8 38.1 23.9 38.2 24C39 24.3 40.1 23.5 40.6 22.2C41.2 20.9 41 19.5 40.2 19.2C40 19 39.7 19 39.4 19.2" stroke="#E0C18D" stroke-width="1.5" stroke-miterlimit="10"/>
<path d="M37.1 44H41.8" stroke="#E0C18D" stroke-width="1.5" stroke-miterlimit="10"/>
<path d="M30.4 52.8C31.2 52.8 31.9 52.1 31.9 51.3C31.9 50.5 31.2 49.8 30.4 49.8C29.6 49.8 28.9 50.5 28.9 51.3C28.9 52.1 29.6 52.8 30.4 52.8Z" stroke="#E0C18D" stroke-width="1.5" stroke-miterlimit="10"/>
<path d="M30.4 4.80005C25.2 4.80005 20.7 9.10005 20.7 16.3C20.7 16.8 20.7 17.3 20.8 17.8C23.2 19.6 26.6 20.7 30.4 20.7C34.2 20.7 37.6 19.6 40 17.8C40.1 17.3 40.1 16.8 40.1 16.3C40.1 9.10005 35.6 4.80005 30.4 4.80005Z" stroke="#E0C18D" stroke-width="1.5" stroke-miterlimit="10"/>
</svg>
