<svg width="60" height="60" viewBox="0 0 60 60" fill="none" xmlns="http://www.w3.org/2000/svg">
<path d="M8.38818 52.8539L29.1119 8.24524L38.8816 29.2609" stroke="#E0C18D" stroke-width="1.5" stroke-miterlimit="10"/>
<path d="M20.0329 27.774L25.954 35.9027L31.0855 24.8992L33.6513 29.2609L36.3158 23.6105" stroke="#E0C18D" stroke-width="1.5" stroke-miterlimit="10"/>
<path d="M0.690796 52.8539L11.8421 28.8644L14.1118 33.8209" stroke="#73A697" stroke-width="1.5" stroke-miterlimit="10"/>
<path d="M12.9276 15.4818C15.296 15.4818 17.2697 13.4992 17.2697 11.12C17.2697 8.74091 15.296 6.7583 12.9276 6.7583C10.5592 6.7583 8.58551 8.74091 8.58551 11.12C8.58551 13.4992 10.5592 15.4818 12.9276 15.4818Z" stroke="#E0C18D" stroke-width="1.5" stroke-miterlimit="10"/>
<path d="M12.9276 6.85739V2" stroke="#E0C18D" stroke-width="1.5" stroke-miterlimit="10"/>
<path d="M17.1711 11.2191H22.1053" stroke="#E0C18D" stroke-width="1.5" stroke-miterlimit="10"/>
<path d="M12.9276 15.4817V20.4382" stroke="#E0C18D" stroke-width="1.5" stroke-miterlimit="10"/>
<path d="M8.58553 11.2191H3.75" stroke="#E0C18D" stroke-width="1.5" stroke-miterlimit="10"/>
<path d="M15.9868 8.14606L17.9605 6.16345" stroke="#E0C18D" stroke-width="1.5" stroke-miterlimit="10"/>
<path d="M15.9868 14.2921L17.9605 16.2747" stroke="#E0C18D" stroke-width="1.5" stroke-miterlimit="10"/>
<path d="M9.8684 14.2921L7.89471 16.2747" stroke="#E0C18D" stroke-width="1.5" stroke-miterlimit="10"/>
<path d="M9.8684 8.14606L7.89471 6.16345" stroke="#E0C18D" stroke-width="1.5" stroke-miterlimit="10"/>
<path d="M0.0986938 58.2069H59.3092" stroke="#E0C18D" stroke-width="1.5" stroke-miterlimit="10"/>
<path d="M56.4474 6.56001C58.0263 6.56001 59.2105 7.84871 59.2105 9.33566C59.2105 10.9217 57.9276 12.1113 56.4474 12.1113H43.421C41.4474 12.1113 39.8684 10.5252 39.8684 8.54262C39.8684 6.56001 41.4474 4.97392 43.421 4.97392C44.5066 4.97392 45.3947 5.46957 46.0855 6.16349C46.5789 4.37914 48.2566 3.18958 50.1316 3.18958C52.5 3.18958 54.375 5.07305 54.4737 7.35305C54.9671 6.8574 55.6579 6.56001 56.4474 6.56001Z" stroke="#E0C18D" stroke-width="1.5" stroke-miterlimit="10" stroke-linejoin="round"/>
<path d="M31.579 52.8539L42.7303 28.8644L53.9803 52.8539" stroke="#73A697" stroke-width="1.5" stroke-miterlimit="10"/>
</svg>
