<svg width="22" height="22" viewBox="0 0 22 22" fill="none" xmlns="http://www.w3.org/2000/svg">
    <path d="M20 5.65738C19.3306 5.93846 18.6174 6.12477 17.8737 6.21523C18.6388 5.778 19.2226 5.09092 19.4971 4.26277C18.7839 4.66985 17.9964 4.95738 17.1571 5.11785C16.4799 4.42754 15.5146 4 14.4616 4C12.4186 4 10.7739 5.58738 10.7739 7.53339C10.7739 7.81339 10.7986 8.08262 10.8594 8.33892C7.7915 8.19569 5.07687 6.78815 3.25325 4.644C2.93487 5.17277 2.74813 5.778 2.74813 6.42954C2.74813 7.65292 3.40625 8.73738 4.38725 9.36523C3.79437 9.35446 3.21275 9.18969 2.72 8.93015C2.72 8.94092 2.72 8.95492 2.72 8.96892C2.72 10.6855 3.99912 12.1114 5.6765 12.4398C5.37612 12.5185 5.04875 12.5562 4.709 12.5562C4.47275 12.5562 4.23425 12.5432 4.01038 12.4958C4.4885 13.8948 5.84525 14.9232 7.4585 14.9566C6.203 15.8968 4.60888 16.4632 2.88313 16.4632C2.5805 16.4632 2.29025 16.4503 2 16.4148C3.63462 17.4238 5.57188 18 7.661 18C14.4515 18 18.164 12.6154 18.164 7.948C18.164 7.79185 18.1584 7.64108 18.1505 7.49138C18.8829 6.99385 19.4982 6.37246 20 5.65738Z"
          fill="#E0C18D"/>
</svg>
