<svg width="730" height="133" viewBox="0 0 730 133" fill="none" xmlns="http://www.w3.org/2000/svg">
<mask id="mask0_313_3085" style="mask-type:alpha" maskUnits="userSpaceOnUse" x="0" y="0" width="730" height="133">
<rect y="133" width="133" height="730" transform="rotate(-90 0 133)" fill="#C4C4C4"/>
</mask>
<g mask="url(#mask0_313_3085)">
<path d="M730 110.157C724.938 110.157 718.752 109.284 714.253 110.157C705.254 111.466 695.131 115.831 686.132 118.014C667.011 122.815 646.202 126.308 625.955 124.125C598.398 121.069 574.214 108.411 547.781 102.736C532.596 99.2441 517.411 97.9345 501.664 97.0615C487.042 96.1885 472.419 95.3155 458.359 96.625C450.485 97.498 442.612 100.117 434.176 100.117C426.864 100.554 418.991 99.6806 411.68 98.8076C394.807 97.0615 377.935 93.133 361.063 90.9504C341.942 88.7679 322.257 88.3314 303.136 90.0774C292.45 90.9505 280.639 93.5695 275.015 100.554C270.516 105.792 271.641 111.03 270.516 116.704C269.954 119.324 270.516 119.76 268.829 121.943C255.894 135.474 218.213 131.109 200.216 126.308C190.092 123.689 181.094 121.07 170.971 119.324C158.598 117.141 146.225 114.522 133.852 112.776C111.918 109.284 89.4222 110.157 66.9261 110.157C44.4299 110.157 22.4962 110.157 7.05107e-06 110.157" stroke="#EAE0D1" stroke-miterlimit="10"/>
<path d="M730 50.7223C725.501 50.7223 721.002 49.8473 716.502 49.8473C709.191 49.4098 701.88 51.1598 695.131 52.0347C678.259 54.2221 661.949 56.847 645.077 58.5969C612.458 62.0968 578.713 63.8467 545.532 61.2218C517.974 59.0344 490.416 53.7847 462.858 55.5346C453.86 55.9721 444.861 57.2845 435.863 55.9721C426.864 54.6597 418.428 51.5973 409.43 48.9724C377.373 39.7854 343.066 42.8477 309.884 47.2225C293.012 49.4099 276.14 52.4723 259.268 54.2222C235.647 56.8471 208.089 52.9098 188.405 65.1592C181.656 69.534 174.908 74.3463 165.909 75.6588C156.911 76.9712 147.35 74.3463 138.914 70.409C113.043 58.5971 87.7351 52.9098 57.3653 50.285C38.8059 48.9725 18.5593 50.285 6.9152e-06 50.285" stroke="#EAE0D1" stroke-miterlimit="10"/>
<path d="M730 24.6294C721.551 24.6294 710.849 23.7428 702.963 26.8459C696.767 29.0623 692.261 33.9385 686.628 37.0415C669.167 46.3507 648.326 53 627.485 53C612.276 53 597.068 49.4537 581.86 48.5671C571.157 47.6806 559.892 48.1238 549.19 48.5671C527.222 48.5671 498.495 49.0104 478.781 39.7013C457.94 29.949 435.972 25.9593 412.315 24.6295C359.367 21.5265 306.983 30.8356 254.599 32.1655C246.15 32.6088 237.137 32.6088 229.252 30.8356C223.056 29.949 217.423 28.1759 211.79 26.846C185.316 21.5265 157.716 26.846 130.679 30.8356C117.724 32.6088 104.205 33.9387 90.6867 33.0521C83.9274 32.6088 77.1681 32.1655 70.9722 30.3924C65.9027 29.0625 61.3966 26.846 56.3271 25.9595C42.8086 23.2997 29.8533 25.0729 16.3348 25.0729C10.7021 25.0729 5.63269 25.0729 -2.77925e-05 25.0729" stroke="#EAE0D1" stroke-miterlimit="10"/>
<path d="M730 71.8472C704.731 72.7189 678.338 74.4625 654.192 80.5649C643.523 83.1803 633.415 87.1032 622.746 89.7186C608.708 93.2057 594.108 95.3851 579.508 94.9492C538.515 93.6416 500.331 71.4113 459.338 74.0267C444.738 74.8985 431.261 78.8214 416.661 79.6932C377.915 82.3086 340.854 64.0013 302.108 66.1807C292 66.6166 282.454 68.7961 272.908 70.1037C254.938 72.7191 241.462 74.4626 226.3 83.6163C221.246 86.6675 215.069 91.4622 217.877 96.257C219.562 99.3082 224.615 100.616 229.108 101.924C233.6 103.231 238.092 105.847 237.531 109.334C236.969 113.692 229.669 115 224.054 115C204.4 114.128 184.746 108.898 168.461 99.7441C164.531 97.5647 161.162 95.3852 156.669 93.2058C140.385 85.7957 120.731 87.5393 101.638 86.2316C86.4769 85.3598 71.3154 82.7445 56.7154 77.9498C37.6231 71.8474 20.777 71.8474 2.72271e-05 71.8474" stroke="#EAE0D1" stroke-miterlimit="10"/>
<path d="M730 13.8211C703.547 13.8212 684.973 23.0531 659.645 28.7681C634.88 34.4831 608.99 37.5604 583.1 38C573.531 38 560.023 34.9227 561.149 27.4493C561.712 25.2512 563.4 23.0531 563.4 20.4154C563.4 17.3381 560.023 15.14 556.646 13.8212C529.63 0.63273 494.171 2.83082 463.215 8.10622C428.882 14.2608 395.112 21.7343 359.653 17.7778C336.577 15.1401 316.877 16.8986 294.364 16.8986C260.031 16.8986 229.638 -0.246409 197.556 1.07245C173.354 1.95168 151.403 8.54592 129.453 16.459C105.813 24.8117 92.3054 22.174 68.1034 16.8986C47.2784 12.5025 21.3878 13.8213 1.94585e-05 13.8213" stroke="#EAE0D1" stroke-miterlimit="10"/>
<path d="M276.829 135.918C276.829 137.232 277.269 138.984 278.149 139.86L278.589 140.297C278.589 140.735 278.589 140.735 278.589 141.173C278.589 142.049 279.469 142.925 279.909 143.801C280.349 145.114 280.349 145.99 280.79 147.304C281.67 148.618 282.99 150.369 284.75 149.931C285.631 149.931 286.071 149.056 286.511 148.618C286.511 148.618 286.951 148.18 287.391 147.742C287.831 147.742 288.271 148.18 288.271 147.742C288.711 147.304 288.711 146.866 289.152 146.428C290.032 145.552 291.352 145.114 292.232 144.239C292.672 143.363 293.553 142.487 294.433 141.611C294.873 140.297 295.753 139.422 296.193 138.108C296.193 137.67 296.633 137.232 296.633 136.794C296.633 136.356 297.073 135.48 297.073 135.043C297.073 134.605 297.514 134.167 297.514 133.729C297.514 133.291 297.514 132.853 297.514 132.415C297.514 131.977 297.514 130.226 297.073 130.226C297.954 130.663 297.514 131.539 297.954 131.977C298.394 132.415 298.834 131.977 299.274 132.415C300.154 132.853 300.154 133.729 301.034 134.167C301.474 134.167 301.474 134.167 301.915 134.605C302.795 135.48 304.115 135.918 305.435 136.794C306.316 137.232 306.756 137.232 307.636 137.232C308.076 137.232 308.516 137.232 308.956 137.232C308.956 137.232 309.396 137.232 309.396 137.67L309.837 137.67C310.717 137.67 311.597 138.984 311.597 139.86C312.037 139.422 312.477 138.984 312.477 138.546C312.917 138.108 312.917 137.232 312.917 136.794C312.917 135.918 314.238 135.043 314.238 134.167C314.238 131.977 315.558 129.788 315.558 127.16C315.558 126.722 315.558 124.533 315.998 124.533C315.998 124.533 316.438 124.533 316.438 124.095C315.998 123.657 315.998 123.219 315.998 122.781C315.558 122.343 315.118 122.343 315.118 121.905C314.678 121.029 315.118 120.592 314.238 119.716C313.357 118.84 312.037 118.402 311.157 117.526C310.717 117.088 310.277 116.65 309.396 116.65C308.076 116.212 306.756 115.337 304.995 114.899C304.115 114.461 302.795 114.899 301.475 114.899C300.594 114.899 299.714 114.461 298.834 114.461C298.394 114.461 297.514 114.461 297.073 114.023C297.073 114.023 296.633 113.585 296.633 113.147C296.193 112.709 295.753 111.833 295.753 110.958C296.193 110.958 296.633 110.958 296.633 110.52C296.633 110.082 297.073 109.644 297.073 109.644C297.514 109.206 297.954 109.206 297.954 109.644C297.954 109.644 297.954 110.082 298.394 110.082L298.834 110.082C302.355 110.52 305.435 110.52 308.956 110.52L309.396 110.52C309.396 110.52 309.396 110.52 309.396 110.082C309.396 109.644 309.837 109.644 310.277 109.644C310.717 109.644 311.157 109.644 311.597 109.644C312.037 109.644 312.037 109.206 312.037 109.206C313.357 108.33 315.558 107.892 316.438 106.578C316.438 106.141 316.878 106.141 316.878 105.703C317.318 105.265 318.199 105.265 318.639 104.827C319.959 103.951 320.399 102.637 320.839 101.761C321.279 100.886 321.719 99.134 322.6 98.2582C323.48 97.3824 324.36 96.5065 325.24 95.1928C324.36 94.7549 323.48 95.6307 322.6 95.6307C321.719 95.6307 321.279 95.1928 320.399 94.7549C319.959 94.7549 319.519 94.317 319.079 94.317C318.639 94.317 318.199 93.8791 317.318 93.8791C316.438 93.4412 315.118 93.0033 314.238 93.4412C312.477 93.8791 310.717 94.7549 308.956 95.1928C307.636 95.6307 306.316 95.6307 304.995 96.0686C303.675 96.5066 303.235 96.9445 302.355 97.8203C300.594 98.6961 299.714 99.5719 298.834 101.324C298.394 101.761 298.394 102.199 297.954 102.199C297.954 102.637 297.514 102.637 297.514 103.075C297.073 104.389 296.633 106.141 296.193 107.454C296.193 107.892 295.753 108.33 295.753 108.768C295.753 109.206 295.753 109.206 295.753 109.644C295.753 110.082 295.313 110.52 295.313 110.958C295.313 111.395 294.873 111.395 294.433 111.395C293.993 111.395 293.993 110.52 293.553 110.082C292.672 108.768 292.672 106.578 292.672 104.827C292.672 104.389 292.672 104.389 292.232 103.951C291.792 103.513 292.232 102.637 291.792 102.637L291.352 102.199L291.352 101.761C291.352 101.324 290.912 100.448 290.912 100.01C290.912 99.5719 290.912 99.134 290.472 99.134C290.472 98.6961 290.032 98.6961 289.592 98.6961C289.592 99.134 290.032 99.5719 290.032 100.01C290.032 100.886 290.032 100.886 290.472 101.761C290.912 102.637 291.352 103.513 291.792 104.827L291.792 105.265C292.232 107.016 292.232 108.768 293.112 110.52C293.112 110.958 293.553 111.833 293.553 112.709L293.553 113.147L293.112 113.585C292.672 114.023 292.672 114.461 292.232 114.461C291.792 114.899 291.352 114.899 290.912 114.899C290.472 114.899 289.592 115.337 289.152 115.775C287.831 116.212 286.511 117.088 285.631 117.526C284.75 117.964 283.43 118.84 282.55 119.716C281.67 120.592 281.23 121.467 280.79 122.343C280.349 123.219 279.909 124.095 279.469 124.533C278.589 125.409 278.149 126.722 277.709 127.598C276.828 128.912 276.388 129.35 277.269 131.101C277.709 131.977 277.269 132.853 277.269 133.291C277.269 133.729 276.388 134.605 276.829 135.918ZM293.553 114.461C293.993 114.023 294.433 113.585 294.873 113.147C294.873 112.709 294.873 112.709 294.873 112.271C294.873 111.833 295.313 111.833 295.313 111.833C295.753 111.833 295.753 112.271 295.753 112.709L296.193 113.147C296.193 113.585 296.193 113.585 296.193 114.023C296.193 114.023 296.193 114.023 296.633 114.023C296.633 114.023 296.633 114.461 296.633 114.899C296.193 116.212 295.753 117.526 295.313 118.402C294.873 118.84 294.873 119.278 294.433 118.84C293.993 118.402 293.993 117.526 293.993 117.088C293.993 116.65 293.993 116.65 293.993 116.212C293.993 115.775 293.553 115.337 293.553 114.899C293.553 115.337 293.553 114.899 293.553 114.461Z" fill="#73A697"/>
<path d="M481.038 122.781C481.038 122.343 481.038 122.343 481.038 121.905C481.038 121.03 481.038 120.154 481.479 119.278C481.919 118.402 481.919 117.088 481.919 116.213C482.359 114.023 482.359 111.834 483.679 110.082C484.119 109.644 484.559 108.768 484.999 108.768C485.44 108.33 486.32 107.892 486.76 107.454C487.2 107.017 487.2 106.579 487.64 106.141C488.08 105.703 488.52 105.703 488.52 105.265C488.96 104.827 489.841 104.827 490.281 104.389C490.721 103.951 491.601 103.951 492.041 103.513C492.921 103.513 493.362 103.075 494.242 103.075C494.682 102.637 495.122 102.2 496.002 101.762C496.442 101.324 496.882 101.762 497.322 101.762C498.643 101.762 500.403 101.762 501.724 101.324C502.604 101.324 503.044 100.886 503.484 100.448C503.924 100.01 503.924 100.01 504.364 99.5721C505.244 98.2584 506.565 97.3826 508.325 97.3826C508.325 97.3826 508.325 97.8205 507.885 97.8205L507.445 97.8205C506.565 97.8205 505.685 98.6963 505.244 99.5721C504.804 100.448 504.804 101.324 504.804 102.2C504.804 105.265 505.244 108.33 505.244 111.834C505.244 114.899 503.484 117.526 501.283 119.716C499.523 121.468 497.763 122.781 495.562 124.095C495.122 124.095 495.122 124.533 494.682 124.533C494.242 124.533 493.802 124.533 492.921 124.533C492.041 124.533 491.601 124.533 490.721 124.971C490.281 125.409 489.841 125.847 489.401 125.847C488.96 125.847 488.52 125.847 488.08 125.847C487.64 125.847 486.76 125.847 486.32 125.847C484.999 125.847 483.239 126.285 481.919 125.847C481.038 125.409 480.158 126.285 479.718 125.847C479.718 124.533 481.038 124.095 481.038 122.781C481.038 123.219 481.038 123.219 481.038 122.781Z" fill="#73A697"/>
<path d="M209.042 45.0653C209.042 45.5032 209.042 45.9411 209.042 46.817C209.042 47.6928 209.482 48.5686 209.482 49.8823C209.482 50.3202 209.482 50.7581 209.482 51.634C209.042 52.9477 208.602 53.8235 209.042 55.1372L209.042 55.5751L208.602 56.013C208.602 56.013 208.602 56.451 208.602 56.8889C209.042 58.2026 207.722 59.9542 207.281 60.83C206.841 61.7059 206.401 63.0196 205.521 63.8954C204.641 64.7712 203.32 65.2091 202.44 66.0849C202 66.5228 201.56 67.3987 200.68 67.3987C200.24 67.8366 199.8 67.8366 199.359 68.2745C198.919 68.7124 198.039 69.1503 197.159 69.1503C196.279 69.1503 195.399 69.1503 194.518 69.5882C194.078 70.0261 194.078 69.5882 193.638 69.5882C193.198 69.5882 192.758 69.5882 192.318 69.5882C189.237 70.464 186.156 69.5882 183.076 68.7124C183.076 69.1503 182.635 69.5882 182.195 70.0261C182.195 70.0261 181.755 69.5882 182.195 69.5882L182.635 69.1503C183.516 68.2745 183.516 66.5229 183.516 65.2091C183.516 63.8954 183.956 62.1438 184.396 60.83C184.836 59.0784 185.276 57.7647 186.156 56.013C186.596 54.6993 187.477 53.8235 187.917 52.5098C188.357 51.1961 189.677 50.3202 190.117 49.4444C190.997 48.5686 191.878 47.2549 193.198 46.817C194.958 46.379 196.279 45.5032 198.039 44.6274C198.479 44.6274 198.919 44.1895 199.359 44.1895C200.24 44.1895 201.12 43.7516 201.56 43.7516C202 43.7516 202 43.7516 202.44 43.7516C203.32 43.7516 203.761 43.3137 204.641 43.3137C205.961 43.3137 207.281 42.8758 208.602 42C208.602 42 208.602 42 209.042 42C209.922 42 209.042 44.1895 209.042 45.0653Z" fill="#EAE0D1"/>
<path d="M389.928 49.5114C389.487 49.5114 389.047 49.9493 388.607 50.3873C387.727 50.8252 387.287 51.2631 386.407 51.701C385.967 52.1389 385.526 52.1389 385.086 52.1389C383.766 52.5768 382.886 52.1389 382.006 53.0147C382.006 53.0147 382.006 53.0147 381.565 53.0147L381.125 53.0147C381.125 53.0147 380.685 53.0147 380.685 53.4526C379.805 54.3284 378.045 53.8905 376.724 53.8905C375.844 53.8905 374.524 53.8905 373.644 53.4526C372.763 53.0147 371.883 52.1389 371.003 51.701C370.563 51.2631 369.683 51.2631 369.242 50.8252C368.802 50.3873 368.802 50.3873 367.922 49.9493C367.042 49.5114 366.602 49.0735 366.602 48.6356C366.162 48.1977 366.162 46.884 365.281 46.884C364.841 46.884 364.841 46.4461 364.841 46.0082C364.841 45.5703 364.401 45.1324 363.961 44.6945C362.201 42.5049 361.761 39.8774 361.32 36.8121C360.88 36.8121 360.44 36.8121 360 36.3742C360 36.3742 360 35.9363 360.44 35.9363C360.88 35.9363 360.88 35.9363 360.88 35.9363C362.201 36.3742 363.081 35.9363 364.401 35.4984C365.722 35.0605 367.042 35.0605 368.362 34.6225C369.682 34.1846 371.443 34.1846 372.763 34.1846C374.084 34.1846 374.964 34.1846 376.284 34.1846C377.604 34.1846 378.485 34.6225 379.805 35.0605C381.125 35.4984 382.006 35.9363 382.886 36.8121C383.766 37.6879 385.086 38.5637 386.407 39.8774C386.847 40.3154 387.287 40.3153 387.287 40.7533C387.727 41.1912 388.167 41.6291 388.607 42.5049C388.607 42.9428 388.607 42.9428 388.607 43.3807C388.607 43.8186 389.487 44.2565 389.487 45.1323C389.928 46.4461 390.808 47.3219 391.688 47.7598C393.008 49.5114 390.368 49.5114 389.928 49.5114Z" fill="#73A697"/>
<path d="M429.546 12.8661C429.546 16.8072 429.986 20.7484 429.546 24.2517C429.106 26.8791 428.225 29.5066 427.345 31.6961C426.905 32.572 426.905 33.4478 426.025 34.3236C425.585 35.1994 425.145 35.6373 424.705 36.0752C423.824 37.3889 422.944 38.7027 421.184 39.5785C420.303 40.0164 418.983 40.8922 418.103 41.3301C417.223 42.206 416.343 42.2059 415.022 42.6439L414.582 42.6439L414.142 43.0818C413.702 44.3955 412.382 44.8334 411.061 45.7092C410.181 46.1471 409.301 46.1471 408.421 46.1471C407.981 46.1471 406.66 46.1471 406.22 46.1471C405.78 47.023 405.34 47.4609 404.9 48.3367C404.46 48.3367 404.46 47.8988 404.46 47.8988C404.46 47.4609 404.46 47.4609 404.9 47.0229C405.34 46.585 405.34 46.1471 405.78 45.7092C405.34 44.8334 404.46 44.3955 404.02 43.9576C403.579 43.0818 403.139 42.206 403.139 41.3301C403.139 40.8922 403.139 40.0164 403.139 39.5785C403.139 39.1406 402.699 39.1406 402.699 38.7027C402.259 37.8269 402.699 37.389 402.699 36.9511C402.699 36.0752 402.699 35.1994 402.699 34.7615C402.699 33.0099 403.139 31.6961 403.139 29.9445C403.579 27.3171 404.46 24.2517 406.22 22.0622C408.421 18.9968 411.501 16.3693 414.582 14.1798C415.462 13.7419 415.902 13.304 416.783 12.8661C417.223 12.4282 417.663 11.9902 418.543 11.9902C418.983 11.9902 418.983 11.9902 419.423 11.9902C419.863 11.9902 419.863 11.9902 420.304 11.5523C420.744 11.5523 420.744 11.1144 421.184 11.1144C422.064 10.6765 422.504 10.6765 423.384 10.6765C424.264 10.6765 424.705 10.2386 425.145 10.2386C426.465 10.2386 427.345 9.36279 428.665 8.48697C429.106 8.04906 429.546 8.04907 429.986 7.61116C430.426 7.61116 431.306 7.17325 431.306 8.04906C431.306 8.48698 430.866 8.92488 430.866 9.36279C429.986 10.2386 429.986 11.5523 429.546 12.8661Z" fill="#EAE0D1"/>
<path d="M571.48 92.2638C571.48 91.9746 571.76 91.9746 572.04 91.6855C572.32 91.3963 572.32 91.1072 572.6 91.1072C572.88 90.5289 573.16 90.8181 573.44 89.9506C573.44 89.3724 573.44 88.5049 573.72 87.9267C573.72 87.6375 574 87.0592 574 86.7701C574 86.481 573.16 86.1918 573.16 86.481C573.16 85.0353 573.44 83.5896 572.88 82.1439C572.32 80.9873 571.48 80.1199 571.2 78.9633C571.2 78.6742 571.2 78.6742 571.2 78.3851C571.2 78.3851 570.92 78.0959 570.64 78.0959C570.08 77.8068 570.08 76.9394 569.52 76.3611C569.52 76.0719 569.24 75.7828 568.96 75.7828C568.68 75.7828 568.68 76.0719 568.4 76.0719C567.84 76.0719 567.56 75.4937 567.28 74.9154C566.72 74.048 566.16 74.6262 565.32 74.048C565.04 73.7588 564.76 73.4697 564.2 73.1805C563.64 72.8914 563.08 73.1805 562.52 73.1805C562.24 73.1805 561.96 72.8914 561.68 72.6023C561.12 72.3131 560.28 72.6023 559.72 72.3131C557.48 71.7348 554.96 71.1566 553 70C553 71.7348 553.28 73.4697 553.28 75.2045C553.28 76.6502 553.56 77.8068 553.56 79.2525C553.56 80.409 553.84 81.5656 554.12 82.7222C554.68 84.457 555.52 86.1918 556.64 87.6375C556.36 87.9267 556.64 88.5049 556.92 89.0832C557.2 89.3724 557.76 89.6615 558.04 89.9506C558.6 90.5289 558.88 91.3963 559.72 91.6855C560 91.9746 560.56 91.9746 560.84 91.9746C561.12 92.2638 561.68 92.5529 561.68 92.842C562.24 92.842 564.76 92.842 565.04 93.4203C565.04 93.7095 565.04 93.7095 565.04 93.9986C565.04 93.9986 565.32 94.2877 565.6 94.2877C567.28 94.2877 569.8 95.1552 570.92 93.4203L571.2 93.1312C571.2 93.1312 571.2 93.1312 571.48 93.4203C571.76 93.9986 573.44 95.4443 574 94.866C573.16 94.2877 571.2 93.1312 571.48 92.2638Z" fill="#EAE0D1"/>
<path d="M174.231 116.613C174.381 116.365 174.621 116.51 175.01 116.407C175.399 116.305 175.549 116.057 175.788 116.202C176.327 115.852 176.417 116.244 177.105 115.647C177.404 115.152 177.853 114.409 178.392 114.059C178.541 113.812 179.08 113.462 179.229 113.214C179.379 112.967 178.81 112.285 178.66 112.532C179.408 111.295 180.395 110.202 180.664 108.675C180.782 107.396 180.512 106.219 180.871 105.084C181.02 104.837 181.02 104.837 181.17 104.589C181.17 104.589 181.079 104.197 180.84 104.052C180.51 103.515 180.959 102.773 180.779 101.988C180.928 101.741 180.838 101.348 180.598 101.204C180.359 101.059 180.209 101.306 179.969 101.162C179.49 100.872 179.55 100.232 179.609 99.5924C179.578 98.5604 178.8 98.7657 178.38 97.8363C178.29 97.4441 178.2 97.0518 177.87 96.5147C177.54 95.9776 176.912 95.9354 176.432 95.6458C176.193 95.501 176.103 95.1087 176.012 94.7165C175.683 94.1794 174.814 93.9924 174.484 93.4553C172.866 91.8019 171.009 90.0037 169.929 88.0001C169.032 89.4849 168.374 91.1146 167.477 92.5994C166.73 93.8367 166.371 94.9714 165.623 96.2087C165.025 97.1986 164.667 98.3333 164.308 99.468C163.89 101.242 163.712 103.162 163.923 104.978C163.534 105.081 163.474 105.721 163.415 106.36C163.505 106.753 163.835 107.29 163.925 107.682C164.105 108.467 163.896 109.354 164.465 110.036C164.556 110.428 165.035 110.718 165.274 110.862C165.365 111.255 165.694 111.792 165.545 112.039C166.024 112.329 168.181 113.632 168.121 114.272C167.972 114.519 167.972 114.519 167.822 114.767C167.822 114.767 167.913 115.159 168.152 115.304C169.59 116.173 171.298 118.218 173.154 117.313L173.543 117.21C173.543 117.21 173.543 117.21 173.633 117.603C173.574 118.242 174.264 120.348 175.042 120.143C174.623 119.214 173.543 117.21 174.231 116.613Z" fill="#EAE0D1"/>
<path d="M526.504 8.17586C526.122 8.10268 526.193 7.73308 525.882 7.29028C525.571 6.84748 525.19 6.77431 525.26 6.4047C524.568 5.88872 525.02 5.59228 523.946 5.00311C523.183 4.85674 522.038 4.63715 521.345 4.12117C520.964 4.04798 520.271 3.53203 519.89 3.45885C519.508 3.38566 518.914 4.42131 519.295 4.4945C517.387 4.12857 515.55 3.39299 513.499 3.76628C511.831 4.21275 510.473 5.10204 508.876 5.1789C508.494 5.10571 508.494 5.10572 508.112 5.03253C508.112 5.03253 507.66 5.32894 507.589 5.69855C507.066 6.36458 505.921 6.145 505.015 6.73785C504.634 6.66466 504.181 6.96113 504.11 7.33074C504.039 7.70035 504.421 7.77352 504.35 8.14313C504.208 8.88235 503.374 9.10556 502.54 9.3288C501.253 9.84846 501.875 10.734 500.899 11.6965C500.446 11.9929 499.994 12.2894 499.47 12.9554C498.947 13.6214 499.187 14.4338 499.045 15.173C498.974 15.5426 498.522 15.8391 498.069 16.1355C497.546 16.8015 497.715 17.9835 497.191 18.6496C495.861 21.4601 494.46 24.6402 492.437 26.9347C494.727 27.3739 497.088 27.4434 499.378 27.8825C501.286 28.2484 502.884 28.1716 504.792 28.5375C506.319 28.8303 507.917 28.7534 509.514 28.6765C511.946 28.3764 514.449 27.7067 516.641 26.5942C516.951 27.037 517.786 26.8137 518.62 26.5905C519.072 26.2941 519.596 25.6281 520.048 25.3316C520.953 24.7388 522.169 24.5887 522.764 23.5531C523.216 23.2567 523.358 22.5175 523.429 22.1479C523.881 21.8514 524.405 21.1854 524.786 21.2586C524.928 20.5194 525.566 17.1929 526.4 16.9696C526.782 17.0428 526.782 17.0428 527.164 17.116C527.164 17.116 527.616 16.8196 527.687 16.45C528.112 14.2323 529.895 11.1254 527.889 9.20782L527.578 8.76506C527.578 8.76506 527.578 8.76503 528.03 8.46861C528.865 8.24537 531.198 6.39367 530.577 5.50808C529.601 6.47053 527.578 8.76503 526.504 8.17586Z" fill="#73A697"/>
<path d="M101.287 19.7412C101.245 19.4896 101.489 19.4493 101.691 19.1574C101.893 18.8654 101.851 18.6138 102.095 18.5735C102.256 18.0299 102.541 18.2413 102.66 17.446C102.577 16.9427 102.452 16.1877 102.613 15.6441C102.571 15.3924 102.732 14.8488 102.69 14.5971C102.648 14.3454 101.876 14.2146 101.917 14.4662C101.709 13.2079 101.745 11.9093 101.05 10.7315C100.396 9.80531 99.5402 9.1711 99.1302 8.20469C99.0886 7.95302 99.0886 7.95302 99.047 7.70135C99.047 7.70135 98.7617 7.48994 98.518 7.53021C97.989 7.35907 97.8642 6.60406 97.2937 6.18125C97.2521 5.92958 96.9667 5.71818 96.723 5.75845C96.4793 5.79872 96.5209 6.05039 96.2772 6.09065C95.7898 6.17119 95.4629 5.70811 95.136 5.24504C94.5238 4.57056 94.1196 5.15444 93.3053 4.7719C93.02 4.56049 92.7347 4.34909 92.2057 4.17795C91.6766 4.00682 91.2308 4.33902 90.7434 4.41955C90.4997 4.45982 90.2144 4.24842 89.9291 4.03702C89.4001 3.86588 88.7105 4.23835 88.1815 4.06721C86.1486 3.88601 83.872 3.74507 81.9997 3.02025C82.2492 4.53028 82.7424 6.00003 82.9919 7.51005C83.1998 8.7684 83.6098 9.73482 83.8177 10.9932C83.984 11.9999 84.3941 12.9663 84.8041 13.9327C85.541 15.3622 86.5217 16.7514 87.7044 17.8487C87.5023 18.1406 87.8292 18.6037 88.1561 19.0667C88.4414 19.2782 88.9703 19.4493 89.2556 19.6607C89.8262 20.0835 90.1947 20.7982 90.9674 20.9291C91.2527 21.1405 91.7401 21.06 91.9839 21.0197C92.2692 21.2311 92.7982 21.4023 92.8398 21.6539C93.3272 21.5734 95.5206 21.211 95.8475 21.6741C95.8891 21.9257 95.8891 21.9257 95.9307 22.1774C95.9307 22.1774 96.2159 22.3888 96.4597 22.3485C97.9219 22.1069 100.24 22.4995 100.966 20.8285L101.168 20.5365C101.168 20.5365 101.168 20.5365 101.453 20.7479C101.78 21.211 103.45 22.2277 103.854 21.6439C103.04 21.2613 101.168 20.5365 101.287 19.7412Z" fill="#73A697"/>
<path d="M642.117 65.8529L644.318 66.7287L644.758 67.1666C644.758 67.1666 645.198 67.6045 645.638 67.6045C646.958 68.0424 647.839 68.9182 649.159 69.3561C650.479 69.794 651.8 70.232 653.12 70.232C654 70.232 654.44 70.232 655.32 70.232C655.761 70.232 656.201 70.232 656.201 69.794L656.641 69.3561C657.081 69.3561 657.521 69.3561 657.961 69.3561C658.401 69.3561 658.841 69.3561 659.722 69.3561C660.602 68.9182 661.042 68.4803 661.922 68.0424C662.802 67.6045 663.682 67.6045 664.563 67.1666C663.242 68.0424 661.922 69.3561 660.602 70.6699C659.721 71.9836 658.401 73.7352 657.961 75.4869C657.961 75.9248 657.521 76.3627 657.521 76.8006C657.521 77.2385 657.521 77.2385 657.521 77.6764C657.521 78.5522 657.081 78.9901 657.081 79.428C656.641 80.3039 656.641 81.1797 656.641 81.6176C656.641 82.4934 657.081 82.9313 657.081 83.3692C657.081 83.8071 657.081 83.8071 657.081 84.245C657.081 84.6829 657.521 84.6829 657.521 84.6829C657.521 85.1209 657.521 85.1209 657.521 85.5588C657.521 85.9967 657.961 85.9967 657.521 86.4346L657.961 86.4346C658.401 85.9967 658.841 85.9967 659.281 85.9967C660.162 85.9967 660.602 85.5588 661.482 85.5588C662.362 85.5588 663.242 85.5588 664.123 85.1209C664.563 85.1209 665.003 85.1209 665.003 84.6829C665.443 84.6829 665.443 84.245 665.883 84.245L666.323 84.245C666.323 84.245 666.763 84.245 666.763 83.8071C667.643 83.3692 668.084 82.9313 668.964 82.0555L669.404 81.6176L669.844 81.6176C670.284 81.1797 670.724 80.7418 671.164 80.3039C671.604 79.8659 671.604 78.9901 672.045 78.9901C672.925 78.5522 673.365 78.5522 673.805 78.1143C674.245 77.6764 674.245 76.8006 674.685 76.3627C675.125 75.0489 676.446 74.611 676.886 73.7352C677.766 72.4215 677.766 71.1078 678.206 69.794C679.086 67.1666 679.526 64.5391 680.847 62.3496C682.167 60.16 683.927 58.8463 686.128 57.5326C687.008 57.0947 688.328 56.6568 689.209 56.2189C689.649 56.2189 690.529 55.781 690.969 55.781C692.73 55.343 694.05 54.4672 695.81 54.4672C695.37 54.9051 695.37 55.343 694.93 55.343C694.49 55.781 694.05 56.2189 694.05 56.6568C694.05 56.6568 694.05 57.0947 693.61 57.0947C693.61 57.0947 693.61 57.0947 693.17 57.0947C692.289 57.5326 691.409 57.9705 690.529 58.4084C690.089 58.8463 689.209 59.2842 688.769 59.7221C687.888 60.16 687.448 61.0359 687.008 61.4738C686.128 62.3496 685.688 62.7875 684.808 63.6633C683.927 64.1012 683.487 64.977 683.047 65.8529C683.047 66.2908 682.607 66.7287 682.167 67.1666C681.727 67.6045 681.727 68.0424 681.287 68.9182C680.407 71.1078 679.966 73.7352 679.526 75.9248C679.526 76.8006 679.526 77.6764 679.526 78.9901C679.526 79.8659 679.966 80.7418 680.407 81.6176C681.287 83.8071 681.727 85.5588 682.607 87.7483C683.047 85.9967 685.248 85.1208 687.008 84.245C688.328 83.3692 689.649 82.0555 690.529 80.7418C692.289 78.1143 694.05 75.4869 695.37 72.4215C695.81 71.1078 696.691 69.3561 697.131 68.0424C697.571 66.7287 698.011 64.977 698.011 63.2254C698.011 61.9117 697.131 61.0359 696.691 59.7221C696.25 58.8463 695.81 57.9705 694.93 57.0947C694.93 57.0947 694.93 57.0947 694.49 56.6568L694.49 56.2189C694.93 55.781 694.93 55.343 695.37 55.343C695.81 54.9051 695.81 54.4672 696.25 54.4672C696.691 54.0293 697.571 54.0293 698.451 54.0293C700.211 53.5914 701.972 53.5914 703.292 53.1535C705.053 52.7156 706.373 51.8398 708.133 51.4019L708.133 50.964C708.133 51.4019 706.373 51.4019 706.373 51.4019C705.933 51.4019 705.493 51.4019 705.053 51.8398C704.612 51.8398 704.612 52.2777 704.172 52.2777C703.292 52.7156 702.852 53.1535 701.972 53.1535C701.092 53.1535 700.211 53.5914 699.331 53.5914C697.571 54.0293 695.81 54.4672 694.05 54.4672L693.61 54.4672C693.61 54.4672 693.61 54.4672 693.17 54.4672C692.289 54.0293 691.849 53.1535 690.969 52.7156C690.529 52.2777 690.089 51.8398 690.089 51.4019C690.089 50.964 690.089 50.964 690.089 50.5261C690.089 49.6502 689.649 49.2123 689.209 48.3365C688.769 47.8986 688.328 47.8986 688.328 47.4607C687.448 46.5849 687.888 45.2711 687.448 44.3953C687.008 43.0816 686.568 42.2058 685.688 41.33C684.808 40.4542 683.927 39.5783 683.047 39.1404C682.167 38.7025 681.287 37.8267 680.407 37.8267C679.966 37.8267 679.966 37.8267 679.526 37.8267C679.086 37.8267 679.086 37.3888 678.646 37.3888C678.206 37.3888 678.206 37.3888 677.766 37.3888C677.326 37.3888 676.886 37.3888 676.005 37.3888C675.125 37.3888 673.805 37.3888 672.925 37.8267C672.045 37.8267 671.164 38.2646 670.724 38.7025C669.844 39.1404 668.964 40.0162 668.084 40.4542C667.643 40.4542 667.643 40.8921 667.203 40.8921C665.443 41.7679 663.682 42.6437 662.362 43.5195C662.362 43.5195 661.922 43.5195 661.922 43.9574L661.922 44.3953C662.362 45.2712 662.802 46.5849 662.802 47.4607C663.242 48.3365 663.242 49.2123 663.683 50.5261C663.683 50.964 664.123 51.4019 664.123 51.8398C664.563 52.2777 664.563 52.2777 664.563 53.1535L664.563 53.5914C664.563 54.0293 665.443 54.0293 665.443 54.0293C665.883 54.4672 665.883 54.9051 665.883 55.3431C666.323 56.2189 667.203 57.0947 668.084 57.5326C668.964 57.9705 669.844 58.4084 671.164 58.8463C671.604 58.8463 672.045 59.2842 672.485 59.2842C674.245 59.2842 676.005 58.8463 677.766 57.9705C679.526 57.0947 681.287 56.2189 683.047 55.343C684.368 54.4672 686.128 54.0293 687.888 54.0293C689.649 54.0293 691.409 54.9051 691.849 56.2189C690.969 56.6568 689.649 57.0947 688.769 57.0947C687.888 57.5326 687.008 57.9705 686.128 58.4084C683.927 59.7221 681.287 60.598 678.646 61.0359C676.005 61.4738 673.365 61.4738 670.724 62.3496C670.284 62.3496 669.404 62.7875 668.964 62.7875C668.084 62.7875 667.643 62.3496 667.203 61.9117C666.763 61.4738 666.323 61.0359 665.443 61.0359C664.123 60.1601 662.802 60.598 661.482 60.1601C661.042 59.7221 660.602 59.7221 660.162 59.2842C659.281 58.8463 658.401 58.8463 657.081 58.8463C656.201 58.8463 655.32 58.8463 654.44 59.2842C654 59.2842 653.56 59.2842 653.56 59.2842C653.12 59.2842 652.68 59.7221 652.24 60.1601C651.359 60.598 650.479 61.0359 649.599 61.4738L649.159 61.9117C648.719 62.3496 648.279 61.9117 647.398 62.3496C645.638 63.6633 643.878 64.9771 642.117 66.2908L641.677 66.7287C641.677 66.7287 641.677 67.1666 641.237 67.1666C643.438 65.415 642.557 65.415 642.117 65.8529ZM667.203 65.8529C667.203 65.415 667.643 65.415 668.084 64.977L668.524 64.5391C668.964 64.1012 669.404 63.2254 669.844 62.7875C670.284 62.3496 670.284 61.9117 670.724 61.9117C670.724 61.9117 671.164 61.9117 671.604 61.4738C672.485 61.0359 673.805 61.0359 674.685 60.598C676.006 60.1601 676.886 60.16 678.206 59.7221C679.966 59.2842 682.167 58.8463 684.368 58.4084C684.368 58.8463 683.047 60.16 683.047 60.16C682.607 60.598 682.607 61.0359 682.167 61.0359C682.167 61.4738 681.727 61.4738 681.287 61.4738C680.847 61.4738 680.847 61.4738 680.407 61.4738C679.086 61.4738 678.206 61.4738 677.326 61.9117C676.446 61.9117 676.005 62.3496 675.125 62.3496C674.685 62.3496 674.685 62.7875 674.245 62.7875C673.805 62.7875 673.805 62.7875 673.365 62.7875C670.724 64.1012 668.964 64.9771 667.203 65.8529Z" fill="#73A697"/>
<path d="M31.6531 51.3234L32.6544 53.4697L32.6745 54.0903C32.6745 54.0903 32.6946 54.7108 33.015 55.0126C33.6758 56.2366 33.7161 57.4777 34.3769 58.7017C35.0378 59.9258 35.6986 61.1498 36.6597 62.0551C37.3004 62.6586 37.6208 62.9604 38.2615 63.5639C38.5819 63.8657 38.9023 64.1674 39.2025 63.8487L39.8231 63.8317C40.1435 64.1334 40.4639 64.4352 40.7843 64.737C41.1046 65.0387 41.425 65.3405 42.0657 65.944C43.0067 66.2287 43.6273 66.2117 44.5683 66.4965C45.5093 66.7813 46.15 67.3848 47.091 67.6695C45.5294 67.4018 43.6675 67.4528 41.8057 67.5038C40.2642 67.8566 38.1021 68.2264 36.5807 69.1997C36.2804 69.5184 35.6598 69.5354 35.3595 69.8542C35.0593 70.173 35.0593 70.173 34.759 70.4917C34.1585 71.1293 33.5379 71.1463 33.2377 71.4651C32.3168 71.8008 31.7163 72.4383 31.416 72.7571C30.8155 73.3946 30.8357 74.0152 30.5354 74.334C30.2351 74.6527 30.2352 74.6527 29.9349 74.9715C29.6346 75.2902 29.955 75.592 29.955 75.592C29.6547 75.9107 29.6547 75.9107 29.3545 76.2295C29.0542 76.5483 29.3746 76.85 28.754 76.867L29.0743 77.1688C29.695 77.1518 30.0153 77.4536 30.3357 77.7554C30.9764 78.3589 31.5971 78.3419 32.2378 78.9454C32.8785 79.5489 33.5192 80.1524 34.4602 80.4372C34.7806 80.7389 35.1009 81.0407 35.4012 80.7219C35.7216 81.0237 36.0219 80.7049 36.3422 81.0067L36.6626 81.3084C36.6626 81.3084 36.9829 81.6102 37.2832 81.2915C38.2242 81.5762 38.8448 81.5592 40.086 81.5252L40.7066 81.5082L41.027 81.8099C41.6476 81.7929 42.2683 81.7759 42.8889 81.7589C43.5095 81.7419 44.11 81.1044 44.4304 81.4062C45.3714 81.6909 45.6917 81.9927 46.3123 81.9756C46.9329 81.9586 47.5335 81.3212 48.1541 81.3041C49.3752 80.6496 50.6366 81.2361 51.5575 80.9004C53.099 80.5476 53.9997 79.5912 55.2208 78.9367C57.6631 77.6276 59.785 76.0168 62.2474 75.3283C64.7097 74.6397 66.8919 74.8905 69.3945 75.443C70.3355 75.7277 71.5969 76.3142 72.5378 76.599C72.8582 76.9008 73.7992 77.1855 74.1196 77.4873C75.7013 78.3756 77.2629 78.6433 78.5444 79.8504C77.9237 79.8674 77.6235 80.1861 77.3031 79.8844C76.6825 79.9014 76.0619 79.9184 75.7616 80.2372C75.7616 80.2372 75.4614 80.5559 75.141 80.2541C75.141 80.2541 75.141 80.2542 74.8207 79.9524C73.8797 79.6677 72.9387 79.3829 71.9977 79.0981C71.3771 79.1151 70.4361 78.8304 69.8155 78.8474C68.8745 78.5626 67.9536 78.8984 67.333 78.9154C66.0917 78.9494 65.4711 78.9664 64.2299 79.0004C63.2889 78.7157 62.368 79.0514 61.4471 79.3872C61.1469 79.706 60.5263 79.723 59.9057 79.74C59.285 79.757 58.9848 80.0758 58.0639 80.4115C55.9219 81.4018 53.8 83.0127 51.9784 84.3047C51.3779 84.9423 50.7773 85.5798 49.8766 86.5361C49.2761 87.1736 48.9959 88.1129 48.7158 89.0522C47.8553 91.2495 46.9746 92.8264 46.1141 95.0237C47.6354 94.0504 49.8378 94.9217 51.7198 95.4912C53.2814 95.759 55.1432 95.708 56.6847 95.3552C59.7677 94.6496 62.8507 93.9441 65.9136 92.618C67.1347 91.9635 68.9765 91.2919 70.1976 90.6374C71.4187 89.9829 72.9401 89.0095 74.1411 87.7345C75.0419 86.7782 75.0017 85.5372 75.5821 84.2791C75.8622 83.3398 76.1423 82.4005 76.1021 81.1594C76.1021 81.1594 76.1021 81.1595 76.082 80.5389L76.3823 80.2202C77.0029 80.2032 77.3031 79.8844 77.6235 80.1861C78.2441 80.1691 78.5444 79.8504 78.8647 80.1521C79.4854 80.1351 80.1261 80.7387 80.7668 81.3422C82.3485 82.2305 83.63 83.4375 84.8914 84.024C86.4731 84.9123 88.0347 85.18 89.6164 86.0683L89.9166 85.7495C89.6164 86.0683 88.3349 84.8613 88.3349 84.8613C88.0146 84.5595 87.6942 84.2578 87.0736 84.2748C86.7532 83.973 86.453 84.2918 86.1326 83.99C85.1916 83.7053 84.571 83.7223 83.9303 83.1187C83.2895 82.5152 82.3485 82.2304 81.7078 81.6269C80.1261 80.7386 78.5444 79.8504 77.2629 78.6433L76.9425 78.3415C76.9425 78.3415 76.9425 78.3416 76.6222 78.0398C76.2817 77.1175 76.5618 76.1782 76.2214 75.2559C76.2013 74.6354 76.1812 74.0149 76.4814 73.6961C76.7817 73.3774 76.7817 73.3774 77.0819 73.0586C77.6824 72.4211 77.6623 71.8005 77.9424 70.8612C77.9223 70.2407 77.6019 69.9389 77.9022 69.6202C77.862 68.3791 79.0831 67.7246 79.3633 66.7853C79.9437 65.5272 80.2238 64.588 80.1836 63.3469C80.1434 62.1059 80.1031 60.8648 79.7626 59.9425C79.4222 59.0202 79.3819 57.7791 78.7412 57.1756C78.4208 56.8738 78.4208 56.8739 78.1005 56.5721C77.7801 56.2703 78.0804 55.9516 77.76 55.6498C77.4396 55.3481 77.4396 55.3481 77.1193 55.0463C76.7989 54.7445 76.4785 54.4428 75.8378 53.8392C75.197 53.2357 74.236 52.3304 73.295 52.0457C72.6542 51.4422 71.7133 51.1574 71.0926 51.1744C70.1516 50.8896 68.9104 50.9237 67.9694 50.6389C67.6491 50.3372 67.3488 50.6559 67.0284 50.3541C65.1465 49.7846 63.2645 49.2151 61.7029 48.9474C61.7029 48.9474 61.3825 48.6456 61.0823 48.9644L60.782 49.2831C60.5019 50.2224 59.9215 51.4805 59.321 52.118C59.0408 53.0573 58.4403 53.6949 57.8599 54.9529C57.5597 55.2717 57.5798 55.8922 57.2795 56.211C57.2996 56.8315 57.2997 56.8315 56.6991 57.469L56.3989 57.7878C56.0986 58.1066 56.7394 58.7101 56.7394 58.7101C56.7595 59.3306 56.4592 59.6494 56.159 59.9682C55.8788 60.9075 55.9191 62.1485 56.2595 63.0708C56.6 63.9931 56.9405 64.9154 57.6013 66.1394C57.9217 66.4412 57.9418 67.0617 58.2622 67.3635C59.5437 68.5705 61.1254 69.4588 63.0073 70.0283C64.8893 70.5978 66.7713 71.1673 68.6532 71.7368C70.2149 72.0046 71.7966 72.8929 73.0781 74.0999C74.3595 75.307 75.0405 77.1515 74.4601 78.4096C73.5191 78.1248 72.2577 77.5383 71.617 76.9348C70.676 76.65 69.735 76.3653 68.794 76.0805C66.2914 75.528 63.7687 74.355 61.5463 72.8632C59.3238 71.3714 57.4016 69.5608 54.8789 68.3878C54.5586 68.086 53.6176 67.8013 53.2972 67.4995C52.6565 66.896 52.6363 66.2754 52.6162 65.6549C52.5961 65.0344 52.576 64.4139 51.9353 63.8103C51.5747 62.2675 50.3134 61.681 49.6525 60.457C49.6324 59.8364 49.312 59.5347 49.2919 58.9142C48.9514 57.9919 48.3107 57.3883 47.3496 56.4831C46.7089 55.8795 46.0681 55.276 45.1272 54.9912C44.8068 54.6895 44.4864 54.3877 44.4864 54.3877C44.1661 54.086 43.5454 54.103 42.9248 54.12C41.9838 53.8352 41.0428 53.5504 40.1018 53.2657L39.4812 53.2827C38.8606 53.2997 38.8405 52.6792 37.8995 52.3944C35.7173 52.1437 33.5351 51.8929 31.3528 51.6422L30.7322 51.6592C30.7322 51.6592 30.432 51.978 30.1116 51.6762C32.9144 51.9099 32.2737 51.3064 31.6531 51.3234ZM49.9139 68.5238C50.2142 68.205 50.5346 68.5068 51.1552 68.4898L51.7758 68.4728C52.3964 68.4558 53.3173 68.12 53.9379 68.103C54.5586 68.086 54.8588 67.7672 55.1792 68.069C55.1792 68.069 55.4995 68.3707 56.1201 68.3537C57.0611 68.6385 58.0223 69.5438 58.9633 69.8286C60.2246 70.4151 60.8653 71.0186 62.1267 71.6051C63.7084 72.4934 65.6105 73.6834 67.5126 74.8735C67.2123 75.1922 65.3504 75.2433 65.3504 75.2433C64.7298 75.2603 64.4296 75.579 64.1092 75.2773C63.809 75.596 63.4886 75.2943 63.1682 74.9925C62.8479 74.6908 62.8478 74.6907 62.5275 74.389C61.5664 73.4837 60.9257 72.8802 59.9847 72.5954C59.3439 71.9919 58.7233 72.0089 58.0826 71.4054C57.7622 71.1036 57.462 71.4224 57.1416 71.1206C56.8212 70.8189 56.8212 70.8189 56.5009 70.5171C53.6779 69.6628 51.7959 69.0933 49.9139 68.5238Z" fill="#73A697"/>
</g>
</svg>
